<svg id="Capa_1" data-name="Capa 1" xmlns="http://www.w3.org/2000/svg" xmlns:xlink="http://www.w3.org/1999/xlink" viewBox="0 0 500 500"><defs><style>.cls-1{fill:#f3988c;}.cls-2{fill:#381b13;}.cls-3{clip-path:url(#clip-path);}.cls-4{fill:#1d1d1b;opacity:0.15;}.cls-5{fill:#f5ba8f;}.cls-6{fill:#fcbd91;}.cls-7{fill:#efb58c;}.cls-8{fill:#d57b5a;}.cls-9{fill:#2d1b11;}.cls-10{fill:#1c1714;}</style><clipPath id="clip-path"><path class="cls-1" d="M389,396.82c-14.3,1-28.61,1.94-42.9,3-8.71.64-17.42,1.37-26.14,1.81-1,.44-1.45-.29-1.92-.89-3.26-4.24-6.93-8.13-10.2-12.36-2.5-3.25-5.67-5-9.91-4.8-3.2.16-6.42,0-9.62.08-.42,0-.85,0-1.27.06l-.46,0c-4.33.13-8.65.32-13,.5a172.71,172.71,0,0,1-18.06-.07c-3.48-.22-7-.31-10.44-.76-7.76-1-15.52-2-23.26-3.18-11-1.62-21.84-3.73-32.79-5.44-7.49-1.17-15-2.62-22.46-3.66-1.62-.22-3.26,0-4.87-.26l-.31-.07-.55-.11h0a7.73,7.73,0,0,1-1.42-.34,2.91,2.91,0,0,1-.24-.27v0c-.66-.91.09-1.66.62-2.37,6.2-8.22,11.64-17,17.48-25.44,1.47-2.13,1.3-2.38-1-3.7a51,51,0,0,1-17-15.39c-1.08-1.59-2.18-3.17-3.21-4.8a52.28,52.28,0,0,0-9.4-11.35,3.55,3.55,0,0,1-.7-.75,1.37,1.37,0,0,1-.13-.2c-1.15-1.86-3-3.12-4.35-4.8a14.42,14.42,0,0,1-3.64-10.09c.17-3.67.07-7.35.11-11s1.37-5.58,5.1-6.63c4-1.11,8.11-1.05,12.18-1.35,13.69-1,27.38-2,41.08-2.84a103.71,103.71,0,0,1,20.91.64,9.33,9.33,0,0,1,3.46,1,3.52,3.52,0,0,1,.3.45c.61,1,.91,2.09,1.59,3a14.67,14.67,0,0,0,3.17,2.92c.86.63,1.95,1.11,2.34,2.21a3.37,3.37,0,0,1,.12.48c-2.41,4.44-5,8.8-7.2,13.33-2.87,5.82-5.91,11.62-6.89,18.16-1.69,11.33,1.43,21.28,9,29.76,8.77,9.84,20.07,14.21,33,14.65a18.46,18.46,0,0,0,6.41-1c.51-.16,1.4-.12,1.11-1-.21-.66-.87-.4-1.41-.28-17.07,3.6-37-6.49-44.09-22.36-4.25-9.44-4.06-18.92-.12-28.4.19-.47.26-1.08,1.08-1.28a77.31,77.31,0,0,0-.66,9.07c0,14.85,6.81,25.66,19.6,32.8a59.39,59.39,0,0,0,35.75,7.13c1-.1,2.62.26,2.6-1.16s-1.64-.82-2.52-.9c-7.6-.65-14.55-2.92-20.21-8.21A28.25,28.25,0,0,1,250.48,303a44.38,44.38,0,0,1,3.45-4.17c2.63-2.83,5.25-5.65,7.6-8.71h.53a62.87,62.87,0,0,0,15.57-1.79,76.29,76.29,0,0,0,16.27-6.41c3.36-1.76,6.66-3.63,9.87-5.66,1.7-1.07,3-2.65,4.69-3.66s2.43-.94,3,1c3.17,10.36,8.39,19.69,14.26,28.71,2.5,3.84,5.16,7.54,8,11.16,3,3.8,5.22,8.09,7.77,12.18s4.83,8.47,7.39,12.62c2.31,3.74,4.47,7.57,6.82,11.28,4.33,6.82,9.12,13.31,14,19.74,2.69,3.54,5.29,7.18,7.9,10.79,3.58,4.92,7.19,9.82,11.23,14.38C389.46,395.15,390.29,395.94,389,396.82Z"/></clipPath></defs><path class="cls-2" d="M391.24,223.06c-2.44-3.93-6-6.73-9.57-9.48-9.2-7.1-14.41-16.34-15.29-27.94a136.59,136.59,0,0,1,.23-15.54c.33-8.57.37-17.12-1.78-25.52-3.34-13.08-11.12-22-24.17-26.15a141,141,0,0,0-15.4-3.87c-8.67-1.71-16.87-4.52-23.83-10.15-4.82-3.9-9.44-8-14.41-11.77C273.51,82.53,259,80.16,243.33,87c-10.72,4.72-19.1,12-23.55,23.19-.68,1.71-1.95,2.26-3.62,2.49A62.18,62.18,0,0,0,181.79,129c-10.18,9.38-15.53,21.39-18.67,34.59-2.76,11.6-3.39,23.46-4.3,35.29-.43,5.58-.68,11.2-2,16.66-3.93,15.71-13.52,27.43-26.25,36.9-5.75,4.27-12.12,7.65-17.78,12-7,5.49-12.72,12-14.9,20.93-2,8.14-.71,15.49,6,21.2a43.27,43.27,0,0,0,9.57,6.09c1.36.65,2.76,1.19,4.15,1.76.64.26,1.32.4,1.77-.33s-.21-1.22-.65-1.66c-.6-.59-1.25-1.13-1.9-1.67-3.73-3.18-6.58-6.89-7-12-.56-7.21,3.11-14.78,12-18.26.51-.21,1.12-.9,1.62-.37s-.14,1.11-.35,1.63c-2.52,6.08-4.06,12.36-3.59,19a18.89,18.89,0,0,0,8.18,14.81,33.31,33.31,0,0,0,6,3.21c.94.16,1.41-.55,1.91-1.11q5.2-5.79,10.38-11.62c-1.15-1.86-3-3.12-4.35-4.8a14.42,14.42,0,0,1-3.64-10.09c.17-3.67.07-7.35.11-11s1.37-5.58,5.1-6.63c4-1.11,8.11-1.05,12.18-1.35,13.69-1,27.38-2,41.08-2.84a103.71,103.71,0,0,1,20.91.64,9.33,9.33,0,0,1,3.46,1c3.09.41,6.19.78,9.27,1.25,2,.31,2.29,1.15,1.23,2.92s-1.58,3.51-3,4.9c-2.41,4.44-5,8.8-7.2,13.33-2.87,5.82-5.91,11.62-6.89,18.16-1.69,11.33,1.43,21.28,9,29.76,8.77,9.84,20.07,14.21,33,14.65a18.46,18.46,0,0,0,6.41-1c.51-.16,1.4-.12,1.11-1-.21-.66-.87-.4-1.41-.28-17.07,3.6-37-6.49-44.09-22.36-4.25-9.44-4.06-18.92-.12-28.4.19-.47.26-1.08,1.08-1.28a77.31,77.31,0,0,0-.66,9.07c0,14.85,6.81,25.66,19.6,32.8a59.39,59.39,0,0,0,35.75,7.13c1-.1,2.62.26,2.6-1.16s-1.64-.82-2.52-.9c-7.6-.65-14.55-2.92-20.21-8.21A28.25,28.25,0,0,1,250.48,303a44.38,44.38,0,0,1,3.45-4.17c2.63-2.83,5.25-5.65,7.6-8.71h0c6.39-10.89,6.4-22.48,3.7-34.36-1.53-3.06-3.09-6.1-5.75-8.39-3.14-1.86-6.36-3.61-9.42-5.61-8.64-5.62-15.52-13-21.37-21.43-.58-.84-1.14-1.68-1.72-2.53-3.64-4.66-5.83-10.07-7.95-15.52-1.11-2.85-2.14-5.75-3.22-8.62a4.91,4.91,0,0,1-.14-3.69c4.18-10.72,5-21.87,4.2-33.23-.27-3.91-.55-7.81-1.15-11.68a7,7,0,0,1-.05-1.45c.1-1.69.83-2.13,2.16-1.12,4.57,3.47,10,4.66,15.4,5.86,10,2.23,20.26,2.79,30.49,3.28,4.51.21,9,.29,13.55.45.95,0,1.74.07,2.32,1.2s1.74.9,2.22-.25,1.17-1.14,2.13-1.17c9.62-.22,19.09-1.42,28.12-5,1.4-.54,2,.16,2.58,1.15a125.6,125.6,0,0,1,12.26,26.07,156.87,156.87,0,0,1,4.93,15.84,14.83,14.83,0,0,1,1,3.52c.29.36.41.91,1,.94.72-.55,1.4-1.14,2.15-1.64a5.48,5.48,0,0,1,7.14.35,10.65,10.65,0,0,0,5.76,2.66,6.86,6.86,0,0,1,5.34,4.15c1.17,2.57,2.77,4.58,5.64,5.41.81.24,1.77.83.75,2,.81,2.75.71,5.6.83,8.43.17,4,.39,8.06.5,12.1A23,23,0,0,1,360.89,242c-1.41,2-2.72,4.11-4.07,6.17,1.1.68,2.23.14,3.35.08a106.61,106.61,0,0,1,16.18.52c.93.09,1.89.47,2.8-.13l.13,0c.83-1.48.41-3.08.28-4.63a22.52,22.52,0,0,0-3.21-9.25,11.32,11.32,0,0,1,5.48,5.21c1.83,3.07,2.28,6.48,2.5,10l.28.08c1.48,1.26,3.35,1.76,5.11,2.47q1.18-2,2.38-4C397.29,239.79,396.41,231.37,391.24,223.06ZM255.83,289.75a18.13,18.13,0,0,1,2.29-3.64,59,59,0,0,0,6.07-11.22,3.18,3.18,0,0,1,1-1.7c-.49,6.51-1.86,12.42-6.12,17.32-.91,2-2.62,3.41-4,5-1.84,2.06-3.79,4-5.43,6.25-.27.36-.49.85-1.33.76A76.29,76.29,0,0,1,255.83,289.75Z"/><path class="cls-2" d="M248.28,302.53a76.29,76.29,0,0,1,7.55-12.78,18.13,18.13,0,0,1,2.29-3.64,59,59,0,0,0,6.07-11.22,3.18,3.18,0,0,1,1-1.7c-.49,6.51-1.86,12.42-6.12,17.32-.91,2-2.62,3.41-4,5-1.84,2.06-3.79,4-5.43,6.25C249.34,302.13,249.12,302.62,248.28,302.53Z"/><path class="cls-2" d="M379.15,248.6l.13,0-.16.26a3.78,3.78,0,0,1-2.79.41,92.85,92.85,0,0,0-17.64-.4,2,2,0,0,1-1.84-.51c0-.07-.07-.14-.1-.2a.43.43,0,0,0,0,0c-.22-.68.28-1.19.6-1.71.85-1.39,1.74-2.75,2.7-4.07a22.42,22.42,0,0,0,4.44-13.51c0-3.42,0-6.87-.33-10.28-.34-3.66,0-7.35-.79-11a1.43,1.43,0,0,0,.06-.39,1.16,1.16,0,0,0,0-.37,1.53,1.53,0,0,0-1.19-1.34,8.48,8.48,0,0,1-5.08-4.85,7.46,7.46,0,0,0-6-4.59,9.44,9.44,0,0,1-4.54-2.08c-3.06-2.5-5-2.51-8.31-.23a3.3,3.3,0,0,1-1.42.75h-.13a1.14,1.14,0,0,1-.54-.16h0a.88.88,0,0,1-.24-.19,2.31,2.31,0,0,1-.41-.58c-.42-1-.6-2.05-.94-3.07a2.42,2.42,0,0,0-.12-.35l-.15-.37a199.24,199.24,0,0,0-8.81-25.63,119.38,119.38,0,0,0-8-15.39,2.17,2.17,0,0,0-3-1.13,77.57,77.57,0,0,1-20.09,4.31c-2.28.19-4.56.25-6.84.45a3.55,3.55,0,0,0-2.6,1,1.87,1.87,0,0,1-3,0,3.54,3.54,0,0,0-2.81-1c-6.94.2-13.85-.36-20.75-.78-9.87-.59-19.68-1.74-29.22-4.58a26.58,26.58,0,0,1-7.54-3.41c-.61-.42-1.26-1.22-2.07-.71s-.5,1.4-.4,2.17a151,151,0,0,1,1.33,20.72,69,69,0,0,1-4.1,23.38,6.56,6.56,0,0,0,0,4.89c2.16,5.62,4,11.36,6.76,16.75a45.2,45.2,0,0,0,3.82,6.34,3.62,3.62,0,0,0,.22.32,1.73,1.73,0,0,0,.19.28c7.79,11.72,17.41,21.49,30.16,27.89a18.9,18.9,0,0,1,2.11,1.41l.06,0c.21.17.4.35.59.53a21.73,21.73,0,0,1,4.84,7.34c0,.11.09.21.13.32s.21.48.31.72a26.06,26.06,0,0,1,1.49,8.68c0,4.21.37,8.43-.4,12.62a36.42,36.42,0,0,1-4.73,12.74l0,.05c-.06.08-.11.16-.17.23-2.87,4-6.44,7.38-9.62,11.12-8.67,10.22-9.17,25.12-1,35.4,5.5,6.93,13,10.13,21.62,11a18.46,18.46,0,0,1,2.86.43c.55.15,1,.39,1.07,1.05a1.26,1.26,0,0,1-1,1.34,14.62,14.62,0,0,1-3.92.65c-13,.65-25.19-1.93-36.31-8.85-9.11-5.66-14.94-13.68-16.89-24.34a45.4,45.4,0,0,1-.61-7.74c0-2.54.36-5,.49-7.5-1.56,4.23-3,8.61-3,13.2a33.69,33.69,0,0,0,4.45,17.5c6.45,10.9,16.16,17.11,28.42,19.61,4.53.92,9.06,1.29,13.6,0,.79-.22,1.7-.3,1.93.71s-.68,1.33-1.43,1.52a28.27,28.27,0,0,1-11.11.63c-8.64-1.27-16.64-4.09-23.44-9.67-7.72-6.34-13-14.28-14.32-24.35a38.28,38.28,0,0,1,3.46-21.48c3.28-7.13,6.92-14.05,10.86-20.82a.47.47,0,0,0,.06-.09.9.9,0,0,0,.15-.19,43.49,43.49,0,0,0,2.55-4.33c.91-1.56.58-2.29-1.23-2.58-2.8-.45-5.62-.82-8.42-1.23l-.23,0-.39-.06a46,46,0,0,0-12.34-1.59c-9.71-.26-19.37.58-29.05,1.32-7.68.59-15.37,1.14-23.07,1.59a90.82,90.82,0,0,0-11.15,1.05c-4.74.87-6.37,2.8-6.38,7.63,0,2.78.19,5.57-.05,8.32-.48,5.53,1.8,9.82,5.55,13.57a10,10,0,0,1,2,2.3,1.36,1.36,0,0,1,.1.64.59.59,0,0,1,0,.14,2.51,2.51,0,0,1-.61,1c-3,3.56-6.32,6.93-9.39,10.46-.59.69-1.22,1.6-2.42,1.07.94.16,1.41-.55,1.91-1.11q5.2-5.79,10.38-11.62c-1.15-1.86-3-3.12-4.35-4.8a14.42,14.42,0,0,1-3.64-10.09c.17-3.67.07-7.35.11-11s1.37-5.58,5.1-6.63c4-1.11,8.11-1.05,12.18-1.35,13.69-1,27.38-2,41.08-2.84a103.71,103.71,0,0,1,20.91.64,9.33,9.33,0,0,1,3.46,1c3.09.41,6.19.78,9.27,1.25,2,.31,2.29,1.15,1.23,2.92s-1.58,3.51-3,4.9c-2.41,4.44-5,8.8-7.2,13.33-2.87,5.82-5.91,11.62-6.89,18.16-1.69,11.33,1.43,21.28,9,29.76,8.77,9.84,20.07,14.21,33,14.65a18.46,18.46,0,0,0,6.41-1c.51-.16,1.4-.12,1.11-1-.21-.66-.87-.4-1.41-.28-17.07,3.6-37-6.49-44.09-22.36-4.25-9.44-4.06-18.92-.12-28.4.19-.47.26-1.08,1.08-1.28a77.31,77.31,0,0,0-.66,9.07c0,14.85,6.81,25.66,19.6,32.8a59.39,59.39,0,0,0,35.75,7.13c1-.1,2.62.26,2.6-1.16s-1.64-.82-2.52-.9c-7.6-.65-14.55-2.92-20.21-8.21A28.25,28.25,0,0,1,250.48,303a44.38,44.38,0,0,1,3.45-4.17c2.63-2.83,5.25-5.65,7.6-8.71h0c6.39-10.89,6.4-22.48,3.7-34.36-1.53-3.06-3.09-6.1-5.75-8.39-3.14-1.86-6.36-3.61-9.42-5.61-8.64-5.62-15.52-13-21.37-21.43-.58-.84-1.14-1.68-1.72-2.53-3.64-4.66-5.83-10.07-7.95-15.52-1.11-2.85-2.14-5.75-3.22-8.62a4.91,4.91,0,0,1-.14-3.69c4.18-10.72,5-21.87,4.2-33.23-.27-3.91-.55-7.81-1.15-11.68a7,7,0,0,1-.05-1.45c.1-1.69.83-2.13,2.16-1.12,4.57,3.47,10,4.66,15.4,5.86,10,2.23,20.26,2.79,30.49,3.28,4.51.21,9,.29,13.55.45.95,0,1.74.07,2.32,1.2s1.74.9,2.22-.25,1.17-1.14,2.13-1.17c9.62-.22,19.09-1.42,28.12-5,1.4-.54,2,.16,2.58,1.15a125.6,125.6,0,0,1,12.26,26.07,156.87,156.87,0,0,1,4.93,15.84,14.83,14.83,0,0,1,1,3.52c.29.36.41.91,1,.94.72-.55,1.4-1.14,2.15-1.64a5.48,5.48,0,0,1,7.14.35,10.65,10.65,0,0,0,5.76,2.66,6.86,6.86,0,0,1,5.34,4.15c1.17,2.57,2.77,4.58,5.64,5.41.81.24,1.77.83.75,2,.81,2.75.71,5.6.83,8.43.17,4,.39,8.06.5,12.1A23,23,0,0,1,360.89,242c-1.41,2-2.72,4.11-4.07,6.17,1.1.68,2.23.14,3.35.08a106.61,106.61,0,0,1,16.18.52C377.28,248.82,378.24,249.2,379.15,248.6Z"/><path class="cls-2" d="M389.72,252.48a6.79,6.79,0,0,1-5.39-2.49v-.06l.28.08C386.09,251.27,388,251.77,389.72,252.48Z"/><path class="cls-1" d="M389,396.82c-14.3,1-28.61,1.94-42.9,3-8.71.64-17.42,1.37-26.14,1.81-1,.44-1.45-.29-1.92-.89-3.26-4.24-6.93-8.13-10.2-12.36-2.5-3.25-5.67-5-9.91-4.8-3.2.16-6.42,0-9.62.08-.42,0-.85,0-1.27.06l-.46,0c-4.33.13-8.65.32-13,.5a172.71,172.71,0,0,1-18.06-.07c-3.48-.22-7-.31-10.44-.76-7.76-1-15.52-2-23.26-3.18-11-1.62-21.84-3.73-32.79-5.44-7.49-1.17-15-2.62-22.46-3.66-1.62-.22-3.26,0-4.87-.26l-.31-.07-.55-.11h0a7.73,7.73,0,0,1-1.42-.34,2.91,2.91,0,0,1-.24-.27v0c-.66-.91.09-1.66.62-2.37,6.2-8.22,11.64-17,17.48-25.44,1.47-2.13,1.3-2.38-1-3.7a51,51,0,0,1-17-15.39c-1.08-1.59-2.18-3.17-3.21-4.8a52.28,52.28,0,0,0-9.4-11.35,3.55,3.55,0,0,1-.7-.75,1.37,1.37,0,0,1-.13-.2c-1.15-1.86-3-3.12-4.35-4.8a14.42,14.42,0,0,1-3.64-10.09c.17-3.67.07-7.35.11-11s1.37-5.58,5.1-6.63c4-1.11,8.11-1.05,12.18-1.35,13.69-1,27.38-2,41.08-2.84a103.71,103.71,0,0,1,20.91.64,9.33,9.33,0,0,1,3.46,1,3.52,3.52,0,0,1,.3.45c.61,1,.91,2.09,1.59,3a14.67,14.67,0,0,0,3.17,2.92c.86.63,1.95,1.11,2.34,2.21a3.37,3.37,0,0,1,.12.48c-2.41,4.44-5,8.8-7.2,13.33-2.87,5.82-5.91,11.62-6.89,18.16-1.69,11.33,1.43,21.28,9,29.76,8.77,9.84,20.07,14.21,33,14.65a18.46,18.46,0,0,0,6.41-1c.51-.16,1.4-.12,1.11-1-.21-.66-.87-.4-1.41-.28-17.07,3.6-37-6.49-44.09-22.36-4.25-9.44-4.06-18.92-.12-28.4.19-.47.26-1.08,1.08-1.28a77.31,77.31,0,0,0-.66,9.07c0,14.85,6.81,25.66,19.6,32.8a59.39,59.39,0,0,0,35.75,7.13c1-.1,2.62.26,2.6-1.16s-1.64-.82-2.52-.9c-7.6-.65-14.55-2.92-20.21-8.21A28.25,28.25,0,0,1,250.48,303a44.38,44.38,0,0,1,3.45-4.17c2.63-2.83,5.25-5.65,7.6-8.71h.53a62.87,62.87,0,0,0,15.57-1.79,76.29,76.29,0,0,0,16.27-6.41c3.36-1.76,6.66-3.63,9.87-5.66,1.7-1.07,3-2.65,4.69-3.66s2.43-.94,3,1c3.17,10.36,8.39,19.69,14.26,28.71,2.5,3.84,5.16,7.54,8,11.16,3,3.8,5.22,8.09,7.77,12.18s4.83,8.47,7.39,12.62c2.31,3.74,4.47,7.57,6.82,11.28,4.33,6.82,9.12,13.31,14,19.74,2.69,3.54,5.29,7.18,7.9,10.79,3.58,4.92,7.19,9.82,11.23,14.38C389.46,395.15,390.29,395.94,389,396.82Z"/><g class="cls-3"><path class="cls-4" d="M410.73,355.61c-.51-.55-1-1.12-1.48-1.67a113.39,113.39,0,0,1-8-14.06c-9.73-26.51-12-55-18.49-82.33-2.59-10.89-11.38-21.61-20.91-27.19-9.76-5.71-24.13-8.13-35.06-4.59-1.21.39-23.9,7-28.89,24.95-3.55,12.79,3.71,24.74,10.3,35.6,44.39,73.13,51.66,85.78,47.49,91.92-3.7,5.44-12.82.52-52.09-1.53-27.34-1.43-26.55.76-52.85-.77-6.22-.36-14.45-1-62-6.89-17.34-2.16-31.81-4-42.13-5.36-2.14-10.93-5.38-13.25-7.49-13.72-7-1.56-17.76,13.36-20.91,27.19-2.65,11.65-2.08,24.72,4.59,35.06,6.3,9.77,15.57,18.14,27.19,20.91,27.84,6.64,57.17,9.71,85.75,7.32,26.27-2.19,51.55-8.91,77.44-13a135.22,135.22,0,0,1,22.76-.52c14.08,2.92,28.12,8.28,42.64,6.37,8.08-1.06,15.77-2,23-6.21a45,45,0,0,0,18.61-21.76C427.4,388.09,423.3,369.3,410.73,355.61Z"/></g><path class="cls-5" d="M437.44,380.35A34.92,34.92,0,0,1,433.23,396c-.45.83-.8,1.71-1.19,2.57-2-.74-3.88-1.6-5.84-2.36-6.86-2.69-13.33-1.42-19.56,1.89a43.3,43.3,0,0,0-6.13,4.42c-.79.62-1.09,1.56-1.75,2.25a42.3,42.3,0,0,1-7.67-6.78c-.58-.61-1.13-1.27-2.09-1.21.48-.73.26-1.29-.31-1.91-4.84-5.28-8.92-11.15-13.13-16.93-5-6.83-10.16-13.54-15.09-20.42-2.72-3.79-5.19-7.77-7.63-11.75-3-4.85-5.94-9.74-8.72-14.71q-4.61-8.22-9.83-16.05c-2.33-3.48-5.16-6.61-7.44-10.15-4.39-6.81-8.74-13.64-12-21.12A61.5,61.5,0,0,1,311,273.53c-.28-1.2-.86-1.73-2.1-.74a70.59,70.59,0,0,1-8.45,6,114.12,114.12,0,0,1-16.14,7.88,57.63,57.63,0,0,1-21.12,3.86,2.78,2.78,0,0,1-1.35-.13,1.12,1.12,0,0,1-.32-.27h0c6.39-10.89,6.4-22.48,3.7-34.36-.14-.41-.11-.65,0-.72s.34,0,.61.19c.78.55,1.54,1.15,2.31,1.72,5.73,4.23,12.27,6.79,18.91,9.09,3.28,1.14,6.59,2.26,10,3.12a2.34,2.34,0,0,1,1.82,1.31,2.27,2.27,0,0,1,.19,1.05v.14c.17.53.44.57.61,0a23.32,23.32,0,0,0,.79-3.71c.64-4.17,1.65-8.28,2-12.49a4.77,4.77,0,0,1,3-4.31c1.94-.84,3.81-1.83,5.7-2.76.53-.26,1.13-.68,1.69-.25a.46.46,0,0,1,.07.07h0c.47.44.17,1.07,0,1.61-.78,3-1.53,6-2,9a87,87,0,0,0-.93,10.93c.46-2.24.69-4.5.94-6.76a63,63,0,0,1,9.92-27.49c3.53-5.47,6.83-11.08,10.12-16.68.1-.16.2-.32.29-.49s.36-.57.52-.86a94.58,94.58,0,0,0,6.33-12.79c-1.1.51-1.41,1.39-2.44,1.13-.81-.21-.86.75-.84,1.29.08,3.68-1.59,6.72-3.42,9.72l-.09.15-.12.19a4.77,4.77,0,0,1-.36.62c-.38.54-.77,1.26-1.52,1s-.54-1-.59-1.58a37.56,37.56,0,0,1,.49-6.26,12.08,12.08,0,0,0,.24-3.6c0-.17,0-.33,0-.5a.56.56,0,0,1,0-.13c-.11-3.43,2.45-5.49,4.22-8l.22-.27,0,0a8.36,8.36,0,0,1,1-1c.32-.29.65-.56,1-.84l.08-.06s0,0,0,0l.18-.12.19-.13.16-.13a37.67,37.67,0,0,1,3.23-2.55c2-1.27,3.65-1.3,5.48.18a13.74,13.74,0,0,0,6.94,3.17,4.45,4.45,0,0,1,3.53,2.53c1.62,3.37,3.67,6.21,7.52,7.23a.32.32,0,0,1,.2.13.92.92,0,0,1,.21.43c.81,2.75.71,5.6.83,8.43.17,4,.39,8.06.5,12.1A23,23,0,0,1,360.89,242c-1.41,2-2.72,4.11-4.07,6.17l-.07.07c-2.16,2.18-3.41,5-4.95,7.54s-3.45,4.91-5.19,7.35c-.76,1.08-1.05,2.41-2,3.39,0,0,0,0-.07,0-1,.67,4.91,10.76,7.67,15.26a164.67,164.67,0,0,0,12.56,17.76v-.12a.24.24,0,0,1,0-.08,12.64,12.64,0,0,0,.45-1.84c0-3.44,1.85-5.79,4.25-8a46.5,46.5,0,0,0,5.31-5.64c2.51-3.18,3.36-7,4.74-10.65.36-.93.21-2.18,1.46-2.63a4,4,0,0,0,1.15,3.23q5.56,7.08,10.88,14.36c4.59,6.31,9.06,12.71,13.59,19.07s9.12,12.82,13.74,19.19a151.6,151.6,0,0,1,10.22,15.68c3.06,5.55,4.65,11.55,5.8,17.72C437.7,366.64,437.63,373.49,437.44,380.35Z"/><path class="cls-5" d="M320.77,408.83c-1,.78-2.38.31-3.71-1.19a59.55,59.55,0,0,0-15.56-12.75,14.62,14.62,0,0,0-3.73-1.35c-3.51-.85-7.07-1.52-10.55-2.53a2.76,2.76,0,0,0-2.1-.19c.43.59,1.09.55,1.64.69,3.85,1,7.72,1.93,11.58,2.92,4.34,1.12,7.76,3.79,11,6.68,2.69,2.4,5.54,4.66,7.73,7.58,1.41,1.89,1,3.16-1.27,3.87a5.51,5.51,0,0,1-3.88-.26,15.47,15.47,0,0,1-6.19-4.24,20.41,20.41,0,0,0-6.37-4.69,6.52,6.52,0,0,1-2-1.17c-2.82-3.13-6.74-4.1-10.49-5.37a39.7,39.7,0,0,0-7.61-2,2.14,2.14,0,0,0,1.67.87,80.12,80.12,0,0,1,11,3.67,9,9,0,0,1,4.79,3.93c1.93,3.27,4.33,6.24,6.3,9.48a16.81,16.81,0,0,1,1.47,2.9c.58,1.57,0,2.43-1.64,2.61-3.16.33-5.57-1.22-7.8-3.16a32.4,32.4,0,0,1-4.45-5,11.39,11.39,0,0,0-7.46-4.67,29,29,0,0,1-8-2.79c-4.12-2-8.47-3.43-12.89-5.31a1.62,1.62,0,0,0,1.16,1c2.45,1,4.84,2.19,7.34,3.08a31,31,0,0,1,9.78,5.71c1.78,1.53,3.73,2.86,5.45,4.47.73.69,1.58,1.49,1.09,2.65a3,3,0,0,1-2.58,1.75,7.77,7.77,0,0,1-6-1.56,58.09,58.09,0,0,1-6.25-5.48,7.53,7.53,0,0,0-4.73-2.39c-3.49-.36-6.84-.48-10.27.94a41.73,41.73,0,0,1-15.33,3.09,42.45,42.45,0,0,1-17.2-3.7c-3.73-1.58-7.28-3.49-10.9-5.29a2.93,2.93,0,0,0-1.68-.57c1.18,1.24,2.65,1.52,3.82,2.3,1,.66,2.42.79,3,2.09a122.59,122.59,0,0,0-15-.25c-8.52.28-17,.84-25.49,2-5.12.68-10.28,1-15.41,1.6-3.93.45-7.84,1.1-11.77,1.6-5.42.7-10.84,1.34-16.27,2-4.76.57-9.52,1.28-14.3,1.64-4.37.34-8.71,1.14-13.12.86-.42,0-.85,0-1.19-.29,1.17-.93,2.55-.41,3.83-.5,1.72-.12,1.91-.24,1.59-2-1-5.24-3.82-9.42-7.63-13a26.6,26.6,0,0,0-14.59-7.41,28.45,28.45,0,0,0-7.2.07c-.63.06-.85.26-.86.86a1.92,1.92,0,0,1-.49,1.67c-.67-2.61-.24-5.25-.17-7.87.14-5.6,3.26-9.8,6.61-13.89,4.64-5.68,9.21-11.41,13.92-17,3.17-3.78,6.49-7.44,9.82-11.08,7.23-7.9,14.52-15.76,21.77-23.65.52-.56,1.15-1.13.6-2,.94.16,1.41-.55,1.91-1.11q5.2-5.79,10.38-11.62a.94.94,0,0,1,.15.06,8.25,8.25,0,0,1,3.33,2.69A93.63,93.63,0,0,1,159.09,322a44.44,44.44,0,0,0,10.25,11.25,53.86,53.86,0,0,0,8.54,5.67c1.67.87.72,2.08.19,3.06-.8,1.45-1.79,2.81-2.73,4.19q-7,10.17-13.91,20.34c-.79,1.16-2.3,1.89-2.22,3.59l0,0c0,.29,10,1.18,19.17,2.37,6.59.86,12.2,2.17,23.58,3.85,5.67.84,11.29,2.06,17,3,4.9.78,9.84,1.36,14.77,2q6,.81,11.93,1.59c1.55.2,3.09.44,4.64.54a197.31,197.31,0,0,0,22.55.3c4-.2,8.06.08,12-.6a2.35,2.35,0,0,1,2.07.37c.47.07.93.12,1.4.15,2.48.2,5,0,7.44.07a22.44,22.44,0,0,1,5.7.83c2.83.83,4.71,2.92,6.49,5,4.27,5.07,8.7,10,12.4,15.53C321.48,406.81,321.67,408.1,320.77,408.83Z"/><path class="cls-1" d="M388.92,257.46A29.81,29.81,0,0,0,381,270.59c-.85,2.34-1.83,4.64-2.5,7a22.42,22.42,0,0,1-6.13,9.74c-.6.6-1.17,1.22-1.8,1.78-2.62,2.36-5.09,4.77-4.91,8.73a4.63,4.63,0,0,1-.61,1.68h-.28c-1-.11-1.55-1-2.06-1.73-3.56-5.3-7.21-10.55-10.5-16-2.43-4-4.68-8.14-6.93-12.27a4.5,4.5,0,0,1-.91-2.9c0-.11,0-.21.07-.32,1.28-3.77,4.33-6.4,6.27-9.75,1.22-2.12,2.5-4.21,3.75-6.31a3.67,3.67,0,0,1,2.24-2.07l.08,0c1.1.68,2.23.14,3.35.08a106.61,106.61,0,0,1,16.18.52c.93.09,1.89.47,2.8-.13l.13,0c1.67.49,3.39.77,5.05,1.29l.28.08c1.48,1.26,3.35,1.76,5.11,2.47C391.42,255.4,391.17,255.29,388.92,257.46Z"/><path class="cls-5" d="M218.92,405.51c-2.17-1.14-4.35-2.26-6.51-3.41-.55-.29-1.44-.56-.9-1.42s1.19-.19,1.73.1a115.58,115.58,0,0,0,14.68,6.92,38.52,38.52,0,0,0,23.54,1.14,81,81,0,0,0,8.2-2.69c2.19-.84,4.76-.24,7.16-.14,2.65.12,4.59,1.44,6.39,3.27a64.36,64.36,0,0,0,5.56,4.87,7.4,7.4,0,0,0,5.61,1.52,2.65,2.65,0,0,0,2.33-1.49c.41-.95-.45-1.56-1.06-2.09-5.09-4.43-10.23-8.76-16.84-10.89-2.28-.73-4.43-1.85-6.64-2.81-.5-.21-1.19-.48-1-1.08s1-.51,1.55-.26c4.39,2,9,3.37,13.32,5.57a25,25,0,0,0,7.5,2.49,11.34,11.34,0,0,1,7.39,4.74c2.35,3.06,4.75,6.08,8.52,7.57.11,0,.22.1.33.13,1.41.38,3.1.84,4.14-.12s-.22-2.39-.82-3.35c-2.54-4.07-5.22-8.06-7.92-12-1-1.47-2.71-2-4.28-2.57-3.63-1.26-7.15-2.87-11-3.48a4.79,4.79,0,0,1-1.18-.43.7.7,0,0,1-.39-.75.59.59,0,0,1,.67-.49,8.49,8.49,0,0,1,1.42.18,76,76,0,0,1,14.31,4.88c.17.08.39.1.49.23,2.75,3.25,7.17,4.19,10,7.22,1.79,1.9,3.56,3.72,6,4.74a6.34,6.34,0,0,0,4.53.53c1.94-.63,2.27-1.51.94-3-4.42-5-9.25-9.63-15.16-12.91-3-1.68-6.54-2-9.82-2.89-2.25-.64-4.54-1.16-6.81-1.74-.47-.12-1-.25-.82-.92a.9.9,0,0,1,1.19-.57c5.58,1.82,11.6,2.09,17,4.7,3.84,1.86,6.83,4.88,10.11,7.5a31.48,31.48,0,0,1,5.49,5.69,1.85,1.85,0,0,0,2.56.64c1-.71.56-1.74,0-2.56a193.43,193.43,0,0,0-14.77-18.18c-2.48-2.74-5.67-3.47-9.1-3.6-2.59-.1-5.18,0-7.77,0-.72,0-1.49.11-1.9-.71.52-.6,1.23-.38,1.87-.38,3.24,0,6.49.09,9.73,0,4.2-.18,7.19,1.84,9.7,4.91l10.54,12.94a1.73,1.73,0,0,0,1.21.69c-.2,1.61,1.12,2.45,1.88,3.54,1.76,2.48,1.5,3.91-1.19,5.44a6.38,6.38,0,0,0-1.49,1c-2.52,2.62-4.69,3-8.11,1.68a19.48,19.48,0,0,1-6.12-4.39,26.23,26.23,0,0,0-3.75-3.39c-.41-.27-.91-.59-1.31-.21s0,.9.3,1.25a52,52,0,0,1,5,7.94,9.23,9.23,0,0,1,.64,1.68c.48,1.91,0,2.69-1.9,3.11a10.42,10.42,0,0,1-9.56-2.55,30.75,30.75,0,0,1-5.38-6.54c-1.45-2.21-3.55-3.22-6.46-3.43,1.29,1.8,3,2.71,4.23,4.05,1.08,1.13,2.18,2.25,1.56,3.93a4.36,4.36,0,0,1-4,2.71,9,9,0,0,1-6.44-1.92,39.21,39.21,0,0,1-5.71-5,9,9,0,0,0-6.34-3,19.68,19.68,0,0,0-8.64,1.13c-12.13,4.7-24,3.91-35.65-2C220.69,406.27,219.8,405.9,218.92,405.51Z"/><path class="cls-4" d="M218.92,405.51c-2.17-1.14-4.35-2.26-6.51-3.41a6.51,6.51,0,0,1-1.06-.81c-.76-.62-1.13-.94-1.06-1.09s1.3.05,1.62.13a8.39,8.39,0,0,1,1.33.45,115.58,115.58,0,0,0,14.68,6.92,38.52,38.52,0,0,0,23.54,1.14,81,81,0,0,0,8.2-2.69c2.19-.84,4.76-.24,7.16-.14,2.65.12,4.59,1.44,6.39,3.27a64.36,64.36,0,0,0,5.56,4.87,7.4,7.4,0,0,0,5.61,1.52,2.65,2.65,0,0,0,2.33-1.49c.41-.95-.45-1.56-1.06-2.09-5.09-4.43-10.23-8.76-16.84-10.89-2.28-.73-4.43-1.85-6.64-2.81-.5-.21-1.19-.48-1-1.08s1-.51,1.55-.26c4.39,2,9,3.37,13.32,5.57a25,25,0,0,0,7.5,2.49,11.34,11.34,0,0,1,7.39,4.74c2.35,3.06,4.75,6.08,8.52,7.57.11,0,.22.1.33.13,1.41.38,3.1.84,4.14-.12s-.22-2.39-.82-3.35c-2.54-4.07-5.22-8.06-7.92-12-1-1.47-2.71-2-4.28-2.57-3.63-1.26-7.15-2.87-11-3.48a4.79,4.79,0,0,1-1.18-.43.7.7,0,0,1-.39-.75.59.59,0,0,1,.67-.49,8.49,8.49,0,0,1,1.42.18,76,76,0,0,1,14.31,4.88c.17.08.39.1.49.23,2.75,3.25,7.17,4.19,10,7.22,1.79,1.9,3.56,3.72,6,4.74a6.34,6.34,0,0,0,4.53.53c1.94-.63,2.27-1.51.94-3-4.42-5-9.25-9.63-15.16-12.91-3-1.68-6.54-2-9.82-2.89-2.25-.64-4.54-1.16-6.81-1.74-.47-.12-1-.25-.82-.92a.9.9,0,0,1,1.19-.57c5.58,1.82,11.6,2.09,17,4.7,3.84,1.86,6.83,4.88,10.11,7.5a31.48,31.48,0,0,1,5.49,5.69,1.85,1.85,0,0,0,2.56.64c1-.71.56-1.74,0-2.56a193.43,193.43,0,0,0-14.77-18.18c-2.48-2.74-5.67-3.47-9.1-3.6-2.59-.1-5.18,0-7.77,0-.34,0-.77-.14-1.51-.24a50.71,50.71,0,0,0-5.26-.5c2.7-.16,5-.28,6.74-.35,4.07-.19,6.65.09,9.73,0,4.2-.18,7.19,1.84,9.7,4.91l10.54,12.94a1.73,1.73,0,0,0,1.21.69c-.2,1.61,1.12,2.45,1.88,3.54,1.76,2.48,1.5,3.91-1.19,5.44a6.38,6.38,0,0,0-1.49,1c-2.52,2.62-4.69,3-8.11,1.68a19.48,19.48,0,0,1-6.12-4.39,26.23,26.23,0,0,0-3.75-3.39c-.41-.27-.91-.59-1.31-.21s0,.9.3,1.25a52,52,0,0,1,5,7.94,9.23,9.23,0,0,1,.64,1.68c.48,1.91,0,2.69-1.9,3.11a10.42,10.42,0,0,1-9.56-2.55,30.75,30.75,0,0,1-5.38-6.54c-1.45-2.21-3.55-3.22-6.46-3.43,1.29,1.8,3,2.71,4.23,4.05,1.08,1.13,2.18,2.25,1.56,3.93a4.36,4.36,0,0,1-4,2.71,9,9,0,0,1-6.44-1.92,39.21,39.21,0,0,1-5.71-5,9,9,0,0,0-6.34-3,19.68,19.68,0,0,0-8.64,1.13c-12.13,4.7-24,3.91-35.65-2C220.69,406.27,219.8,405.9,218.92,405.51Z"/><path class="cls-5" d="M81.05,394.33c.09-3.08.09-3.05,3.3-3.25,7.79-.51,14.29,2.33,20,7.47a29.7,29.7,0,0,1,7.28,10.62,7.71,7.71,0,0,1,.6,2.25c.33,3.19.36,3.18-2.94,3.17l-2.89,0a17.59,17.59,0,0,1-7.08-1.88c-3.15-1.63-6.36-3.15-9.57-4.66C83.91,405.33,81.64,400.37,81.05,394.33Z"/><path class="cls-5" d="M398.75,404.81a2.52,2.52,0,0,1,1.21-2.44c3.77-3.11,7.71-5.85,12.53-7.17a21.3,21.3,0,0,1,12.55.14c2,.67,4,1.54,6,2.32.45.18.91.37.95,1-3.08,7.16-8.57,10.74-16.32,10.9-4.66.1-9.26-.2-13.52-2.41A14.47,14.47,0,0,1,398.75,404.81Z"/><path class="cls-5" d="M334.82,189.92q.8,2.49,1.6,5a13.19,13.19,0,0,1,1.27-1.12c1.5-1.17,3.18-2.49,5-2.36.87.06,1.72.6,3.42,1.68s1.78,1.5,3,2a29.92,29.92,0,0,0,3.06.77,9.68,9.68,0,0,1,3.19,1.34c2.18,1.61,1.06,3.61,3.45,5.87a12.53,12.53,0,0,0,2.87,2,15.53,15.53,0,0,1,2,.89c1.65,1.32.72,5.09.51,5.94-1.67,6.8-45.9,51.91-52.59,58.72a39,39,0,0,1-20.3,2.81c-1.45-.2-20.8-3-25.79-15.19-1.24-3-1.92-7.43-6.08-10.91-1.71-1.42-2.91-1.78-5.28-3-4.85-2.5-7.95-5.18-11.87-8.55a83.91,83.91,0,0,1-15.36-18c-4.79-7.48-3.42-7.91-7.95-15.52-.84-1.39-1.71-4.6-3.22-8.62a4.91,4.91,0,0,1-.14-3.69c4.18-10.72,5-21.87,4.2-33.23-.27-3.91-.55-7.81-1.15-11.68a7,7,0,0,1-.05-1.45c.1-1.69.83-2.13,2.16-1.12,4.57,3.47,10,4.66,15.4,5.86,10,2.23,20.26,2.79,30.49,3.28,4.51.21,9,.29,13.55.45.95,0,1.74.07,2.32,1.2s1.74.9,2.22-.25,1.17-1.14,2.13-1.17c9.62-.22,19.09-1.42,28.12-5,1.4-.54,2,.16,2.58,1.15a125.6,125.6,0,0,1,12.26,26.07A156.87,156.87,0,0,1,334.82,189.92Z"/><path class="cls-4" d="M302.34,254.21c-.72,3.83-1.31,7.68-1.9,11.53-.27,1.78-.92,3.47-1.17,5.25a.94.94,0,0,1-.21.49.61.61,0,0,1-.49.17c.13-1.09-.19-1.65-1.4-2a136.48,136.48,0,0,1-19.84-7c-4.36-2-9.43-3.63-11.71-7.25a49.82,49.82,0,0,0-6.14-8.1,1.15,1.15,0,0,1,.35-.2c.58-.2,1,.29,1.58.47s.52.11,4.29,1.14l2.31.67c4.74,1.42,7.77,2.54,9.75,3a51.38,51.38,0,0,0,12.87,1.2,50.8,50.8,0,0,0,9.6-1.26,5.37,5.37,0,0,1,1.59-.19,1.42,1.42,0,0,1,.3.2C302.69,252.85,302.46,253.55,302.34,254.21Z"/><path class="cls-6" d="M231.24,275.1c-1,1.64-1.58,3.51-3,4.9l-.27-.29A24.14,24.14,0,0,0,224.7,277a9.15,9.15,0,0,1-3.89-5.69c0-.14-.05-.28-.07-.42,3.09.41,6.19.78,9.27,1.25C232,272.49,232.3,273.33,231.24,275.1Z"/><path class="cls-4" d="M363.64,207.28l-.22-.06a11,11,0,0,1-7.73-6.86,4.78,4.78,0,0,0-4.13-3.08,12.26,12.26,0,0,1-6.41-3c-2-1.58-3.49-1.6-5.53-.08-1.05.79-2.06,1.64-3.09,2.46l-.16-.4a3.77,3.77,0,0,1-.1-.43,1.49,1.49,0,0,1,.15-1,2.12,2.12,0,0,1,.31-.39l.13-.12c.72-.55,1.4-1.14,2.15-1.64a5.48,5.48,0,0,1,7.14.35,10.65,10.65,0,0,0,5.76,2.66,6.86,6.86,0,0,1,5.34,4.15c1.17,2.57,2.77,4.58,5.64,5.41C363.7,205.55,364.66,206.14,363.64,207.28Z"/><path class="cls-7" d="M265.21,273.19c-.49,6.51-1.86,12.42-6.12,17.32-.92.44-1.88.09-2.81.09-.52,0-.75-.33-.45-.85a18.13,18.13,0,0,1,2.29-3.64,59,59,0,0,0,6.07-11.22A3.18,3.18,0,0,1,265.21,273.19Z"/><path class="cls-1" d="M259.09,290.51c-.91,2-2.62,3.41-4,5-1.84,2.06-3.79,4-5.43,6.25-.27.36-.49.85-1.33.76a76.29,76.29,0,0,1,7.55-12.78C256.75,290.71,258.12,289.75,259.09,290.51Z"/><path class="cls-8" d="M336.78,194.5a3,3,0,0,0-.25,1.66,4.68,4.68,0,0,1,0,.53l-.35.11h0a1.25,1.25,0,0,1-.18-.24s0,0,0,0a.74.74,0,0,1-.05-.25,1.09,1.09,0,0,1,.22-.61c-.08-.52-.15-1-.22-1.54,0-.24-.07-.47-.1-.7.29.36.41.91,1,.94Z"/><path class="cls-4" d="M161.42,370.45c.06.87-.37,1.14-1.2,1.11-4.45-.16-8.89.1-13.33.31-8,.36-16,1.15-23.73,3.67-1.31.43-2.57,1-3.86,1.5a7.12,7.12,0,0,1-1.25.27c-2.53.59-4,1.42-4,1.31a19.18,19.18,0,0,1,4.66-2.94,41.07,41.07,0,0,1,10.6-3.42c9.87-2.13,19.89-2.23,29.92-2.2Z"/><path class="cls-4" d="M344.48,266.28c2.08,5.18,5,9.87,7.83,14.66,3.23,5.55,7,10.76,10.46,16.12a9.14,9.14,0,0,0,2.32,2.48c1.19,2.62,3.34,4.52,5.13,6.68,5.21,6.3,10.51,12.52,15.75,18.79q6.82,8.16,13.59,16.36a137.31,137.31,0,0,1,13.84,20,88.37,88.37,0,0,1,4.46,9.25,11.27,11.27,0,0,1,.24,1.34c.2,1.34.3,2,.14,2.09-.34.14-1.84-2.79-1.87-2.83-3.31-6.46-14.28-24.39-20.31-31.56-5.64-6.72-11.16-13.54-16.77-20.28-4.62-5.54-9.46-10.9-13.93-16.55-16.05-20.26-24.42-27.93-21.8-34.78A8.45,8.45,0,0,1,344.48,266.28Z"/><path class="cls-4" d="M331.05,216.63c-.67.51-.59,1.71-1.61,1.91-.58-2.63.4-5.1.23-7.62.5-1.43-.2-2.95.31-4.38a5.54,5.54,0,0,1,1.13-3.48,47,47,0,0,1,5.07-6.26c0-.38,0-.75,0-1.12a42,42,0,0,0-4,3.9c-1,1.25-2.48,2.24-2.83,3.89a36,36,0,0,0-1.17,9.13c.22,5,.39,5.29,0,7.41-.22,1.14-.6,2.47-3.11,7-3.14,5.61-4.15,6.31-7.17,11.65-1.17,2.08-1.8,4.57-3.62,6.18a28.29,28.29,0,0,1-9.36,5.6A8.62,8.62,0,0,0,302,252a35.79,35.79,0,0,0,11-3.81,78.72,78.72,0,0,0-3.12,15c-.22,2.21-.32,4.43-.44,6.65,0,.57.23,1.2.87,1.15s.52-.71.52-1.18a62.71,62.71,0,0,1,.69-7A59.72,59.72,0,0,1,319,239.73c4-7,8.71-13.67,12.49-20.85C331.35,218.13,332.62,217.11,331.05,216.63Z"/><path class="cls-4" d="M331.49,218.88c-.56-.67.48-1.65-.44-2.25,1.85-3,3.55-6.13,3.45-9.9,0-.45-.47-3.08,1.77-1.27.5.41.53-.39.69-.72.26-.56.65-.91,1.27-.56s.32.8.13,1.26A93,93,0,0,1,331.49,218.88Z"/><path class="cls-8" d="M329.67,210.92c-.12-1.29.17-2.59-.23-3.86-.12-.38.25-.46.54-.52C329.9,208,330.29,209.49,329.67,210.92Z"/><path class="cls-9" d="M258.08,167.62A22.82,22.82,0,0,0,246.52,171a11,11,0,0,0-5.3,8.35c-.12,1.12-.26,2.48-1.9,2.3s-1.67-1.56-1.53-2.78c.72-6.31,4.67-10.14,10.45-12.45a21.76,21.76,0,0,1,10-1.73c1.14.1,2.8,0,2.61,1.79S259.17,167.6,258.08,167.62Z"/><path class="cls-4" d="M299.24,195.2c0,2.38-3.66,7-5.63,7.31-.61.11-1.28.13-1.5-.62s.3-.93.84-1.16a7.92,7.92,0,0,0,3.45-3.06c1.14-1.78.91-2.91-.92-4-1.28-.79-2.62-1.47-3.85-2.32a17.12,17.12,0,0,1-7-8.9,4.22,4.22,0,0,1-.23-1c0-.5.06-1,.67-1.1s.65.39.8.8a16,16,0,0,0,2.39,4.59,19.33,19.33,0,0,0,7.71,6.05,6.92,6.92,0,0,1,2.41,1.84A3.15,3.15,0,0,1,299.24,195.2Z"/><path class="cls-10" d="M261.38,176.77a12.5,12.5,0,0,1,2.2,1.57c2.2,2.37,3.45,5.07,1.9,8.27a5.05,5.05,0,0,1-5.64,2.95,7.08,7.08,0,0,1-6.24-5.79,21.06,21.06,0,0,1-.12-3.9c-.17-.64.4-1.09.43-1.68C256.12,176.25,258.42,174.78,261.38,176.77Z"/><path class="cls-10" d="M302.33,158a12.15,12.15,0,0,1,2,1.43c2,2.17,3.14,4.63,1.73,7.55a4.6,4.6,0,0,1-5.14,2.69,6.45,6.45,0,0,1-5.7-5.28,19.14,19.14,0,0,1-.11-3.56c-.15-.59.37-1,.4-1.53C297.53,157.51,299.63,156.16,302.33,158Z"/></svg>