<svg id="Capa_1" data-name="Capa 1" xmlns="http://www.w3.org/2000/svg" xmlns:xlink="http://www.w3.org/1999/xlink" viewBox="0 0 500 500"><defs><style>.cls-1{fill:#8abcb9;}.cls-2{fill:#fdc093;}.cls-3{clip-path:url(#clip-path);}.cls-4{opacity:0.15;}.cls-5{clip-path:url(#clip-path-2);}.cls-6{fill:#3d2e2b;}.cls-7{fill:#333;}</style><clipPath id="clip-path"><path class="cls-1" d="M285.21,221.92c34.6,5.14,69.16,18.42,77.84,56.37,1.14,5,8.53,40.49,3.58,41.18a227.61,227.61,0,0,1-38.48,4.74c-7.67.34-8.43.8-9.39,8.52-1.75,18.57-5.48,37.87-5.65,56.17-8.5-3.17-19.09-10-27.72-14.26-25.55-13-53.25-22.78-74.17-43.09-5.68,1.34-25.62-4-27-19.07-5.21.52-20.06-.23-20.74-6.57,3-25.55,11.28-48.57,31.13-66.18,4.89-3.91,22.72-14.27,27.45-8.55,15.62,11.19,40.89,12.1,57-5C280.77,224.36,282.17,221.88,285.21,221.92Z"/></clipPath><clipPath id="clip-path-2"><path class="cls-1" d="M213.76,367.81c27.76,25.26,61.13,44.23,91.86,65.81,4.3,3.83,11.81,6.82,19,7.11-46.11,12-66,22.32-139.4-8.19-7.25-1.71-.95-26.59-1.86-33.7,0-5.75-3.53-35,4.39-33.77C196.23,366.34,205.83,364.93,213.76,367.81Z"/></clipPath></defs><path class="cls-2" d="M191.32,312.05c2.82,5.17,38.52,120.73-18.38,117.7-18.87-4.77-9.3-92.44-6.72-120.54Z"/><path class="cls-1" d="M285.21,221.92c34.6,5.14,69.16,18.42,77.84,56.37,1.14,5,8.53,40.49,3.58,41.18a227.61,227.61,0,0,1-38.48,4.74c-7.67.34-8.43.8-9.39,8.52-1.75,18.57-5.48,37.87-5.65,56.17-8.5-3.17-19.09-10-27.72-14.26-25.55-13-53.25-22.78-74.17-43.09-5.68,1.34-25.62-4-27-19.07-5.21.52-20.06-.23-20.74-6.57,3-25.55,11.28-48.57,31.13-66.18,4.89-3.91,22.72-14.27,27.45-8.55,15.62,11.19,40.89,12.1,57-5C280.77,224.36,282.17,221.88,285.21,221.92Z"/><g class="cls-3"><path class="cls-4" d="M422.07,360.81c.16-33.49-16.83-58.42-62.75-48.76-33,5.62-44.74,14.56-42.38-15.07-4.71-3.16-19.21,93.68-2.42,108.38C356.87,448.28,422.8,412.17,422.07,360.81Z"/></g><path class="cls-2" d="M311.76,387c1.13-20,3.93-39.85,6.36-59.72.32-2.41,1.67-4.09,4.12-4.11,14.94.39,29.61-3.81,44.39-3.7a4.38,4.38,0,0,0-1.79,3.46c-.87,13.49-1.56,27-2.88,40.45-1,10.41-2.82,20.74-4.39,31.09-5,27.24-6.86,44.58-38.38,47.43-35.56-18.43-66.95-43.78-99.61-66.73-4.2-2.09-5.8-8.48-10.54-8.82-5.66.24-11.24-.84-16.87-1-2.56-.08-5.19.25-7.23-2-1.23-1.34-2.53-.27-3.72.37-4,2.22-11.33,4.59-13.79-.8-1.29-7.07,10.1-11.41,15.21-14.94a53.61,53.61,0,0,0-12.55,8.54c-4.46,5.2-10.34-.7-6.64-5.71,2.88-4.37,8-9,11.88-11.94a59.29,59.29,0,0,0-9.54,8.9c-1.37,1.67-2.85,4.1-5.6,2-7.87-6.46,8.71-16.62,12.64-21.65-2.88,5.68-40,4.27-37.46-4.59,2.73-5.05,18.29-2.67,23.95-3.62,16.78.65,36.11-4.39,49.38,8.57,33.63,30.72,79.76,41.58,116.3,68.15C320.87,393.05,315.6,391,311.76,387Z"/><path class="cls-2" d="M285.21,221.92c-20,23-45.2,23.54-69.46,7.33,1.51-.24,6.17-1.21,9-5.22,2.74-4.87,5.32-18.39-2.91-20-29.57-11-29.3-42.59-28-71.24-4.09-37.62,18.59,5.39,63.39-20.58,9.66-7.67,12,10.33,24,16.39,4.65,4.24,8.19-2.69,13.12-.9,6.5,2.14,7.79,5,5.86,14-1.75,8.2-4.74,16.5-14,19.85C274.49,179.77,274.81,202.58,285.21,221.92Z"/><path class="cls-1" d="M213.76,367.81c27.76,25.26,61.13,44.23,91.86,65.81,4.3,3.83,11.81,6.82,19,7.11-46.11,12-66,22.32-139.4-8.19-7.25-1.71-.95-26.59-1.86-33.7,0-5.75-3.53-35,4.39-33.77C196.23,366.34,205.83,364.93,213.76,367.81Z"/><g class="cls-5"><path class="cls-4" d="M409.1,411.69c-17.17-29.58-56.23-40-86.19-22.6-13.31,8.51-13.49,19.32-22.82,29.17-23.19,23.39-82.81,15.82-104.17,7.66-16.53-4.79-17.83-7.43-27.46-7.65-63,3.87-80.54,69.72-44.55,107.55,12.71,11.66,27.2,17.5,44.55,18.45,59.24,4.19,121.13,4.26,175-24.15,14.75-6.63,28.94-14.42,43.08-22.23C415.73,481.72,426.82,440.12,409.1,411.69Z"/></g><path class="cls-6" d="M294.42,127.72c-2.54.95-5.27,1.38-7.34,3.44-1.74,1.72-3.48.22-5-.58-12.33-5.22-16.72-23.59-22.18-18.49-35.91,23.73-65.67-3-64.6,8.51-.68,2.44.25,12.74-2.44,12.64-.76-6-2.52-12-.42-18.07-5.93-14.24-7.36-26.13,5.69-37,17.21-15,50-17.48,67.28-2.32,2.95,2.68,5.22,5.46,10.34,5C291.9,83.42,297.15,113.92,294.42,127.72Z"/><path class="cls-4" d="M213.76,367.81c-9.73,1-20-3-29.32-.95-14.92.07-12.41,7.39-21.57-8.77-8.74-14.35-7.78-13.7,3.58-25.78-11.51-1.34-23.93,2.76-32.17-6.09-2.3-3.28-1.44-5.64,2.56-6,7-.6,14-.81,21-1.19,9.53.52,20.45-5.26,29.39-.76,10.67-.52,18.34,4.83,24.73,12.66-1.91.48-3-.72-4.39-1.81-6.39-5.19-13.18-8.66-22-8.27-15.2.67-30.46-.41-45.65,1.12-1.49.15-3.3-.19-3.84,1.7.95,7.75,20,6,26.1,6.45,9.17,1.23,9.35-4.33,13.45-4,.65,1.55-.71,2.11-1.59,2.75-3.7,3.79-20.78,15.55-13.09,20.41,2.23,1.69,3-.82,3.74-1.9,3.83-5.38,9.26-8.73,15.35-13.37-1.12,7.23-22.26,15.87-15.25,23.31,4,2.38,15.37-13.46,21.1-11-3.68,4.82-19.82,9.56-17.38,16.6,2.95,4.77,8.56,1.06,12.37-.32,1.86-.67,4.24-4.9,5.41.74C189.26,365.91,214.71,362.42,213.76,367.81Z"/><path class="cls-7" d="M317.31,53.69c-2.38,10.43-4.41,22.35-6.42,33.05-.48,2.67-1.34,5-4.6,4.24-7.18-.89,4.07-32,4.55-38.05C311.14,47.82,318.34,47.21,317.31,53.69Z"/><path class="cls-7" d="M307.27,107.13c-.08,3.81-6.13,4.66-6.18.53C300.48,103.68,306.75,103.43,307.27,107.13Z"/><path class="cls-4" d="M187.22,318.28c-3.8-.94-.59-4.85-2.75-6.49,0-8.49-.09-17,0-25.47,0-1.39-1.14-4.05,1.28-4,2,.06,1.33,2.68,1.39,4.27.35,8.48-.67,17,.86,25.45A8.71,8.71,0,0,1,187.22,318.28Z"/><path class="cls-4" d="M311.76,387c1.46.33,22.3,12.51,14.29,11.57-5.42-4.3-12.75-7.14-17-12.5Z"/><path class="cls-4" d="M275.7,182.65c-3.47,18.31-26.08,33.63-48.63,33-.11-3.44.68-6.45-1-8.78C244.38,206.55,261.73,200,275.7,182.65Z"/><path class="cls-4" d="M286.65,144c-.58-4.14,3.88-15.65,8.8-9.87.92,3.23-7.92,1-3.12,5.17.46.38,1,1.37.57,1.48-3.89.91-2.95,4.18-3.53,6.74C287.28,150.74,286.68,145.57,286.65,144Z"/><path class="cls-4" d="M229.37,148.92c3.44,6.27-6.61,16.1,2,16.5,1,0,2.42-.14,2.27,1.45s-1.51,1.2-2.53,1.22C220.43,166.76,227.6,156,229.37,148.92Z"/><path class="cls-6" d="M254.37,132.5c-2,.19-16,11.66-13.58,5.29C243.7,136.54,252.72,127.45,254.37,132.5Z"/><path class="cls-6" d="M207.07,131.06c3.22,2.48,10.57,4.3,12.13,7.69-2.66,2.39-9.79-4.45-13.11-5.42C204.83,132.46,205.74,131.42,207.07,131.06Z"/><path class="cls-7" d="M247.35,141.75c5.18-.07,5.05,7.8.06,7.52C242.49,149.48,242.65,141.79,247.35,141.75Z"/><path class="cls-7" d="M215.44,145.34c.14,4.84-7.31,5.27-7.19.41C207.66,140.71,215.6,140.59,215.44,145.34Z"/></svg>