<svg id="Capa_1" data-name="Capa 1" xmlns="http://www.w3.org/2000/svg" xmlns:xlink="http://www.w3.org/1999/xlink" viewBox="0 0 500 500"><defs><style>.cls-1{fill:#9b5b43;}.cls-2{fill:#b09d8f;}.cls-3{fill:#6d584e;}.cls-4{fill:#f3b489;}.cls-5{fill:#333;}.cls-6{fill:#6c584d;}.cls-7{fill:#6b594f;}.cls-8{fill:#f7e7cd;}.cls-9{fill:#fdc093;}.cls-10{fill:#705c51;}.cls-11{fill:#6f5c52;}.cls-12{fill:#1d1d1b;}.cls-12,.cls-19{opacity:0.15;}.cls-13{fill:#6d5a50;}.cls-14{fill:#faf6f2;}.cls-15{fill:#a06042;}.cls-16{fill:#dea073;}.cls-17{fill:#c9cdd0;}.cls-18{clip-path:url(#clip-path);}</style><clipPath id="clip-path"><path class="cls-1" d="M359.88,363.41c-6.22-1.29-33.19,3.1-33-4.1l-7-60.88a4.33,4.33,0,0,1,4.3-4.83h42.89a4.34,4.34,0,0,1,4.3,4.84q-3.58,30.57-7.15,61.15A4.34,4.34,0,0,1,359.88,363.41Z"/></clipPath></defs><path class="cls-2" d="M299.38,303.89a140.42,140.42,0,0,0,65.71,19.75l-1.71,27.91c-10.63,8-46.57,14.27-62.64,8.17"/><path class="cls-3" d="M301.81,304.81c2.39,1.1,4.72,2.19,7.09,3.23l3.53,1.57a22.2,22.2,0,0,1,3.47,1.68,20.55,20.55,0,0,0,3.38,1.92,17.92,17.92,0,0,0,3.82.83,7.65,7.65,0,0,1,3.53,1.51c.54.42,1.06.89,1.61,1.31a5.51,5.51,0,0,0,1.77.87l.1,0v.1c-.16,7.31-.29,14.63-.31,22,0,3.66,0,7.32,0,11s.09,7.32.24,11l0,.72-.77.2h0a30.73,30.73,0,0,1-5.36.5c-1.77,0-3.53,0-5.28-.17s-3.49-.35-5.22-.65a30.81,30.81,0,0,1-5.09-1.27l.07-.24a30.45,30.45,0,0,0,5.11.85c1.72.15,3.45.21,5.17.21s3.45-.09,5.16-.26a29.83,29.83,0,0,0,5-.86h0l-.74.93c.29-3.66.45-7.32.69-11s.34-7.32.47-11c.29-7.31.45-14.63.58-21.95l.1.12a13.38,13.38,0,0,0-4.1,0,6.86,6.86,0,0,1-3.82-1.08,26.33,26.33,0,0,0-3.43-2.05,27.94,27.94,0,0,0-3.76-1.21,13.21,13.21,0,0,1-1.83-.74l-1.73-.95c-1.15-.64-2.27-1.33-3.39-2a40.57,40.57,0,0,1-6.22-4.87Z"/><path class="cls-2" d="M172.12,384.22c-24.84,1.43-45,8.41-46.38-25.57-1-38.44,8.09-75.77,18.68-112.43,6.58-32.16,38-42.76,64.64-54.5,5.55,3.49-4.32,10.69,5.27,13.9,1.45.55,3.75,1.19,3.34,3.2-2.19,4.32-9.55-1.92-8.67,7.79,3.47,30.43,11,70.41,28.35,94-17.17-21.75-22.72-60-28-89.19-.28-3.85-1.81-10.62,3.77-10.91,9.33-1,22.34-4.71,21.71,9.3,5.33,32.64,9.62,65.46,12.38,98.39-2,6.46-9.48,11.43-16.76,11.18-15.24,1.41-30.38,3.2-45.5,5.55-3.16.93-4.3-1.58-4.4-4.57a219.29,219.29,0,0,1,6.72-64.93c-4.6,19.9-7.28,41.61-12.26,62.88-5.24,16.27-15.79,8.07-27.4,7.41,2.57.49,8.48-.44,9.12,2.47s-3.21,3-5.18,4.2a87.19,87.19,0,0,0-9.28,6c17.17-12.94,37.46-13,57.66-15.25,10.36-.22,20.78-4.21,31-3.35,3.68,6.86-1,14.57.09,21.9-.36,11,19.45-.07,17.91,14.65-.14,21.8.07,43.59,1.28,65.37.4,8.85-1.83,22.38-13,22.24-21.14,0-42.66,1.43-63.62-.61-5.78-4-2.72-16.31-2.82-22.65,3-13.25,2.09-26.73,2.18-40.15.06-8.13,0-8,8-9.78,15.78-4.15,32.92-6.6,47.78-12.74-12.38,5.07-33.14,9-48.59,12.82C177.22,381.5,174.27,381.91,172.12,384.22Z"/><path class="cls-4" d="M303.73,98.86c4.51,27.61-1.84,76.77-36.27,75.22-2.21,6.38.13,10.17-.27,17-2.37,1.57-14.72,9.4-29,5.34-11.33-2.69-15-10-14-20.26-.12-8.16.7-28.65-5.71-33.67-12.8-7.06-5.32-30.32,9.14-20.63,6.17,4.22,7.3,4.09,9.58-3,3.33-13.71,14.45-23,18.11-36.57,4.09-15.88,16.3,24.35,36.27,12.92C295.48,93.07,299.78,97.09,303.73,98.86Z"/><path class="cls-5" d="M303.73,98.86c-5.77.5-10-5.38-15.33-.19-9.78,3.1-20.2-7.34-26.07-14.43C261,82.5,260.4,80,257.69,78.93c-2.21,10.13-6.48,19-13.76,26.34-1.58,1.58-1.76,3.75-2.27,5.78-1.47,4-5.81,23.29-11.88,14.85-12.86-15.53-24.9,9.82-8.64,16.31,5,2.17,3.71,4,.65,6.53-12.39-8.54-17.29-24.22-23.64-37-16.69-47,40.89-71.57,79.43-63.38C295.19,50.47,321.55,86.11,303.73,98.86Z"/><path class="cls-2" d="M224.17,176.14c3.36,4.24,1.36,9.82,3.61,14.33,3.57,5.63,4.17,11.82,3.46,18.26-4.18,3.83-10.53-.86-15.24-1.83-6.89-2.72-7.43-3.53-5.75-10.61C211.22,187.93,216.83,180.48,224.17,176.14Z"/><path class="cls-6" d="M211.31,190.12c4.73,9.07-13.7,13.77,19.13,19.12l.43.34-.1.54c-26,4.7-22.25-6.5-16.58,34,4.89,25.15,11.42,51,28.11,71.17,1,1.26,2.6,2.3,1.42,4.84-24.93-27.39-29.18-64.82-35.82-99.65-1.44-8.41.31-10.84,8.56-11.54-.05-1.46-1.4-1.25-2.15-1.49-11.87-4.15-3.24-9-5.25-15.75Z"/><path class="cls-7" d="M172.34,429.44c-1.11-15.05-.24-30.15-.22-45.22-.9-4.22,2.78-3.61,4.71-3.94,15.91-2.68,31.2-8,47-11,6.23-1.22,2.88-6,4.92-8.62,3.33,5.25,2.44,8.26-3.16,9.91-14.24,4.19-28.62,7.91-43.17,10.86-8.23,1.67-8.86,2.23-8.86,10.56,0,10.51,0,21,0,31.54C173.48,425.5,174.18,427.74,172.34,429.44Z"/><path class="cls-8" d="M230.77,210.12a1.18,1.18,0,0,0-.33-.88q-1.33-9.39-2.66-18.77c10.64,7.92,34.37,4,39.28-.14,2.41,1.86,2.69,4.68,3.1,7.34q6.7,43.88,9.92,88.16c.57,7.57-8.75,6.87-13.2,3.83-13.57-5.72-13.13,10.09-11.4,19a6.44,6.44,0,0,1-.16,3c-2.86,2.91-3.22,9-9.51,7.63C241.79,282.73,238.13,246.13,230.77,210.12Z"/><path class="cls-9" d="M245.81,319.23c5-.2,4.92-6.42,9-7.67,3.65-9.88,45.33-22.48,47.34-8.08-.41,9-17.55,5.86-24,10,8.2-.25,18.64-4.71,25.33,1.53,2.27,3.76,2.67,7-2.44,8.66-8.66-.44-17.05,2.82-25.72,2.34,8.57.45,16.89-2.73,25.46-2.2,14,8.54-13.24,11.77-19.35,14,6.28.19,27.59-1.57,18.18,9.28-13.87,4-27.29,3-38.59,14.23-8.86-1.28-17.83-1.65-26.71-2.82-4.65-9-3.33-19.33-3.86-29h0C236.11,326.81,242.3,325,245.81,319.23Z"/><path class="cls-8" d="M246.9,359.86c13-6.25,13.49,7,25.27,5.84,6.79-1.19,11.91,1.37,11,9.19q.09,31.89,0,63.78c0,2.88.37,6-2.27,8.19-8.93,2.87-21.86,4.19-33-.67C247.82,417.52,247.48,388.32,246.9,359.86Z"/><path class="cls-10" d="M230.52,329.48c-30.53,8.16-66.45.86-91.61,23.24,3.43-7.44,10.52-10.6,18.07-14.26-5.92-2.76-11.61-.21-16.7-2.6,10.58-5.45,27.15,9.75,32.42-5.87,5.63-23.39,8.28-47.76,15.33-70.64,2,4.67.2,8.78-.82,12.53-4.46,16.49-5.55,33.18-4.9,50.16.46,12.07,0,11.61,11.87,10.25,10.8-1.24,21.61-2.31,32.35-4,1.46-.23,3-.26,4,1.2Z"/><path class="cls-6" d="M209.83,397.83c5.94,1.41,22.18-4,22,5-.4,36.63,6.07,38.17-33.77,36.74-6.47,0-9.14-2.57-9.25-9.16-.15-9.28.06-18.55-.1-27.83C187.71,394,204.32,399.22,209.83,397.83Z"/><path class="cls-9" d="M230.53,338.3c2.88,6.43,3.4,13.31,3.85,20.2C225.21,360.7,230.32,343.33,230.53,338.3Z"/><path class="cls-2" d="M315.54,316.33c.07-37.7-2.12-55.61-1.18-68.95.35-6.53.21-27.57-3.4-32.68-6.8-9.22-17.76-13.88-29.8-21.95-2.71-4.87-9.84-12.3-14.53-15.18,2.72,37.6,9.72,74.83,12.12,112.56,4.65,5.37,23.53-2.25,25.37,5a47.38,47.38,0,0,0-1.55,20.55c1.91,1.19,1.63,6.54-1.25,7.41a.66.66,0,0,0-.48.71c3.92,1.94,4,6.94-.95,8.29a36.6,36.6,0,0,0-.8,7.44c2.69,1.51,2,6-.16,6.81-1.8,3-1.56,6.4-1.9,9.71-.19,12.4-10.83,5.11-16.25,11.6l.09,79.23c5.62,10,23.06,3.72,32.95,5.59L315.3,451Zm-24.26-62.28q-.42-10.68-1.73-21.28A161.24,161.24,0,0,1,291.28,254.05Zm-10.16-61.23a4.21,4.21,0,0,0-.17,2.07A2.73,2.73,0,0,1,281.12,192.82Zm-4.95,15.34c7.86-3.88,7.91-3.92,5.12-12.18,2.85,4.42,3.7,8.33-3.21,12a14.15,14.15,0,0,1,4.15,1.34A26.63,26.63,0,0,0,276.17,208.16Zm10.48,7a37.16,37.16,0,0,1,.84,4.25C287.23,218,287,216.47,286.65,215.11Zm4.57,62.46a8.93,8.93,0,0,1-.91,4A16.58,16.58,0,0,0,291.22,277.57Zm7.47-9.33c-5.88.33-7,.85-7.33,5.67q.19-6.21.12-12.39c2.41,7,11.38,1.48,17,5.57C304.85,268.83,301.7,268.07,298.69,268.24Zm16.74,38.55c-.22-18.43-.9-36.82-1.76-55.06C314.9,270,315.26,288.45,315.43,306.79Z"/><path class="cls-2" d="M316.51,400.34c.3,16.6.7,33.21-1,49.77-1.77-4.23-.39-8.62-.89-12.22-6.9,1.71-21.91,3.92-22.09-6.8,0-8.62-.93-17.21-.72-25.85.1-4.24,1.72-6.44,6-6.1C304.07,399.62,310.44,397.71,316.51,400.34Z"/><path class="cls-11" d="M316.54,437.78c1.82-97.33-3.79-108.68-3.12-194.67C320.12,335.13,312.31,305.69,316.54,437.78Z"/><path class="cls-12" d="M266.71,183.4c0,2,.1,3.8.26,5.5-14.85-4.83-24.13-15.14-29.36-29.52,6.38,5.72,18.61,12.7,29.85,14.7A58.33,58.33,0,0,0,266.71,183.4Z"/><path class="cls-13" d="M316.51,400.34c-33.81-1.1-23,.14-22.41,32.55.38,6.25,8.53,5.34,13.15,5.46,4.76.54,7.94-.55,8.3-6.2-.24,6.2.47,12.85-.25,18.83-4.25-9.47.24-11.74-12.8-11.37-9.05,0-11.2-2.09-11.25-11,0-8,.24-16-.11-24-1.57-11.64,18.17-5.08,25.38-6.74Z"/><path class="cls-12" d="M286.48,119c.25,6,8.33,9,5.64,16-.54,1.4-1.62,2.41-4,1.5C294.72,129.88,283.38,125.43,286.48,119Z"/><path class="cls-5" d="M297.7,119.08c5.18-.07,5.06,7.79.07,7.51C292.85,126.81,293,119.12,297.7,119.08Z"/><path class="cls-5" d="M274.18,122.74c.13,4.84-7.31,5.27-7.19.41C266.39,118.11,274.33,118,274.18,122.74Z"/><path class="cls-5" d="M261.84,110.37c4.19-3.94,8.93-4.55,14.13-2.47C271.46,109.77,266.41,108.88,261.84,110.37Z"/><path class="cls-5" d="M291.14,108.07c4.31-3.1,8.47-3.25,13.72,1.15C299.37,109,295.29,107.92,291.14,108.07Z"/><path class="cls-1" d="M306.37,296.91l-3,19.5c-.54-1-3.52-1.84-4.13-1.54-9.66.22-16.49-.32-26.77.13,7.08-5.92,15.3-6,23.35-7.06,7.32-.06,7.19-9.05-.17-8.79-15.1-.95-26.47,2.54-41.1,12.53-1.05-12.8-3.17-16.57,11.34-15.64C281.57,295.72,290.5,295.17,306.37,296.91Z"/><path class="cls-14" d="M278.75,290.13c7.32,0,14.66.28,22-.08,5.49-.27,7.31,1.65,5.66,6.86-17.68,1-35.55-.8-53.13.8-6.37-6.4,9.91-15.51,14.18-10.24C271.36,291.17,275,289.53,278.75,290.13Z"/><path class="cls-1" d="M253.24,297.71c17.05-2.72,35.58,0,53.13-.8-14.81,2.77-30.89.36-46.11.78-8.42-.82-5.26,6.16-5.92,11.48C253.87,305.42,253.49,301.41,253.24,297.71Z"/><path class="cls-15" d="M299.81,345.68c-2.71,9,2.95,20.93-8.34,21.2-5.61,1-18.77.46-23.62.55-5.27.95-8.45-3.11-7-8.32a6.27,6.27,0,0,1,3.58-3,144.71,144.71,0,0,1,20.85-6.52A132.16,132.16,0,0,0,299.81,345.68Z"/><path class="cls-1" d="M301.68,331.51c-.4,3.2-.79,6.44-1.15,9.66-5-5.56-12.88-1.73-25.26-1.56C284.68,334.16,293.62,332.8,301.68,331.51Z"/><path class="cls-16" d="M301.32,323.07c.06.43.11.85.17,1.27-8.93-.19-17.49,3.82-28.43,2.07A112,112,0,0,1,301.32,323.07Z"/><path class="cls-2" d="M210.13,400.36c5.1,1.28,19.51-3.54,19.14,4.25-2,9.7,6,33.74-9,33.71-9.54-1.5-28.76,5.34-29-9.44C193.11,400.24,182.89,399.51,210.13,400.36Z"/><path class="cls-3" d="M281.14,192.75c1.83,4.93,7.11,9.9-.33,14.56,9.27,3.29,7.92,11.9,9,18.6,1.73,11.15,3.41,22.41,2.76,33.8,0,7.19,10.42,2.59,15,4.2,1.79.17,3.85,1,3.86,3.43,0,2.86-2.22,2.39-4.07,2.66-19.62-2.13-13.82,3.23-16.7,18.33-2.68-.83-1.93-2.87-1.74-4.24,3.1-22.73.57-45.21-2.75-67.67-.78-5.32-4.69-7.61-11.47-6.95-1.25.12-3.08,1.8-3.34-.87-.19-2,1.89-1.08,2.88-1.53,19.14-5,0-8.82,7-14.32Z"/><path class="cls-17" d="M258.92,261c4.58-5.59,3.38-11.88.32-16.77C266.34,247.16,265.46,258.45,258.92,261Z"/><path class="cls-17" d="M261.59,280c-7.41-15.15,14.65-10.87,8.93-30.24-.58,13.35-8.43,12.08-12.22,19.59C256.84,274.52,261.28,280.12,261.59,280Z"/><path class="cls-1" d="M359.88,363.41c-6.22-1.29-33.19,3.1-33-4.1l-7-60.88a4.33,4.33,0,0,1,4.3-4.83h42.89a4.34,4.34,0,0,1,4.3,4.84q-3.58,30.57-7.15,61.15A4.34,4.34,0,0,1,359.88,363.41Z"/><g class="cls-18"><path class="cls-19" d="M331.06,305.09c-2.95-35.11-26.62-62.7-63-63-55-.66-84.21,69.17-44.54,107.55,21.52,29.45,154.86,24.72,149.22,13.14.06-4.35-22.47-1.56-34.21-17.86C331.3,334.87,335.71,328.06,331.06,305.09Z"/></g><path class="cls-1" d="M301.32,323.07a4.46,4.46,0,0,0,1.5-1.3c-.13,1-.26,2-.38,3l-.95-.46A2.12,2.12,0,0,1,301.32,323.07Z"/><path class="cls-14" d="M345.9,290.48c-7.32,0-14.65.29-22-.08-5.49-.27-7.31,1.66-5.66,6.87,17.68,1,35.55-.81,53.14.79,6.36-6.4-9.92-15.51-14.19-10.23C353.29,291.53,349.69,289.88,345.9,290.48Z"/><path class="cls-9" d="M364,328.79c5.38.53,14.69,12.61,4.87,16.91-2.06.52-10.77,0-14.47-2.85s-1.72-6.29.09-7.42,9-.72,9-.72S364,329.05,364,328.79Z"/><path class="cls-9" d="M367.25,319.65c5.72.57,15.6,13.39,5.18,18-2.2.55-11.44,0-15.37-3s-1.83-6.69.08-7.89,9.59-.77,9.59-.77S367.22,319.93,367.25,319.65Z"/><path class="cls-9" d="M369.7,311.21c5.38.54,14.69,12.61,4.87,16.91-2.06.52-10.77,0-14.47-2.85s-1.72-6.29.08-7.42,9-.72,9-.72S369.68,311.47,369.7,311.21Z"/><path class="cls-16" d="M365.86,317.06c.71-.29,7.09.3,7.86,1"/><path class="cls-17" d="M359.73,262.87c4.58-5.58,3.38-11.88.31-16.77C367.15,249,366.26,260.32,359.73,262.87Z"/><path class="cls-17" d="M362.4,281.87C355,266.72,377,271,371.33,251.62c-.59,13.36-8.43,12.09-12.23,19.59C357.64,276.39,362.09,282,362.4,281.87Z"/></svg>