<svg id="Capa_1" data-name="Capa 1" xmlns="http://www.w3.org/2000/svg" xmlns:xlink="http://www.w3.org/1999/xlink" viewBox="0 0 500 500"><defs><style>.cls-1{fill:#fbd96b;}.cls-2{clip-path:url(#clip-path);}.cls-3{fill:#1d1d1b;opacity:0.15;}.cls-4{fill:#311d16;}.cls-5{fill:#7c8985;}.cls-6{fill:#fdc093;}.cls-7{fill:#2e2d2b;}.cls-8{fill:#3c1c0b;}.cls-9{fill:#3e2113;}.cls-10{fill:#333;}.cls-11{fill:#925844;}.cls-12{fill:#5b2a1b;}.cls-13{fill:#757575;}.cls-14{fill:#3d5261;}.cls-15{fill:#faf8f8;}.cls-16{fill:#c9dfeb;}.cls-17{fill:#0b2d4f;}</style><clipPath id="clip-path"><path class="cls-1" d="M63.08,276.45c-1.5-50,19.61-49.17,58.77-65.07,8.86-3.29,5.67-6.17,9.49-11.14,12,.5,23.88,2.13,35.66-1.18,14.59,18.14,40.21,22.34,59.94,33.68,13.56,10.34,11.11,30.18,11.89,45.36,0,1.88-1.06,4-3,4.46-6.38.41-23,6.92-24.52-1.89-17.57,58,10.76,58.28-5.51,78.63-25.45,5.76-51.89,3.48-77.61,1-10.71-1.49-21.53-2.14-32.24-3.7-2,.1-2.79-1.77-3.65-3.29,3.51-8.68,3.39-17.7,2.94-26.87-.76-15.11.43-22.22.24-24.3-.71-7.2-4-43.72-17.29-22.25C73.2,281,67.69,278.41,63.08,276.45Z"/></clipPath></defs><path class="cls-1" d="M63.08,276.45c-1.5-50,19.61-49.17,58.77-65.07,8.86-3.29,5.67-6.17,9.49-11.14,12,.5,23.88,2.13,35.66-1.18,14.59,18.14,40.21,22.34,59.94,33.68,13.56,10.34,11.11,30.18,11.89,45.36,0,1.88-1.06,4-3,4.46-6.38.41-23,6.92-24.52-1.89-17.57,58,10.76,58.28-5.51,78.63-25.45,5.76-51.89,3.48-77.61,1-10.71-1.49-21.53-2.14-32.24-3.7-2,.1-2.79-1.77-3.65-3.29,3.51-8.68,3.39-17.7,2.94-26.87-.76-15.11.43-22.22.24-24.3-.71-7.2-4-43.72-17.29-22.25C73.2,281,67.69,278.41,63.08,276.45Z"/><g class="cls-2"><path class="cls-3" d="M278.15,375.47c-.55-19.89-21-38.47-38.42-38.42-14.74.05-19.35,13.45-39.83,14.28-10.67.44-10.08-3.18-25.22-4.2-20.47-1.39-23.54,5.08-40.64,2.33-29.79-6.21-28.22-12.64-24.72-34.63,1.39-25.07-11.83-55.18-5.24-86.8-2.29-.79-5.6,18.52-22.35,33.62-11,9.86-17.45,8.75-30.15,20.6-3.18,3-15.52,10.22-17.66,23C7.72,404.1,111.46,426.91,187.56,416,220.57,413.51,277,423.09,278.15,375.47Z"/></g><path class="cls-4" d="M238,280.75c-.82-16.91,2.63-41.79-16.19-50-16-8.27-45.48-15.44-54.48-31.16-2.77-3.33-2.47-7.53-3.21-11.44.05-2.89,3-4.55,4.94-6.17,15.62-11.54,15.26-32,16.37-49.52,1-6-12.06-1.28-8.18-5.39-16.57-1-31.94-8.72-47.45-13.13-1.13-.87-1.93-1.53-2.74.58a41.22,41.22,0,0,1-10.36,15.22c-6.18,8.84-2.55,21.7-1.69,31.82a30,30,0,0,0,15,21.48c6.68,3.6,4.18,13.28.86,18.47-.31,6-4,9-9.36,10.89-21.12,9.16-53.49,13.49-56,41.44-1,3.15-1.23,20-3.59,19.67-30.15-12.93,3.24-27-2.82-40.07-2.48-5.4-4.32-11.09-6.43-16.66-.32-.65.08-.81.6-.88,3.34,4.85,4.73,11.35,7.11,16.9-6.06-14.91-12.41-27.64.94-40.73C72.24,179.33,91.44,172.84,92.87,154c-1.92,3.27-3.69,6.9-7.16,9.21-2.47-.38,3.09-5.13,3.44-6.43,10.18-15.5,4.19-35.51,11.19-52.37,3.4-10.93,11.9-21.77,24-22,33.81-25.65,80.26,9.2,82.73,39.08,1.86,10.24,1.77,20.6,2.8,30.88.7,19.86,16.71,29.36,26.13,44.46,5.37,10.92,7.42,22.24,2,33.91-3.38-.15,3.25-11.95,1.33-16.17a78.22,78.22,0,0,1-4.82,11.55c-6.9,13.68,16.78,18.41,15.27,32.6.55-1.63-.33-3.85,1.56-4.17C253,261.22,243,277.26,238,280.75Z"/><path class="cls-5" d="M167.34,361.77c13.11.72,26-1,38.85-3,1,.86,0,2.17.69,3.1v2.38c-27.51,6.17-57.58,7.16-85.45,1.71,28.08,5.82,57.49,3.72,85.56-1.18.88,8,9.81,28.87,2.2,33.76-27.18,14.32-60.51,9.67-90,7.16a4.19,4.19,0,0,1-.54-3.79c1-4.18-.06-8.52,1-11.74-1,4.28.07,10.59-1.68,15.46-6.77-1-30.55-3.76-29.25-13,1.74-12.3,3.55-24.59,5-36.93,23.75,1.53,47.26,5.95,71.14,6A1.8,1.8,0,0,1,167.34,361.77Z"/><path class="cls-6" d="M102.12,297.76c-4-.21-6.51-.32-5.63,4.52-2.21,16.23,2.75,32.9-2.29,48.78-12,14.5-30.2-3.57-32.24-17.38-.64-33.26,15.64-34.81,16.34-54.19.61-11.08,9.07-17.9,15.24-26.21,6.25-5.63,5-16.39,9.38-23.54.66-1.4,1.33-3,3.28-2.55,4.25.94,3.58,6.36,3.16,9.65a123,123,0,0,0-1.2,19.65,1.9,1.9,0,0,1-1.25,2.16c3.59.7,17,5.48,15.68,10.17-1.75,4.27,2.27,8.32.16,12.46-1.59,2.21.34,5.3-.89,7.38C114.18,298.72,115.58,299.22,102.12,297.76Z"/><path class="cls-6" d="M193.11,256.4C195,262.33,203,268,206.79,274.11c5.34,5.68,6.42,7.31,6.4,13.54,2.57,14.41,25.41,24,30,41.91a.84.84,0,0,1,.39-.76c1.45,5.87.14,12.3-.85,18.25-5.49,17.34-25.43,11.07-29.77-3.54A82.13,82.13,0,0,1,205.2,327c-3.06-7.66-7.37-14.3-11.69-25-8.66-2-24.83,1.74-23.47-8.87,0-.41.1-.92-.14-1.19-3-3.19-1.64-7.5-2.85-11.17-2.66-14.6,4.42-14.27,15.73-19.13,1-.37.91-.56.71-1.67-.39-6.58-1.62-18.11,2.79-23.14,1.54-1.56,4.65-.5,4.19,1.88C190.55,245.46,190,249,193.11,256.4Z"/><path class="cls-6" d="M238,280.75c-1.2,14.11,5.61,33,6.06,50.18-.34,6.67-1.65-8.56-7.31-12.53-10.64-11.16-15-12.76-20.32-23.15-1-1.82-5.38-10-4-11C220.74,284.38,230.06,283.58,238,280.75Z"/><path class="cls-6" d="M63.08,276.45c5.25.36,9.91,3.59,15.22,3l0,0C82.58,301.4,60.29,309.61,62,333.68,61.06,317.33,61.68,293.88,63.08,276.45Z"/><path class="cls-3" d="M207,364.78c-1.67,2-4.18,1.52-6.24,1.76-9.72,1.14-19.45,2.22-29.25,2.76-17.37.59-34.9,1.66-51.75-3.49a265.16,265.16,0,0,0,87.13-1.56A1.4,1.4,0,0,1,207,364.78Z"/><path class="cls-3" d="M213.69,284.35c1.39,16.06,18.51,23.77,26.61,36.43a13.25,13.25,0,0,1,3.14,10.42c-5.51-20-29.58-27.52-31.89-48.75-.29-.61-1.52-1.8.27-2.37C212.44,281.51,213.07,282.93,213.69,284.35Z"/><path class="cls-4" d="M85,162.42l.54.63c.34,2-1.34,2.78-2.49,3.77-9.59,8.4-20.13,16.41-26.54,27.68a26.94,26.94,0,0,0-3.16,19,2.59,2.59,0,0,1-.7,3.28C44.23,192.89,69.92,176.43,85,162.42Z"/><path class="cls-3" d="M61.76,330.79c-.37-29.59,12.29-29.19,16.58-51.26,3.78,1.44-4.44,17.34-7,19.68-7.51,9.72-7.29,22.85-9.4,34.47C61.89,332.72,61.82,331.76,61.76,330.79Z"/><path class="cls-7" d="M251.35,254.53l-.58,1.33c-.9-.06-1.14-.77-1.31-1.45-1-4.22-3.75-7.31-6.71-10.27-3.81-3.34-7.47-7.81-6.38-13.23a.89.89,0,0,1,1-.87l.61.68C236.31,241.08,250.55,244.62,251.35,254.53Z"/><path class="cls-3" d="M118,405.63l1.38-19.56,1,.07q-.59,9.78-1.18,19.56Z"/><path class="cls-6" d="M176.48,128.26c3,.69,9.75-1.68,9.84,2.92-.69,11-.89,22.09-3.92,32.82-5.68,16.57-11.77,16.51-17.71,22.9a88.38,88.38,0,0,0,2.63,12.73c-11.7,3.91-24,2.4-36,1.21.59-4.7,4.23-12.1.3-15.77-12.46-6.71-17.84-17.57-18.58-31.31-2.93-31.89,5.95-18.91,14.61-43C140.21,123.58,159.82,125.19,176.48,128.26Z"/><path class="cls-3" d="M102.12,297.76c-3.77-1.71-7.42.53-11.83.49,8.14-7.36,21.63,5.5,26.9-4.55.22-.67.18-1.8.58-2,6.17-2.56,2.17-9,4.94-12.9,1.08-2.3-2.14-5.75-1-8.26,3.7-5.77-14.36-12.67-18.84-11.16,1.82-3.3,5.43,1.09,4.68-6.13-.39-7.12,1.72-14.06,1.32-21.17.45-2.85-3.2-6.58-5-2.72-2.09,1.72-7.93,29.49-10.29,23.88,5.47-7.82,4.69-18,9.92-25.88,3.62-4.64,8.27,3.46,7,7.1a115,115,0,0,0-1.77,20.8c-.56,6.55,16.7,6.08,14.48,13.84a4.28,4.28,0,0,0-.29,2.67c2.08,5,.15,9.93-.07,14.88.2,4.06-4,5.69-5.4,9.12C114.72,302,107.15,297.32,102.12,297.76Z"/><path class="cls-3" d="M191.13,239.86v9.86c-3.29-2.06.63-11.29-2.23-12.82-2.45-.61-4.3,2.51-4.49,4.67,1,4.82-3.9,18.46,2.15,19.71-16.42,6.07-21.42,4.59-18.1,24.22-.49,4,3.29,5.4,2.21,8.71-.92,2.57.39,4.09,2.71,4.84,7.91,3.18,17.84-1.5,24.84,3.83-7.71-2.59-29.53,2.74-29-9,0-1.34,0-2.65-1.12-3.64-1.95-5.56-2-12.33-1.95-18.37,1.22-6.12,9-7.49,13.92-9.76,6.38-3.33-1-21.32,6.22-26.13C189.44,233.3,191.71,236.52,191.13,239.86Z"/><path class="cls-3" d="M131,207.72c12.84,1.71,24.82,3.33,36.94-1.35C163.62,211.21,138.49,212.19,131,207.72Z"/><path class="cls-3" d="M202.06,267.91a1.25,1.25,0,0,1-1.24-.62c.25-4.53-1.43-9.06.06-13.6,1.75,2-1.51,9.9,3,6.87C203,263.3,201.57,265.41,202.06,267.91Z"/><path class="cls-3" d="M164.75,188.05C158,198.75,142,202,135,189.32c-.32-.67-1.07-1.45-.22-2.18,11,3.69,18.68,6.6,29.87-.24Z"/><path class="cls-6" d="M131.07,113.61c.7-1.32,1.35-.14,1.91.1,14.45,6.06,29.61,10.91,45.13,12.87C170.34,130.81,136.69,121.14,131.07,113.61Z"/><path class="cls-4" d="M131.07,113.61c10,8.08,34.86,15.17,47,13,.59,0,1.45-.28,1.6.37,0,1.6-2.5.11-3.23,1.31-16-1-33.95-3.77-46.29-14.58Z"/><path class="cls-3" d="M94,361.23l19.8,3.43-.13.81c-6.74-.33-13.27-1.86-19.82-3.31Z"/><path class="cls-3" d="M191.08,377.57a27.84,27.84,0,0,1,3.37,11.17A34.58,34.58,0,0,1,191.08,377.57Z"/><path class="cls-8" d="M173.12,135.45c-1.1,3.49-6.32-5.33-12.21.55-.72,1.31-2.82.49-1.73-1C162.48,130.81,170.29,130.82,173.12,135.45Z"/><path class="cls-9" d="M132.66,132.27c2.75.12,7.62.61,8,3.58-.44,1-1.17.46-1.76.13-5.93-4-10.3.55-12.57-1C126.15,132.37,130.93,132.28,132.66,132.27Z"/><path class="cls-3" d="M152.26,150c-3.25,4.61,4.47,10.71-1.7,11.79-.56.15-1.38,0-1.27.88.09.67.77.87,1.41.93C159.17,162.51,152,154.82,152.26,150Z"/><path class="cls-10" d="M166.39,143.92c4.67-.06,4.56,7,.06,6.78C162,150.89,162.15,144,166.39,143.92Z"/><path class="cls-10" d="M138.58,147.16c.12,4.36-6.59,4.75-6.48.36C131.56,143,138.72,142.88,138.58,147.16Z"/><path class="cls-11" d="M449.56,412.2c-31.56,5-63.53,4.81-95.26,7.63-5.51.49-11,.95-16.51,1.08-3.83.09-7.31-.59-10.41-2.89.49-2.63,3.62-3.11,4.42-5.62a8.54,8.54,0,0,0-5.86-10.89c-1.71-.43-3.76-.09-4.77-2.12,2.43-3.93,6.35-5.5,10.54-6.6,11.47-3,23.35-3.53,35-5.74,4-.76,8-1.44,11.58-3.59,7.47.5,14.52-2,21.78-3.06,3.35-.47,4.21-1.83,2.09-4.87-4.21-6-8.69-11.88-12.72-18-.83-2.9-3-4.94-4.72-7.25-1.57-2.3-1.75-6.62-4.82-6.52s-3.35,4.35-4.07,6.9c-4.59,16.14-17.23,23.43-31.49,28.58a453.51,453.51,0,0,1-49.56,14.64,17.59,17.59,0,0,1-5.77.38c2.68.26,5.29-.3,7.94-.65,3-.41,3.68.31,4.23,3.3-2.07,1.13-4.35,1.12-6.58,1-5.46-.28-10.52.55-15,4-3.7,2.78-8.17,2.11-12.43,2.21-4.06.15-8-1-11.93-1.49a6,6,0,0,1-5-3.91c-1.47-5.13-.72-10.39-.8-15.6a51.41,51.41,0,0,0-1.34-10.14c1.54-5.63.6-11.27.42-17-.46-14.68-1.07-29.39,1.28-44.05,1.45-9.05,1.5-18.28,4.85-27.05,1.56-4.1,3.14-7.91,6.57-10.74a88.64,88.64,0,0,1,23.09-12.47c2.25-.63,4.48-1.44,6.86-.69,2.29,1.54,1.61,4,1.79,6.14.95,11.26,3.26,14.75,14.3,17.72,11.59,3.11,22.5,1.57,32.28-6.36,5-4.08,5.4-9.82,7.24-15.11.6-1.7.36-3.7,1.87-5.06,7.7,1.3,14.49,5.29,21.92,7.37,10.13,2.43,19.46,6.25,26,15,21.61,23.31,33.66,52.58,49.46,79.51,4.86,8.3,9.29,16.84,11.87,26.2C461.36,399.15,459.66,404.6,449.56,412.2Z"/><path class="cls-10" d="M206.68,424.39c-13.79.6-27.41-1.7-41.09-2.68-29.26-2.11-58.47-4.82-87.71-7.11-3.94-.3-7.25-1-9.15-4.79q-9.53-49.51-19.11-99c-.64-3.29-.73-6.07,2-8.35,5.58-3.25,11.64-1.93,17.47-1.49,17.78,1.32,35.6,2.27,53.4,3.15S158.12,306.56,176,307c7.69.18,10.42,3,12.27,11.28,6.21,27.84,12.45,55.68,18.94,83.47,1.11,4.79,2.52,9.51,3.18,14.42C210.83,419.78,210.29,422.71,206.68,424.39Z"/><path class="cls-12" d="M374.5,148.61c-6.29-4.18-6-4.54-9.2-8-3.41-3.77-3.43-5.15-7.85-10.83-3.39-4.36-5.09-6.54-6.72-7.72-7.86-5.73-19.5-3.56-29.11-1.77-2.3.43-2,.47-7.72,1.65-11.55,2.38-14.71,2.62-18.06,1.47a18.74,18.74,0,0,1-6.18-3.61l-2.79,0c-5.78-3.57-11.85-5.49-18.55-3.45-.28.08-.56.17-.83.27-6.09,3.1-10.11,7.39-11.88,12.54a20.26,20.26,0,0,1,12.14-13.25l.13-.06a20,20,0,0,1,9.49-.76,20.25,20.25,0,0,1,11,5.81l1.27-1.12c-1.22-1.15-8.91-8.14-19-6.77a21.49,21.49,0,0,0-8.88,3.37c-9.11,6-12.41,16.74-8.41,27.35,3.7,9.83,3.65,20.69,5.15,31.09,1.22,8.45,1.72,14.05,5.94,20.32a32.75,32.75,0,0,0,5.31,6.1h0q3.61-18.5,7.21-37l.46-.44c2.67-2.51,4.09-3.76,5.58-3.87,2.62-.2,5.26,2,7,3.58a46.42,46.42,0,0,0,16,9c4,1.9,7.31,3.65,9.72,5,5.68,3.17,6.65,4.24,7.46,5.21a18,18,0,0,1,3.68,7.57,1.66,1.66,0,0,0,.06.21h0c1.07,4.41,2.77,8.7,3.2,13.27.26,2.85.55,5.71.81,8.57.16,1.81-.14,3.88,2.66,3.9s2.76-2,2.66-3.83a37.47,37.47,0,0,1,2.37-15.1s0-.07.05-.1c.38-1.1.81-2.19,1.27-3.28l.66-.48c2.94-2.16,6-4.57,9.83-2.54,4.32,2.27,5.09,6.77,5.13,11.15q.13,11.66-10,17.87c-4.16,2.54-7.14,5.8-4.23,11.16,9.13-5.69,15.2-14,19.84-23.47a285.26,285.26,0,0,0,20.14-35.78C386.15,161.58,383.86,154.83,374.5,148.61ZM254.6,134c0,.16,0,.32,0,.49,0-.15,0-.29,0-.43s0-.31,0-.47q.18-1,.42-2A19.57,19.57,0,0,0,254.6,134Zm124.55,36.85c0-3.67.29-6.52-.08-9.28a62.19,62.19,0,0,0-2.23-8.22C382.5,157.53,383.37,163.16,379.15,170.88Z"/><path class="cls-6" d="M355.55,202.07q.13,11.66-10,17.87c-4.16,2.54-7.14,5.8-4.23,11.16-.41,1.3-.95,3.19-1.45,5.5a.15.15,0,0,0,0,.07c-.11.45-.66,3.08-1,5.52-.87,6.85,5.39,15.66,5.5,23.06.13,8.36-7.58,17-16,20.11-13.23,4.95-29.75-3.12-33.13-14.49a18.35,18.35,0,0,1,.19-10.34c1.93-3.19,3.7-7.37,2.23-10.95a8.38,8.38,0,0,0-3.14-3.66c-13.34-9.09-18.95-22.87-22.41-37.83a26.89,26.89,0,0,0-2.41-6.86h0a41.83,41.83,0,0,1-1.53-12.88s.08-2,.36-4c.95-6.88,5.86-24.59,14-25.32,3.78-.33,7.79,3.21,11.54,5.92,5.8,4.19,6,4.36,8.28,5.62,3.51,1.93,4.06,1.64,9.76,4.29a61.21,61.21,0,0,1,9.17,5c2.11,1.4,4.71,4,6.43,9.54a48.67,48.67,0,0,0,.91,5.5,48.15,48.15,0,0,0,1.39,4.9c0,1.24,0,2.55,0,3.93.26,2.85.55,5.71.81,8.57.16,1.81-.14,3.88,2.66,3.9s2.76-2,2.66-3.83a37.47,37.47,0,0,1,2.37-15.1s0-.07.05-.1c.38-1.1.81-2.19,1.27-3.28l.66-.48c2.94-2.16,6-4.57,9.83-2.54C354.74,193.19,355.51,197.69,355.55,202.07Z"/><path class="cls-12" d="M318.41,191.84c-1.16,3.7-6.72-5.66-13,.59-.76,1.38-3,.52-1.83-1.05C307.11,186.9,315.41,186.92,318.41,191.84Z"/><path class="cls-3" d="M294,203.76c3.45,4.9-4.74,11.38,1.8,12.53.6.16,1.47,0,1.35.93-.09.72-.81.92-1.49,1C286.64,217.05,294.24,208.87,294,203.76Z"/><path class="cls-10" d="M310.3,198c5-.07,4.84,7.46.06,7.2C305.65,205.37,305.8,198,310.3,198Z"/><path class="cls-12" d="M288.66,192.9c-1.16,3.71-6.72-5.65-13,.59-.76,1.39-3,.52-1.83-1C277.36,188,285.66,188,288.66,192.9Z"/><path class="cls-10" d="M280.55,199c5-.07,4.85,7.46.07,7.19C275.9,206.44,276.05,199.07,280.55,199Z"/><path class="cls-11" d="M272.27,267.91a47.19,47.19,0,0,0-16.3,17.9c-2.62,5.23-1.95,13.54-4.81,29.38-2.27,12.58-.95,25.28-1.15,37.93-.07,4,.68,8.09,1.17,12.12a8.67,8.67,0,0,1-2.51,7.25c1,3.23-1.67,4.9-3.32,6.63-7,7.33-12.31,16.44-22.06,20.85a20.23,20.23,0,0,1-8-.27c-3.39-.93-5.91-2.82-6.64-6.43-1.88-9.38-4.95-18.5-6.47-28-.32-2-.83-4,.8-5.79,9.78-17.73,19.49-35.5,29.37-53.18,5.48-9.81,11.67-21.48,25-30.68A67.16,67.16,0,0,1,272.27,267.91Z"/><path class="cls-13" d="M213.25,404.87a9.13,9.13,0,0,0,3.52,5.39c2.75,1.75,6.14.74,7.39.58,13.29-1.73,26.45-4.68,40-4.78,2.82,1,2.31,2.94,1.34,5s-2.83,3.47-4.64,4.83l-54.14,8.54c2.21-2.21,2.67-4.6,1.93-7.8-7.64-33.07-15.25-66.14-22.48-99.3-1.38-6.35-4.75-8.34-10.6-8.61-13.49-.62-27-1.55-40.46-2.28q-38.62-2.07-77.27-4c-2-.11-4.09.06-6.14.1,3.28-5.78,8-7.65,14.76-7.19,28.41,1.93,56.87,3.3,85.3,4.92,10,.57,20,1.69,30.06,1.78a10.07,10.07,0,0,1,6.39,1.84,10.38,10.38,0,0,1,3.42,6.73C203,361.66,211.61,398.89,213.25,404.87Z"/><path class="cls-11" d="M295.53,260.53c-1.75,16.68,11.61,20.35,25.23,20.52a24.81,24.81,0,0,0,10.65-2.51c6.82-3.19,10.41-8.19,9.91-16-.14-2.09-1.79-5.15,2.19-5.84l5.09,1.51c.6,19.31-13.1,28.92-29.9,29.5-6.06.21-11.67-1.13-17.28-2.88a12.75,12.75,0,0,1-7.55-6.75c-2.74-5.23-3-10.7-2-16.36C292.66,260.12,293.73,259.22,295.53,260.53Z"/><path class="cls-14" d="M254.94,131.61a19.57,19.57,0,0,0-.34,2.42c0,.16,0,.32,0,.49,0-.15,0-.29,0-.43s0-.31,0-.47Q254.7,132.6,254.94,131.61Z"/><path class="cls-6" d="M274.63,403.49c7.8-5.44,7.2-5.14,7.8-5.48,3-1.7,9.54-4.42,20.9-2.22a32.54,32.54,0,0,1,18.21,3.87c4.12.29,8.71-1.1,11,4.33,3,7,1.66,11-5.2,14-3.22.39-6.28.76-9.2,2.73-3.87,2.61-8.37,1.55-12.33-.09-8.17-3.4-15.57-3.16-23,2.23-5.6,4-12.66,3.69-18.93,2.36-5.75-1.21-1.11-6.1-1.58-9.28a26,26,0,0,1,3.19-5C267.76,408.23,269.93,406.77,274.63,403.49Z"/><path class="cls-11" d="M321.54,399.66c-7,.52-13.13-3.14-19.88-3.65-4.61-2.51-9.69-.15-14.76-1.51,19.21-4.89,38-10.13,56.4-16.68,8.67-3.09,16.95-6.95,23.57-13.93,4.79-5.05,5.76-11.63,8.74-17.37.84-1.63,1.42-3.39,2.22-5,1.05-2.16,2.45-2.08,3.63-.2,1.81,2.91,4.46,5.49,4.15,9.35,1.66,2.6.07,5.2,0,7.8-2.24,8.42-2.07,17.44-6.25,25.38-2.9,4.74-8,4.16-12.39,4.9q-15.57,2.61-31.21,4.83C330.43,394.28,326,396.87,321.54,399.66Z"/><path class="cls-3" d="M295.16,261.08c-1.75,16.67,11.62,20.35,25.23,20.52A24.92,24.92,0,0,0,331,279.09c6.82-3.19,10.41-8.19,9.91-16-.14-2.08-1.79-5.14,2.2-5.83l5.09,1.5c.6,19.32-13.1,28.93-29.9,29.5-6.07.21-11.67-1.12-17.29-2.87a12.81,12.81,0,0,1-7.55-6.75c-2.73-5.23-3-10.71-2-16.36C292.3,260.67,293.36,259.77,295.16,261.08Z"/><path class="cls-3" d="M321.17,400.2c-6.94.53-13.12-3.14-19.88-3.64-4.6-2.51-9.68-.16-14.75-1.51,19.21-4.89,38-10.14,56.39-16.68,8.68-3.09,17-6.95,23.58-13.94,4.78-5,5.76-11.62,8.73-17.36.85-1.63,1.43-3.4,2.23-5.05,1-2.17,2.45-2.08,3.62-.2,1.82,2.9,4.46,5.49,4.16,9.35,1.65,2.59.06,5.19,0,7.8-2.24,8.42-2.06,17.44-6.25,25.38-2.89,4.74-8,4.15-12.39,4.9q-15.57,2.61-31.21,4.83C330.06,394.83,325.6,397.41,321.17,400.2Z"/><path class="cls-15" d="M267.65,406a3.13,3.13,0,0,1-2.93,1.12c-14.26,2-28.52,4-42.79,5.89-2,.26-5,1.44-6.39.17a2.28,2.28,0,0,1-.66-1.21c-.62-2.33-2.09-7.3-4.14-14.21l56.92,4.53A3.15,3.15,0,0,1,267.65,406Z"/><path class="cls-16" d="M254.94,131.61a19.57,19.57,0,0,0-.34,2.42c0,.16,0,.32,0,.49,0-.15,0-.29,0-.43s0-.31,0-.47Q254.7,132.6,254.94,131.61Z"/><path class="cls-16" d="M268.32,116.34c-.28.08-.56.17-.83.27-6.09,3.1-10.11,7.39-11.88,12.54a20.26,20.26,0,0,1,12.14-13.25C268.11,115.84,268.27,116,268.32,116.34Z"/><path class="cls-17" d="M339.93,193.94c-.46,1.09-.89,2.18-1.27,3.28.33-.8.69-1.6,1.07-2.38a7.13,7.13,0,0,1,.86-1.38Z"/><path class="cls-3" d="M330,203.63c-1.67-4.51-3.88-8.77-5.12-13.51-2.36-9-10.27-11.51-18-13.19-10.88-2.36-20.6-7.09-29.93-12.83,0-.1,0-.25,0-.42a6.09,6.09,0,0,1,3.87-4.48,6.16,6.16,0,0,1,4,.15c7.8,2.59,14.23,9.74,24.55,14.34,2.48,1.11,2.56.9,4.59,1.93,3.28,1.66,10.44,5.29,12.86,12,.89,2.45.43,3.34,1.87,7.35A22.45,22.45,0,0,1,330,199.7,13.39,13.39,0,0,1,330,203.63Z"/><path class="cls-3" d="M338.52,241.89c-6.33,6-12.15,12.52-21,15.13-5.46,1.61-10.84,1.18-16.26.61a3.48,3.48,0,0,1-2.56-1.31c-.95-1.46-.1-3.93,1.08-5.27,2.09-2.38,5.58-1.59,9.76-1.78,9.07-.4,16.12-5.56,23.74-11.18a66.83,66.83,0,0,0,8.07-7Q339.94,236.49,338.52,241.89Z"/></svg>