<svg id="Capa_1" data-name="Capa 1" xmlns="http://www.w3.org/2000/svg" xmlns:xlink="http://www.w3.org/1999/xlink" viewBox="0 0 500 500"><defs><style>.cls-1{fill:#fbd96b;}.cls-2{clip-path:url(#clip-path);}.cls-3{fill:#1d1d1b;opacity:0.15;}.cls-4{fill:#311d16;}.cls-5{fill:#7c8985;}.cls-6{fill:#fdc093;}.cls-7{fill:#2e2d2b;}.cls-8{fill:#3c1c0b;}.cls-9{fill:#3e2113;}.cls-10{fill:#333;}</style><clipPath id="clip-path"><path class="cls-1" d="M145.65,287.63c-1.67-55.52,21.76-54.54,65.19-72.18,9.82-3.66,6.29-6.85,10.52-12.36,13.35.56,26.49,2.36,39.56-1.3,16.18,20.12,44.59,24.78,66.49,37.36,15,11.46,12.31,33.47,13.18,50.31,0,2.07-1.18,4.48-3.34,4.94-7.07.46-25.47,7.67-27.2-2.09C290.57,356.6,322,357,304,379.52c-28.24,6.39-57.56,3.86-86.09,1.09C206,379,194,378.24,182.1,376.5c-2.26.12-3.1-2-4-3.64,3.9-9.64,3.76-19.64,3.26-29.81-.84-16.76.48-24.65.27-27-.8-8-4.47-48.48-19.18-24.67C156.88,292.67,150.76,289.8,145.65,287.63Z"/></clipPath></defs><path class="cls-1" d="M145.65,287.63c-1.67-55.52,21.76-54.54,65.19-72.18,9.82-3.66,6.29-6.85,10.52-12.36,13.35.56,26.49,2.36,39.56-1.3,16.18,20.12,44.59,24.78,66.49,37.36,15,11.46,12.31,33.47,13.18,50.31,0,2.07-1.18,4.48-3.34,4.94-7.07.46-25.47,7.67-27.2-2.09C290.57,356.6,322,357,304,379.52c-28.24,6.39-57.56,3.86-86.09,1.09C206,379,194,378.24,182.1,376.5c-2.26.12-3.1-2-4-3.64,3.9-9.64,3.76-19.64,3.26-29.81-.84-16.76.48-24.65.27-27-.8-8-4.47-48.48-19.18-24.67C156.88,292.67,150.76,289.8,145.65,287.63Z"/><g class="cls-2"><path class="cls-3" d="M384.2,397.45c-.61-22.05-23.32-42.67-42.61-42.61-16.35.05-21.46,14.92-44.18,15.84-11.83.49-11.18-3.52-28-4.66-22.71-1.54-26.12,5.64-45.08,2.59-33.05-6.89-31.3-14-27.42-38.42,1.54-27.8-13.12-61.2-5.82-96.27-2.53-.87-6.2,20.54-24.78,37.29-12.15,10.94-19.36,9.7-33.45,22.84-3.52,3.29-17.21,11.35-19.58,25.47-29.07,109.69,86,135,170.41,122.92C320.33,439.66,382.89,450.28,384.2,397.45Z"/></g><path class="cls-4" d="M339.64,292.39c-.91-18.75,2.92-46.35-17.95-55.41-17.79-9.17-50.44-17.13-60.42-34.56-3.08-3.7-2.75-8.36-3.57-12.7.05-3.2,3.32-5,5.48-6.83,17.33-12.8,16.92-35.52,18.16-54.93,1.08-6.66-13.38-1.43-9.08-6-18.38-1.1-35.42-9.67-52.62-14.56-1.26-1-2.15-1.69-3,.64a45.79,45.79,0,0,1-11.5,16.89c-6.85,9.8-2.82,24.07-1.87,35.3a33.21,33.21,0,0,0,16.63,23.82c7.42,4,4.65,14.73,1,20.48-.35,6.72-4.47,10-10.38,12.08-23.43,10.16-59.33,15-62.11,46-1.15,3.5-1.36,22.2-4,21.82-33.44-14.35,3.59-29.91-3.12-44.45-2.75-6-4.79-12.3-7.14-18.48-.36-.72.09-.89.67-1,3.7,5.38,5.25,12.59,7.88,18.75-6.72-16.54-13.76-30.66,1.05-45.17,12.12-14.18,33.42-21.38,35-42.25-2.12,3.62-4.09,7.64-7.94,10.21-2.74-.42,3.43-5.69,3.82-7.13,11.29-17.19,4.64-39.39,12.4-58.09,3.78-12.12,13.21-24.14,26.58-24.44,37.51-28.45,89,10.2,91.76,43.34,2.07,11.36,2,22.85,3.11,34.26.78,22,18.54,32.56,29,49.3,5.95,12.12,8.23,24.68,2.27,37.62-3.75-.17,3.6-13.26,1.48-17.94a86.69,86.69,0,0,1-5.35,12.82c-7.66,15.17,18.61,20.42,16.94,36.16.61-1.81-.37-4.27,1.73-4.63C356.3,270.73,345.25,288.52,339.64,292.39Z"/><path class="cls-5" d="M261.29,382.26c14.54.8,28.82-1.11,43.1-3.33,1.11,1,0,2.41.76,3.45V385c-30.51,6.83-63.87,7.93-94.78,1.89,31.14,6.46,63.77,4.13,94.9-1.31,1,8.92,10.89,32,2.45,37.45-30.15,15.88-67.12,10.72-99.87,7.93a4.57,4.57,0,0,1-.59-4.19c1.1-4.64-.07-9.46,1.11-13-1.13,4.74.09,11.74-1.86,17.15-7.51-1.11-33.88-4.18-32.44-14.38,1.93-13.64,3.93-27.28,5.56-41,26.35,1.69,52.43,6.59,78.91,6.66A2,2,0,0,1,261.29,382.26Z"/><path class="cls-6" d="M189,311.26c-4.48-.23-7.22-.36-6.24,5-2.45,18,3,36.49-2.54,54.11-13.27,16.08-33.5-4-35.77-19.27-.7-36.9,17.36-38.62,18.13-60.12.68-12.28,10.07-19.84,16.9-29.06,6.94-6.25,5.59-18.19,10.41-26.12.73-1.55,1.47-3.28,3.63-2.82,4.73,1,4,7,3.52,10.7a136,136,0,0,0-1.34,21.8,2.12,2.12,0,0,1-1.39,2.39c4,.78,18.89,6.07,17.4,11.28-1.94,4.74,2.52,9.23.17,13.82-1.76,2.45.38,5.88-1,8.19C202.33,312.33,203.88,312.88,189,311.26Z"/><path class="cls-6" d="M289.88,265.38c2.07,6.58,11,12.83,15.17,19.65,5.93,6.3,7.12,8.11,7.1,15,2.85,16,28.19,26.57,33.3,46.48a1,1,0,0,1,.43-.84c1.61,6.51.16,13.65-.94,20.24-6.09,19.24-28.2,12.29-33-3.93-3-4.45-6.57-12.27-8.63-18.26-3.4-8.5-8.17-15.86-13-27.68-9.6-2.25-27.54,1.92-26-9.84,0-.46.12-1-.16-1.32-3.33-3.55-1.81-8.33-3.15-12.4-3-16.19,4.9-15.82,17.44-21.21,1.15-.42,1-.62.79-1.86-.43-7.29-1.8-20.08,3.09-25.67,1.71-1.72,5.16-.55,4.65,2.09C287,253.25,286.38,257.16,289.88,265.38Z"/><path class="cls-6" d="M339.64,292.39c-1.32,15.66,6.23,36.58,6.74,55.67-.38,7.39-1.84-9.5-8.12-13.9-11.8-12.38-16.6-14.16-22.54-25.68-1.09-2-6-11.07-4.4-12.23C320.53,296.42,330.86,295.53,339.64,292.39Z"/><path class="cls-6" d="M145.65,287.63c5.82.39,11,4,16.88,3.36l.05.05c4.7,24.26-20,33.37-18.18,60.06C143.41,333,144.1,307,145.65,287.63Z"/><path class="cls-3" d="M305.28,385.6c-1.85,2.2-4.63,1.69-6.92,2-10.78,1.26-21.57,2.45-32.44,3.05-19.27.65-38.71,1.84-57.4-3.87A294.34,294.34,0,0,0,305.16,385,1.43,1.43,0,0,1,305.28,385.6Z"/><path class="cls-3" d="M312.71,296.39c1.54,17.81,20.53,26.37,29.51,40.4a14.69,14.69,0,0,1,3.48,11.56c-6.11-22.17-32.8-30.53-35.36-54.07-.33-.68-1.7-2,.29-2.63Q311.66,294,312.71,296.39Z"/><path class="cls-4" d="M170,161.14l.6.7c.38,2.24-1.49,3.08-2.76,4.18-10.64,9.32-22.32,18.21-29.43,30.7-3.66,6.62-5.08,13.63-3.51,21.12a2.86,2.86,0,0,1-.78,3.64C124.74,194.94,153.23,176.68,170,161.14Z"/><path class="cls-3" d="M144.18,347.9c-.41-32.82,13.64-32.38,18.4-56.86,4.19,1.59-4.93,19.23-7.74,21.83-8.33,10.78-8.09,25.35-10.44,38.24C144.33,350,144.26,349,144.18,347.9Z"/><path class="cls-7" d="M354.48,263.31l-.64,1.48c-1-.07-1.27-.86-1.45-1.61-1.15-4.68-4.17-8.11-7.45-11.39-4.22-3.71-8.29-8.66-7.08-14.68a1,1,0,0,1,1.14-1l.68.75C337.8,248.39,353.6,252.32,354.48,263.31Z"/><path class="cls-3" d="M206.52,430.92l1.53-21.71,1.13.08L207.86,431Z"/><path class="cls-6" d="M271.44,123.25c3.35.77,10.81-1.86,10.91,3.24-.77,12.22-1,24.5-4.35,36.41-6.3,18.37-13.06,18.31-19.65,25.4a98.92,98.92,0,0,0,2.92,14.12c-13,4.33-26.62,2.66-39.93,1.34.66-5.21,4.69-13.42.34-17.5-13.83-7.43-19.79-19.48-20.62-34.72-3.24-35.38,6.61-21,16.22-47.74C231.2,118.06,253,119.84,271.44,123.25Z"/><path class="cls-3" d="M189,311.26c-4.18-1.89-8.23.59-13.12.55,9-8.17,24,6.09,29.84-5.06.24-.73.2-2,.64-2.17,6.84-2.84,2.41-10,5.48-14.3,1.2-2.56-2.37-6.38-1.15-9.17,4.1-6.4-15.93-14.05-20.9-12.38,2-3.65,6,1.21,5.2-6.8-.44-7.9,1.9-15.59,1.45-23.48.51-3.16-3.54-7.29-5.54-3-2.32,1.9-8.8,32.71-11.42,26.49,6.07-8.68,5.21-20,11-28.71,4-5.15,9.17,3.84,7.78,7.87a128.36,128.36,0,0,0-1.95,23.08c-.63,7.26,18.52,6.74,16,15.35a4.75,4.75,0,0,0-.32,3c2.31,5.55.17,11-.07,16.51.22,4.51-4.42,6.31-6,10.12C202.92,315.92,194.53,310.78,189,311.26Z"/><path class="cls-3" d="M287.68,247V258c-3.64-2.28.7-12.52-2.47-14.21-2.72-.68-4.77,2.78-5,5.18,1.1,5.35-4.32,20.47,2.38,21.86-18.21,6.73-23.75,5.09-20.07,26.86-.55,4.4,3.65,6,2.45,9.66-1,2.86.43,4.54,3,5.37,8.77,3.53,19.79-1.66,27.55,4.25-8.56-2.87-32.75,3-32.22-10,0-1.49,0-2.94-1.24-4-2.15-6.17-2.17-13.68-2.16-20.37,1.35-6.8,10-8.31,15.45-10.83,7.07-3.69-1.16-23.65,6.89-29C285.81,239.76,288.33,243.33,287.68,247Z"/><path class="cls-3" d="M221,211.39c14.24,1.9,27.53,3.7,41-1.5C257.17,215.26,229.3,216.35,221,211.39Z"/><path class="cls-3" d="M299.81,278.15a1.38,1.38,0,0,1-1.38-.68c.27-5-1.59-10.05.07-15.1,1.93,2.2-1.67,11,3.33,7.63C300.85,273,299.27,275.38,299.81,278.15Z"/><path class="cls-3" d="M258.42,189.57c-7.54,11.87-25.26,15.51-33,1.41-.36-.74-1.19-1.61-.25-2.42,12.19,4.09,20.72,7.33,33.13-.26C258.37,188.72,258.4,189.15,258.42,189.57Z"/><path class="cls-6" d="M221.06,107c.78-1.46,1.5-.16,2.13.12,16,6.71,32.84,12.09,50.05,14.27C264.63,126.08,227.3,115.35,221.06,107Z"/><path class="cls-4" d="M221.06,107c11.06,9,38.68,16.83,52.18,14.39.65,0,1.61-.31,1.78.41,0,1.78-2.77.12-3.58,1.45-17.75-1.11-37.67-4.18-51.35-16.17Z"/><path class="cls-3" d="M180,381.66l21.95,3.81-.14.89c-7.47-.36-14.72-2.06-22-3.67Z"/><path class="cls-3" d="M287.63,399.79a30.6,30.6,0,0,1,3.73,12.38A38.57,38.57,0,0,1,287.63,399.79Z"/><path class="cls-8" d="M267.71,131.23c-1.22,3.87-7-5.91-13.55.61-.8,1.45-3.12.54-1.91-1.09C255.91,126.08,264.57,126.09,267.71,131.23Z"/><path class="cls-9" d="M221.83,126.7c3,.14,8.45.68,8.89,4-.48,1.11-1.29.51-1.94.15-6.59-4.4-11.43.6-13.95-1.16C214.61,126.81,219.91,126.71,221.83,126.7Z"/><path class="cls-3" d="M240.14,147.37c3.61,5.12-4.95,11.88,1.88,13.09.63.16,1.54,0,1.41,1-.09.75-.85,1-1.56,1C232.48,161.25,240.41,152.71,240.14,147.37Z"/><path class="cls-10" d="M259.24,137.63c5.18-.07,5.05,7.79.07,7.51C254.38,145.35,254.54,137.66,259.24,137.63Z"/><path class="cls-10" d="M228.4,141.21c.13,4.84-7.31,5.27-7.2.41C220.61,136.58,228.55,136.46,228.4,141.21Z"/></svg>