<svg id="Capa_1" data-name="Capa 1" xmlns="http://www.w3.org/2000/svg" xmlns:xlink="http://www.w3.org/1999/xlink" viewBox="0 0 500 500"><defs><style>.cls-1{fill:#553c28;}.cls-2{clip-path:url(#clip-path);}.cls-3{fill:#432918;}.cls-3,.cls-8{opacity:0.15;}.cls-4,.cls-8{fill:#363533;}.cls-5{fill:#eebdac;}.cls-6{fill:#f5ba8f;}.cls-7{fill:#2e2b32;}.cls-9{fill:#1c1b21;}.cls-10{fill:#060508;}.cls-11{fill:#333;}</style><clipPath id="clip-path"><path class="cls-1" d="M324.34,415a593.27,593.27,0,0,1-148.67,4.26q-13.42-1.33-26.25-3.2l7.8-185.2H324.34Z"/></clipPath></defs><path class="cls-1" d="M324.34,415a593.27,593.27,0,0,1-148.67,4.26q-13.42-1.33-26.25-3.2l7.8-185.2H324.34Z"/><g class="cls-2"><path class="cls-3" d="M372.45,357.9c-10.77-45.39-27.95-89.2-49.27-130.65-5.46-10.6-15.68-20.88-28.34-21.79-15.54-1.12-30.47,13.56-36.76,27.76-7.26,16.38-2.93,31.89,4.79,58,25.85,87.54,30.77,101.89,22.88,111.76-4.37,5.47-22.13,5.85-57.48,6.39-17.09.26-79.47.64-85.15-18.1-.53-1.73-.7-4-2.56-5.12-5.79-3.32-20.91,9.6-28.34,21.79-13.08,21.48-5.29,52.73,17,64.88,28,15.05,73.5-4.93,105-7.85,22-4.72,44.8-6.76,66.35-13.42C337.6,436.55,383.74,403.61,372.45,357.9Z"/></g><path class="cls-4" d="M306.17,168c-2-2.83-.86-6-.54-8.87,1-9-2.07-16.9-5.55-24.89-2.59-5.93-6.37-11.43-7.25-18.06,7.57.78,12.93,4.5,15.69,11.73.9,2.36,1.64,5.25.41,7.07-3.9,5.75-2.11,10.74.38,16.34C311.93,157.23,309.33,162.82,306.17,168Z"/><path class="cls-5" d="M261.9,105.73a14.9,14.9,0,0,1-1.5,2.06c0-.26,0-.52,0-.79A9.38,9.38,0,0,0,261.9,105.73Z"/><path class="cls-6" d="M403.92,391.56c-1.39,6.4-3.36,11.14-6.14,14.54A133.64,133.64,0,0,1,366.2,434c-4.85,3.1-10.28,2.81-15.43.61-10.86-4.63-16.59-6.2-22.81-10.75a70.49,70.49,0,0,1-21.19-25c-1.87-3.7-3.8-10.54-7.66-24.21-2.18-7.71-4.45-16.56-6.95-26.33-.85-3.3-1.41-5.54-2.3-9-6.38-25.23-9.56-37.85-10.22-40.4-5-19.27-5.36-19.24-7.3-28.06-1-4.39-1-5.05-4.38-21-.87-4.08-1.51-7-2-9.29-.93-4.38-1.34-6.09-1.82-8-2.35-9.51-1.82-9.47-3.05-12.39-1.85-4.38-1.22-8.39.11-12.28.3-.89.65-1.78,1-2.66.62-1.51,1.28-3,1.89-4.54,2-5.62,5.28-10.77,6.69-16.67A29.9,29.9,0,0,0,269,165.57q-.19-.51-.42-1c-1.43-2.61-2.45-5.4-3.84-8l-.26-.49,1.35-.34c-1.79-3.74-3.57-7.48-5.38-11.22l-.12-.28c-2.39-5.71-4.76-11.44-7.17-17.13-1-2.4-1.62-4.69,1.14-6.35,3-1.82,4,1,5.26,2.59,5.88,7.25,11.64,14.6,17.48,22a1,1,0,0,0,1.68-.17c.66-1.42-.48-2.5-1.06-3.66-4.38-8.63-8.84-17.21-13.07-25.92-1.44-3-3.31-5.93-2.78-9.51a1.05,1.05,0,0,1,.25-.52,42.68,42.68,0,0,0,3.43-4.05c1.33-2,.65-5.86,4.23-5.54,2.82.24,4.46,3,6.34,5.07v0a1,1,0,0,0,1.74-.87c-.09-.35-.18-.7-.26-1-.32-1.17-.91-2.44.32-3.35,1.45-1.06,2.76,0,3.68.89a14.43,14.43,0,0,1,2.63,3.79c2.47,4.68,4.82,9.42,7.23,14.13a1.1,1.1,0,0,0,.14.21l1.05,1.19a.89.89,0,0,1,.23.5c.95,6.51,4.66,11.94,7.21,17.78,3.48,8,6.59,15.85,5.55,24.89-.31,2.71-1.36,5.74.28,8.46a1,1,0,0,1,.1.86c-2.88,8.07-1.61,16.49-1.78,24.76-.06,2.49-2.42,5.49.45,7.71a1,1,0,0,1,.33,1c-2.9,13.46,3.47,24.67,8.91,36.18,13.66,28.88,29.75,60.45,37,78.94.55,1.42,1,2.64,1.36,3.55a1,1,0,0,0,1.13.62q5.53-1.17,11.38-2.21c9.05-1.62,17.74-2.78,26-3.59a1,1,0,0,1,1.09.92A206.81,206.81,0,0,0,399,355.93C402.66,368.68,406.76,378.46,403.92,391.56Z"/><path class="cls-6" d="M204.69,223c.15,6.49-2.28,12.56-3,18.9V242c-.55,12.81-3.58,25.26-5.32,37.9-1.94,14-4.38,28-6.58,42-.1.85-.44,1.65-.62,2.49,0,0,0,.06,0,.09-.85,6-1.84,12-2.87,18-.46,2.75-1,6.06-2.21,12.66-2.89,15.63-4.34,23.45-6.62,29.05a64.53,64.53,0,0,1-14.94,22.51,34.23,34.23,0,0,1-5.11,4.28c-7,4.63-13.73,9.6-21.52,13.18-16.87,7.73-24,5.41-37-9C90,405.25,92,392.2,92.58,382.81c.69-11.53,3.57-19.59,8.6-33.3a280.09,280.09,0,0,1,15.24-34c6.86-13,9.16-15.13,23.41-40.45,4.32-7.64,6.46-11.46,7.35-13.22,3.77-7.56,16.52-33.62,19-39,.89-1.91,2.37-2.91,4.28-5.6a16.74,16.74,0,0,0,2.46-4.36,14.59,14.59,0,0,0,.84-3.67.6.6,0,0,0,0-.19c-1-13-5.25-25.22-10.09-37.21-2.61-6.44-4.92-13.11-5.73-19.84a40.47,40.47,0,0,1,3.1-21.69c2-4.32,2.77-9.68,7.12-12.76a1,1,0,0,1,1.14,0c2.61,2,4.77,2,6.46-1.74.6-1.33,2.05-2.33,3.24-3.32,2.05-1.73,4.21-1.24,6.24.07a4.31,4.31,0,0,1,1.89,5.41c-.58,1.78-1.12,3.58-1.68,5.38a.61.61,0,0,1,0,.12c-5.91,12.58-7.71,23.74-5.1,32.53a1,1,0,0,0,1.9,0c2.22-6.74,7-11.67,11.43-16.76,1.26-1.44,2.9-3.31,5.34-1.94,2.59,1.47,1.82,3.68,1.13,5.82a.61.61,0,0,0,0,.12q-2.58,5.39-5.17,10.76l-.37.78a16.86,16.86,0,0,0,.71,5.21.93.93,0,0,1,.05.29c0,.57,0,1.14.07,1.71,0,.83.11,1.65.15,2.48a.78.78,0,0,1,0,.3,6.84,6.84,0,0,0,.06,3.68c.5,1.84,1.51,3.58,2,5.44,0,.12,0,.24,0,.36-.11,2.63-.71,5.35,1.37,7.6a.89.89,0,0,1,.08.17c1.9,3.93-.48,8.82,2.71,12.46a.89.89,0,0,1,.19.31,6.53,6.53,0,0,1,.31,1.25,136.91,136.91,0,0,0,2.47,16s0,.06,0,.08a37.45,37.45,0,0,1,.12,10.78A.49.49,0,0,0,204.69,223Z"/><path class="cls-4" d="M186.65,87c.42-4.68,2.95-8.15,6.92-10.87q-3,5.41-6.09,10.81C187.18,86.59,186.9,86.59,186.65,87Z"/><path class="cls-4" d="M291.71,92c-4.49-6.11-14.15-9.27-21.45-5.76-4.63,2.21-6.14.66-7.57-3.06a15.33,15.33,0,0,0-9.2-8.13c-9.11-4.64-18,.56-27.08.71a7,7,0,0,1,3.89-4.45c.18-1-.28-1.48-1.31-1.4-2.19,2.35-5.07,4.14-6.14,7.43-2.17,1.06-2.06-1.15-2.74-2-2.32-3-4.86-5.48-10.45-5.68,4.92,2.89,9.79,4.2,9.8,9.81-14.57-8.55-23.25.74-32,11.32V86.9l-.4.13-.43-.07c-.18,4.6-2.33,6.29-7.13,6.93-7.38,1-11.12,6.31-11.23,13.9-.06,3.1.3,6.21.48,9.32,2.85,2.34,5.19,2.65,7-1.33.6-1.33,2.05-2.33,3.24-3.32,2.05-1.73,4.21-1.24,6.24.07a4.31,4.31,0,0,1,1.89,5.41c-.58,1.8-1.14,3.63-1.7,5.44-6.64,14.09-8.12,26.41-4,35.6,1.64-8.35,7.15-13.94,12.22-19.76,1.26-1.44,2.9-3.31,5.34-1.94,2.62,1.48,1.8,3.72,1.1,5.88L194.88,154l-.37.78a16.44,16.44,0,0,0,.76,5.35c1.17,3.08,3.85,3.54,9.25,2.27,8.56-2,13.91-7.26,16-17.49,2.33,2.71,3.7,5,5.67,6.52,10.53,8.1,22.15,10,34.77,5.62,1.17-.4,2.39-.69,3.6-1l1.35-.34-4.08-8.54-1.41-2.94c-2.39-5.72-4.76-11.45-7.18-17.15-1-2.4-1.62-4.69,1.14-6.35,3-1.82,4,1,5.26,2.59,6.15,7.57,12.15,15.26,18.26,23,2.18-2,.57-3.37-.16-4.82-4.38-8.63-8.84-17.21-13.07-25.92-1.48-3-3.42-6.09-2.73-9.81a14.9,14.9,0,0,1-1.5,2.06c0-.26,0-.52,0-.79a9.38,9.38,0,0,0,1.5-1.27,47.59,47.59,0,0,0,3.63-4.27c1.33-2,.65-5.86,4.23-5.54,2.82.24,4.46,3,6.34,5.07.49.54.82,1.53,2.22,1-.24-.94-.48-1.93-.73-2.91-.32-1.17-.91-2.44.32-3.35,1.45-1.06,2.76,0,3.68.89a14.43,14.43,0,0,1,2.63,3.79c2.49,4.72,4.86,9.49,7.29,14.25A19.29,19.29,0,0,0,291.71,92ZM258.82,81.78a1.77,1.77,0,0,1-.52,0c-3.59-3.26-8-4.78-13.35-6.33,0,.35-.15.19-.12,0l-2.62-.76c4.65-.62,7.75-.12,10.71,1.28a.51.51,0,0,0,.14-.15L253,76c1.8,1.65,4.59,2.21,5.79,4.52a4.18,4.18,0,0,1,.4,1C259.18,81.59,259,81.74,258.82,81.78Z"/><path class="cls-4" d="M187.48,86.9l-.4.13-.43-.07C186.9,86.59,187.18,86.59,187.48,86.9Z"/><path class="cls-7" d="M261.9,105.73a14.9,14.9,0,0,1-1.5,2.06c0-.26,0-.52,0-.79A9.38,9.38,0,0,0,261.9,105.73Z"/><path class="cls-1" d="M172.92,212.86l-27.76,59.87-21.29,50c-21.64-.75-28.19-5.73-30-10.38-2.92-7.59,6.69-14.89,20.22-43.9,4.28-9.17,3.73-9.32,7.72-17.3,8.44-16.89,13.06-26.11,22.35-32.2C148.11,216.41,157.32,211.48,172.92,212.86Z"/><path class="cls-4" d="M187.48,86.9l-.4.13-.43-.07C186.9,86.59,187.18,86.59,187.48,86.9Z"/><path class="cls-1" d="M351.09,321.36,303.71,220.14c-1.87-4-.9-16.42,1.45-18.88a151.06,151.06,0,0,1,18.73,4.45c12.55,3.86,25.22,7.9,37,18.77,3.38,3.12,6.13,5.66,8.87,9.93,5.09,7.93,5.18,14.07,13,26.86.46.74.36.56.88,1.41,5.09,8.25,7.51,14.18,15.46,38.46,1.67,5.13,2.49,7.73,1.51,9.91-1.54,3.43-5.21,3.65-16.68,6.74-15.2,4.1-20.11,6.77-28.53,4.88A31.21,31.21,0,0,1,351.09,321.36Z"/><path class="cls-8" d="M364.75,319c9.08-.67,17.83-3.69,27-3.67q1,5.11,2.05,10.23c0,2.36-1.06,2.51-3.29,2.38-11.06-.65-22.17-1.64-33.19-1.11-5.2.25-5.93-1.58-6.23-5.44l11-1.92C362.82,318.53,363.78,318.74,364.75,319Z"/><path class="cls-6" d="M260.83,209.57a16.71,16.71,0,0,0,1.78,10.68q2.49,9,5,18c-.53.8-1.06,1.58-1.62,2.34-8.7,12.22-20.06,20.16-35.9,20.6a28.45,28.45,0,0,1-17.48-5.67,31.65,31.65,0,0,1-10.92-13.63l1.47-18.52a37.61,37.61,0,0,0-.07-12.47c-.48-2.6-.79-2.6-1.91-7.78-1.56-7.2-.84-6.64-1.9-9.85a39.34,39.34,0,0,1-1.32-6.38c-.13-.79-.43-2.33-1-5.06,0,0,0,0,0,0-.34-1.51-.76-3.39-1.3-5.71-1.17-5.17-2.89-12.54-5.4-23,1.25.28,2.82.58,4.67.81l-.37.78a16.44,16.44,0,0,0,.76,5.35c1.17,3.08,3.85,3.54,9.25,2.27,8.56-2,13.91-7.26,16-17.49,2.33,2.71,3.7,5,5.67,6.52,10.53,8.1,22.15,10,34.77,5.62,1.17-.4,2.39-.69,3.6-1l1.35-.34-4.08-8.54a23.86,23.86,0,0,1,7.2,10.26,20.08,20.08,0,0,1,1,6.56c5.5,10.42,3.52,20.52-1.33,30.48-1,2-2,4-3,6.06a16.48,16.48,0,0,0-3.41,4.75,15.86,15.86,0,0,0-1,2.66A13.56,13.56,0,0,0,260.83,209.57Z"/><path class="cls-9" d="M261.9,105.73a14.9,14.9,0,0,1-1.5,2.06c0-.26,0-.52,0-.79A9.38,9.38,0,0,0,261.9,105.73Z"/><path class="cls-10" d="M265.87,155.7c-.36.29-.73.57-1.09.83-8,5.83-17.12,4.51-26.1,3a28.48,28.48,0,0,1-13.81-6.86c-2.81-2.43-4.16-1.76-5.8,1.23-3,5.45-7.81,8.68-13.83,10.09-5.42,1.26-8.52.76-9.9-2-.82-1.6-1.06-4-.83-7.21a16.44,16.44,0,0,0,.76,5.35c1.17,3.08,3.85,3.54,9.25,2.27,8.56-2,13.91-7.26,16-17.49,2.33,2.71,3.7,5,5.67,6.52,10.53,8.1,22.15,10,34.77,5.62,1.17-.4,2.39-.69,3.6-1Z"/><path class="cls-8" d="M270,164a2.64,2.64,0,0,1-.93,1.59c-1,.75-2.43.47-3.7.53a89.74,89.74,0,0,1-35.5-5.59c-4.66-1.73-8.24-1.83-12.27,1.66-4.61,4-10.64,5.53-16.57,6.86-2.22.5-4.16.49-5.49-.6a5.48,5.48,0,0,1-1.72-3.45c.31-3.4-.95-6.91.72-10.22a16.44,16.44,0,0,0,.76,5.35c1.17,3.08,3.85,3.54,9.25,2.27,8.56-2,13.91-7.26,16-17.49,2.33,2.71,3.7,5,5.67,6.52,10.53,8.1,22.15,10,34.77,5.62,1.17-.4,2.39-.69,3.6-1l1.35-.34C268.24,158,268.22,161.41,270,164Z"/><path class="cls-8" d="M382.85,363.1c-3.12-2.05-5.68-4.89-9.34-6-1.33-.4-2.89-.88-3.93.25s.21,2.25.67,3.29c1.15,2.66,2.62,5.22,2.54,9.21l-12.91-28.25c2.54,1.28,2.86,2.91,3.37,4.22,2.19,5.62,5.22,9.7,12,10.32C378.85,356.49,381.12,359.84,382.85,363.1Z"/><path class="cls-4" d="M196.87,174.41c5.32-1.7,10.68-3,16.21-1,1.74.64,4,1.3,3.61,3.74s-2.65,2.37-4.54,2.32c-5.08-.15-10,.16-14.36,3.26C195,180.21,193.91,177.53,196.87,174.41Z"/><path class="cls-4" d="M268.91,180.64c.32,2.65-.82,3.75-3.27,2.58-8.42-4.05-17.3-4.21-26.36-3.65-2.27.14-5.42.44-5.66-2.93-.2-2.93,2.48-3.91,4.87-4.51,8.41-2.08,16.42-.77,24.07,3.15C265.46,176.13,267.84,177.61,268.91,180.64Z"/><path class="cls-8" d="M228.61,212.61c-3.41.86-6.42-.28-6.56-3.31a159.72,159.72,0,0,1,1-27.62c0,7.45.2,14.91-.08,22.35C222.81,208.37,223.6,211.58,228.61,212.61Z"/><path class="cls-11" d="M243.11,191.91c5.68,1.42,11.13.81,17-2C255.88,196,247.87,196.77,243.11,191.91Z"/><path class="cls-11" d="M196.67,193.24c5.68,1.43,11.14.81,17-2C209.45,197.32,201.44,198.1,196.67,193.24Z"/></svg>