<svg id="Capa_1" data-name="Capa 1" xmlns="http://www.w3.org/2000/svg" xmlns:xlink="http://www.w3.org/1999/xlink" viewBox="0 0 500 500"><defs><style>.cls-1{fill:#8abcb9;}.cls-2{fill:#f5ba8f;}.cls-3{clip-path:url(#clip-path);}.cls-4{fill:#1d1d1b;opacity:0.15;}.cls-5{fill:#3f3c3d;}.cls-6{fill:#322421;}.cls-7{fill:#ddaf8f;}.cls-8{fill:#452e25;}.cls-9{fill:#3b2d27;}.cls-10{fill:#1c1714;}</style><clipPath id="clip-path"><path class="cls-1" d="M177.09,320.61c-1.16-1.45-2.93-2-4.38-3-8.09-5.73-16.28-11.32-24.41-17a8.53,8.53,0,0,0-4.25-1.63c-1-1.8-.36-3.54.32-5.2,1.71-4.25,3.49-8.48,5.3-12.69,4.4-10.22,9.12-20.3,14.08-30.26.27-.56.83-1.11.41-1.85a104.83,104.83,0,0,1,8-12.84A32.45,32.45,0,0,1,195.22,223c5.17-.61,10.36-.68,15.53-1.15a49.38,49.38,0,0,0,17.2-4.63,6.43,6.43,0,0,1,3.18-1.08A61.43,61.43,0,0,0,247.49,219c1.44.08,2.85.33,4.3.34a84.31,84.31,0,0,0,18.68-2,9.46,9.46,0,0,1,2.9-.41A3,3,0,0,1,275,218c3.38,3.56,7.78,4.71,12.44,5,4.89.33,9.75-.29,14.62-.8a39.55,39.55,0,0,1,12.89.38,26.33,26.33,0,0,1,12.17,6.41,52.81,52.81,0,0,1,12.15,17.52c1.44,3.18,3,6.34,4.16,9.64a2.48,2.48,0,0,1,.28,1.34c1,3.3,2.43,6.43,3.67,9.64,1.78,4.61,3.61,9.2,5.41,13.81a5.91,5.91,0,0,1,.57,2.84c-7,6.28-12.12,14.07-17.58,21.59a54.55,54.55,0,0,0-6.13,9.61c-.34.75-.65,1.51-1,2.28-.23.56-.47,1.2-1.32.84-1.31-2.5-2.61-5-3.95-7.5-.26-.49-.38-1.33-1.23-1.12s-.52.94-.58,1.45c-1,8.49-1.9,17-2.88,25.48-.76,6.65-2,13.24-2.57,19.91a64.3,64.3,0,0,0,2.17,23.71q4.15,14.64,8.24,29.3c.1.34.17.7.24,1.05,1,4.81,1,4.84-3.38,7.27-11.16,6.28-23.17,10.17-35.66,12.7-17.86,3.62-35.88,4.11-54,2.65a194.58,194.58,0,0,1-36.37-6c-5.91-1.64-11.81-3.35-17.17-6.46-2.7-1.57-3.07-2.37-2.47-5.42,2-9.85,3.51-19.78,5-29.71a134.53,134.53,0,0,0,.3-34.2c-.94-9-2-17.92-3.23-26.84-.32-2.28-.63-4.56-1-7.08-.27.43-.54.89-.81,1.37C177.7,319.37,177.38,320,177.09,320.61Z"/></clipPath></defs><path class="cls-2" d="M176.79,319.83c-.31.67-.76,1.67-1.28,2.88a109.12,109.12,0,0,0-5.9,19.3c-2.9,12.11-5.17,17.73-7.84,23.7-2.12,4.74-5.88,8-10.19,10.62a37.38,37.38,0,0,1-7.24,3.39,15.27,15.27,0,0,1-10.7-.1c-7.43-2.79-14.41-6.36-20.22-11.85a31.29,31.29,0,0,1-7.28-11.52c-4.85-12.27-8.24-25-11.4-37.77C91.82,306.66,89,294.81,86.1,283a21.36,21.36,0,0,0-10.77-13.85c-3.18-1.79-6.43-3.47-9.68-5.11-6.46-3.28-11.32-8.29-15.6-14a132.88,132.88,0,0,0-9.92-11.8A22.46,22.46,0,0,1,38.21,236c-.82-1.13-1.29-2.37-.38-3.7a3.32,3.32,0,0,1,3.85-1.16c.42.14.8.52,1.38.19-.25-1.46-1.5-2.37-2.09-3.65a124.68,124.68,0,0,0-6-12.17c-.26-.44-.35-1-.81-1.29v-2.47c2-2.43,3.15-2.6,7.22-1.09.35-.45,0-.75-.23-1.09-.86-1.46-1.49-3-2.23-4.54-1.34-2.73,1-4.85,3.21-5.29A4.4,4.4,0,0,1,46.41,201a2.11,2.11,0,0,0,3.11.34c2.5-1.63,4.82-1.28,7.14.89,3,2.76,5,6.27,7.29,9.54a27.32,27.32,0,0,0,6,6.62c2.24,1.62,4.67,3,7,4.44a64.89,64.89,0,0,0,9.27,5.23c1.25.52,1.77.23,2.51-.75,4.2-5.62,7.39-11.86,11.07-17.8a15.76,15.76,0,0,1,5.3-5.5,9.28,9.28,0,0,1,4-1.16c1.64-.15,2.55,1.24,2.24,3.23-.38,2.47-1.49,4.7-2.32,7-2.7,7.6-5.57,15.16-6.65,23.21a35.18,35.18,0,0,0,.72,11.51c1.43,7.18,4.28,13.83,7.31,20.44,4.29,9.4,8.5,18.84,12.73,28.27,3.12,7,6.75,13.65,10.29,20.39.31.59.31,1.72,1.1,1.68s.86-1.16,1.22-1.82c2.83-5.25,5.64-10.51,8.16-15.92a2.11,2.11,0,0,0,.2-1.9c1.45-.6,2.6.14,3.71.87,5.1,3.39,6.82,4.9,13.49,9.31,4.39,2.92,5.32,2.52,9.84,5.85A57.39,57.39,0,0,1,176.79,319.83Z"/><path class="cls-1" d="M177.09,320.61c-1.16-1.45-2.93-2-4.38-3-8.09-5.73-16.28-11.32-24.41-17a8.53,8.53,0,0,0-4.25-1.63c-1-1.8-.36-3.54.32-5.2,1.71-4.25,3.49-8.48,5.3-12.69,4.4-10.22,9.12-20.3,14.08-30.26.27-.56.83-1.11.41-1.85a104.83,104.83,0,0,1,8-12.84A32.45,32.45,0,0,1,195.22,223c5.17-.61,10.36-.68,15.53-1.15a49.38,49.38,0,0,0,17.2-4.63,6.43,6.43,0,0,1,3.18-1.08A61.43,61.43,0,0,0,247.49,219c1.44.08,2.85.33,4.3.34a84.31,84.31,0,0,0,18.68-2,9.46,9.46,0,0,1,2.9-.41A3,3,0,0,1,275,218c3.38,3.56,7.78,4.71,12.44,5,4.89.33,9.75-.29,14.62-.8a39.55,39.55,0,0,1,12.89.38,26.33,26.33,0,0,1,12.17,6.41,52.81,52.81,0,0,1,12.15,17.52c1.44,3.18,3,6.34,4.16,9.64a2.48,2.48,0,0,1,.28,1.34c1,3.3,2.43,6.43,3.67,9.64,1.78,4.61,3.61,9.2,5.41,13.81a5.91,5.91,0,0,1,.57,2.84c-7,6.28-12.12,14.07-17.58,21.59a54.55,54.55,0,0,0-6.13,9.61c-.34.75-.65,1.51-1,2.28-.23.56-.47,1.2-1.32.84-1.31-2.5-2.61-5-3.95-7.5-.26-.49-.38-1.33-1.23-1.12s-.52.94-.58,1.45c-1,8.49-1.9,17-2.88,25.48-.76,6.65-2,13.24-2.57,19.91a64.3,64.3,0,0,0,2.17,23.71q4.15,14.64,8.24,29.3c.1.34.17.7.24,1.05,1,4.81,1,4.84-3.38,7.27-11.16,6.28-23.17,10.17-35.66,12.7-17.86,3.62-35.88,4.11-54,2.65a194.58,194.58,0,0,1-36.37-6c-5.91-1.64-11.81-3.35-17.17-6.46-2.7-1.57-3.07-2.37-2.47-5.42,2-9.85,3.51-19.78,5-29.71a134.53,134.53,0,0,0,.3-34.2c-.94-9-2-17.92-3.23-26.84-.32-2.28-.63-4.56-1-7.08-.27.43-.54.89-.81,1.37C177.7,319.37,177.38,320,177.09,320.61Z"/><g class="cls-3"><path class="cls-4" d="M326.91,303.75c-9.3-1.42-12-28.59-14-28.26s5.21,23.3-1.36,49.36c-4.45,17.64-10.68,19-11.58,33-1.39,21.8,13,28.7,8.85,39.48-6.48,17-49.72,20-80,16-28.56-3.74-40.7-13-61.61-5.78-5.13,1.77-19.89,6.88-25.72,20.82-7.64,18.25,6.17,37,7.62,39a47,47,0,0,0,24.16,17c56.06,15.16,135.72,22.71,181-20.41,19.66-20.51,20.19-49.32,23.62-75.88,4.57-35.39,12.62-48,8.4-65C381,302,365.8,279.78,352.82,281,340.17,282.18,335.65,305.08,326.91,303.75Z"/></g><path class="cls-2" d="M327.87,318.07a2,2,0,0,1,.46-.74c1.46-4.24,4.1-7.78,6.63-11.41,3.77-5.4,7.75-10.62,11.85-15.76,1.41-1.77,3-3.39,4.48-5.1a4.66,4.66,0,0,1,2.1-1.22c3.06,6.39,5.51,13,8.72,19.35,4.58,9,4.47,11.48,5.81,11.54,1.92.09,3.27-4.4,6.28-12.15,2.82-7.25,6.32-14.2,9.28-21.39,3-7.37,6.16-14.7,9.16-22.09a49.23,49.23,0,0,0,3.62-16.64c.21-5.13-1.07-10.1-2.69-15-1.8-5.37-3.88-10.63-5.95-15.89-.23-.57-.39-1.17-.6-1.75a2.64,2.64,0,0,1,.61-3.12c.94-.85,2-.59,3.05-.29,3.23.91,5.29,3.25,7.07,5.88,3.23,4.77,5.85,9.93,9.4,14.48.06.08.11.18.17.26,2.24,2.92,2.6,3,5.77,1.13s6-4.18,9.19-5.94c6-3.29,9-9,12.62-14.26a22.52,22.52,0,0,1,3.5-4.1,4.78,4.78,0,0,1,6.54.09s0,.28.16.37a.56.56,0,0,0,.45-.05c.82-.07,1.18-.78,1.72-1.24,1.47-1.26,3.05-1.84,5-1,2.1.94,2.81,2.44,2,4.63-.44,1.26-1,2.47-1.55,3.7-.15.36-.53.76-.17,1.13s.65-.1,1-.21a4.69,4.69,0,0,1,3.3-.18c1.86.64,2.84,2.43,1.91,4.14-2.5,4.62-4.15,9.64-6.73,14.21-.34.6-.72,1.19-1.2,2a15.19,15.19,0,0,1,3.07-.56c2.31.14,3.53,2.26,2.22,4.14a41.24,41.24,0,0,1-3.79,4.66c-3.43,3.65-6.18,7.82-9.17,11.8a40.26,40.26,0,0,1-13.61,11.59c-3.95,2.07-8.05,3.95-11.35,7.06a21.32,21.32,0,0,0-6.3,11.91c-1.17,6.11-2.57,12.17-3.82,18.26q-2.67,13-5.86,26a191.32,191.32,0,0,1-7.11,23.76,32.2,32.2,0,0,1-15,16.77c-2.43,1.34-4.91,2.58-7.36,3.86a16.65,16.65,0,0,1-14.58.61,29.2,29.2,0,0,1-13.57-10.52,81.54,81.54,0,0,1-10.87-22.52c-2.15-6.88-4.17-17.25-5.28-18.69A2,2,0,0,1,327.87,318.07Z"/><path class="cls-4" d="M445.55,204.32c.38,1-.34,1.68-.77,2.37-2.06,3.31-4.2,6.56-6.33,9.83-2.72,4.2-6.56,7.3-10.34,10.45-.67.56-1.38,1.07-2,1.64-.4.35-.73.55-1.18.08s0-.72.24-1a35.33,35.33,0,0,1,5-4.3,32.41,32.41,0,0,0,7.92-8.9c2-3.29,4.25-6.37,6.42-9.53a1.63,1.63,0,0,0,.45-.95Z"/><path class="cls-4" d="M368.52,314.73a3.2,3.2,0,0,1-.54,2.42,78.07,78.07,0,0,0-9.67,24.91,14.51,14.51,0,0,1-.44,1.83c-.33,1.65-.34,2.49-.49,2.5a7.32,7.32,0,0,1-.48-2.65,13.66,13.66,0,0,1,0-2A71.06,71.06,0,0,1,362.36,325a65.48,65.48,0,0,1,5.56-10.25Z"/><path class="cls-5" d="M174.79,149.85a1.12,1.12,0,0,1,1.09.82c-.09.81-.74,1.19-1.29,1.63a81.14,81.14,0,0,0-13.2,13.06c-.83,1-1.48,2.22-2.27,3.3-.31.44-.51,1-1.18,1.11a1.93,1.93,0,0,0-1-1c3.25-5.83,7.84-10.51,12.81-14.85C171.4,152.5,173.12,151.21,174.79,149.85Z"/><path class="cls-4" d="M47.4,202.89c0-.32-.15-.67.36-.7s.79,0,1,.51a37.42,37.42,0,0,0,7.42,11.78,71.78,71.78,0,0,0,6.62,6.43c3.09,2.74,5.87,5.78,8.81,8.66.35.35.94.91.31,1.43s-.9-.23-1.23-.55c-3.55-3.42-7-7-10.65-10.27a51.41,51.41,0,0,1-9.37-10.72A22.28,22.28,0,0,1,47.4,202.89Z"/><path class="cls-4" d="M62.79,235.21c-.22.09-.42.16-.61.25a.79.79,0,0,1-1-.25c-.72-.8-1.53-1.53-2.2-2.34-2.84-3.46-6-6.66-9.07-9.87s-5.3-6.92-7.56-10.65c-.29-.48-.86-1.18-.09-1.61s1.11.41,1.38.89a79.85,79.85,0,0,0,7.71,10.91,33.11,33.11,0,0,0,3.11,3.16c2.85,2.62,5,5.86,7.67,8.64A9.48,9.48,0,0,1,62.79,235.21Z"/><path class="cls-4" d="M143.55,350.09c-.19,0-.73-1.51-1-2.39A39.1,39.1,0,0,1,141,341a110.83,110.83,0,0,0-4.37-14.08c-.79-2.12-1.59-4.23-2.38-6.35-.19-.52-.26-1.11.36-1.31a.85.85,0,0,1,.35,0c2.55.48,5.75,15.34,5.75,15.34C142.17,341.48,144,350,143.55,350.09Z"/><path class="cls-4" d="M80.83,248.85c.36-5.88.82-11.17,3.1-16.11.25-.53.46-1.25,1.11-1,.88.31.35,1.08.14,1.58a38.13,38.13,0,0,0-2.78,16.42c0,.94.34,1.81.37,2.74,0,.19,0,.37,0,.75.06,1.32,0,1.37,0,1.38-.2.07-.84-.88-1.27-1.91A9,9,0,0,1,80.83,248.85Z"/><path class="cls-4" d="M45.36,232.22c.15.11.4.27.63.47,4.28,3.66,8.71,7.12,13.33,10.35a2.07,2.07,0,0,1,.37.27c.33.37,1,.69.66,1.24s-1.06.24-1.48-.06c-2-1.39-3.92-2.8-5.81-4.29a102,102,0,0,1-8-6.65c-.27-.26-.72-.5-.45-1C44.71,232.29,44.94,232.19,45.36,232.22Z"/><path class="cls-2" d="M270.45,202.39c.44,2.75,1,5.62,1.62,8.59.47,2.19,1,4.3,1.51,6.32-3,.54-5.93,1.15-8.92,1.6a79.22,79.22,0,0,1-15.78.71c-4.58-.25-9.06-1-13.56-1.71a11.54,11.54,0,0,1-4.48-1.5,42.23,42.23,0,0,0,1.56-5.64,40.73,40.73,0,0,0,.77-9.27,49.23,49.23,0,0,0,37.28.9Z"/><path class="cls-2" d="M233,202.51a3.19,3.19,0,0,0-1.35-1c-9.14-4.32-15.63-11.39-20.78-19.89a88.46,88.46,0,0,1-12-31.87c-.05-.31-.09-.62-.12-.92-.22-2.19-.22-2.16,2-2.26,5.06-.22,8.87-2.83,11.87-6.65a59.17,59.17,0,0,0,11.19-24.84c.13-.6.24-1.2.36-1.8.16,0,.31,0,.34,0,2.84,4.52,7.25,7.2,11.59,10,12.5,8,26.27,12.37,40.91,14.32,5.87.79,11.77,1.26,17.67,1.78,2.18.2,2.56.56,2.61,2.75a86.89,86.89,0,0,1-6.56,35.13c-1.51,3.72-3,7.45-4.82,11a31.84,31.84,0,0,1-13.81,14.32c-.46.24-.88.53-1.32.8a14.22,14.22,0,0,1-4.7,2.15c-7.22,2.53-14.55,2.35-21.94.85A94.39,94.39,0,0,1,234,203.22,2.69,2.69,0,0,1,233,202.51Z"/><path class="cls-6" d="M363.53,219.09a43.37,43.37,0,0,0-5.22-7.06c-2.59-2.94-5.53-5.54-8-8.6-3.4-4.2-4.84-8.89-3.75-14.26.72-3.53,1.36-7.08,2.1-10.6,2.18-10.41-.55-19.13-8.8-26a140.23,140.23,0,0,0-14-10.46,41.56,41.56,0,0,1-16.22-19.5c-1.79-4.27-3.23-8.68-4.76-13C300.25,96.19,292,85.9,279.11,79.65a66.13,66.13,0,0,0-29.24-6.72c-9.72,0-16.82,2.88-22.82,5.15a60.52,60.52,0,0,0-10.89,5.31,48.2,48.2,0,0,0-4.73,3.34,45.75,45.75,0,0,0-6.52,6.46c-6.62,8-10,17.4-11.52,27.55-.34,2.29-.07,4.71-.9,6.87a43.42,43.42,0,0,1-8.87,14.53c-2.71,2.85-5.91,5.11-8.83,7.71a1.75,1.75,0,0,0,1.08.84v0c6.38-4.56,12-9.85,15.63-17a17.16,17.16,0,0,1-3.86,9.37c-3.55,4.61-8.05,8.22-12.57,11.81A59.05,59.05,0,0,0,162.36,168c-4.75,7.1-5.55,14.58-2,22.41,1.4,3,3,6,4.36,9a12.2,12.2,0,0,1-2.51,14.08.82.82,0,0,1-.89.34c.69-1.93,1.41-3.82,1.9-5.79a14.91,14.91,0,0,0-3-14c-.69-.83-1.27-1.75-2-2.55-4.69-5.17-4.89-11-2.41-17.12.63-1.57,1.39-3.09,2.09-4.63l.15-.22c-.18-.5-.45-.89-1.12-.78a27.31,27.31,0,0,0-3.45,8,16,16,0,0,0,3.27,15.32c1.1,1.29,2.11,2.66,3.12,4a11.75,11.75,0,0,1,2.48,7.92,24.2,24.2,0,0,1-3.19,10.69,68.91,68.91,0,0,0-6,13.81,16,16,0,0,0,11,20.39c.62,0,.86-.48,1.09-.94a80.42,80.42,0,0,1,5.94-9.93c5.18-7.54,12.06-12.55,21.22-14.16a110.58,110.58,0,0,1,13.82-1.28,74.5,74.5,0,0,0,11.62-1.41,61.87,61.87,0,0,0,13-4.83,3.8,3.8,0,0,0,1.08-2,39.1,39.1,0,0,0,1.59-9.48,8.67,8.67,0,0,0-.18-2.33c-.56-1.18-1.7-1.62-2.76-2.13a40.25,40.25,0,0,1-13.9-11.35,84.13,84.13,0,0,1-16-32.64,54.31,54.31,0,0,1-1.49-7.58c-.16-1.54.13-1.95,1.39-2,5.13-.15,9-2.65,12.15-6.47a57.89,57.89,0,0,0,10-19.55,68.2,68.2,0,0,0,1.74-7.09,18.82,18.82,0,0,0,4.43,5,89.65,89.65,0,0,0,11.92,7.73,92.4,92.4,0,0,0,27.48,10,245.23,245.23,0,0,0,26,3.3c2.19.18,2.6.69,2.65,2.93s-.19,4.32-.27,6.48a76.52,76.52,0,0,1-2.79,17.35,129.44,129.44,0,0,1-7.2,19.24c-3.2,7.1-7.82,12.94-14.92,16.54a2.5,2.5,0,0,0-1.23,1.13,2.41,2.41,0,0,0-.07,1.25c.29,1.67.54,3.34.85,5a26.55,26.55,0,0,0,2.23,7.61c4.9,5.44,11.29,6.59,18.15,6.22,4.73-.26,9.44-.7,14.16-1.06A26.9,26.9,0,0,1,324,227.14c6.94,4.93,11.26,11.91,14.81,19.44,1.71,3.62,3.27,7.31,4.9,11,2.36-1.1,4-3.19,6.34-4.36a30.05,30.05,0,0,0,13.71-14.57C366.9,232.06,367.22,225.55,363.53,219.09Zm-3.39,23a31.51,31.51,0,0,1-4.54,5.45c-.39.38-.74.89-1.55.67,0-.53.37-.88.63-1.27a33.4,33.4,0,0,0,5.55-13.27c1.18-7.48-1.16-13.9-6-19.52-2.69-3.11-5.3-6.29-7.72-9.63-3.54-4.87-4.24-10.25-3.41-16,.71-4.89,1.72-9.73,2.08-14.66.55-7.3-1.11-13.9-6.14-19.43-.05-.06,0-.18-.06-.61,7,5.89,10.05,13.08,8.66,21.93-.75,4.77-1.91,9.48-2.64,14.25-.86,5.69.94,10.66,4.67,15,3.06,3.55,6.59,6.67,9.5,10.36,2.6,3.31,4.84,6.77,5.42,11.08C365.33,232.27,363.21,237.32,360.14,242.09Z"/><path class="cls-4" d="M233,202.51c3.86,1,7.48,2.74,11.43,3.52,6.46,1.26,12.89,1.56,19.28-.18,2.4-.66,4.72-1.62,7.08-2.44l.06,1.2c-1.71.39-2.88,1.72-4.34,2.56-3.86,2.21-8.07,3.09-12.39,3.67-5.22.7-10.18-.47-15-2.3a29.1,29.1,0,0,1-6.06-3.6C233,204.13,233,203.32,233,202.51Z"/><path class="cls-7" d="M204,143.88c9.54-7.77,14.31-18.3,18.42-29.27a47,47,0,0,1-2.65,9.3c-2.28,6-5.11,11.59-9.4,16.38a16,16,0,0,1-4,3.17A2.84,2.84,0,0,1,204,143.88Z"/><path class="cls-4" d="M451.69,212.48c0,.42-.26.67-.47.94-2.64,3.35-4.72,7.06-7.11,10.57-1.65,2.43-3.78,4.43-5.62,6.7-1.39,1.7-3,3.25-4.52,4.84-.32.34-.72,1-1.25.43s0-.93.32-1.34q4.53-5.13,9-10.28c1.91-2.17,3.13-4.8,4.77-7.15,1.09-1.55,2.18-3.08,3.31-4.6.26-.34.53-.82,1.1-.69A.61.61,0,0,1,451.69,212.48Z"/><path class="cls-4" d="M413.68,232.36c0-.52-.07-1,.42-1.05s.68.31.84.72a65.43,65.43,0,0,1,2.72,8.95c.88,3.83,1.59,7.71,2.36,11.57a16.61,16.61,0,0,1,.39,2.42c.11,1.34.11,3.28-.22,3.33s-.62-.88-1.24-3.11a75.22,75.22,0,0,1-2.24-11.74A45.63,45.63,0,0,0,413.68,232.36Z"/><path class="cls-4" d="M439.59,241.74c-.39,0-.62-.17-.71-.43-.15-.43.19-.66.44-.9,1.58-1.46,3.14-3,4.76-4.37s3-2.44,4.53-3.68c.41-.34.88-.77,1.34-.35s0,.94-.4,1.25c-3.12,2.73-6.26,5.44-9.4,8.16A3.37,3.37,0,0,1,439.59,241.74Z"/><path class="cls-4" d="M248.83,165.31a10.89,10.89,0,0,1-2.26,6.85,8,8,0,0,0-.7,1c-1.52,2.43-1.08,3.75,1.65,4.79.81.31,1.67.49,2.51.74a.86.86,0,0,1,.63,1.07.81.81,0,0,1-1,.7,10.22,10.22,0,0,1-4.74-1.62c-2.2-1.69-2.64-4.15-.9-6.3a20.12,20.12,0,0,0,3-8.49c.24-2.63-.46-4.51-.16-4.58s1.06,1.84,1.49,3.32A10.48,10.48,0,0,1,248.83,165.31Z"/><path class="cls-8" d="M228.69,139.87a16.64,16.64,0,0,1,8.61,1.85c.94.49,2.28,1.05,1.51,2.14s-2.07.36-3-.1a13.09,13.09,0,0,0-12.45,0c-.43.22-.81.5-1.22.74-.7.42-1.44.83-2.16.09s-.19-1.3.46-1.76A16.41,16.41,0,0,1,228.69,139.87Z"/><path class="cls-9" d="M267.83,138.63a13.82,13.82,0,0,1,6.29,1.36c.83.39,1.72.95,1.09,1.86s-1.56.6-2.5.22c-5-2-8.36-1.57-12.24,1.55-.68.54-1.33,1.11-2.29.49s-.35-1.39.18-1.91A13.18,13.18,0,0,1,267.83,138.63Z"/><path class="cls-10" d="M233.63,150.68a9,9,0,0,1,.92,1.8c.65,2.33.55,4.55-1.57,6.14a3.76,3.76,0,0,1-4.75,0,5.26,5.26,0,0,1-2.16-6,14.81,14.81,0,0,1,1.26-2.64c.1-.48.63-.58.86-1C230.32,148.54,232.35,148.35,233.63,150.68Z"/><path class="cls-10" d="M269.5,150.68a9.61,9.61,0,0,1,.93,1.8c.65,2.33.55,4.55-1.58,6.14a3.76,3.76,0,0,1-4.75,0,5.29,5.29,0,0,1-2.16-6A14.81,14.81,0,0,1,263.2,150c.1-.48.64-.58.86-1C266.19,148.54,268.22,148.35,269.5,150.68Z"/></svg>