<svg id="Capa_1" data-name="Capa 1" xmlns="http://www.w3.org/2000/svg" xmlns:xlink="http://www.w3.org/1999/xlink" viewBox="0 0 500 500"><defs><style>.cls-1{fill:#fbd96b;}.cls-2,.cls-4{fill:#0b0906;}.cls-3{clip-path:url(#clip-path);}.cls-4,.cls-7{opacity:0.15;}.cls-5{fill:#f5ba8f;}.cls-6{fill:#0d0a07;}.cls-8{fill:#333;}</style><clipPath id="clip-path"><path class="cls-1" d="M314.15,248.8a59.56,59.56,0,0,1,14.08,7.55c7.27,5.21,11.89,12.55,15.09,21a121.39,121.39,0,0,1,5.3,20.08c1.74,9,4.75,17.57,7.76,26.14a63.15,63.15,0,0,1,2.42,9.89c.47,2.61-.11,3.52-2.53,4.38-4.34,1.55-8.69,3.06-13,4.59-.5.66-1.27.72-2,.94-5.58,1.76-11.33,2.61-17,3.63-6.06,1.07-12.11,2.19-18.21,3-.73.09-1.47.12-2.2.18-1.72.15-2.09.52-2.23,2.32a48.07,48.07,0,0,0-.5,6c.19,3.53-1.13,7.78-2.08,12-3.52,15.58-.12,22.06-4.34,25-4.45,3.15-9.31-3.33-25.17-5.47-7.82-1.06-6.41-.06-22.06-.36-7-.13-13.9-.86-20.83-1.67-4.16-.49-8.36-.71-12.54-1-4.4-.3-8.8-.64-13.2-1-3.1-.24-6.21-.37-9.32-.66a2.63,2.63,0,0,1-1.61-.39,2,2,0,0,1-.23-1.82c.94-3,1.33-6.21,2-9.31,2.44-10.71,5.25-21.32,7.45-32.1,2-9.65,3.7-19.36,5.26-29.1,1.31-8.12,2.46-16.27,4-24.35a51,51,0,0,1,1.5-7.33,26.05,26.05,0,0,1,3.5-7,76.21,76.21,0,0,0,4.32-6.82,6.46,6.46,0,0,1,1.12-1.66,6.62,6.62,0,0,0,2.71-1.48,4.56,4.56,0,0,1,2.56-2.17c4-1.09,7.5,6.42,12.47,5.71,1-.14,1.18-.64,4.55-3s8-5.5,9-6.25c7.09-5.2,6.6-12,12.37-15.72,2.85-1.84,4.8-1.36,18.78.48C303.93,246.15,306.84,245.94,314.15,248.8Z"/></clipPath></defs><path class="cls-2" d="M342.1,243c-4.49-15.71-16.2-25.5-11.08-34.07a22.43,22.43,0,0,1,1.84-2.5c1.4-1.7,2.21-2.67,2.57-2.55.72.25-2.67,6.18-2.56,12.12.15,7.61,6,13.2,6.39,13s-4.72-6.89-3.83-13.6a55.83,55.83,0,0,1,1.66-8c.15-.52.35-1.13.59-2.07a53.49,53.49,0,0,0,1.05-5.82c1-7.09,1.64-11.21,0-16-3.92-11.52-12-11.05-16.85-21.13-5.83-12.1,3.46-19.18-2.89-31.91a41.64,41.64,0,0,0-13.59-15.15c-10.21-5.31-4.16-18.92-12.7-26-4.44-4.5-9.9-7.43-17.06-6a3.74,3.74,0,0,1-3-.71c-6.43-4.06-13.76-5.78-21.44-6.57-54.4-1.15-38.13,23-70.45,44.61-22.88,14.62-3.59,28.46-8.47,40.18-.55,1.32-2.39,3-5.89,6.47-11.27,11.12-18.07,12.39-19.43,19a15.17,15.17,0,0,0,1,8.59,14.66,14.66,0,0,1,0-3.79,16.34,16.34,0,0,1,1-3.77,33.14,33.14,0,0,1,2.32-5.08,38.53,38.53,0,0,0-1.79,6.09c-2.89,14,4.1,21.93,4.32,32.18.27,12.12-9.09,17.54-12.84,25.61-5.77,12.43,0,35,51.06,79.58,73.21,6.81,132.6-14.32,147.63-50C342.73,268.54,345.19,257.79,342.1,243Z"/><path class="cls-1" d="M314.15,248.8a59.56,59.56,0,0,1,14.08,7.55c7.27,5.21,11.89,12.55,15.09,21a121.39,121.39,0,0,1,5.3,20.08c1.74,9,4.75,17.57,7.76,26.14a63.15,63.15,0,0,1,2.42,9.89c.47,2.61-.11,3.52-2.53,4.38-4.34,1.55-8.69,3.06-13,4.59-.5.66-1.27.72-2,.94-5.58,1.76-11.33,2.61-17,3.63-6.06,1.07-12.11,2.19-18.21,3-.73.09-1.47.12-2.2.18-1.72.15-2.09.52-2.23,2.32a48.07,48.07,0,0,0-.5,6c.19,3.53-1.13,7.78-2.08,12-3.52,15.58-.12,22.06-4.34,25-4.45,3.15-9.31-3.33-25.17-5.47-7.82-1.06-6.41-.06-22.06-.36-7-.13-13.9-.86-20.83-1.67-4.16-.49-8.36-.71-12.54-1-4.4-.3-8.8-.64-13.2-1-3.1-.24-6.21-.37-9.32-.66a2.63,2.63,0,0,1-1.61-.39,2,2,0,0,1-.23-1.82c.94-3,1.33-6.21,2-9.31,2.44-10.71,5.25-21.32,7.45-32.1,2-9.65,3.7-19.36,5.26-29.1,1.31-8.12,2.46-16.27,4-24.35a51,51,0,0,1,1.5-7.33,26.05,26.05,0,0,1,3.5-7,76.21,76.21,0,0,0,4.32-6.82,6.46,6.46,0,0,1,1.12-1.66,6.62,6.62,0,0,0,2.71-1.48,4.56,4.56,0,0,1,2.56-2.17c4-1.09,7.5,6.42,12.47,5.71,1-.14,1.18-.64,4.55-3s8-5.5,9-6.25c7.09-5.2,6.6-12,12.37-15.72,2.85-1.84,4.8-1.36,18.78.48C303.93,246.15,306.84,245.94,314.15,248.8Z"/><g class="cls-3"><path class="cls-4" d="M318.24,401.2c-.42-9.79-4.83-12-10.7-27.15a118.45,118.45,0,0,1-4.24-12.64c-.29-1.26-.51-2.39-.68-3.5a86.55,86.55,0,0,1-1-15c.3-12.36.17-30-.41-42.34-.18-3.7-.38-6.7-.52-8.51-1.73,20.93-4.3,38.13-6.45,50.52-4.84,27.85-8.05,33.81-12.91,37.92-6.84,5.78-14.16,6.26-36.88,5.17-35.6-1.72-53.74-2.59-55.1,1.95-1.81,6.09,29.67,12.08,66.57,40.71,5.22,4,13.83,11.24,25.82,11.24a36.76,36.76,0,0,0,25.82-11.24C313.87,421.69,318.64,410.76,318.24,401.2Z"/></g><path class="cls-5" d="M190.78,381.88c3.25-3.95,13.24.71,28.75,1.79,6,.43,12.06,1.08,18.1,1.58,6.64.56,11.33.58,14.13.65,6.83.16,20.11,1,48.21,4.11-.39-5-.58-10.36-.48-16.13a170.3,170.3,0,0,1,2.16-24.18l.71-.17,1.05-.24c14.33-3.19,21-2.89,34.06-5.38,1.94-.37,3.84-1,5.76-1.46,0,1.08.08,3.07.15,5.55.38,13.2.78,20.36,1.22,34.88,0,1.65.25,4.42.18,8.07-.09,5.05,0,10.11-.29,15.15a49.68,49.68,0,0,1-2.21,10.73c-.65,2.3-1.34,4.61-2.12,6.88-1.66,4.82-5.27,7.52-10.25,8.67A72.84,72.84,0,0,1,317.23,434c-4.12.21-8.21-.14-12.31-.08s-8.24-.79-12.34-1.29c-4.79-.58-9.56-1.32-14.34-2-6.62-.93-13.24-1.82-19.84-2.82-5.66-.86-11.31-1.82-16.95-2.81q-10.87-1.93-21.73-4c-4.91-.93-9.79-2-14.72-2.87-5.43-.94-10.83-2.1-16.33-2.64-3.94-.38-7.69.71-11.42,1.82a66.35,66.35,0,0,0-13.38,5.37,5.09,5.09,0,0,1-3.43.3c-2.82-.49-5.28-1.72-6.62-4.34a7.61,7.61,0,0,0-3.68-3.51,5.21,5.21,0,0,1-2.9-6.29,19.38,19.38,0,0,0,.6-3.47c.48-.29.82.1,1.17.27,2.16,1.06,4.2,2.36,6.39,3.36a24.94,24.94,0,0,0,5.89,1.86,8.14,8.14,0,0,0,5.15-.77,53,53,0,0,0,11.78-8.38c2.6-2.31,5.26-4.61,7.1-7.63a21.85,21.85,0,0,0,1.86-3.87c.91-2.42,1-3.68,2.15-6A16.59,16.59,0,0,1,190.78,381.88Z"/><path class="cls-5" d="M192.18,384.72c-.36-.2-.66-.19-.83.25-1.61,2.83-2.42,6-3.51,9a17.2,17.2,0,0,1-3.72,6.28A89.78,89.78,0,0,1,170.69,412c-.56.39-1.14.75-1.69,1.16-3.45,2.58-7.11,2.35-10.87.82-3-1.21-5.57-3.07-8.41-4.51-1-.52-1.74-.62-2.39.41a43.35,43.35,0,0,1-10-9.89A22.85,22.85,0,0,1,133.19,389c-.7-6-.29-12.08.06-18.09.39-6.55,1.41-13.06,2.43-19.54q1.6-10.26,3.22-20.53c.3-2,.55-3.94.83-5.92a1,1,0,0,1,.29-.26,1.27,1.27,0,0,1,.94,0c.63.2,7,1.46,15.93,3.21,3.3-5.46,5.9-9.95,7.61-12.94C180.7,286.64,178,288,186.45,271.79a47.43,47.43,0,0,0,4-10.42c1.12-4.53.5-9-.59-13.49a29.51,29.51,0,0,1-1-4.66c-.14-2.67-.59-5.3-1-7.95-1.1-7.88-.85-11.9-.32-13.73.6-2.09,2.23-6,7.54-9.72a132.33,132.33,0,0,0,15.1-6.54c8.22-4.19,10-6.25,13.33-5.72,8.39,1.31,12.21,16.6,12.64,18.38,1.25,5.24.5,11-1,22.55-2,15.21-4.59,20-8.47,23a16.69,16.69,0,0,1-4,2.21,94.11,94.11,0,0,0-6.32,9.55c-10.65,18.46-11.95,35.52-13.19,47.21A485.21,485.21,0,0,1,192.18,384.72Z"/><path class="cls-5" d="M295.86,170.66a40.51,40.51,0,0,1-6,9.56,8.39,8.39,0,0,1-2.94,2.61,7,7,0,0,1-3.88.56,55.16,55.16,0,0,1-4.17,9.74c-1.7,3.12-4.19,6.26-9.15,12.55a57.18,57.18,0,0,1-7.53,7.91c-.5.44-1,.85-1.68,1.32a41.09,41.09,0,0,1-9.73,5.22,25.89,25.89,0,0,1-15.95.8,2.4,2.4,0,0,1-1.21-.55h0v0a1.26,1.26,0,0,1,.07-1.15,11.56,11.56,0,0,1,.55-1.25,5.62,5.62,0,0,0-.68-6.8,117.56,117.56,0,0,0-8.06-9.07c-2.08-2-3.77-2.19-6.21-.57a5.65,5.65,0,0,1-1.7.85,26.3,26.3,0,0,0-6,2.62c-.42.25-.83.62-1.37.3-.29-1.61-1.62-2.58-2.43-3.86a32.57,32.57,0,0,1-5.31-17.17c-.13-4.94-.3-9.89-.19-14.83.11-4.56.22-4.85.51-11.82.57-13.81.27-13.8.92-15.81.41-1.27,3.48-10.32,11.93-13.9a19.89,19.89,0,0,1,4.74-1.29c7.53-1.34,13.51.74,16.23,1.43,14.95,3.83,23.79-10.35,32.73-5.2,2.06,1.18,3,2.73,9.16,20.19,2.62,7.39,4.8,13.72,6.45,18.58.23-.29,3.14-3.69,7-3.16a6.23,6.23,0,0,1,3.57,1.66C296.71,161.22,299.28,163.17,295.86,170.66Z"/><path class="cls-1" d="M141,324.69a17.44,17.44,0,0,1-6.53-2.41c-1.43-.88-2.66-1.67-3.31-3.13-.94-2.13,0-4.4.24-5.24,4.2-14.43,7.9-29,13.51-43a64.28,64.28,0,0,1,8-14.93,19.85,19.85,0,0,1,12.57-8c7.52-1.39,12.23-2.47,23-4.64l.41-.09a31.69,31.69,0,0,1,1.9,6.68c1.51,9.06-1.43,16.5-3.78,22.11a398.44,398.44,0,0,1-25.79,50.8c-1.51,2.5-2.74,4.52-3.49,5.74Z"/><path class="cls-5" d="M254,268.2A30.63,30.63,0,0,1,234.7,271a29.73,29.73,0,0,1-11.91-5.3,4,4,0,0,0,2.55-1.79,3.93,3.93,0,0,0,.29-1c.84-2.07,2-4,3-6,1.81-3.77,3.08-7.67,2.76-11.93s-.77-8.76-1.26-13.13a7.7,7.7,0,0,1-.07-1.36c0-.92.59-1.24,1.44-1.27a14,14,0,0,1,2,.21,49.17,49.17,0,0,0,12.36-.11c2.12-.24,4.28-.23,6.27-1.13,7.63-3.41,13.69-8.47,17.3-16.21a29.7,29.7,0,0,0,3-9.16c.06-.52.11-1.13.89-1.1a126.14,126.14,0,0,0,0,34.24c.5,3.47,1,5.7.48,9.15C271.61,259.4,256.21,267.12,254,268.2Z"/><path class="cls-4" d="M230.39,230.38q.68,6.9,1.34,13.78a23.29,23.29,0,0,1-2.33,12c-1.24,2.72-3,5.21-3.88,8.08-.76.75-1.37,1.8-2.73,1.43-.28-1.51.73-2.56,1.34-3.75,2.14-4.24,4.67-8.32,5.31-13.18a36.54,36.54,0,0,0-.22-8.68c-.25-2.34-.57-4.68-.69-7-.06-1.32-.27-2.61-.33-3.93,0-1.05-.66-1.08-1.39-.62a4.88,4.88,0,0,0-1.39,1.47c-2.2,3.13-3.73,6.65-5.73,9.89-1.86,3-2.83,3.32-5.63,1a6,6,0,0,1-2.27-6.55c.47-1.71.9-3.43,1.52-5.08a2.78,2.78,0,0,0-.47-3.1c-1.48-1.81-1.43-1.89-3.45-.64-1.74,1.08-3.42,2.23-5.15,3.33-.56.35-1.25.92-1.79.15s.17-1.33.76-1.77a59.49,59.49,0,0,1,5.9-3.89c.84-.5,1.23-1,.46-1.91a13.28,13.28,0,0,1-1-1.62,1,1,0,0,1,.25-1.45c.56-.41,1.05-.07,1.39.41,1,1.44,2,2.89,3,4.36a10.48,10.48,0,0,0,2.22,2.56,1.51,1.51,0,0,1,.5,1.91c-.73,2.24-1.39,4.51-2,6.79a4.38,4.38,0,0,0,2.38,5.36c.52.29.78.24,1.09-.25,1.66-2.56,3-5.3,4.46-8,.6-1.1.28-2.3.06-3.47q-1.11-6-2.17-12a3,3,0,0,0-2-2.4,84.29,84.29,0,0,0-8.51-2.88,8.73,8.73,0,0,0-4.54.36c-2.49.65-5,1.37-7.47,2-.24.06-.84-.06-1.65,0a16.53,16.53,0,0,0-2.47.54c-.11-.22,5.48-3.79,12.48-6.48,1.22-.47,2.56-.94,4.63-1.87a57,57,0,0,1,5.51-2.67,20.9,20.9,0,0,0,4.39-2.06,4,4,0,0,1,4.93.62,74.65,74.65,0,0,1,9.76,11.17c1.39,1.92.55,3.91-.28,5.81a10.83,10.83,0,0,0-.86,2.12,14.19,14.19,0,0,1-2.25,3.83c-.84,1.3-1.51,2.58-1,4.17C230.66,229,230,229.67,230.39,230.38Z"/><path class="cls-5" d="M230.39,230.38c-.53-2.3-1-4.55.83-6.6.94-1.07,1.46-2.47,2.47-3.51,9.81,2.91,18.43.16,26.44-5.54a43.43,43.43,0,0,0,11.75-12.81c.35-.57.8-1.08,1.32-1.78.05.57.09.94.12,1.31a.52.52,0,0,1,0,.25c-1,.55-.56,1.59-.68,2.35-.66,4.22-2.7,7.82-4.76,11.45-3.69,6.52-9.6,10.29-16.18,13.26a9.83,9.83,0,0,1-3.56.75,95.92,95.92,0,0,1-10,.62c-1.86-.07-3.69-.26-5.53-.48C231.85,229.57,230.65,228.83,230.39,230.38Z"/><path class="cls-5" d="M147.33,409.87c.31-1.53.68-1.71,2-1,2.91,1.57,5.77,3.28,8.77,4.67,3.55,1.65,7.17,1.93,10.58-.54,1.58-1.14,3.21-2.22,4.74-3.42,2.9-2.27,5.58-4.78,8.28-7.28a23,23,0,0,0,6.69-10.83c.52-1.82,1.27-3.59,1.92-5.38.19-.52.42-1,1.07-1.11a1.22,1.22,0,0,1,.79,1.75c-1.79,4.83-2.77,10-6.2,14.11a60,60,0,0,1-8,7.78,60.05,60.05,0,0,1-10.2,7.18c-2.82,1.46-5.57,1.17-8.43.32-4.14-1.23-7.64-3.74-11.44-5.66C147.7,410.25,147.51,410.06,147.33,409.87Z"/><path class="cls-5" d="M308.62,386.13a7.32,7.32,0,0,1,.18,2.42c0,.56.21.81.8.83,7.12.31,13.77,2.64,20.45,4.82.79.26,1.39.68,1.12,1.55s-1.09.56-1.72.37c-4.89-1.39-9.7-3-14.68-4.08a21,21,0,0,0-3.75-.59c-1.74-.05-3.16-1.23-4.89-1.19,2.5-.19,2.5-.19,2.45-2.79C308.57,387,308.6,386.58,308.62,386.13Z"/><path class="cls-5" d="M155.28,328.49l2.46.18c-1.7,4.39-3.66,8.68-5.06,13.2a121.71,121.71,0,0,0-4,15.51,14.67,14.67,0,0,1-.44,1.57c-.16.6-.41,1.23-1.14,1.1s-.94-.82-.83-1.51c.19-1.16.4-2.31.65-3.46A129.48,129.48,0,0,1,152,337.46c.93-2.51,2-4.95,3-7.42C155.23,329.54,155.55,329.06,155.28,328.49Z"/><path class="cls-2" d="M254.81,148.25c-5.22,2.08-10,2-12.2.61-.3-.18-1.11-.7-1-1.19.11-.67,1.85-.88,2.35-.94,2.18-.27,3.11.38,4.93.4a10.05,10.05,0,0,0,4-1c5.64-2.12,6.89-5.51,10.25-5.15,1,.1,2.22.53,2.27,1.09s-1.54,1.28-2.58,1.72C257.92,145.89,258.7,146.69,254.81,148.25Z"/><path class="cls-6" d="M215.32,150.93c-1,.06-5.64.37-6.2-.59a1.89,1.89,0,0,1-.23-.83c0-1.07.85-1.42,1.81-1.4,3.23.08,6.45.17,9.67.29,1.85.07,2.79-.13,3.62-.81,1.25-1,1.59-2.78,2.48-2.72a.76.76,0,0,1,.56.31c.67.93-.9,4.09-3.29,5.47C221.73,151.82,221.16,150.58,215.32,150.93Z"/><g class="cls-7"><path class="cls-2" d="M230.39,230.38c-.53-2.3-1-4.55.83-6.6.94-1.07,1.46-2.47,2.47-3.51a27.57,27.57,0,0,0,8.7,1.16c11.55-.33,19.9-8.05,22.23-10.26,5.12-4.86,7.78-10,8.67-9.46.71.39-.53,3.87-1.06,5.42a30.4,30.4,0,0,1-4.38,8.37,35.8,35.8,0,0,1-14,10.9,46,46,0,0,1-15.77,3.73A60.76,60.76,0,0,1,230.39,230.38Z"/><path class="cls-2" d="M147.33,409.87c.31-1.53.68-1.71,2-1,2.91,1.57,5.77,3.28,8.77,4.67,3.55,1.65,7.17,1.93,10.58-.54,1.58-1.14,3.21-2.22,4.74-3.42,2.9-2.27,5.58-4.78,8.28-7.28a23,23,0,0,0,6.69-10.83c.52-1.82,1.27-3.59,1.92-5.38.19-.51.3-.42.64-1a23,23,0,0,0,2.16-5c.15,0,0,2.76-.94,6.58-.83,3.37-1.86,9-6.2,14.11a60,60,0,0,1-8,7.78,60.05,60.05,0,0,1-10.2,7.18c-2.82,1.46-5.57,1.17-8.43.32-4.14-1.23-7.64-3.74-11.44-5.66C147.7,410.25,147.51,410.06,147.33,409.87Z"/><path class="cls-2" d="M301.31,389.43l.59.19c4.32,1.39,6.77.63,12.47,2.29,2.67.77,5.32,1.66,8,2.53a5.74,5.74,0,0,1,1.14.84c.68.56,1.71,1.54,1.57,1.74s-.71-.25-2-.5c-.66-.13-1.15-.1-1.35-.15-4.88-1.4-9.7-3-14.68-4.09-1.07-.23-1.91-.25-3.74-.59-3.15-.59-5.31-1.25-5.28-1.44A14.34,14.34,0,0,0,300,390,5.94,5.94,0,0,0,301.31,389.43Z"/><path class="cls-2" d="M155.28,328.49l2.46.18c-1.7,4.39-3.66,8.68-5.06,13.2a121.71,121.71,0,0,0-4,15.51c0,.14-.05.27-.09.4a10.48,10.48,0,0,1-.35,1.17c-.8,2.25-.9,2.46-1,2.45s-.34-.54-.63-1.61a3.52,3.52,0,0,1-.31-1.25c.19-1.16.4-2.31.65-3.46A129.48,129.48,0,0,1,152,337.46c.93-2.51,2-4.95,3-7.42C155.23,329.54,155.55,329.06,155.28,328.49Z"/><path class="cls-2" d="M231.26,181.5a2.22,2.22,0,0,0-.53,1.7c.11.46.54.85,1.3,1.27a23.28,23.28,0,0,0,5,2.37c.81.22,1.18.65,1,1.47s-.83.74-1.49.59a16,16,0,0,1-6.38-2.91,4,4,0,0,1-1.68-2.46,3.7,3.7,0,0,1,.55-2.31c2.22-3.91,4.14-13.86,4.79-13.69S233.08,179,231.26,181.5Z"/><path class="cls-2" d="M287.35,164.23a5.17,5.17,0,0,1,1.92-1.17,4.69,4.69,0,0,1,1.77-.18c.42,0,1.1.16,1.15.45s-.95,1-3,2.19c0,0-.23.07-.73.66a1,1,0,0,0-.3.57.44.44,0,0,0,.05.14c.24.42,3,.54,3.11.89s-1.5.81-2.62,1.19c-1.75.59-1.77.48-2.15.69-2.05,1.18-1.92,4.62-2.17,4.6s-.4-2.46.37-5.3A9.6,9.6,0,0,1,287.35,164.23Z"/></g><path class="cls-5" d="M224,227.72c-.5-2.93-1-5.86-1.5-8.79-.2-1.16-.39-2.32-.65-3.47a5.6,5.6,0,0,0-3.4-4,48.64,48.64,0,0,0-8.13-2.67c-.3-.08-.72,0-.76-.42s.32-.52.6-.67c2.13-1.11,4.25-2.26,6.41-3.31a3.41,3.41,0,0,1,3.69.63,31.58,31.58,0,0,1,6.34,7.06c.88,1.21,1.7,2.47,2.51,3.73a4.35,4.35,0,0,1,0,5.21c-1.54,2.28-3.12,4.54-4.68,6.8Z"/><path class="cls-5" d="M232.3,217.67a57,57,0,0,0-4.25-7.21,53.21,53.21,0,0,0-6.23-6.85c-.32-.31-1.07-.58-.71-1.11a1.34,1.34,0,0,1,1.84-.3,10.94,10.94,0,0,1,3,2.56c2.14,2.47,4.18,5,6.34,7.47C233.79,214,233.51,215.66,232.3,217.67Z"/><path class="cls-8" d="M216.78,157.3c5.36.2,5.43,9.61.6,10.24C212.06,168,212.05,158,216.78,157.3Z"/><path class="cls-8" d="M251.82,158.59c5.36.2,5.43,9.62.6,10.24C247.11,169.29,247.1,159.3,251.82,158.59Z"/></svg>