<svg id="Capa_1" data-name="Capa 1" xmlns="http://www.w3.org/2000/svg" xmlns:xlink="http://www.w3.org/1999/xlink" viewBox="0 0 500 500"><defs><style>.cls-1{fill:#8abcb9;}.cls-2{clip-path:url(#clip-path);}.cls-3,.cls-8{opacity:0.15;}.cls-4{clip-path:url(#clip-path-2);}.cls-5{fill:#fdc093;}.cls-6{fill:#fbd96b;}.cls-7{fill:#363533;}.cls-8{fill:#1d1d1b;}.cls-9{fill:#333;}.cls-10{fill:#452b1b;}.cls-11{fill:#4b3027;}</style><clipPath id="clip-path"><path class="cls-1" d="M-108.62,221.28c52.68,6.88,74.85,32.51,76.22,85.64.12,1.43.57,3.22-1.58,3.79a209.61,209.61,0,0,1-35.28,4.35c-7,.31-7.72.73-8.61,7.81-1.6,17-5,34.71-5.18,51.49-7.79-2.91-17.5-9.21-25.41-13.07-23.42-11.94-48.81-20.89-68-39.51-5.21,1.23-23.48-3.63-24.79-17.48-4.93.43-18.18-.11-19-6,2.75-23.42,10.35-44.53,28.55-60.68,4.76-3.64,20.42-13,25.16-7.83,14.32,10.26,37.48,11.09,52.3-4.61C-112.7,223.52-111.41,221.24-108.62,221.28Z"/></clipPath><clipPath id="clip-path-2"><path class="cls-1" d="M-174.12,355c25.44,23.16,56,40.55,84.21,60.33,3.68,3.39,11.12,6.33,17.4,6.52-14.34,5.26-38.07,9.73-47.49,10.07,0,0-35.17,4.18-80.31-17.58-2.53-1.22-3.43-2.78-3.23-5.53,2.17-18.21,0-36.44,2-54.62a3.64,3.64,0,0,1,3.58-1.69C-190.19,353.68-181.39,352.38-174.12,355Z"/></clipPath></defs><path class="cls-1" d="M-108.62,221.28c52.68,6.88,74.85,32.51,76.22,85.64.12,1.43.57,3.22-1.58,3.79a209.61,209.61,0,0,1-35.28,4.35c-7,.31-7.72.73-8.61,7.81-1.6,17-5,34.71-5.18,51.49-7.79-2.91-17.5-9.21-25.41-13.07-23.42-11.94-48.81-20.89-68-39.51-5.21,1.23-23.48-3.63-24.79-17.48-4.93.43-18.18-.11-19-6,2.75-23.42,10.35-44.53,28.55-60.68,4.76-3.64,20.42-13,25.16-7.83,14.32,10.26,37.48,11.09,52.3-4.61C-112.7,223.52-111.41,221.24-108.62,221.28Z"/><g class="cls-2"><path class="cls-3" d="M16.84,348.61c.15-30.7-15.43-53.56-57.52-44.7-30.25,5.15-41,13.34-38.86-13.82-4.31-2.89-17.61,85.88-2.21,99.36C-42.93,428.79,17.51,395.69,16.84,348.61Z"/></g><path class="cls-1" d="M-174.12,355c25.44,23.16,56,40.55,84.21,60.33,3.68,3.39,11.12,6.33,17.4,6.52-14.34,5.26-38.07,9.73-47.49,10.07,0,0-35.17,4.18-80.31-17.58-2.53-1.22-3.43-2.78-3.23-5.53,2.17-18.21,0-36.44,2-54.62a3.64,3.64,0,0,1,3.58-1.69C-190.19,353.68-181.39,352.38-174.12,355Z"/><g class="cls-4"><path class="cls-3" d="M5,395.25c-15.74-27.12-51.55-36.64-79-20.72-12.19,7.81-12.36,17.71-20.91,26.74-21.27,21.44-75.91,14.51-95.5,7-15.15-4.39-16.34-6.81-25.17-7-57.76,3.55-73.83,63.92-40.84,98.59,11.65,10.7,24.93,16,40.84,16.92,54.31,3.84,111,3.91,160.39-22.14,13.52-6.07,26.53-13.22,39.49-20.38C11,459.45,21.19,421.31,5,395.25Z"/></g><path class="cls-5" d="M342.35,347.05c-3.92,13.64-8.25,27.67-22.16,42.88,9.2,2.61,6,7.35,7.32,14.53.49,1.12-.15,2.71.32,3.83,2.19,5.26-.62,7.28-5.11,8.11-2.68.49-5,1.26-6.29,3.89-7.47,5.4-15.95,7.91-24.72,5.28-38.84-9.94-79.31-7.83-118.67-15.16-24.21-5.61-37.92-37.41-40.33-61.64-3.17-14.48,31.38-1.94,45.17-6.36,10.32-1.48,11.34,10.76,11.54,18.33,8.46,3.21,52,23.05,56.49,17.69,6.06,6.35,18,9.84,28,8.83-28.21-20-27.8-100-26.43-121.88-2.85-12.48-10.63-22.52-16.68-33.4-1.87-3.36-3.08-7.2-6.83-9.32-3.68-2.27,0-9.14,3.93-8.95a39.85,39.85,0,0,1,5.24,1c-1.58-1-5.12.15-5.32-2.65-.24-3.29,2.58-5.12,5.4-6.44,2.37-.17,4.37,1.49,6.45,1.17-10.6-1.15.13-11.84,11.5-6.05-1.86-4.59-6.29-7.63-9.73-11.08-1.19-1.15-2.47-2.59-1.67-4.37,5.15-6,18,4.16,21.66,8.75,5.33,8.21,10,17.08,12.86,26.47,2.85,19,2.27,38.62,7.21,57.43,5.45,21.24,20.09,39.5,27.65,59.57l.17.23C312.73,335.37,330.05,340.74,342.35,347.05Z"/><path class="cls-6" d="M188.45,361.75c-2.16-6.15-.11-19.73-9.94-17.68-16.88,1.37-33.79,1.91-50.71,2.29-3.65-37.66-4.28-91.23,24.55-119.67,21.6-17.65,49.93-23.05,75.37-33.05,4.85,1,5.71,5.33,7.55,8.86-.09,1.44-.24,2.85-1.91,3.4-1.21,2.31-4.08,3.3-4.77,6.26,2.55,1.81,6.44,1.33,9,5-5.7-1.31-11.46-5.45-13.8,1.64-1.52,3,1.37,3.47,3,4.2,3.49,1.54,3.25,5.26,4.78,7.87,10.49,16.58,19.14,29.6,18.18,50.89,2.95,44.72,4.46,87.06,27.81,107.71C234.39,382,206.39,370.57,188.45,361.75Z"/><path class="cls-6" d="M164.07,406.71c36,7.09,81,9.46,111.53,14.69,38,11.88,23.77,0,52.42-6.73.69,4.23,1.19,20.14-.57,24.35-3.38,7.49-18.56,7.42-30.94,7.45-53.09.12-46.19,2-66.58.43-26.37-2.06-26.36-4.33-36-3-9.73.44-21.55.32-30.69-2.26-1.2-1.34-.88-3.41-.79-4.08C163,433.61,163.51,422.35,164.07,406.71Z"/><path class="cls-6" d="M345.53,348.22l-35.88-9.88c-2.11,1.62-8-14.84-10.12-17.25C293.16,309,286.91,296.73,281.72,284c-6.63-20.47-6.12-42.42-9-63.54,1.08-1.46-.51-3.22.52-4.69,3.3-3.64,7.35-6.48,10.75-10,5.09-3.75,12.61,1.58,17.77,3.6a20.47,20.47,0,0,0-4.07,3.59,21.53,21.53,0,0,1,4.13-3.55c27.12,8.39,52.83,28.06,53.57,58.48,3.1,26.48-1.62,52.3-7.53,77.95C347.56,347.07,347.48,348.57,345.53,348.22Z"/><path class="cls-5" d="M313.43,161.58c-3,2.37-5.45,1.46-8.27.57-3.83,3.43-4.5,8.66-7.31,12.75-6.93,8-11.7,19.51-22,23.43-1.06,20.92-3.28,25.33-5.11,25.53-2.1.22-2.45-5.29-7.44-9.46-10-8.35-25.28-.06-28.94-6-2.41-3.92,4-7.88,3.72-19.2-.14-6.21-2.05-4.64-3.41-14.49-.93-6.69-3.21-14.15-4.81-20.54a3.44,3.44,0,0,0-1.19-1.69c-5.17-4.16-4.88-5.53-6-7.76-3-6.34-1-10.34,5.64-14.73,4.08-20.56,6.41-26.78,22.82-40.67,7.8-7.78,9.49,19.09,43,20.7,25.18,1.91,8.46,38.67,17.27,36,1.69-1.52,4.11-1,6.1-1.62C321.07,152.82,320,156.31,313.43,161.58Z"/><path class="cls-7" d="M310.75,146.71c-1.74.32-1.86,2.82-4.1,2.92,7.72-65.2-27.6-18.06-51.56-61.68-5.9,5.75-11.65,11.27-17.31,16.88-6.7,3.85-4.38,32.78-12,27.13-.57-8.94-1-17.84-7.27-25.23-4.33-5.2-6-17.82.79-21.25,7.46-2.81,9.15-8.15,10.54-15.06,2-9.84,14.48-12.24,22.08-6.81,3,2.11,4.35,2.51,6.1-1.57A23.83,23.83,0,0,1,281.67,47.4c25.84.53,14.51,26,34.17,28,28.74,3.34,23.89,42.32,7.69,57.86a21.9,21.9,0,0,0-6,11.15C315.76,146.66,312.94,145.76,310.75,146.71Z"/><path class="cls-5" d="M234.43,202.86c-2.13-3.15-3.69-6.71-6.71-9.22,5.72-4.21,5.89-10.74,7.05-16.85,1.41,0,2,1.1,2.14,2.14,1.5,8.62,8.3,13.43,13.72,19.23,2.52,3.16-1.78,3.06-3.76,1.68C242,198,238.27,200.6,234.43,202.86Z"/><path class="cls-5" d="M275.09,196.64a38.34,38.34,0,0,0,10.06-5.11c0,4.89-2.3,10.52,4.36,13.19-6.65.93-9.41,8.82-15.59,11.28C271.68,213.91,276.72,201.69,275.09,196.64Z"/><path class="cls-8" d="M250.14,198.25c-3.13-2.92-6.08-6.06-9.42-8.71-4.2-3.34-2.11-9.39-5.95-12.75l-.12-2.09c6,10.62,25,14,32.35,14.58-.49.88-7.41,1.66-9.45,1.34-4.63-1.16-13.25-8.65-16.94-5.26-1.21,3,8.47,7.48,9.66,11.41C250.23,197.26,250.18,197.75,250.14,198.25Z"/><path class="cls-8" d="M249.23,269.85c-6.27,36.89-1.11,76.27-4.7,112.14-3.36-36.75-.92-75,3-111.91.17-1.68-2.44-4.57,1.24-5.58C248.94,266.28,249.08,268.07,249.23,269.85Z"/><path class="cls-8" d="M276.27,197c3.07,3.08-1,13.74-2.58,16.86-3.71-3.13,2.94-11.07-1.54-12.89-4.82.22,0,6.92-3.18,8.66l-8.71-15.94c2.87.44,3.22,5.13,5.72,5.43C268.7,199.21,272.21,195.15,276.27,197Z"/><path class="cls-8" d="M245.6,417.12c.64,9.57-.87,19.19.78,28.76.44,2.61-1.87.88-2.89,1.18q0-15,0-30Z"/><path class="cls-8" d="M252.76,199.81c.73.2,1.56,1.17,2,4.58-5.75-3.4-15.22-7.34-18.12-.47-.7,3.83,5.31.07,7.35,5l-10.61-3C236.37,195,245.08,199.63,252.76,199.81Z"/><path class="cls-8" d="M278.29,390a3.86,3.86,0,0,0,1.07-.12c9,8.77,21.94,12.24,33.33,5.6l.45.48C302.64,405.46,286.24,400.21,278.29,390Z"/><path class="cls-8" d="M252,311.53c-7.06,1.75-5.54-7.3-.72-7.17A64.48,64.48,0,0,1,252,311.53Z"/><path class="cls-8" d="M246.85,378.77c1.92,0,3.81-2.17,5.74-.13s.89,3.78-.21,5.61C248.37,384.61,246.12,383.2,246.85,378.77Z"/><path class="cls-8" d="M314.39,347.15a41.19,41.19,0,0,1,8.95,18.55c-2.51-6.37-7-11.71-9.47-18.08Z"/><path class="cls-8" d="M273.69,213.86c.06,2.2.82,4.87-1,6.63q-1.87-5.43-3.74-10.87l.53-.43c3.18,0,2.78,3.2,4.25,4.73Z"/><path class="cls-8" d="M188.45,361.75v1.53a39.31,39.31,0,0,1-14.61-4.47Z"/><path class="cls-8" d="M308.42,338.31l1.23,0,4.74,8.82a2.47,2.47,0,0,0-.51.46C311.5,344.84,309.25,342,308.42,338.31Z"/><path class="cls-8" d="M317.4,398.58c3.12-1.24,5.22-.83,7.59,1.17A9.4,9.4,0,0,1,317.4,398.58Z"/><path class="cls-8" d="M182.87,338.57,171.23,259.9c6,25.91,9.29,52.22,13.25,78.44Z"/><path class="cls-8" d="M224.5,216.14c-2.84-1.79-3.83-3.62-4.7-6.67C222.59,211.23,223.6,213.06,224.5,216.14Z"/><path class="cls-8" d="M315.53,241.56c-7.48,21.25-14.4,42.67-20.27,64.43C299,283.57,306.58,262.35,315.53,241.56Z"/><path class="cls-8" d="M301.81,209.4a17.45,17.45,0,0,1-7.12,6.1c1.94-2.47,3.34-5.52,7.06-6.14Z"/><path class="cls-9" d="M244.41,130.82c5.5.19,5.57,9.36.61,10C239.56,141.24,239.55,131.5,244.41,130.82Z"/><path class="cls-9" d="M280.29,141.2c-.7-6.58,8.25-6.58,7.61-.23C288.66,147.23,279.87,147.68,280.29,141.2Z"/><path class="cls-10" d="M297.36,128.52c-1.07,4.48-10.15-2.06-13.37-2.28C277.26,119.59,297,125.08,297.36,128.52Z"/><path class="cls-11" d="M246.22,121.77c-2-.83-6.78,1.53-6.7-1.62.09-3.49,4.85-1.81,7.48-1.78s7.27-1.77,7.35,1.87C254.29,123.26,248.85,121.15,246.22,121.77Z"/><path class="cls-8" d="M259.79,141.5c-1.5,6.42-10.43,14-.83,18.4-12.23-1-3.24-12.86-.66-19.07Z"/><path class="cls-8" d="M314.15,146.65c5.09,4.92,4.06,8.67-3.35,12.24C308.45,154.65,318.31,158.78,314.15,146.65Z"/><path class="cls-8" d="M250.34,348.19c-4.28-.41-4.5-6.83.18-6.45C255.05,341.32,253.87,347.49,250.34,348.19Z"/><path class="cls-5" d="M273.75,213.92c-2.51-.59-2.25-3.68-4.25-4.72-.16-2.65-2.69-5-.82-7.9,1.05-1.62,2.38-3.19,4.34-2.68C278.55,201.46,272.48,209.18,273.75,213.92Z"/></svg>