<svg id="Capa_1" data-name="Capa 1" xmlns="http://www.w3.org/2000/svg" viewBox="0 0 500 500"><defs><style>.cls-1{fill:#f9fcfb;}.cls-2{fill:#b5b5b5;}.cls-3{fill:#a8a8a8;}.cls-4{fill:#1c2f36;}.cls-5{fill:#ef787a;}.cls-6{fill:#757575;}.cls-7{fill:#fdc093;}.cls-8{fill:#bd343d;}.cls-9{fill:#bc343e;}.cls-10{fill:#332528;}.cls-11{fill:#c12e35;}.cls-12{fill:#c4383e;}.cls-13{fill:#c9363b;}.cls-14{fill:#c33138;}.cls-15{fill:#c02d35;}.cls-16{fill:#b9252e;}.cls-17{fill:#bd353e;}.cls-18{fill:#bf343e;}.cls-19{opacity:0.15;}.cls-20{fill:#3c2925;}.cls-21{fill:#40291d;}.cls-22{fill:#333;}.cls-23{fill:#b33c33;}.cls-24{fill:#ae352e;}.cls-25{fill:#e5595f;}.cls-26{fill:#c3473c;}.cls-27{fill:#883225;}.cls-28{fill:#b93842;}.cls-29{fill:#bc2e34;}.cls-30{fill:#f6515c;}.cls-31{fill:#d95a6a;}.cls-32{fill:#a94a58;}.cls-33{fill:#991c23;}.cls-34{fill:#c13039;}.cls-35{fill:#fd4e5a;}</style></defs><path class="cls-1" d="M486,419.72c.11,2.85-.18,2.53-3.13,2.35-134.31-2.36-276.81,4.51-407.14-2.35C212.31,417.89,349.39,417.58,486,419.72Z"/><path class="cls-2" d="M486,419.72c-90.59-.18-181.2.51-271.77-.12,79-5.93,162.92.65,243.48-2.33,0,3.51,23.92.85,28.29,1.67Z"/><path class="cls-3" d="M182.25,419.6c-35.49.08-71,.21-106.48.12v-.78c13-.33,26.19.55,39.18-.56l.55-.53q31.45,0,62.9,0C179.84,417.89,181.67,417.48,182.25,419.6Z"/><path class="cls-4" d="M195.73,185.53c-16.2-9.16-11-27.7,3.74-35.15,1.36-1.79,1.15-4,1.36-6a13.77,13.77,0,0,1,14.57-12.74c10.88.41,11.73-.39,11.22-11.13-.83-20.08,23.52-29.68,35.26-26.77,1,.58,2.11-.6,2.73-1.5,5.35-6.36,12-8.92,20.21-6.81,1.45.38,2.35.42,2.89-1.22,10.71-22.58,46.36-9.76,52.05,11.79,9.58,28.59,41.76.34,31.47,63.15-1,7.81,2.84,13.45,8.72,17.66,12.58,7.54,14.12,31.56-1.79,39.64-9.31,4.36-2.09,14.41-6.88,21.2-.74,1.23-1.5,2.94-3.59,1.94-58.38,47.46-79.12-1.09-141.62-26.88-3.27.89-5.24-.82-6.81-3.37.56-1.76-.82-1.56-1.76-1.67C200.19,206.36,208.33,189.23,195.73,185.53Z"/><path class="cls-5" d="M219.26,209.34c2.32.94,3.87,3.51,6.78,3.19-6.55,10.58-13.73,25.52-13.6,37.76-1.94,2.64,7.32,38.3,29.87,44.65,6.38,19.31-4.69,45.4-8.53,64.88-3.61,19.72-3.56,35.27-3.42,51.22-11.71-1.76-27,3.55-34.06,6.72-26.46,2.16-54.46.77-81.17.15a.6.6,0,0,0-.18.47c-18.67-4.5-24-30.75-18.4-47,9.76-35.82,13-73.28,20.32-109.72,4.77-19.9,29.32-35,48.88-36,13.7-3.22,29.26-1.51,41.88-7.82C211.44,214.92,214.93,211.54,219.26,209.34Z"/><path class="cls-6" d="M373.38,276.88c33.63.56,67.29,0,100.93.19,6.85,2.57,9,6.36,7.6,13.56q-3.46,18.31-6.87,36.63c-6,30-11.65,60-17.29,90-.86,2.32-2.84,1.78-4.58,1.79q-47.52.06-95,.11c-54.05-.94-109.37,1.8-162.71-.72,10.28-9.36,25.29-7.24,38.07-8.48,7.4-2.63,34.67,3.52,35-5.5,6-37.07,13.57-74.12,20.22-111.19,1.45-6.78,2.48-16.46,11.29-17.08C324.35,276.53,349.28,274.92,373.38,276.88Z"/><path class="cls-7" d="M212.74,242.79c1.08-8.09,6.32-21.94,13.3-30.26,23.62-4.33,22.71-34.21,18.7-44.73-2.17-2.51-5.48-3.48-7.37-6.65-4.89-6.72,6.11-26.28,15-16.93,1.66,2.6,3.32,5.29,1.73,8.7-4.85,5.18,1.86,7.89,5.82,3.93,4.49-4.26,6.89-10.91,8.13-16.95a3.38,3.38,0,0,1,2.61-3c11.1-3.84,17.55-12.12,21.67-23.47,5.7,7.13,13.86,7.17,21.53,8.58,11.95,9,.42,15.1,17.69,27.67,1.15,1.11,2.36,1.89,3.31-.24,2.07-17.74,16.56,13.76,20.64,17.59,0-4.71-5.76-16,2.12-15.87,16.31,36.24,8.05,43,10.25,81.74-.24,7.28,3.87,14.14,1.85,21.62-9.68,2.71-21.06,3.56-31.17,3.69-2.19-1.41-.15-5.63-1.52-8.2,1.79-2.61,1.48-4.77-1.4-6.36-11.4-11.55-2.44-29.4-4.52-43.46-13.69,13.51-22.25,34.75-42.78,28.84-4.14,35.5-16.07,45.87-41.7,64.38-7.19,7.07-18.82-7.34-22.86-12.87C217.27,269,209.78,256.62,212.74,242.79Z"/><path class="cls-7" d="M165.08,328.27c-8.09,2.07-15.36.76-19.27-7.27-1.44-4.58-10.52-12.36-8.89-16.28,8.66-9.26,22.36-12.06,33.63-17.23,9.07-2.69,20.61-11.92,29.56-5.39,7.37,7.78,19.63,11.53,24.08,21.61,2.45,7.06,15.65,24.55,7.88,30.29-3.62,1.21-3.46,6.31-7.62,6.64-6.58-.82-7,8.83-14.63,3.28-2.33-1.61-4.35-2.44-7.1-.94-11.75.61-17.8-15.1-29.55-16.44C170,325.18,168,328.7,165.08,328.27Z"/><path class="cls-8" d="M165.08,328.27c17-11.78,27,19.56,39.68,12.76,1-1,1.7-.57,2.65.13,13.33,9.84,6.43-3.11,17.1-1.2a19.65,19.65,0,0,1,4.23,9.36c-3.89,6.91-10.17,5.25-12.23-1.63.12,2.57,3.5,4,3.21,7.11-54.72,7.58-41.09-39.55-49.23,30.72-.76,16.37-11.85,32.1-29.55,31.83-.73,0-1.74.27-2.07-.61-.46-1.22.76-1.47,1.48-1.9,5.63-3.34,9.18-8.81,13.46-13.49C160.64,378.17,159.88,352.16,165.08,328.27Z"/><path class="cls-5" d="M185,364.92c21.57-.18,7.43-.32,13.26,8.21,3.6,2.9,9-1.23,6.71-5.49-.85-2-.36-3.05,1.91-2.7,8.45-1.31,6.37,3.77,9.95.26,2.5-2.69,5.36,2.48,1.57,2.73-12.62,2.72-10.17,12.47-2.24,18.78,3,.7,2.28,1.49,1.33,4-3.51,8.66-12.74,3.13-19.56,5.76-8.77,2.6-.95,15.51-19.76,11.2-4.18-2,2-7.64-2.72-10.26-1.14-.91-1.47-9.81-.68-10.94.44-.64,1-.54,1.67-.59,3.71-.24,5.21-3.17,3.3-6.34-1.34-1.64-2.92-3.3-1.89-5.52,1.24-2.19,3.08,1.16,3,2.58.4,3.76,6,5.08,8.13,2.1C191.79,374.31,186.05,369.77,185,364.92Z"/><path class="cls-9" d="M235.47,291.39c-3.48.3-5.44-2.44-7.55-4.28-5.74-5-11.69-9.75-17.11-15.18-6.89-6.92-9.41-6.2-16.86-1-14.18,4.4-.15-41.17,5.36-44-6.22,11.33-8.6,23.71-10.41,36.34,21.23-32.51,16-1.62,30.68,12.18a14.84,14.84,0,0,1,1.49-.05A62.41,62.41,0,0,0,235.47,291.39Z"/><path class="cls-10" d="M271.38,388.6c3,4.47-21.3,11.65-25.32,10.92-9.13-.76-13.84-11.16-16-18.94-4.57-8.37.27-10.91-.15-18.7,5.59,2.81-1.58,12.31,3.08,17.3,3.75,5.25,5.22,14.3,12.17,16,3.37.81,5.72-1.6,3.27-4.54-2.16-6.37-14.31-20.62-12.37-25.81,2.5-1,3.21,1,4.07,2.51C261.17,400.5,247.22,393.47,271.38,388.6Z"/><path class="cls-5" d="M219.86,276.44c-4.86-.36-12-19.33-13.33-24.29,1.79.09,1.88,2.78,3.79,1.91a2,2,0,0,0,1.07-2.59c-.5-2,1.11-3.92,0-6.06-.39-.76.48-1.93,1.33-2.62,0,9.85.76,19.86,5.63,28.58C219.11,273,220.36,274.45,219.86,276.44Z"/><path class="cls-10" d="M231.63,367.49c-1.43-1.61,0-4.09-1.71-5.61l-2.47-3c-1.32-2.7,3.23-6.11,4.72-2.84,1.55,2,1.39,4.88,3.16,6.75,1.34,1.15.95,2.93,1,4.5A3.68,3.68,0,0,1,231.63,367.49Z"/><path class="cls-11" d="M139.79,302.88a366.39,366.39,0,0,1-7.61-41.28l.52-.05c3.11,13.44,4.93,27.14,7.91,40.56Z"/><path class="cls-8" d="M131.41,335c9.13,11.33,17.41,14.53,30.13,7.1C155.38,352.9,133.53,346,131.41,335Z"/><path class="cls-12" d="M230.07,380.58l2.2,4.65c-1.62,7.88,1.62,17-1.48,24.29l-.81-.06C228.47,399.83,229.52,390.21,230.07,380.58Z"/><path class="cls-10" d="M228.37,356.36l-.92,2.52c-6.88-1.71-10.31-6.46-12.85-13.94l1.44-.4C218.05,351.61,221.9,354,228.37,356.36Z"/><path class="cls-13" d="M131.41,335c0,.56,0,1.11,0,1.67a33.16,33.16,0,0,1-4.17-12c-.23-1.53-.75-3.26-2.72-1.18l-.23-.21c0-2.62,2.3-3.81,3.57-5.79C127.4,323.74,129.13,329.44,131.41,335Z"/><path class="cls-14" d="M115.73,339.09q-4.68,7.7-9.34,15.41l-1.08-.65,9.36-15.4Z"/><path class="cls-15" d="M128.92,288.16c3.53,5,5.63,10.78,7.88,16.45C132.85,299.76,130.66,294.06,128.92,288.16Z"/><path class="cls-16" d="M124.47,323.49c-1.51,4.14-4.1,7.63-6.84,11a42.24,42.24,0,0,1,6.61-11.25Z"/><path class="cls-5" d="M181.25,363.4c3.7.7,1.68,3.42-1.05,3.05C177.26,366.74,179.32,363.2,181.25,363.4Z"/><path class="cls-5" d="M193.19,415c-2.21,0-1-2.43.52-2.18C196,413,194.47,414.66,193.19,415Z"/><path class="cls-5" d="M234.64,363.07c-1.19-2.82.3-5.36.9-8,3-10.11,4.07-21.28,7.82-30.9,1.74-7.74,0-21.58-2.75-27.55,3.21-1.23,10.58-6.26,13.45-9.34,11.83-10.47,16-9.45,24.11-24.81,15.34,34.68,12.19,27.36,5.49,63.91-3.4,19.32-7.05,38.6-10.6,57.9a8.41,8.41,0,0,1-1.68,4.29c-5.29,1.5-10.76,5.12-16.09,5.59C250.43,389.24,247.3,381.15,234.64,363.07Z"/><path class="cls-5" d="M281.77,253q2.07-6.69,4.13-13.36c6.29,0,14.92-3.23,18.77,3.5,5.22,8,17.41,9.25,24.45,4.87,4.32-4,11.64,2.52,9.11,7.37-2.92,1.19-5-4-5.94.3-14.75,5.52-5.66,22.56-15.77,21.15-7.81.54-16.85-2.11-23.31,3.5-1.32-.25-.92-1.21-.86-2,2.77-9.53,4.64-19.21,4.68-27,.5,1.54-5.44,44.83-11,37.73-5.17-27-15.24-11.05-4.26-34.22C282,254.18,282.22,253.61,281.77,253Z"/><path class="cls-17" d="M292.68,278.77c.17.52.35,1,.53,1.56l-3.65,12.29c0-.65-.08-1.3-.13-2-2.23,2.66-4.33,2.34-6.21-.91-10.13-17.26-26.47,11-34.38,17.91,2.2-4.38,3.85-9.08,7.71-12.44,2.59-2.27,2.33-6.19,4.81-8.55,10.16-15.5,19.32-25.37,24.24-.1.14.82-.21,1.87.93,2.3,2.14.8,2.11-.78,2.43-2.12C289.79,284.78,290.4,278.42,292.68,278.77Z"/><path class="cls-18" d="M334.91,254.45c1.15.16,2.48-.31,3.32.93,0,.75-.05,1.5-.08,2.25-3.25,2.18-3.26,5.66-3.66,9-1,8.56-2.21,8.73,7.88,8.65,9.92-.71,20.32,1.47,29.94-1.22.13,1,.25,2,.38,3l-73.67,0c5.07-1.45,10.26-.42,15.38-.64,5.52-.23,6,1.14,6.62-5.91C321.34,263.2,326.29,254,334.91,254.45Z"/><path class="cls-5" d="M372.31,274.07c-.64,5.07-30.26,1.17-36.44,2.42-2.54,0-3.61-.78-3.29-3.34.56-4.47,1.05-8.95,1.63-13.42.32-2.45,2.34-1.94,3.94-2.1,10.44-1,20.84-2.64,31.32-3.21A100.26,100.26,0,0,1,372.31,274.07Z"/><path class="cls-19" d="M288.3,229.05v5.2c-10.93-1.31-28.36-10.87-31.23-31.23C259.91,215,278.19,228.72,288.3,229.05Z"/><path class="cls-20" d="M296.26,148.92c-4.6-.28-10-.75-11.15-4.79.3-.8,1.07-.7,1.66-.58A74.81,74.81,0,0,0,301.09,145C306.78,146,297.46,149.63,296.26,148.92Z"/><path class="cls-19" d="M314.32,161.39c.56.07-5,22.35-5.31,30.93.22,7-6.41,3.49-10.85,1.55,3.21-.91,5.75,2.22,8.12.92,1.12-.76,1.1-2.72,1.1-3.23C307.35,185.3,313.74,161.32,314.32,161.39Z"/><path class="cls-21" d="M334.42,166.35c-3.87-1.07-9.66-7.84-6.79-11.32C332,156.72,332.83,162.37,334.42,166.35Z"/><path class="cls-22" d="M282.1,156.87a23.16,23.16,0,0,0,14.18,8.34C289.49,167.4,282.92,163.34,282.1,156.87Z"/><path class="cls-23" d="M264.46,278c-.73,3.53-4.17,4.67-6.2,7.05-4,2.58-7.17,6.43-11.95,7.81C252.06,287.56,258.87,283.53,264.46,278Z"/><path class="cls-24" d="M219.86,276.44c-3-6.26-8.6-15.89-6.34-22.65.82,7.83,4.58,14.61,7.14,21.84Z"/><path class="cls-25" d="M220.66,275.63c-1.37-3.11-3.66-5.84-3.88-9.42,2.72,4.63,5.65,9.14,7.74,14.12C222.42,279.43,222.11,277.07,220.66,275.63Z"/><path class="cls-26" d="M277,266.29l-1-.05c2-4.4,4.33-8.62,5.77-13.24C282.83,258.06,279.19,262.15,277,266.29Z"/><path class="cls-27" d="M296.57,238.09l1.54,1.47c-4.17-.08-8.24,1.35-12.43.83,0-.48,0-.95.05-1.43A51.13,51.13,0,0,0,296.57,238.09Z"/><path class="cls-22" d="M319.84,174.17c2.22,1.71,4.9,3,5.65,6.27C321.66,179.21,320.79,178.31,319.84,174.17Z"/><path class="cls-19" d="M340.25,176.84a8.93,8.93,0,0,1,.95,5.86C338.75,181,338.21,179.33,340.25,176.84Z"/><path class="cls-28" d="M231.52,346l-1.44.89c-3.1-2.12-4.07-4.55-3.19-8,1.68-1.69,1-5.41,4.69-5.38,0,.52,0,1.05,0,1.57C234.23,338.81,234,342.44,231.52,346Z"/><path class="cls-10" d="M226.89,339c1.09,6,5.49,10.58,4.61,17.28l-2.19-.79c-.4-6.59-2.83-9.22-4.8-15.5Z"/><path class="cls-29" d="M243.36,324.2q-4.37,19.44-8.72,38.88c-.84-.45-.92-1.36-1.26-2.11.3-1.35-.26-3,1.21-4,3.26-16.94,9.34-33.61,8.79-51,0-1.48-.61-3.14.71-4.44h0C244,309.09,244.49,316.67,243.36,324.2Z"/><path class="cls-5" d="M271.2,395.9c-2.05,4.31.25,14.63-6.67,13.68-10,.2-20.1-.72-30.12.64-1.2.17-2.6.48-3.62-.7.14-7.38,0-14.78.1-22.16,0-.77-1-2.71,1.39-2.13,9.73,20.84,21.68,12,38.38,5.94C272,392.6,271.53,394.26,271.2,395.9Z"/><path class="cls-5" d="M250.53,392.55c-4.38-8.6-9.47-17-14.24-25.25-1.56.05-3.11.12-4.66.19a11.17,11.17,0,0,0,.66,12.39c4.33,6.07,6.57,18.23,16.27,16.31C250.43,395.76,251.72,394.72,250.53,392.55Zm-17.26-23.13s0,0,0,0a.78.78,0,0,0,0,.22A1.09,1.09,0,0,1,233.27,369.42Z"/><path class="cls-30" d="M233.32,369.38a.78.78,0,0,0,0,.22C233.27,369.54,233.23,369.39,233.32,369.38Z"/><path class="cls-31" d="M233.32,369.38a.78.78,0,0,0,0,.22C233.27,369.54,233.23,369.39,233.32,369.38Z"/><path class="cls-32" d="M233.32,369.38a.78.78,0,0,0,0,.22C233.27,369.54,233.23,369.39,233.32,369.38Z"/><path class="cls-5" d="M307.11,272.81c-1.23,1.88-9.46.09-8.92-2,.06-1,.4-1.71,1.63-1.72,2.29,0,1.63-2,1.32-2.86-1-2.78-.27-5.7-1-8.47-.56-2.1.47-2.3,2.08-1.56,3.62,1.2,5.59,5,9.64,2.64,2.34-.94,3.73-1.36,1.39-3.71-1.95-2,1.92-2.61,2.58-1,1.43,1.9,1.68,4.86,5.14,4.7.65,0,.22,1.07-.15,1.58C316.75,266.91,318.58,279.12,307.11,272.81Z"/><path class="cls-5" d="M292.12,244.55c1.8,4.46-1.19,30.63-5.26,31.34-2.42-1.34-.71-5.18.4-7.05.91-1.36.47-2.28-1.19-2.28-9.88-1.76,2.87-10.16.57-16.16C286.27,247.73,288.44,245.08,292.12,244.55Z"/><path class="cls-33" d="M275.34,271.86c.29-1.33,1.34-1.89,2.43-2.4,6.29,3.8,7.64,12.65,8.76,19.41-1.9.3-1.52-1.34-1.63-2.2C283.77,282.17,281.79,269.87,275.34,271.86Z"/><path class="cls-34" d="M292.68,278.77l-.89,0c2.58-10,4.74-20.11,5.21-30.49C297.73,258.74,295.72,268.83,292.68,278.77Z"/><path class="cls-5" d="M306.48,251.4c2.78-.35,3.43,3.6.41,3.09C304.26,254.78,303.55,251,306.48,251.4Z"/><path class="cls-35" d="M334.91,254.45c-4.29.48-4.67-1-.56-2.8Z"/></svg>