<svg id="Capa_1" data-name="Capa 1" xmlns="http://www.w3.org/2000/svg" xmlns:xlink="http://www.w3.org/1999/xlink" viewBox="0 0 500 500"><defs><style>.cls-1{fill:#8abcb9;}.cls-2{clip-path:url(#clip-path);}.cls-10,.cls-3,.cls-8{opacity:0.15;}.cls-4{fill:#c96974;}.cls-5{fill:#7b6a58;}.cls-6{fill:#fdc093;}.cls-7{fill:#fdfdfa;}.cls-8{fill:#1d1d1b;}.cls-9{fill:#61193f;}.cls-10,.cls-12{fill:#333;}.cls-11{fill:#fefefe;}.cls-13{fill:#d23627;}</style><clipPath id="clip-path"><path class="cls-1" d="M200.48-177.55c27.76,25.26,61.13,44.23,91.86,65.81,4.3,3.82,11.82,6.82,19,7.11-46.11,12-65.95,22.31-139.4-8.19-7.25-1.71-.95-26.59-1.86-33.7,0-5.75-3.53-35,4.4-33.77C183-179,192.55-180.43,200.48-177.55Z"/></clipPath></defs><path class="cls-1" d="M200.48-177.55c27.76,25.26,61.13,44.23,91.86,65.81,4.3,3.82,11.82,6.82,19,7.11-46.11,12-65.95,22.31-139.4-8.19-7.25-1.71-.95-26.59-1.86-33.7,0-5.75-3.53-35,4.4-33.77C183-179,192.55-180.43,200.48-177.55Z"/><g class="cls-2"><path class="cls-3" d="M395.83-133.67c-17.18-29.58-56.24-40-86.2-22.6-13.3,8.51-13.49,19.32-22.82,29.17-23.19,23.39-82.8,15.82-104.17,7.66-16.52-4.8-17.83-7.43-27.46-7.65-63,3.87-80.53,69.72-44.55,107.55C123.34-7.88,137.83-2,155.18-1.09c59.25,4.19,121.13,4.26,175-24.16,14.76-6.62,28.94-14.41,43.09-22.23C402.46-63.64,413.54-105.24,395.83-133.67Z"/></g><path class="cls-4" d="M223.59,421c-30.89-.34-50.17,1.71-79,1-.91,0-3.46.17-5.1-1.46-3.53-31.22,2-65.17,3.62-97,6-32.68,0-81.58,37.37-95.77q14.21-5.5,28.42-10.94c6-2.57,8.78.73,10.58,5.81,6.17,23.88,8.68,48.61,8.62,73.19-1.06,7.22-6.3,7.25-4.9,16.51-.37,18.42.71,36.85-.59,55.25C221.11,387.58,226.33,401.21,223.59,421Z"/><path class="cls-4" d="M293.8,215c20.55,6.26,43.93,12.91,51.79,35.63,10.32,29.31,50.78,152.16,16,167.92-49.16,6.43-44.26,8.6-89.38,5.13-10.05-1.32-11.7-4.94-10.15-19.5,1.79-19.24,4.35-18.51,3.83-27.95-1.8-9.63,1-15.92,10.06-16.11,16.45-1.62,42.19-2.32,45.12-2.4-1.26-19.13,6.06-44.44,0-51-9-5.79-28.11,1.13-39-4.22-2.15-2-2.24-4.58-2-7.24,2.3-7.86.42-15.88.92-23.81-1-16.67,2.56-32.31,5.5-48.64C287.07,218.83,287.37,213.83,293.8,215Z"/><path class="cls-5" d="M178.38,115.15c1.82-15.48,12.44-15.65,23-37.8,6.82-13.31,6-16.22,26-18.84,12.73-.84,14.15,3,25.74,3.1,14,.07,15.43-5.54,27.91-4.25,3,.32,12,1.12,19.89,7.55a45.53,45.53,0,0,1,13.44,19.15c6.39,17.64,23.62,33,14.53,53.11-1.3,3.68-3.62,7.25-1.61,11.29,8.43,17,2.38,31.39-7.8,45.12-1.07,5.45-3.72,8.19-9.9,7.32-7.68-1.07-15.65,1.32-23.24-1.7-9.79,7.35-18.3,2.38-14.51-10.1,12.49-12,20.27-16.2,23.48-35.45,3-9.68,21.67-10.41,7.82-23.17-39.37-27.16-23.38-49.42-48.37-48.87-19.69.38-13.56,25.08-27.07,33.93-9.59,4.3-17.17,11-25,17.68-5.53,4-5.22,10.57,1.13,13.71s9,7.78,10.92,14c2.33,7.72,7,14.09,13,19.53,2.52,2.31,5,4.67,5.17,8.4.18,4.6.3,10.31-3.6,12.42-6.63,3.75-15.66,1.88-18.38-6.72-2.13,10.73-10.16,8.67-17.17,9-3,.12-4.82-1-5.23-4.11-.91-9.87-11.68-16-13-25.26-1.19-5.87,1-8.13,2.6-17,.79-4.37.4-4.87.3-25.21C178.32,121.25,178.29,115.89,178.38,115.15Z"/><path class="cls-6" d="M229.27,201.3A23.33,23.33,0,0,0,230.64,187c-11.37-5.54-18.09-21.52-19.57-30.63.08-2.27-2.12-5.92-5.7-5.71-11.73-.73-12.63-19.28-1.19-21.71,1.31-.41,3.66-.74,3.74-1.33.29-2.31,1.38-3.51,2.1-5.3,1.9-4.69,9.37-2.56,16.08-7.49,8.27-7.3,6.31-11,13.06-24.68,2.32-4.61,3.44-10.43,10.52-10.46,9.34,0,19.36-2.74,23.81,9.86,3.35,9.13,7.43,20.75,15.72,26.37,8.13,2.31,11,10.53,17.64,14.62s4.83,15-3,17.67c-5.49,1.86-6.22,5.11-7.27,9.68-3.11,13.58-10.14,24.35-23.5,30-5.18,13.3,9.74,25.4,20.69,27-9.46,1.26-3.76,31.31-11.79,35-9.54,9.55-38.82,5.25-51.77,3.22-16.92-.75-3.84-37.55-21.29-36.4C216.14,214.6,224.69,210.6,229.27,201.3Z"/><path class="cls-6" d="M219,369.53c1.31-2.41,4.2-6.77,7.06-6.57a5.43,5.43,0,0,0,6,2.08c2.92-.54,2.2-2.73,1.6-4.65-3.56-9.07,4.91-13.45,11.81-7.85,8.37,3.29,12.91,12.61,22.29,13.53-1.69,12.34,1.92,24.7-.23,37-9.45,5-18,2.1-26.32-3-.46.43-20.73-5.69-24.42-9.74-8.87-3.93-9.25-19,1.49-17A10.75,10.75,0,0,1,219,369.53Z"/><path class="cls-7" d="M241.16,400.08a123.37,123.37,0,0,0,25.23,3.53,125.33,125.33,0,0,0,.53,18,606.1,606.1,0,0,0,62.21,1.61c6.65,9.34-77.34,5.35-98.53,4.26-4.22.35-9.23-4.2-8.21-8.87.14-5.58,0-14-.3-24.91A123.27,123.27,0,0,0,241.16,400.08Z"/><path class="cls-8" d="M176.79,421.85c4.29-34.69.23-71.11,1.68-106.37,0-3-.74-6.2,1.77-9.1,3.59,38.56-.36,77.17,0,115.74Z"/><path class="cls-9" d="M226.39,308.64c-.2-19.22-2.19-37-3.34-59.23,15.59,4.31,45,4.31,59.82.36q.54,27.93,1,55.87C266.6,304,242.34,305.41,226.39,308.64Z"/><path class="cls-10" d="M220,373.25c9,2.06,9.26,4.67,21.74,3.89-7.28,4.69-12.93,1.42-18.54.81-2.75-.3-6.58-4.42-8,.81-2.2,6.57,3.74,13,6.92,14.33-3.31-1.28-9.27-4.46-11-8.14C207.85,376.72,212.44,371.1,220,373.25Z"/><path class="cls-11" d="M241.13,301.33c16,1.77,54.23,1.3,75,.74,1.33-.09,5.36-.36,7.73,2.13,1.35,1.42,1.93,3.66,1.76,7-.87,16.52,1.35,33.13-1.13,49.63-43.76-1.8-55,.74-55.75,3.81-.5,4.08-4.57,4.53-8.75,1.75-8.45-4.62-16.86-12.53-16.86-12.53-5.51-5.74-11.85,0-7.16,6.42,8.36,8.66-3.82,8.36-10.07,7.48-3.12-.13-3.2-2.68-3.19-5,0-18.05,0-36.09.09-54.14,0-1.06,0-3.71,1.83-5.37C228.06,300.62,236.82,301.89,241.13,301.33Z"/><path class="cls-8" d="M273.34,199.94c-12.79.55-24.63-2-34.76-10.75,11.81,4.52,23.19,2,34.53-1.22Q273.23,194,273.34,199.94Z"/><path class="cls-12" d="M238.84,132.72c.16,5.88-9.79,5.66-9-.61C229.85,126.21,239.2,126.29,238.84,132.72Z"/><path class="cls-5" d="M268.84,118.37c-5-3.14-3.82-3.65,2.56-3.09,7.42-.47,8.08-2.19,14.67,4.81C279.12,117.64,274.66,120.43,268.84,118.37Z"/><path class="cls-5" d="M239.39,117.86c4.76-3.49,3.55-3.91-2.77-2.9-7.44.06-8.22-1.62-14.3,5.84C229.08,117.86,233.73,120.32,239.39,117.86Z"/><path class="cls-12" d="M278.5,133.22c-.17,5.68-9.11,5.9-9,.07C268.91,126.8,278.58,127.13,278.5,133.22Z"/><path class="cls-13" d="M265.21,349.79a82.48,82.48,0,0,1,23-26.2"/><path class="cls-13" d="M270.39,352.82a78.39,78.39,0,0,1,20.81-24.05c6.08-4.6.11-15-6.06-10.36A92.91,92.91,0,0,0,260,346.76c-3.82,6.73,6.55,12.78,10.36,6.06Z"/><path class="cls-13" d="M288.17,349.79a82.48,82.48,0,0,0-23-26.2"/><path class="cls-13" d="M293.35,346.76a92.91,92.91,0,0,0-25.11-28.35c-6.16-4.66-12.15,5.76-6.06,10.36A78.39,78.39,0,0,1,283,352.82c3.81,6.72,14.18.68,10.36-6.06Z"/><path class="cls-8" d="M252.93,137.84c3.61,5.11-5,11.88,1.88,13.08.62.17,1.53,0,1.41,1-.09.75-.85,1-1.56,1C245.26,151.71,253.2,143.17,252.93,137.84Z"/></svg>