<svg id="Capa_1" data-name="Capa 1" xmlns="http://www.w3.org/2000/svg" xmlns:xlink="http://www.w3.org/1999/xlink" viewBox="0 0 500 500"><defs><style>.cls-1{fill:#8abcb9;}.cls-2{clip-path:url(#clip-path);}.cls-10,.cls-3{fill:#404040;}.cls-3{opacity:0.15;}.cls-4{fill:#cb9864;}.cls-5{fill:#b9814f;}.cls-6{fill:#dc9f68;}.cls-7{fill:#f3bb83;}.cls-8{fill:#fdc093;}.cls-9{fill:#f2bb82;}.cls-11{fill:#dc9f67;}.cls-12{fill:#dca067;}.cls-13{fill:#433f3b;}.cls-14{fill:#b9824f;}.cls-15{fill:#d5b18d;}.cls-16{fill:#fdfdfc;}.cls-17{fill:#a0693d;}.cls-18{fill:#b8814f;}.cls-19{fill:#605750;}.cls-20{fill:#5f5750;}.cls-21{fill:#a1683a;}.cls-22{fill:#a0683a;}.cls-23{fill:#ebc49d;}.cls-24{fill:#cd945f;}.cls-25{fill:#bd804e;}.cls-26{fill:#be804d;}.cls-27{fill:#cd955f;}.cls-28{fill:#665849;}.cls-29{fill:#65584c;}.cls-30{fill:#6b5844;}.cls-31{fill:#44403b;}.cls-32{fill:#47433f;}.cls-33{fill:#45433f;}.cls-34{fill:#fefefe;}.cls-35{fill:#eac49d;}.cls-36{fill:#65594d;}.cls-37{fill:#745b42;}.cls-38{fill:#725b42;}.cls-39{fill:#876142;}</style><clipPath id="clip-path"><path class="cls-1" d="M377.8,454.23a80.92,80.92,0,0,1-23.13,4.13c-31.28,1.3-60.41-6.65-88-20.9-1.18-.61-2.75-1-2.36-2.95,1.33-1.27,3-.92,4.54-.81,10.14.65,20.29,1,30.43,1.66,9.55.61,19.11.85,28.65,1.62l.89.08c4.41.31,4.72,0,4.8-4.48.13-7.77.89-15.52,1.25-23.28a4.25,4.25,0,0,1,.63-2.27l-.72-1.55c-4.29-.19-8.57,0-12.86-.1-1.57,0-2.8.95-4.3,1a9.11,9.11,0,0,0-4.89-1c-14.53.25-29-1.05-43.45-1.9a11.78,11.78,0,0,1-5.14-1.38c-.94-.69-.83-1.87-1.29-2.8-.64-6-1.62-12,.88-17.84,2.25-2.18,5.36-2.95,8.09-3.57,6.52-1.48,12.88-3.51,19.36-5.12,14.25-3.54,28.55-6.72,43.26-7.59,2.23-.13,2.72-1.38,2.88-3.34.61-7.35.88-14.72,1.28-22.08a5.14,5.14,0,0,1,.18-1c.35-2.25.52-4.55,2.18-6.37a2.66,2.66,0,0,0,.4-1.72c.28-8,1-15.9,1.2-23.85.12-4.19.8-8.33.71-12.53,0-2.34-.75-3.31-3.2-3.54-6.64-.61-13.33-.54-20-1.34a9,9,0,0,0-3.25-.41c-9.89.68-19.68-1.17-29.55-1.18-2.27-.05-4.67.49-6.48-1.53-.13-.77-.35-2.11-.58-3.78-1.63-12.22.2-15.29,1-16.37a11.24,11.24,0,0,1,1.73-1.72c1.76-1.36,3.61-1.56,4.1-1.91,6.52-4.51,14-5.51,21.58-6.09,12.11-.93,24.23-1.82,36.39-1.81,1.58,0,2-.93,2.61-1.89,1.12,1,.78,2.4,1,3.63.76,4.76,3.32,7,8.11,7s8.91-2.57,12.85-5c1.61-1,1.87-2.91,1.92-4.79,0-1.15-.46-2.69,1.35-3.13.17,7.18.21,7.06,6.95,9.82,10.23,4.2,20.57,8.15,30.37,13.32a45.27,45.27,0,0,0,7.7,3.2c10.43,3.22,15.28,15.35,10.76,25.18-3.78,8.22-7.56,16.45-11.72,24.47-5.4,10.41-10.9,20.81-17.05,30.78-3.5,5.67-4.54,11.84-5.89,18-3.17,14.45-6,29-8.87,43.49-1.46,7.51-3.77,17.15-6.77,32.66Z"/></clipPath></defs><path class="cls-1" d="M377.8,454.23a80.92,80.92,0,0,1-23.13,4.13c-31.28,1.3-60.41-6.65-88-20.9-1.18-.61-2.75-1-2.36-2.95,1.33-1.27,3-.92,4.54-.81,10.14.65,20.29,1,30.43,1.66,9.55.61,19.11.85,28.65,1.62l.89.08c4.41.31,4.72,0,4.8-4.48.13-7.77.89-15.52,1.25-23.28a4.25,4.25,0,0,1,.63-2.27l-.72-1.55c-4.29-.19-8.57,0-12.86-.1-1.57,0-2.8.95-4.3,1a9.11,9.11,0,0,0-4.89-1c-14.53.25-29-1.05-43.45-1.9a11.78,11.78,0,0,1-5.14-1.38c-.94-.69-.83-1.87-1.29-2.8-.64-6-1.62-12,.88-17.84,2.25-2.18,5.36-2.95,8.09-3.57,6.52-1.48,12.88-3.51,19.36-5.12,14.25-3.54,28.55-6.72,43.26-7.59,2.23-.13,2.72-1.38,2.88-3.34.61-7.35.88-14.72,1.28-22.08a5.14,5.14,0,0,1,.18-1c.35-2.25.52-4.55,2.18-6.37a2.66,2.66,0,0,0,.4-1.72c.28-8,1-15.9,1.2-23.85.12-4.19.8-8.33.71-12.53,0-2.34-.75-3.31-3.2-3.54-6.64-.61-13.33-.54-20-1.34a9,9,0,0,0-3.25-.41c-9.89.68-19.68-1.17-29.55-1.18-2.27-.05-4.67.49-6.48-1.53-.13-.77-.35-2.11-.58-3.78-1.63-12.22.2-15.29,1-16.37a11.24,11.24,0,0,1,1.73-1.72c1.76-1.36,3.61-1.56,4.1-1.91,6.52-4.51,14-5.51,21.58-6.09,12.11-.93,24.23-1.82,36.39-1.81,1.58,0,2-.93,2.61-1.89,1.12,1,.78,2.4,1,3.63.76,4.76,3.32,7,8.11,7s8.91-2.57,12.85-5c1.61-1,1.87-2.91,1.92-4.79,0-1.15-.46-2.69,1.35-3.13.17,7.18.21,7.06,6.95,9.82,10.23,4.2,20.57,8.15,30.37,13.32a45.27,45.27,0,0,0,7.7,3.2c10.43,3.22,15.28,15.35,10.76,25.18-3.78,8.22-7.56,16.45-11.72,24.47-5.4,10.41-10.9,20.81-17.05,30.78-3.5,5.67-4.54,11.84-5.89,18-3.17,14.45-6,29-8.87,43.49-1.46,7.51-3.77,17.15-6.77,32.66Z"/><g class="cls-2"><path class="cls-3" d="M417,455.12c3.6-32.7,33.93-61.93,41.32-116.39,5.57-41.07-3.92-81.57-11.64-82.08-4.46-.3-6.35,12.89-18.38,41.65C412,337.18,404.65,339,391.8,370.63c-18.05,44.45-8.43,53.1-21.4,65.19-33.82,31.55-115.13-12.4-118.53-4-2.86,7.09,58.76,33.62,87.6,44.72.94.36,24.27,9.07,50.23,5.85,6.87-.85,13.77-2.46,19.3-8C415.86,467.56,416.65,458.2,417,455.12Z"/></g><path class="cls-4" d="M69.4,277.88c-.33-1.59.16-2.49,1.95-2.41,2,.08,4.06-.22,6,.26a7.22,7.22,0,0,0,4.58-.24,4.51,4.51,0,0,1,3.15-.61c10,.74,20.14.73,30.17,1.59,12.22,1,24.48,1.44,36.72,2.15,5.87.34,11.76.4,17.63.77,2.29.15,4.61.06,6.65,1.39.82,3.85.5,7.75.18,11.59-.81,9.64-1,19.31-1.6,29-.25,4.29-.81,5.2-5.17,4.89-9.15-.64-18.34-.65-27.47-1.57-2.68-.28-5.38-.11-8.07-.17A10.06,10.06,0,0,1,130,324l-2-.38c-5.8.5-11.56-.31-17.32-.58-4.77-.22-9.56-.55-14.34-.83-7-.41-13.94-.65-20.91-1.23a14.39,14.39,0,0,0-3.28,0c-.9.14-1.46.57-1.45,1.57A1.5,1.5,0,0,0,72,324.22a35.92,35.92,0,0,0,5,.63c8.87.26,17.73.9,26.6,1.36,9.36.49,18.73.81,28.08,1.59,5,.41,10,.46,15,.7,9.47.46,18.91,1.43,28.4,1.34a5.44,5.44,0,0,1,2.06.37,2.59,2.59,0,0,1,1.22,1.07c1.11,4.07-.05,8.13-.29,12.17-.37,6.17-.32,12.36-.93,18.51-.18,1.78-.13,3.59-.39,5.37a14.67,14.67,0,0,0,.5,6.81c.38,2.25,1.05,4.81.1,5.39-.33.2-.79.12-1.13.54a2,2,0,0,0-.28,1.31c.21,4.3-.63,8.54-.69,12.84-.14,10.07-1.09,20.11-1.56,30.16-.09,2-.11,3.61,2.24,4.15a1,1,0,0,1,.84,1.07c-9-.41-17.94-.79-26.91-1.25-10.57-.54-21.13-1.16-31.7-1.73-17.54-1-35.08-2-52.63-2.84-2.5-.13-2-1.67-2-3.08.55-9.87,1.17-19.73,1.7-29.6q1.8-33.64,3.52-67.29c.08-1.52.2-2.84-1.28-4.42s-.68-4.61-.4-6.94c.7-5.74.8-11.52,1-17.27.17-3.79.51-7.55.84-11.31C69.46,281.9,68.79,279.85,69.4,277.88Z"/><path class="cls-5" d="M176.77,429.6c-4.58-1.4-4.57-1.4-3.68-6.57a15.81,15.81,0,0,0,.11-2.09c.36-6.51,2-29.7,2.86-50.2.3-7.41.39-7.31.53-15,.1-5.25.41-13.14,1.39-24.39,2.47-1.69,5.22-1,7.84-.79q9.69.68,19.4,1a47.51,47.51,0,0,1,8.9,1,2.07,2.07,0,0,1,.84.71c1,2.83.69,5.75.34,8.59-.61,5.07-.28,10.17-.9,15.24-.4,3.26.13,3.46,3.28,3.95,5.34.82,10.75.35,16.12,1,3.38.42,3.77-.19,3.84-3.59.15-7.28.81-14.53,1.25-21.8a4.08,4.08,0,0,1,.76-2.53c4.54-.85,9.09-.2,13.61,0,6.16.29,12.31.84,18.47,1,4.38.08,8.72.59,13.08.84a3.19,3.19,0,0,1,.63,2.53c-.49,7.65-.72,15.32-1.24,23-.16,2.37.63,3.47,2.83,3.5,5.77.06,11.52.76,17.3.81,2,0,2.78-.79,2.92-2.81.58-8.45,1.38-16.88,1.18-25.36,0-1.47-.22-3,.74-4.34a.67.67,0,0,1,.92-.08c.14.37,0-.08.19.23.88,1.19-.12,3.38,1.66,3.89a9.57,9.57,0,0,0,6.74-.33,3.37,3.37,0,0,1,2.85-.32c4.54,1.81,9.38,1.7,14.12,2.16,1.28.13,2.63-.09,3.69.9-.4,8.06-.82,16.13-1.17,24.19-.08,1.68-1.15,2-2.39,2.05-20.84,1.21-40.84,6.62-60.84,12.13-3.64,1-7.09,2.43-10.67,3.56-1.79.89-2.79-.57-3.86-1.44-2.1-1.69-4.25-3.28-6.49-4.8a11.18,11.18,0,0,0-8.56-1.78c-5.46,1-10.84,2.44-16.43,3.15a21.44,21.44,0,0,0,7.11,2.77,34.51,34.51,0,0,0,4.41.79c1,.14,2.18.3,2.25,1.54.06,1.07-1.09,1.35-1.88,1.64-6.64,2.46-13.17,5.21-19.76,7.79-2.66,1-5.56,1.74-7.63,3.94-2.71,2.88-2.26,5.43,1.28,7.31a15.34,15.34,0,0,0,3.71,1.14c2.11.51,4.36.69,5.17,3.35.27.89,1.34,1.14,2.24,1.27a47.22,47.22,0,0,0,27.68-4,73.82,73.82,0,0,0,7.12-3.81,3.88,3.88,0,0,1,3.08-.85c0,.18,0,.37,0,.56a9.66,9.66,0,0,0,.16,1.34,3.84,3.84,0,0,0,1.75,1.1c14.84,3.94,29.15,9.5,43.75,14.13,3.72,1.17,3.77,1.1,5-2.63.9-2.7,1.29-5.65,3.36-7.85.65-1,1.23-1.8,2.74-1.76,5.08.11,10.17,0,15.25,0,.27.77.85,1.47.57,2.37-1.16,3.55-.68,7.27-1,10.91-.53,6-.63,12-.79,17.93-.05,1.75-.48,2.51-2.4,2.39q-19.86-1.2-39.71-2.26c-5-.27-10-.48-14.95-.72l-13.14-.61-1.1-.07c-1.13,0-1.78,0-2.35,0a25.91,25.91,0,0,1-2.81-.28c-9.55-.6-19.12-1-28.68-1.54Q203.06,431.12,176.77,429.6Z"/><path class="cls-6" d="M176.21,281c-12.49-1.1-25-1.48-37.54-1.88-9.22-.3-18.44-1-27.64-1.77-8-.65-16.09-.86-24.13-1.18-1.68-.07-3.35-.42-5-.64q.95-17.17,1.88-34.33c.38-7,.48-14,1.21-20.89.78-7.42-1.35-14.68-.57-22.08.62-5.94.84-11.92,1.08-17.89.08-2,1.14-2,2.54-1.94,5,.06,10,.89,14.94.59a2.83,2.83,0,0,1,4.06.8,6,6,0,0,1,.53,3.2c-.59,8.8-1.21,17.61-1.23,26.44a3,3,0,0,1-1,2.66c-2-2.73-5-2.82-8-2.79a45.79,45.79,0,0,1-8-.34c-.73-.12-1.6-.37-2.12.6.51,1.2,1.63.86,2.54,1a71,71,0,0,0,11.29.61c1.37,0,2.81-.15,4,.92,1.56,2.73.83,5.65.59,8.48-.2,2.29-.31,4.57-.34,6.87,0,2.06.84,3.2,2.93,3.36,3.2.25,6.39,0,9.59.15,1.45,0,1.78-1,2-2.12.57-2.67.35-5.37.44-8.06s0-5.41,1.52-7.82a3.57,3.57,0,0,1,2.28-.57q12.76.93,25.56,1.25a3,3,0,0,1,1.4.47c1.69,2.12,1.07,4.58.79,6.89-.37,3-.25,6-.4,8.94-.1,2,.8,2.93,2.71,3.16a76.12,76.12,0,0,0,9.55.19c1.51,0,2-.95,2.19-2.3a70,70,0,0,0,.59-10.73c0-1.77-.1-3.64,1.55-4.93,3.25-.53,6.49.06,9.74,0,3.95,0,7.87.75,11.83.61a3.65,3.65,0,0,1,2.51.76c1.38,2.52,1,5.3.66,7.89-.68,5.15-.6,10.33-.89,15.48-.51,9.42-1,18.85-1.5,28.28-.22,4.41.22,8.95-1.19,13.28a4.12,4.12,0,0,1-3.34.86C182.51,282.12,179.2,282.49,176.21,281Z"/><path class="cls-7" d="M106.64,179.59,103,179c.84-16.82,1.6-33.65,2.55-50.46.29-5.29-1.15-10.46-.67-15.76.44-4.86.54-9.75.66-14.64,0-1.84.82-2.49,2.56-2.39q12.39.72,24.76,1.39c2.49.13,5,.14,7.46.39a2.49,2.49,0,0,0,2.86-1.94c1.66,1.29,3.58,1.5,5.62,1.58C162,97.6,175.2,98.77,188.45,99c3.88.06,4.4,1.11,4.41,5,0,5.89-.89,11.73-.75,17.61a6.7,6.7,0,0,1-.58,3.5c-1.06,1.38-2.56,1.4-4.08,1.29-13.72-1-27.45-1.68-41.19-2.32-12-.56-24.08-1.43-36.14-1.78a6.8,6.8,0,0,0-2.33.16,10.65,10.65,0,0,0,4,.89c8.86.42,17.73.77,26.58,1.36,10,.66,20.1,1,30.15,1.57,5.77.3,11.53.9,17.32.83,2.69,0,5.4,0,7.87,1.36a5,5,0,0,1,.78,3.73c-.86,9.35-1.05,18.73-1.54,28.1-.31,5.78-.91,11.54-.86,17.35.06,6.47-1.32,7.71-7.62,6.93-5-.62-10-.17-14.94-1A13,13,0,0,0,159,182.53a16.52,16.52,0,0,1-6.44.57,19.07,19.07,0,0,0-5.57-.82,155,155,0,0,1-19.27-1.1c-2.3-.26-3.33,1.26-4.87,2.13-1.33-1.67-3.1-2-5.17-2.34C114,180.44,110.17,181.24,106.64,179.59Z"/><path class="cls-8" d="M373.16,257.26c-.38.65-2,1.45-5.2,3-4.53,2.22-6.84,3.28-8.37,3.59-7.19,1.47-11.89-1.76-11.85-9.37,0-.6,0-1.19-.06-1.79l2.26-5.49c-1.35-.6-2.5-.23-3.68-.14-6.07.48-11.59-.32-16-5.32A108.25,108.25,0,0,1,315,219.34c-4.7-9.12-5-17.92-.43-27.2,4.06-8.33,7.38-17,11.75-25.23,1.18-1,2.47-.49,3.71-.2a84,84,0,0,1,9.47,2.73c1.23.45,2.5.62,3-.89s-.88-1.83-1.89-2.13a62,62,0,0,0-9.91-2.2c-.95-.13-2.05.09-2.66-1a94,94,0,0,1,7.17-14.2c1-.26,1.49.43,2,1,7.68,9.57,18.36,14.51,29.39,18.82A149.41,149.41,0,0,0,392.2,176c5.71,1.12,5.94,1.65,3.38,6.74-4.2,8.37-6.52,17.34-8.62,26.4a5.15,5.15,0,0,0-.16,2.37,3.76,3.76,0,0,0,2.74,2.91c1.58.42,2-1.1,2.53-2,3.17-5.36,7.54-9,13.86-9.86,2.15-.27,4.46-.43,6,.94,1.82,1.59,1.63,4.43,1.43,7.46-.18,2.59-.34,5-2,7.14a10.6,10.6,0,0,1-7.15,3.88,43.08,43.08,0,0,0-6.25.6,6.31,6.31,0,0,0-1.74.73c-2.62,1.57-2.73,2.86-6.22,8.78-2.93,5-7.05,8.13-12.74,8.88a4.92,4.92,0,0,0-3.1,1.39,6,6,0,0,0-1.16,4.16C372.94,253.45,374.38,255.16,373.16,257.26Z"/><path class="cls-9" d="M188.81,281.52c.16-11.44.88-22.85,1.73-34.26.28-3.86.2-7.74.56-11.62.56-6.24.53-12.54.76-18.81.82-1,1.94-.91,3-.84,14.82.95,29.66,1.52,44.5,2.32q17.16.91,34.34,1.81c3.35.17,6.78.1,10.06,1.09l.4.4c-1,13.34-2.14,30.18-2.4,39.28,0,.65,0,1,0,1,.16,8.16-.18,16.31-.65,24.45-2.67,1.7-5.65,1-8.44.82-10-.67-20.08-1.23-30.11-1.84-8.4-.7-16.84-.74-25.25-1.29-6.52-.4-13-.77-19.58-1C194.71,283,191.6,283.11,188.81,281.52Z"/><path class="cls-10" d="M413.39,210.91c-.23-.44-3.8-7.13-9.46-7.23-5.44-.11-9.66,6.35-11.45,9.37-.6,1-.39,3.59-2.71,2.55-2.13-.94-4.49-2-3.84-5.21,2.08-10.3,4.89-20.38,9.83-29.71,1.22-2.31,1.06-3-1.64-3.52-13.79-2.51-27.18-6.33-39.74-12.73-7.47-3.81-14.09-8.65-19.19-15.39-4-6.81-5.07-14-2.66-21.57,3-9.54,9.63-14.66,19.67-15,10.39-.35,19.84,3.06,28.89,7.72,12,6.19,21.73,15.18,30,25.72,7.23,9.21,9.69,19.55,6.06,30.87.7.79,1.41.3,2,.3,3.76,0,6,1.83,6.58,5.56.77,4.7-1.17,9-2.13,11A123.38,123.38,0,0,1,413.39,210.91Z"/><path class="cls-11" d="M191.17,125c-.13-7.65.55-15.26,1-22.89.06-1,0-1.55-1-1.76a10.5,10.5,0,0,0-2.61-.48c-6.87.35-13.69-.6-20.55-.72-7.52-.13-15-.85-22.55-1.2-1.73-.09-2.52-.67-2.33-2.41.27-13,1.2-25.95,2-38.92-.07-2.62,1.42-3.27,3.77-3.33,3.6-.08,7.13.52,10.71.69,12.39.6,24.76,1.45,36.89,2-.94-.31-1.72-.88-1.09-2.29,3.89-2.76,7.72-5.61,11.69-8.24,2.52-1.67,5.45-.64,8.16-.53,10.83.43,21.66,1.07,32.49,1.66,4.12.23,8.23.52,12.35.78l.23.73L244.48,59c-3.71,1.84-7.65,1-11.47.77-6.58-.32-13.14-.93-19.72-.95-3.81,0-7.55-.73-11.36-.67-2.26,0-3.16.88-3.22,3.18-.32,11.07-.86,22.13-1.73,33.17,0,.7,0,1.4,0,2.1-.15,2.39.95,3.5,3.35,3.45a118.46,118.46,0,0,1,15,.64c1.5.15,3.07.14,3.63,2,.21,8.12,0,16.2-1.72,24.18-3.65.83-7.35.35-11,.16s-7.57-.49-11.36-.52C193.43,126.51,191.93,126.58,191.17,125Z"/><path class="cls-9" d="M250.05,186.77c11.63.6,23.26,1.24,34.89,1.77,1.9.08,2.38.83,2.29,2.55-.43,8.35-.72,16.71-1.28,25-.13,1.85-1.14,3.65-1.75,5.47l-.16-.14c-1-2.05-2.69-2.47-4.87-2.6-13.52-.84-27.06-1.51-40.59-2.17-9.46-.46-18.9-1.16-28.37-1.42a118.44,118.44,0,0,1-13.69-1c-1.9-.85-2.08-2.57-2.05-4.3.08-5.58.59-11.15.82-16.73.09-2,.28-4,.39-6,.16-2.94.85-3.68,3.85-3.77,6.59-.21,13.15.59,19.73.79,5.68.17,11.35.83,17,.92,3.71.05,7.35.73,11.05.73A4,4,0,0,1,250.05,186.77Z"/><path class="cls-9" d="M218.21,102.83c-.17-1.25-1.11-1.17-2-1.21-5.46-.23-10.92-.91-16.4-.59-2.72.16-4.05-.73-3.83-3.76.7-9.71,1.25-19.42,1.78-29.14.16-2.89.12-5.79,0-8.68,0-1.71.64-2.3,2.3-2.22,7.14.33,14.28.77,21.42,1.05,7.66.29,15.31,1.19,23,.74a13.5,13.5,0,0,0-.93,5.55c-.3,12.74-1.19,25.45-1.91,38.18-2.52,1.82-5.31.54-8,.74-4.88-.23-9.75-1.22-14.65-.33A1.15,1.15,0,0,1,218.21,102.83Z"/><path class="cls-9" d="M195.37,53.64c-.08,1.13,1,1.63,1.5,3-3.37,0-6.67.45-9.79-.11-4.45-.81-8.94-.65-13.36-.88-8.34-.45-16.67-1.07-25-1.46-2.05-.1-3.11.57-3.62,2.42,0-4.11-3.72-5.35-6-7.6-2.81-2.76-6-5.1-9.37-7.88,1.84-.93,3.24-.6,4.56-.54,6.47.31,12.94.72,19.41,1.06q12.69.66,25.39,1.24c2.9.14,5,1.75,7,3.58,2.29,2.08,4.63,4.1,6.9,6.2A3,3,0,0,0,195.37,53.64Z"/><path class="cls-12" d="M233.8,102.83l7.84-.08h0c2.54,1,5.25-.11,7.82.61,6,0,6.09,0,5.89,5.94-.18,5.28.19,10.69-.86,15.8-4,19.2-2.46,38.76-4.39,58.08a35.81,35.81,0,0,0,0,3.59h-2.48c-1.27-2.9-.71-6.08-1.34-9.09-.3-1.44-.17-3-.45-4.46a4.65,4.65,0,0,1,1.61-4.84,3.5,3.5,0,0,0,1.14-4.52c-1.06-2.46-.24-5.09-.47-7.49-.36-.25-.52-.22-.72-.09-.85.56-1.54,2-2.73,1s-.35-2.15.16-3.26c1-2.21,1.37-4.81,3.82-6.18.49-.27.5-1.06.55-1.66.4-4.93,2.26-9.67,2-14.7.29-1.78-1-1.84-2.2-2.08-4.83-.94-9.77-.2-14.6-1-.75-.13-1.63.12-2.14-.74-.46-3.48.08-7,.1-10.42,0-4,.69-8,.6-12A3.42,3.42,0,0,1,233.8,102.83Z"/><path class="cls-13" d="M328,163.24a50.1,50.1,0,0,1,13.45,2.62c1.1.37,3.25.24,2.25,2.51-.7,1.61-1.3,3.23-3.89,2.13a48.18,48.18,0,0,0-13.52-3.59C326.4,165.46,327.4,164.43,328,163.24Z"/><path class="cls-9" d="M249.43,103.36c-2.61-.18-5.31.82-7.82-.61C244.2,103.09,246.88,102.4,249.43,103.36Z"/><path class="cls-6" d="M69.4,277.88c-.1,2,.48,4-.39,6C69,281.86,68.6,279.83,69.4,277.88Z"/><path class="cls-14" d="M242.27,284.62c9.61,0,19.16,1,28.73,1.58,3.37.21,6.75.12,10.12.17,2,.61,4,.43,6,.6,1.54,2,1,4.4.82,6.63-.49,6.53-.79,13.07-1.06,19.62-.18,4.46-.64,8.9-.75,13.38a8.82,8.82,0,0,1-1.22,4.85c-2.93,1.5-6.06.86-9.09.68-10.13-.6-20.24-1.47-30.39-1.66-1.87,0-3.83.13-5.31-1.42-1.28-3.08-.79-6.3-.51-9.45.51-5.86.71-11.75.89-17.62.16-4.89.86-9.74.75-14.64A3.26,3.26,0,0,1,242.27,284.62Z"/><path class="cls-15" d="M284.74,331.33c.85-11.7,1.46-23.41,2-35.13.13-3.07.41-6.14.43-9.23,10.58-.12,21.09,1.78,31.7,1.22a4,4,0,0,1,1.35.49c-1,1.12-2.35,1.05-3.61,1-2.44-.17-3.26,1-3.52,3.27-.51,4.45-.65,8.92-.86,13.37-.37,7.83-.68,15.67-1.31,23.48-.1,1.17,0,2.42-1,3.31-1,1.35-.58,2.91-.52,4.35.35,9.18-.91,18.27-1.21,27.42,0,1.41-.58,1.94-2,1.91-7.06-.15-14.1-.56-21.13-1.11-2.05-.15-2.15-1.19-2.05-2.76.41-6,.77-12.09,1.15-18.13.18-2.88.38-5.75.57-8.62A3.76,3.76,0,0,1,284.74,331.33Z"/><path class="cls-5" d="M309.89,333.07c.63-12.66,1.21-25.33,1.91-38,.35-6.29.46-6.29,6.89-6.31.49,0,1-.05,1.49-.08,7.27.4,14.53.86,21.81,1.17,1.7.08,2.3.67,2.21,2.32q-.85,15.54-1.64,31.08c-.12,2.3-.15,4.6-.3,6.89-.12,1.69.33,3.43-1.83,4.61-1.39.76-.05,3.08-1,4.46-.74-3.56-3.06-4.4-6.44-4.2-2,.12-4.13-.73-5.78,1.23a1.34,1.34,0,0,1-1.69.06c-3.82-2.49-8.13-2.24-12.39-2.32a4.47,4.47,0,0,1-3.11-.8Z"/><path class="cls-8" d="M263.71,399.63c-4.09,2.26-8,4.85-12.37,6.57a50.12,50.12,0,0,1-25.73,3c-1.48-.21-3.34-.42-3.25-2.73.06-1.31-.92-1.24-1.82-1.42-3.79-.77-7.63-1.33-9.83-5.25a1.94,1.94,0,0,1-.05-2.51c2.35-3.92,6.29-5.25,10.19-6.76,7.2-2.79,14.37-5.65,21.57-8.76-3.58-.81-7.2-1.27-10.6-2.56-1.48-.57-2.93-1.23-4.36-1.92a1.32,1.32,0,0,1-.64-.92c0-.44.38-.64.82-.65,6.31-.08,12.33-2,18.5-3,5.84-.92,9.63,2.93,13.72,6,1.41,1.07,2.55,2.54,4.41,2.91C262.43,387.6,262.92,393.61,263.71,399.63Z"/><path class="cls-16" d="M317.73,406.28c-1.35,2.29-2,5-3.3,10.25a2.63,2.63,0,0,1-1.11,1.8,3,3,0,0,1-2.33-.16c-13.41-4.56-26.84-9-40.27-13.52-2.06-.68-4.13-1.33-6.2-2-.62-.19-.7-.61-.65-1.15,4.17,1.71,8.67,1.37,13,1.6,13.57.71,20.84.05,38,1.42l3.9.34A13.84,13.84,0,0,0,317.73,406.28Z"/><path class="cls-17" d="M310,333.18a71.48,71.48,0,0,1,13.24.6,1.94,1.94,0,0,1,1.3.6c1.26,2,2.13,2.56,3.22-.22.36-.91,2.05-.53,3.09-.3a15.54,15.54,0,0,0,3.53.47c4.8,0,4.8.05,5,4.88a1,1,0,0,1-.06.53c-5.38.27-10.65-.73-16-1.21a3,3,0,0,1-1.78-.95c-.43-.37-1.26-1-1.56-.52-1.85,2.7-4.54,1-6.8,1.44-2.58.52-3.73-.56-3.29-3.24A14.42,14.42,0,0,0,310,333.18Z"/><path class="cls-3" d="M339.08,365.16c3-.28,6-.59,9-.84,1.68-.14,3.37-.19,5.06-.31s2.64-1,3.43-2.67c7.56-16.34,15.29-32.6,22.95-48.89.3-.64.46-1.3,1.82-1.31-1.49,3.33-2.83,6.47-4.27,9.56q-9.57,20.57-19.17,41.13c-1.15,2.46-2.6,4.11-5.68,3.69-4.34-.59-8.67,1-13,.47Z"/><path class="cls-3" d="M336.29,406.87c-.05-.31-.11-.64-.19-1a13.83,13.83,0,0,0-.38-1.39c1,1.56,2.62,1.34,4,1.15,8.65-1.15,17.34-2,25.74-4.72,6.81-2.2,11.05-7.29,15.13-12.59a91.88,91.88,0,0,0,10-16.9c.2-.44.43-.91,1.14-.81.74,1.47-.64,2.43-1.13,3.43a90.05,90.05,0,0,1-12.85,19.71c-3.6,4.09-7.88,7.31-13.34,8.66C355.21,404.73,345.91,406.84,336.29,406.87Z"/><path class="cls-18" d="M188.81,281.52c8.93.5,17.84,1.23,26.78,1.32a8.06,8.06,0,0,1,2,.51,3.26,3.26,0,0,1,.76,2.5c-.47,7-.69,14.11-1.15,21.16-.47,7.34-.66,14.7-1.09,22.05-.08,1.47.49,3.26-1.46,4.11l-.11-.09c-.46-4-3.21-4.7-6.64-4.77-5.64-.11-11.26-.95-16.92-.87a48.94,48.94,0,0,1-8-.48c-2.11-.32-4-.18-4.43,2.58a1.56,1.56,0,0,1-1.18,1.22c-10.87.31-21.67-.92-32.51-1.35-7.24-.28-14.49-.62-21.73-1.11-11.7-.8-23.42-1.22-35.13-1.9-5.54-.32-11.11-.34-16.64-1-2-.23-2-1.25-1.9-2.61s-.35-3,1.93-2.85l16.36,1c.39,0,.78.16,1.18.17,11.83.17,23.62,1.06,35.43,1.83,1.49.09,3,0,4.49,0a.35.35,0,0,1,.58,0c.69.81,1.65.6,2.52.58,10.75-.32,21.43,1.38,32.18,1.29,2.45,0,4.92.56,7.42.55,1.64,0,2.25-.51,2.31-2.23.32-9.13.38-18.3,1.32-27.38.51-4.93-.4-9.95,1.05-14.79C180.43,280.62,184.58,282,188.81,281.52Z"/><path class="cls-19" d="M137.24,382.55c4.09-5.55,8-10.79,11.84-16.13,1.19-1.67,1.75-1,2.46.26q4.47,7.77,9,15.52c.72,1.24.82,2.08-1,2h-.6c-6.82.1-6.83.09-7.2,7.15-.25,4.88-.65,9.76-.6,14.63,0,3-1.6,2.64-3.58,2.76-2.72.16-2.55-1.45-2.44-3.23.38-6.06.8-12.11,1.09-18.18.19-3.79.1-3.81-3.87-3.83A10.65,10.65,0,0,1,137.24,382.55Z"/><path class="cls-20" d="M130.71,382.84c-1.88.23-4-1.34-5.52-.11s-.6,3.59-.77,5.42c-.47,5.36-.86,10.74-.88,16.11,0,3-1.69,2.65-3.65,2.76-2.39.12-2.53-1.17-2.41-3,.42-6.26.68-12.54,1.19-18.79.22-2.7-.87-3.54-3.37-3.51-1.76,0-4.51.73-5-.48-.67-1.52,1.64-3,2.69-4.53,2.71-3.83,5.51-7.59,8.2-11.42,1.06-1.5,1.75-2,2.86,0,2.74,5,5.67,9.84,8.5,14.77.43.74,1.34,1.57.74,2.4S131.58,382.76,130.71,382.84Z"/><path class="cls-20" d="M113.43,412.22c15.23.84,29.86,1.7,44.49,2.4,2.45.11,2,1.55,2.06,3,.07,1.83-.73,2.48-2.53,2.35-14.41-1.05-28.83-1.89-43.27-2.39a27.69,27.69,0,0,1-3.85-.45c-1.19-.2-3.12.74-2.94-1.75.15-2.06.64-3.73,3.36-3.21A12.09,12.09,0,0,0,113.43,412.22Z"/><path class="cls-21" d="M177.35,330.76c.13-.27.25-.54.4-.8.69-1.2-.56-3.23,1-3.77a9.65,9.65,0,0,1,5-.11,26.85,26.85,0,0,0,5.92.44c7.74-.09,15.42.93,23.15,1.2,1.25,0,1.83.52,1.78,1.78s0,2.39-.05,3.58c-9.49-.56-19-1.16-28.49-1.68-2.68-.14-5.38,0-8.07,0Z"/><path class="cls-15" d="M214.65,333.17a1.89,1.89,0,0,0,.54-1.64c-.39-5.68.44-11.31.65-17,.39-10.41,1.15-20.81,1.75-31.21,8.23.32,16.48.28,24.68,1.27q-1,22.13-2,44.26c.4,1.85.68,3.7-.48,5.42-.42,8.84-.91,17.67-1.23,26.5-.07,1.89-.77,2.43-2.51,2.33q-10.54-.66-21.12-1.2c-1.37-.07-1.63-.82-1.59-2,.24-5.46.16-11,.79-16.38C214.58,340.1,214.35,336.64,214.65,333.17Z"/><path class="cls-22" d="M239.83,334.3c.12-1.81-.64-3.7.48-5.42a11,11,0,0,0,2.59.6c14-.08,27.87,1.91,41.84,1.85,0,1.6,0,3.2,0,4.8-1.86,1.05-3.92.71-5.84.52-7.09-.69-14.25-.45-21.31-1.24C251.66,334.75,245.69,335.54,239.83,334.3Z"/><path class="cls-23" d="M152.8,182.59c3.15-.7,6.39-.7,9.53-1.61a5.93,5.93,0,0,1,6.7,2.23c1.47,1.84,1.05,4,.85,6-.75,7.32-.23,14.71-1.33,22-.4,1.45-.43,3-.86,4.42-1,5.3-.1,10.72-1,16.07-.31,1.91-.77,2.62-2.68,2.49-4-.28-8,.29-11.92-.55-1.49-.32-1.92-.61-1.81-2.25.39-5.65.53-11.33.76-17a4.06,4.06,0,0,1-.88-3.18c.51-7.45,1-14.9,1.16-22.37C151.38,186.71,151.38,184.46,152.8,182.59Z"/><path class="cls-23" d="M106.64,179.59c4.53-.4,9,.64,13.52.62,2,0,2.89,1,2.69,3,1.63,2.45,1.08,5.24.8,7.79-.7,6.32-.13,12.7-1.16,19a4.13,4.13,0,0,1-.86,3.21c-1,5.58-.18,11.28-1.14,16.88-.25,1.48-.52,2-2.19,1.82-3.94-.44-7.93.2-11.89-.45-1.72-.28-2.3-1-2.21-2.74.29-5.55.46-11.1.67-16.64l0,0a2.07,2.07,0,0,0,.55-1.92c-.47-7.23.64-14.42.67-21.65C106.14,185.51,106.76,182.57,106.64,179.59Z"/><path class="cls-24" d="M167.69,215.66a3.06,3.06,0,0,1,0-3.75c1.4-1,3-.91,4.58-.74,6.21.66,12.44.69,18.66,1.08a14.52,14.52,0,0,1,5.66,1.51c10,.41,20.06.64,30.07,1.29,7.74.51,15.46.88,23.2,1.19,10.81.43,21.61,1.18,32.41,1.73,2.84.14,1.55,2.15,1.75,3.5-6.66.11-13.27-.52-19.91-1-5.35-.37-10.71-.55-16.08-.7-9.43-.27-18.83-1.16-28.27-1.36s-18.62-1-27.92-1.6Q179.76,216.64,167.69,215.66Z"/><path class="cls-25" d="M121.63,213.18v-3a2.26,2.26,0,0,1,2.24-1.2c8.13.52,16.29.57,24.41,1.41a4.65,4.65,0,0,1,2.76,1c0,1,0,2,0,3.06C141.22,214.55,131.43,213.68,121.63,213.18Z"/><path class="cls-26" d="M104.87,212.05c-5.76,0-11.5-.2-17.25-.64-1.34-.1-2-.45-2-1.9,0-1.3.64-2,1.83-1.69,4.88,1.16,9.89.15,14.82.92,2.31.37,2.77,1.37,2.6,3.28Z"/><path class="cls-11" d="M196.61,213.76c-9.61-1-19.27-1.18-28.9-1.85l1.32-28.7c1.51-1,3.05-.12,4.58-.13,4.88-.06,9.72.5,14.57.73,1.54.07,2.34-.35,2.63-2a18.33,18.33,0,0,0,.38-3.53c-.17-10.44,1.29-20.79,1.34-31.23,0-6.12,1.08-12.23,1-18.39a3.33,3.33,0,0,1,3-.89c6.21.71,12.47.42,18.66,1.22a3.83,3.83,0,0,1,1.68.54c1,1,.72,2.21.59,3.39-.35,3.08-.13,6.17-.2,9.26-.05,1.94.66,3.06,2.76,2.93,2.61-.17,5.15.44,7.74.59,2.26.13,3.33-.82,3.26-3.13a48.25,48.25,0,0,1,.57-9.53,5.13,5.13,0,0,1,.88-2.81c4.44-.7,8.87-.18,13.27.23,2,.19,4.24-.34,6,1.21.87,5.55-1.89,10.66-1.9,16.11,0,.28-.17.77-.33.8-3.61.64-2.52,4.54-4.43,6.36-.63.6-.87,1.61-.1,2.09s1.15-.41,1.35-1.1c.29-1,.86-1.7,1.94-1.32s1.13,1.47.89,2.52c-.55,2.44-.82,4.78.47,7.2a3,3,0,0,1-1.31,4.37c-2.13,1.11-2,2.78-1.78,4.82.5,4.41,1.44,8.79,1,13.27-9.53-.56-19.06-.87-28.58-1.66-6.74-.55-13.54-.49-20.31-.72-1.28,0-2,.26-2.11,1.78q-.52,12.22-1.19,24.45A3.2,3.2,0,0,0,196.61,213.76Z"/><path class="cls-11" d="M151,211.36c-9-.57-18.09-1.12-27.13-1.71a4.57,4.57,0,0,0-2.28.51c.54-9,1.15-18,1.23-27,.33-3,2.31-3.3,4.79-3A159.78,159.78,0,0,0,148,181.4c1.69,0,3.37,0,4.76,1.19Z"/><path class="cls-27" d="M216.94,129.81l-23.38-1.17q-18.62-1.17-37.23-1.92c-11.31-.46-22.61-1.32-33.92-1.89-4.83-.24-9.74.07-14.55-1-1.16-.24-1.88-.43-1.77-1.77s1-1.34,1.91-1.13c4.7,1.07,9.5.49,14.26.88,10.4.86,20.86.89,31.29,1.39s20.83,1.15,31.24,1.8c2.14.13,4.26,1.25,6.38,0a5.59,5.59,0,0,0,2.55.63c6.6.17,13.2.36,19.79.61a27.7,27.7,0,0,1,3.48.56A2,2,0,0,1,216.94,129.81Z"/><path class="cls-28" d="M112.77,161.66c2.17-2.57,3.52-4.75,5.61-6.52l4.58,7c-5.38-.81-3.46,3.11-4.24,5.31-.43,1.22,1,3.61-1.32,3.52s-.71-2.38-1.07-3.63a3.45,3.45,0,0,1,.08-1.77C117.15,162.91,116.61,161.24,112.77,161.66Z"/><path class="cls-29" d="M134.45,163c-3.81-1-4.34.81-4.3,3.22,0,1.29-.07,2.58-.12,3.87,0,.82-.09,1.63-1.24,1.63s-1.22-.78-1.2-1.62a37.67,37.67,0,0,1,.17-4.76c.34-2.32-.49-3.38-3-3.09.79-2.41,2.71-3.79,3.95-5.63.69-1,1.24-.65,1.77.18C131.6,158.61,132.78,160.42,134.45,163Z"/><path class="cls-30" d="M117.4,173.06q7.16.31,14.29.65c.84,0,2-.15,1.89,1.23s-1.32.94-2.13.9q-8.62-.47-17.24-1c-.8-.05-2,.31-2-1.09.07-1.18,1.17-.78,1.9-.81,1.09,0,2.18,0,3.27,0Z"/><path class="cls-31" d="M374.61,188.33c-3.79-6.23-9.07-9.36-14.62-12.14-2.15-1.08-2.64-2.71-1.34-4.69a1.21,1.21,0,0,1,1.45-.61c5.2,1,13.83,10,14.5,15.2C374.66,186.58,374.61,187.08,374.61,188.33Z"/><path class="cls-3" d="M341.9,183.53A104,104,0,0,0,333,191.9a2.33,2.33,0,0,0-.54,1.34,2.48,2.48,0,0,0,.59,1.64c.78,1,2.27,2,7,3.84.85.33,1.29.63,1.31,1,0,.54-1,1-1.11,1-.37.16-1.7.65-4.1-.37s-6.08-3.69-6-7.13a5,5,0,0,1,.46-2c.77-1.61,2-1.71,4-3.18,3.12-2.23,3.68-4.33,6.12-4.51A4.47,4.47,0,0,1,341.9,183.53Z"/><path class="cls-32" d="M364.26,185.75c-.32,2.71-1.18,5-3.5,6.45-2.14,1.3-3.86.37-3.81-2.12a7.85,7.85,0,0,1,3.32-6.41,2.37,2.37,0,0,1,4,2.08Z"/><path class="cls-33" d="M336.31,175.13a8.52,8.52,0,0,1-2.62,5.28c-1.84,1.64-3.71.9-4.06-1.55a7.72,7.72,0,0,1,1.61-5.91c.86-1.13,1.91-2.23,3.51-1.64S336.33,173.43,336.31,175.13Z"/><path class="cls-34" d="M267.32,238.77c.13,1-.34,1.71-1.72,2-9.7,2.12-19.39,4.3-29.08,6.47-2,.45-3.07,0-3.41-2.37-.55-3.73-1.46-7.41-2.38-11.07-.45-1.81-.13-2.58,1.85-3q13.14-2.69,26.21-5.68c5.18-1.17,5.17-1.26,6.42,4q1,4.35,2,8.7A7.49,7.49,0,0,1,267.32,238.77Z"/><path class="cls-35" d="M216.94,129.81c0-1,0-2,.05-3q.62-12,1.22-24c5.19-2.08,10.39-.4,15.59,0,0,8.41-.49,16.8-1.21,25.18a1.71,1.71,0,0,1,0,2.39c-.12,4.55-1,9.08-.64,13.65.14,2-.84,2.58-2.7,2.58-3.78,0-7.49-.95-11.28-.65-1.59.12-1.64-1-1.63-2.21C216.4,139.11,216.19,134.44,216.94,129.81Z"/><path class="cls-36" d="M170.38,95.11c-2.13.75-3.72.3-5.76-.39,3.21-1.3,2.74-2.42.58-4.28-1.78-1.52-1.2-4.07-.5-6.17.26-.78,5.44-.6,6.31.1,1.15.92.46,5.82-1.19,6.79C167.25,92.67,168.2,93.74,170.38,95.11Z"/><path class="cls-37" d="M155.89,92.4c-.1,0-.25,0-.29-.08-1-1.77.64-4.36-1.79-5.69a29.55,29.55,0,0,1,2-2.57c.61-.63,1.07,0,1.38.49.46.82,1.77,2.12,1.11,2.44-2.13,1-1.05,2.76-1.43,4.14C156.72,91.7,156.68,92.33,155.89,92.4Z"/><path class="cls-38" d="M150.15,83c.37,1.82,3.61,2.76.5,4.87-.56.38-.21,2.07-.31,3.15-.05.52-.25,1-.89.93a.74.74,0,0,1-.69-.82c-.08-1.66,1.21-3.56-1.22-4.84C147.19,86.1,149,84.29,150.15,83Z"/><path class="cls-39" d="M146.75,93.31a45.22,45.22,0,0,1,11.72.67l0,.89-11.73-.61C146.72,93.94,146.73,93.62,146.75,93.31Z"/><path class="cls-26" d="M232.61,130.4c0-.8,0-1.59,0-2.39,1.73-1.19,3.46-.07,5.2,0,4.07.08,8.13.09,12.2.55,2.48.28,3,1,1.78,3.12Z"/></svg>