<svg id="Capa_1" data-name="Capa 1" xmlns="http://www.w3.org/2000/svg" xmlns:xlink="http://www.w3.org/1999/xlink" viewBox="0 0 500 500"><defs><style>.cls-1{fill:#fdc093;}.cls-2{clip-path:url(#clip-path);}.cls-3{fill:#1d1d1b;opacity:0.15;}.cls-4{fill:#faf5e9;}.cls-5{fill:#d23627;}.cls-6{fill:#1b120d;}.cls-7{fill:#dddad5;}.cls-8{fill:#31190e;}.cls-9{fill:#341e10;}.cls-10{fill:#333;}</style><clipPath id="clip-path"><path class="cls-1" d="M170.42,274.59c3-14.43,9-44,30.74-57.72,30.62-22.46,22.09,31.63,19.85,39.76-6,19.87-23.26,56-30.27,82-1.44,4.19-10.38,23.73-19.6,23.72-13.28-2.2-26.68-9.66-28.95-24-7.47-24.52-15.52-48.87-23.38-73.27-1.15-4.5-4.44-6-7.24-8.89-11-10.91-9.4-19.81-17.16-31.09-2.9-3.49-11.07-10.48-7.16-15.56,4.07-1.51,11.81,13.89,15.9,14,2.11-3.22-.62-9.3-.14-13.32-.61-5.47-7.12-8.33-8-13.76-1.48-10.38,7.79-4.8,8.06.05-.19-.54-5.77-8-2.53-9.88,4-1.51,8.72,6.36,12.39,8.14,4.35,4.4,4.41,10.86,7.43,16.09,7.51-9.73-6.9-17.22-5.85-27.6-.67-4,3.77-5.79,5.72-2,3.42,6.35,10.66,14.77,12.44,21.25,2.64,4.43.43,13.2,1,15.25.13-.06,4.4-22.22,10.83-23,7.71.2-5.42,23.56-.86,30.78,1.6,7.51,2,14.85-1.65,21.93,4.56,15.81,14.21,30.11,20,45.65.18.46.5.9,1,1.84,1.49,2.91,1.68,3.86,2.06,3.85C167.34,292.68,168.17,281.67,170.42,274.59Z"/></clipPath></defs><path class="cls-1" d="M170.42,274.59c3-14.43,9-44,30.74-57.72,30.62-22.46,22.09,31.63,19.85,39.76-6,19.87-23.26,56-30.27,82-1.44,4.19-10.38,23.73-19.6,23.72-13.28-2.2-26.68-9.66-28.95-24-7.47-24.52-15.52-48.87-23.38-73.27-1.15-4.5-4.44-6-7.24-8.89-11-10.91-9.4-19.81-17.16-31.09-2.9-3.49-11.07-10.48-7.16-15.56,4.07-1.51,11.81,13.89,15.9,14,2.11-3.22-.62-9.3-.14-13.32-.61-5.47-7.12-8.33-8-13.76-1.48-10.38,7.79-4.8,8.06.05-.19-.54-5.77-8-2.53-9.88,4-1.51,8.72,6.36,12.39,8.14,4.35,4.4,4.41,10.86,7.43,16.09,7.51-9.73-6.9-17.22-5.85-27.6-.67-4,3.77-5.79,5.72-2,3.42,6.35,10.66,14.77,12.44,21.25,2.64,4.43.43,13.2,1,15.25.13-.06,4.4-22.22,10.83-23,7.71.2-5.42,23.56-.86,30.78,1.6,7.51,2,14.85-1.65,21.93,4.56,15.81,14.21,30.11,20,45.65.18.46.5.9,1,1.84,1.49,2.91,1.68,3.86,2.06,3.85C167.34,292.68,168.17,281.67,170.42,274.59Z"/><g class="cls-2"><path class="cls-3" d="M142.46,248.75c-.71-.16-1.57-.34-1-1.31,4.6-7.95,2.82-16.17,1.23-24.43-3.08-3.73,10.14-35.42,0-25.44a40.71,40.71,0,0,0-7.48,19c-1.29,7.74-10.23,12-12.94,19.74-.59,2.46-3.23,1.4-1.53-.73,3.54-5.06,14.8-15.65,12-24.61-.74-11.72-7.44-20-10.88-25.34-1.5-1.8-1.94-6.17-5-5.53-3.67,4.53,2.08,15.18,5.36,19.33,2,2.51,1.76,10.71-.38,13.11-2.08,3.16-5.26-9-5.79-10.56.47-3.39-12.49-15.84-14.93-14.63-1.65,2.84,2.13,8.18,4.11,10.45,4.66,4.63,6.19,10.5,6.89,16.7-.35,2.35,2.84,6.39.43,7.74-2.4-2.25-2.58-10.51-3.68-14.16-1.08-5.69-6-9.55-8.51-14.62-5.63-6.89-6.24,5.44.91,10.84,4.43,5.06,3.23,12.09,3.88,18.32.69,10.83-13.73-11.86-17.38-12.59-1.42,7.66,5.59,12.13,10,17,.45.46,1.23,1,.43,1.68-5.08-.94-17.49-16.55-11.33-20.94,4.89-1,10.63,11.67,15.6,14,1.15-14.59-3.62-13.76-8.27-25-1.59-6.2,2.34-5.64,4.51-9.5,2-8.33,10,2.44,13.6,4.53,4.85,3.88,6.59,9.48,8.45,15.21,1.29-6.95-6.7-11-6.44-18.07v0c-2.65-9.32,2.62-17.89,8.91-6,3.86,7.76,12.1,13.83,11.54,23.24,1.75-3.34,8.09-14.42,12.62-12.13,3,2.58-1.7,15.32-2.36,19.41C142,225.07,150.76,238.13,142.46,248.75Z"/><path class="cls-4" d="M138.35,200.29a46.73,46.73,0,0,1-4,9.37c.73-12.33-8.23-19.8-13.89-29.6-.89-1.34-2-2.9-4-2.14-3.87,2-1.71,7.5-2.09,11-1.59-3.33-.76-6.8-.46-10.2.79-3.92,7.17-2.45,8.4.49,3.38,6.8,8.65,12.44,11.87,19.33C135.14,200.6,136.8,200.14,138.35,200.29Z"/></g><path class="cls-1" d="M334.48,280.63c-10.09-21.09-26.64-90.67,16.94-66.5,14.64,8.84,28.44,65.4,37.37,87.6,6.86,20.08-8.24,39.1-15.73,56.86-6.38,12.92-12.87,25.79-19.92,38.36-4.48-14.16-9-28.3-12-42.88,2.26-11.73,8.39-22.43,10.63-34.29.28-10-3.79-9.13-9.19-22.61C336.51,284.76,335.1,281.94,334.48,280.63Z"/><path class="cls-5" d="M213.17,212.72a56.19,56.19,0,0,1,23.51-2.61c18.51,16.64,46.73,17,68.7,7.44,8-4.33,13.45-15.29,24.08-10.23,7.06,3.92,5.79,16.42,7.18,39.86.79,13.39,2.1,24.4,3.15,31.91-1.78,28.7,5.41,77.54,15.72,105.06,2.46,10.47,4.58,21,7.89,31.28.74,2.29.57,3.75-1.41,5.44-28,20.8-65.66,19.23-98.78,17.15-38-4.45-51.75,2.21-48.3-21,8.61-32.91,15.32-72.64-6.34-101.66a48.92,48.92,0,0,1-3-10.73c-1.72-10.71,1.56-17.48,4.67-29.33C213.81,270,217.34,230.06,213.17,212.72Z"/><path class="cls-1" d="M257.89,190.28c-37-3.95-40.39-47.77-32.25-76.69.8-2.89,2.15-4,5.2-3.47,10,2.73,11.34.75,13-8.87.64-1.64.27-4.7,2.24-4.57,2.18.15,1.2,3,1.44,4.75C249,112,246,110.78,258,112.63c6.35,1,12.73,1.85,19.07,2.9,4.73.93,3.54-5.86,5.23-8.67.29-.89.22-2.45,1.69-2.23,3.16,3.74-2.33,12.19,6.05,13.13,4.59,1.94,22.64,1.59,20.89,8-2.1,30.14-28.64,60.05,5.63,82.88-14,21.65-63.78,21.21-79.64,1.94C250,208.6,262.88,207.63,257.89,190.28Z"/><path class="cls-3" d="M257.89,190.28c17.14,1.25,28.18-8.84,38.39-20.74-3.77,14-16.78,24.08-30.88,26.78-4.19-.12-7.49-.31-7.23,5.08A73.75,73.75,0,0,0,257.89,190.28Z"/><path class="cls-6" d="M393.12,219.8c-.16-18.59-5.24-23.75-20.59-33-18.58-14.47,7.25-25-24.31-52.2-7.68-7.93-12.77-16.49-13.25-28.32C333.55,78,310.5,66.42,288.83,66.19,256.07,45.46,222.08,79.37,214,110.41c-18.83,38.69,10.51,63.77-4.72,89.45-3.28,5.36-6.49,10.83-8.12,17,12.74-7.17,57.23-2,57.79-15.88-.09-5,1.85-12.79-5.61-12.46-12.49-1.7-22.19-11.84-26.14-23.39-5.75-16.72-5.26-33.6-.73-50.51,1-5.1,5.69-3,9.33-2.9,8.7,1.52,7-7.41,10.22-12.77,1.56,5.23-.72,13.3,6.57,13.75,8,1.49,16,2.27,24,3.67,5.66.92,4.86-5.56,6.88-9.51.86,7,.24,11,8.16,12.13,5.13,2.33,20.2.65,18.1,8.62-1.38,26.19-24.24,51.14-1.78,75.22,3.88,4.6,10,6.17,14.63,9.91,13.13,7.21-4.86,26.2,1.64,26.56,5.33,0,10.66.94,16,.08.51-2.49,1.18-5,.84-7.27a7.69,7.69,0,0,0,3.38,5.21c4.12,0,8.47-.4,11.73-2.6.59-.4.57-1.18,1-8.61,1.14-10.63-1.59-14.42-6.5-23.18,12.32,6.53,16.43,19.7,25.38,29.41,4.67-3.54,9.38-7,14.94-9.07A2.92,2.92,0,0,0,393.12,219.8ZM213.84,195l1.41-16.47c-1.63-17.81-11.14-35.46-3.54-57a1.4,1.4,0,0,1,.72,1.66c-2,14.65.8,28.88,3.87,43.08l-1.05,12.31A42.56,42.56,0,0,1,213.84,195Zm149-16.78c-1.57-3.94-2.11-8.12-2.86-12.25-1-19.13-25.06-25.73-23.83-45.25C349.23,144.11,370.13,147.11,362.87,178.23Z"/><path class="cls-7" d="M362.87,178.23l.67-.82C367.48,191,387,192.12,390,206,384,193.49,367.23,191.6,362.87,178.23Z"/><path class="cls-3" d="M165,298.29c4.21,7.25,6,13.48,10.16,20.34.47.68.65,1.41-.11,1.78-1,.5-1.52-.49-1.84-1.15-2.24-4.56-1,2.48-5.47-11.68C166.69,304.23,165.78,301.12,165,298.29Z"/><path class="cls-3" d="M352.06,319c-.24-4,6.28-12.8,9.8-13.87,1.06-.37,2.24.63,1.13,1.51C358.59,310,354.43,313.76,352.06,319Z"/><path class="cls-3" d="M255.93,156.23c-5.64,4.6-12.46-3.71-7.14-7.66,3.34-2.6,3.46-6.88,5.93-10.72C258,146.29,241.38,154.67,255.93,156.23Z"/><path class="cls-8" d="M277.48,127.33c-1.24,0-4.26,2-5.41.48-.54-1,.23-1.51.88-2,3.3-2.41,13.27-.61,15.58,2.79a1.46,1.46,0,1,1-2.19,1.93A16,16,0,0,0,277.48,127.33Z"/><path class="cls-9" d="M240.21,118.5c3.17.47,9.69,1,9.36,4.9-.56.86-1.36.65-2.14.2-6.38-4.72-12.57,1-14-1.69C233.09,118.72,238.27,119,240.21,118.5Z"/><path class="cls-10" d="M269.77,139.22a23.12,23.12,0,0,1,16.33,1.93C282,135.31,274.34,134.56,269.77,139.22Z"/><path class="cls-10" d="M232.78,132a18.82,18.82,0,0,1,13.27,1.58C242.74,128.86,236.49,128.25,232.78,132Z"/></svg>