<svg width="40" height="45" viewBox="0 0 40 45" fill="none" xmlns="http://www.w3.org/2000/svg">
<path d="M22.5 3.25V4.96875C28.7734 6.25781 33.5 11.7578 33.5 18.375V20.0078C33.5 24.0469 34.9609 28 37.625 31.0078L38.2266 31.6953C39 32.5547 39.1719 33.6719 38.7422 34.7031C38.3125 35.6484 37.2812 36.25 36.25 36.25H3.25C2.13281 36.25 1.10156 35.6484 0.671875 34.7031C0.242188 33.6719 0.414062 32.5547 1.1875 31.6953L1.78906 31.0078C4.45312 28 6 24.0469 6 20.0078V18.375C6 11.7578 10.6406 6.25781 17 4.96875V3.25C17 1.78906 18.2031 0.5 19.75 0.5C21.2109 0.5 22.5 1.78906 22.5 3.25ZM19.75 44.5C18.2891 44.5 16.8281 43.9844 15.7969 42.9531C14.7656 41.9219 14.25 40.4609 14.25 39H25.25C25.25 40.4609 24.6484 41.9219 23.6172 42.9531C22.5859 43.9844 21.125 44.5 19.75 44.5Z" fill="#A6A6A6"/>
</svg>
