<svg width="69" height="60" viewBox="0 0 69 60" fill="none" xmlns="http://www.w3.org/2000/svg">
<path d="M34.5 60C32.0384 58.0513 29.3718 56.5385 26.5 55.4615C23.6282 54.3846 20.6538 53.8462 17.5769 53.8462C15.423 53.8462 13.3077 54.1282 11.2307 54.6923C9.15381 55.2564 7.16663 56.0513 5.26919 57.0769C4.19227 57.641 3.15381 57.6154 2.15381 57C1.15381 56.3846 0.653809 55.4872 0.653809 54.3077V17.2308C0.653809 16.6667 0.794834 16.1282 1.07689 15.6154C1.35894 15.1026 1.78201 14.7179 2.34612 14.4615C4.70509 13.2308 7.16663 12.3077 9.73073 11.6923C12.2948 11.0769 14.9102 10.7692 17.5769 10.7692C20.5512 10.7692 23.4615 11.1538 26.3077 11.9231C29.1538 12.6923 31.8846 13.8462 34.5 15.3846V52.6154C37.1153 50.9744 39.8589 49.7436 42.7307 48.9231C45.6025 48.1026 48.5 47.6923 51.423 47.6923C53.2692 47.6923 55.0769 47.8462 56.8461 48.1538C58.6153 48.4615 60.3974 48.9231 62.1923 49.5385V12.6154C62.9615 12.8718 63.7179 13.141 64.4615 13.4231C65.2051 13.7051 65.9359 14.0513 66.6538 14.4615C67.2179 14.7179 67.641 15.1026 67.923 15.6154C68.2051 16.1282 68.3461 16.6667 68.3461 17.2308V54.3077C68.3461 55.4872 67.8461 56.3846 66.8461 57C65.8461 57.6154 64.8076 57.641 63.7307 57.0769C61.8333 56.0513 59.8461 55.2564 57.7692 54.6923C55.6923 54.1282 53.5769 53.8462 51.423 53.8462C48.3461 53.8462 45.3718 54.3846 42.5 55.4615C39.6282 56.5385 36.9615 58.0513 34.5 60ZM40.6538 44.6154V15.3846L56.0384 0V30.7692L40.6538 44.6154ZM28.3461 49.6154V19.1538C26.6538 18.4359 24.8974 17.8846 23.0769 17.5C21.2564 17.1154 19.423 16.9231 17.5769 16.9231C15.6794 16.9231 13.8333 17.1026 12.0384 17.4615C10.2436 17.8205 8.49996 18.359 6.80765 19.0769V49.6154C8.60253 48.9487 10.3846 48.4615 12.1538 48.1538C13.923 47.8462 15.7307 47.6923 17.5769 47.6923C19.423 47.6923 21.2307 47.8462 23 48.1538C24.7692 48.4615 26.5512 48.9487 28.3461 49.6154Z" fill="#FC804A"/>
</svg>
