<svg width="57" height="50" viewBox="0 0 57 50" fill="none" xmlns="http://www.w3.org/2000/svg">
<path d="M28.2051 50C26.1538 48.3761 23.9316 47.1154 21.5385 46.2179C19.1453 45.3205 16.6667 44.8718 14.1026 44.8718C12.3077 44.8718 10.5449 45.1068 8.8141 45.5769C7.08333 46.047 5.42735 46.7094 3.84615 47.5641C2.94872 48.0342 2.08333 48.0128 1.25 47.5C0.416667 46.9872 0 46.2393 0 45.2564V14.359C0 13.8889 0.117521 13.4402 0.352564 13.0128C0.587607 12.5855 0.940171 12.265 1.41026 12.0513C3.37607 11.0256 5.42735 10.2564 7.5641 9.74359C9.70085 9.23077 11.8803 8.97436 14.1026 8.97436C16.5812 8.97436 19.0064 9.29487 21.3782 9.9359C23.75 10.5769 26.0256 11.5385 28.2051 12.8205V43.8462C30.3846 42.4786 32.6709 41.453 35.0641 40.7692C37.4573 40.0855 39.8718 39.7436 42.3077 39.7436C43.8461 39.7436 45.3526 39.8718 46.8269 40.1282C48.3013 40.3846 49.7863 40.7692 51.282 41.2821V10.5128C51.9231 10.7265 52.5534 10.9509 53.1731 11.1859C53.7927 11.4209 54.4017 11.7094 55 12.0513C55.4701 12.265 55.8227 12.5855 56.0577 13.0128C56.2927 13.4402 56.4103 13.8889 56.4103 14.359V45.2564C56.4103 46.2393 55.9936 46.9872 55.1603 47.5C54.3269 48.0128 53.4615 48.0342 52.5641 47.5641C50.9829 46.7094 49.3269 46.047 47.5962 45.5769C45.8654 45.1068 44.1026 44.8718 42.3077 44.8718C39.7436 44.8718 37.265 45.3205 34.8718 46.2179C32.4786 47.1154 30.2564 48.3761 28.2051 50ZM33.3333 37.1795V12.8205L46.1538 0V25.641L33.3333 37.1795ZM23.0769 41.3462V15.9615C21.6667 15.3632 20.203 14.9038 18.6859 14.5833C17.1688 14.2628 15.641 14.1026 14.1026 14.1026C12.5214 14.1026 10.9829 14.2521 9.48718 14.5513C7.99145 14.8504 6.53846 15.2991 5.12821 15.8974V41.3462C6.62393 40.7906 8.10897 40.3846 9.58333 40.1282C11.0577 39.8718 12.5641 39.7436 14.1026 39.7436C15.641 39.7436 17.1474 39.8718 18.6218 40.1282C20.0962 40.3846 21.5812 40.7906 23.0769 41.3462Z" fill="#25D5A4"/>
</svg>
