<svg width="71" height="80" viewBox="0 0 71 80" fill="none" xmlns="http://www.w3.org/2000/svg">
<path d="M68.7922 25H2.54218C1.44843 25 0.667175 24.2188 0.667175 23.125V17.5C0.667175 13.4375 3.94843 10 8.16718 10H15.6672V1.875C15.6672 0.9375 16.4484 0 17.5422 0H23.7922C24.7297 0 25.6672 0.9375 25.6672 1.875V10H45.6672V1.875C45.6672 0.9375 46.4484 0 47.5422 0H53.7922C54.7297 0 55.6672 0.9375 55.6672 1.875V10H63.1672C67.2297 10 70.6672 13.4375 70.6672 17.5V23.125C70.6672 24.2188 69.7297 25 68.7922 25ZM2.54218 30H68.7922C69.7297 30 70.6672 30.9375 70.6672 31.875V72.5C70.6672 76.7188 67.2297 80 63.1672 80H8.16718C3.94843 80 0.667175 76.7188 0.667175 72.5V31.875C0.667175 30.9375 1.44843 30 2.54218 30ZM54.5734 45L50.1984 40.625C49.4172 39.8438 48.1672 39.8438 47.5422 40.625L30.9797 57.0312L23.7922 49.8438C23.0109 49.0625 21.7609 49.0625 21.1359 49.8438L16.6047 54.2188C15.9797 55 15.9797 56.0938 16.6047 56.875L29.5734 69.8438C30.1984 70.625 31.4484 70.625 32.2297 69.8438L54.5734 47.6562C55.1984 47.0312 55.1984 45.7812 54.5734 45Z" fill="#25D5A4"/>
</svg>
