<svg width="20" height="20" viewBox="0 0 60 61" fill="none" xmlns="http://www.w3.org/2000/svg">
<path d="M28.4766 40.3438C27.1875 41.6328 25.1953 41.6328 23.9062 40.3438L16.4062 32.8438C15.1172 31.5547 15.1172 29.5625 16.4062 28.2734C17.6953 26.9844 19.6875 26.9844 20.9766 28.2734L26.25 33.4297L38.9062 20.7734C40.1953 19.4844 42.1875 19.4844 43.4766 20.7734C44.7656 22.0625 44.7656 24.0547 43.4766 25.3438L28.4766 40.3438ZM60 30.5C60 47.1406 46.5234 60.5 30 60.5C13.3594 60.5 0 47.1406 0 30.5C0 13.9766 13.3594 0.5 30 0.5C46.5234 0.5 60 13.9766 60 30.5ZM30 6.125C16.5234 6.125 5.625 17.1406 5.625 30.5C5.625 43.9766 16.5234 54.875 30 54.875C43.3594 54.875 54.375 43.9766 54.375 30.5C54.375 17.1406 43.3594 6.125 30 6.125Z" fill="white"/>
</svg>
