<svg width="56" height="62" viewBox="0 0 56 62" fill="none" xmlns="http://www.w3.org/2000/svg">
<path fill-rule="evenodd" clip-rule="evenodd" d="M53.1455 10.885H39.4303V5.85608C39.4303 3.07868 37.3834 0.827148 34.8585 0.827148H21.1432C18.6183 0.827148 16.5715 3.07868 16.5715 5.85608V10.885H2.85619C1.59374 10.885 0.570312 12.0108 0.570312 13.3995C0.570312 14.7882 1.59374 15.914 2.85619 15.914H53.1455C54.408 15.914 55.4314 14.7882 55.4314 13.3995C55.4314 12.0108 54.408 10.885 53.1455 10.885ZM20.5198 5.85608H35.4819V10.885H20.5198V5.85608ZM16.7048 61.1744C13.2492 61.1617 10.3839 58.1103 10.1268 54.1691L8.05137 20.9429H47.9504L45.875 54.1691C45.6178 58.1103 42.7525 61.1617 39.2969 61.1744H16.7048Z" fill="white"/>
</svg>
