<svg width="31" height="45" viewBox="0 0 31 45" fill="none" xmlns="http://www.w3.org/2000/svg">
<path d="M15.8594 0.5C23.0781 0.5 30.8984 6.25781 30.8984 13.7344C30.8984 23.7031 20.1562 23.875 20.1562 27.5703V28C20.1562 29.2031 19.2109 30.0625 18.0938 30.0625H11.8203C10.7031 30.0625 9.75781 29.2031 9.75781 28V27.2266C9.75781 21.8984 13.7969 19.75 16.8906 18.0312C19.4688 16.5703 21.1016 15.625 21.1016 13.6484C21.1016 11.0703 17.8359 9.4375 15.1719 9.4375C11.8203 9.4375 10.1875 10.9844 8.03906 13.6484C7.35156 14.5078 6.0625 14.6797 5.20312 13.9922L1.50781 11.1562C0.5625 10.5547 0.390625 9.26562 0.992188 8.40625C4.51562 3.33594 8.98438 0.5 15.8594 0.5ZM15 32.6406C18.2656 32.6406 20.9297 35.3047 20.9297 38.5703C20.9297 41.8359 18.2656 44.5 15 44.5C11.6484 44.5 8.98438 41.8359 8.98438 38.5703C8.98438 35.3047 11.6484 32.6406 15 32.6406Z" fill="#A6A6A6"/>
</svg>
