<svg width="40" height="40" viewBox="0 0 80 81" fill="none" xmlns="http://www.w3.org/2000/svg">
<rect y="0.5" width="80" height="80" rx="12" fill="#F9F9F9"/>
<path fill-rule="evenodd" clip-rule="evenodd" d="M65 40.5C65 47.1 62.5 53 58.4 57.5L57 58.9C52.5 63 46.5 65.5 40 65.5C26.2 65.5 15 54.3 15 40.5C15 26.7 26.2 15.5 40 15.5C53.8 15.5 65 26.7 65 40.5ZM57.0001 40.5C57.0001 44.9 55.4001 48.8 52.7001 51.8L57.0001 56C60.7001 51.9 63.0001 46.5 63.0001 40.5C63.0001 34.1 60.4001 28.4 56.3001 24.2C52.1001 20.1 46.4001 17.5 40.0001 17.5C33.6001 17.5 27.9001 20.1 23.7001 24.2C19.6001 28.4 17.0001 34.1 17.0001 40.5C17.0001 46.9 19.6001 52.6 23.8001 56.8C28.0001 60.9 33.7001 63.5 40.1001 63.5C46.1001 63.5 51.5001 61.3 55.6001 57.5L51.3001 53.2C48.3001 55.9 44.3001 57.5 40.0001 57.5C30.6001 57.5 23.0001 49.9 23.0001 40.5C23.0001 31.1 30.6001 23.5 40.0001 23.5C49.4001 23.5 57.0001 31.1 57.0001 40.5ZM40 32.5C35.6 32.5 32 36.1 32 40.5C32 44.9 35.6 48.5 40 48.5C41.8 48.5 43.5 47.9 44.9 46.8L49.9 51.8C47.2 54.1 43.8 55.5 40 55.5C35.9 55.5 32.1 53.8 29.4 51.1C26.7 48.4 25 44.6 25 40.5C25 36.4 26.7 32.6 29.4 29.9C32.1 27.2 35.9 25.5 40 25.5C44.1 25.5 47.9 27.2 50.6 29.9C53.3 32.6 55 36.4 55 40.5C55 44.3 53.6 47.7 51.3 50.4L46.3 45.4C47.4 44 48 42.3 48 40.5C48 36.1 44.4 32.5 40 32.5ZM40.0002 46.5C41.3002 46.5 42.5002 46.1 43.5002 45.4L44.9002 44C45.6002 43 46.0002 41.8 46.0002 40.5C46.0002 38.9 45.3002 37.4 44.2002 36.3C43.2002 35.2 41.7002 34.5 40.0002 34.5C38.4002 34.5 36.9002 35.2 35.8002 36.3C34.7002 37.3 34.0002 38.8 34.0002 40.5C34.0002 42.2 34.7002 43.7 35.8002 44.7C36.8002 45.8 38.3002 46.5 40.0002 46.5Z" fill="#25D5A4"/>
<path d="M58.4 57.5L58.6124 57.7124L58.6218 57.702L58.4 57.5ZM57 58.9L57.2023 59.122L57.2121 59.1121L57 58.9ZM52.7001 51.8L52.4771 51.5993L52.2845 51.8134L52.4905 52.0146L52.7001 51.8ZM57.0001 56L56.7905 56.2146L57.0138 56.4327L57.2228 56.201L57.0001 56ZM56.3001 24.2L56.5149 23.9904L56.5097 23.9853L56.3001 24.2ZM23.7001 24.2L23.4905 23.9853L23.4854 23.9904L23.7001 24.2ZM23.8001 56.8L23.588 57.0121L23.5906 57.0147L23.8001 56.8ZM55.6001 57.5L55.8041 57.72L56.0326 57.5082L55.8123 57.2879L55.6001 57.5ZM51.3001 53.2L51.5123 52.9879L51.311 52.7866L51.0994 52.977L51.3001 53.2ZM44.9 46.8L45.1121 46.5879L44.9239 46.3997L44.7147 46.5641L44.9 46.8ZM49.9 51.8L50.0945 52.0284L50.3419 51.8176L50.1121 51.5879L49.9 51.8ZM29.4 51.1L29.1879 51.3121L29.4 51.1ZM29.4 29.9L29.1879 29.6879L29.4 29.9ZM50.6 29.9L50.8121 29.6879L50.6 29.9ZM51.3 50.4L51.0879 50.6121L51.3176 50.8419L51.5284 50.5945L51.3 50.4ZM46.3 45.4L46.0641 45.2147L45.8997 45.4239L46.0879 45.6121L46.3 45.4ZM43.5002 45.4L43.6723 45.6458L43.6938 45.6307L43.7124 45.6121L43.5002 45.4ZM44.9002 44L45.1124 44.2121L45.1309 44.1936L45.146 44.172L44.9002 44ZM44.2002 36.3L43.9783 36.5018L43.9831 36.5071L43.9881 36.5121L44.2002 36.3ZM35.8002 36.3L36.002 36.522L36.0073 36.5172L36.0124 36.5121L35.8002 36.3ZM35.8002 44.7L36.0222 44.4982L36.0126 44.4876L36.002 44.478L35.8002 44.7ZM58.6218 57.702C62.7695 53.1496 65.3 47.1785 65.3 40.5H64.7C64.7 47.0215 62.2305 52.8504 58.1782 57.298L58.6218 57.702ZM57.2121 59.1121L58.6121 57.7121L58.1879 57.2879L56.7879 58.6879L57.2121 59.1121ZM40 65.8C46.5778 65.8 52.6491 63.27 57.202 59.1218L56.798 58.6782C52.3509 62.73 46.4222 65.2 40 65.2V65.8ZM14.7 40.5C14.7 54.4657 26.0343 65.8 40 65.8V65.2C26.3657 65.2 15.3 54.1343 15.3 40.5H14.7ZM40 15.2C26.0343 15.2 14.7 26.5343 14.7 40.5H15.3C15.3 26.8657 26.3657 15.8 40 15.8V15.2ZM65.3 40.5C65.3 26.5343 53.9657 15.2 40 15.2V15.8C53.6343 15.8 64.7 26.8657 64.7 40.5H65.3ZM52.9231 52.0007C55.6716 48.9468 57.3001 44.9758 57.3001 40.5H56.7001C56.7001 44.8242 55.1287 48.6532 52.4771 51.5993L52.9231 52.0007ZM57.2097 55.7854L52.9097 51.5854L52.4905 52.0146L56.7905 56.2146L57.2097 55.7854ZM62.7001 40.5C62.7001 46.4211 60.4308 51.7506 56.7774 55.799L57.2228 56.201C60.9694 52.0494 63.3001 46.5789 63.3001 40.5H62.7001ZM56.0854 24.4096C60.1348 28.5577 62.7001 34.184 62.7001 40.5H63.3001C63.3001 34.0161 60.6654 28.2423 56.5148 23.9904L56.0854 24.4096ZM40.0001 17.8C46.3162 17.8 51.9424 20.3653 56.0906 24.4147L56.5097 23.9853C52.2578 19.8347 46.4841 17.2 40.0001 17.2V17.8ZM23.9097 24.4147C28.0578 20.3653 33.6841 17.8 40.0001 17.8V17.2C33.5162 17.2 27.7424 19.8347 23.4906 23.9853L23.9097 24.4147ZM17.3001 40.5C17.3001 34.184 19.8654 28.5577 23.9148 24.4096L23.4854 23.9904C19.3348 28.2423 16.7001 34.0161 16.7001 40.5H17.3001ZM24.0123 56.5879C19.8651 52.4407 17.3001 46.8157 17.3001 40.5H16.7001C16.7001 46.9843 19.3352 52.7593 23.588 57.0121L24.0123 56.5879ZM40.1001 63.2C33.7841 63.2 28.1578 60.6347 24.0097 56.5853L23.5906 57.0147C27.8424 61.1653 33.6162 63.8 40.1001 63.8V63.2ZM55.3962 57.28C51.3516 61.0286 46.0244 63.2 40.1001 63.2V63.8C46.1758 63.8 51.6486 61.5714 55.8041 57.72L55.3962 57.28ZM51.088 53.4121L55.388 57.7121L55.8123 57.2879L51.5123 52.9879L51.088 53.4121ZM40.0001 57.8C44.3749 57.8 48.4462 56.1721 51.5008 53.423L51.0994 52.977C48.154 55.6279 44.2253 57.2 40.0001 57.2V57.8ZM22.7001 40.5C22.7001 50.0657 30.4344 57.8 40.0001 57.8V57.2C30.7658 57.2 23.3001 49.7343 23.3001 40.5H22.7001ZM40.0001 23.2C30.4344 23.2 22.7001 30.9343 22.7001 40.5H23.3001C23.3001 31.2657 30.7658 23.8 40.0001 23.8V23.2ZM57.3001 40.5C57.3001 30.9343 49.5658 23.2 40.0001 23.2V23.8C49.2344 23.8 56.7001 31.2657 56.7001 40.5H57.3001ZM32.3 40.5C32.3 36.2657 35.7657 32.8 40 32.8V32.2C35.4343 32.2 31.7 35.9343 31.7 40.5H32.3ZM40 48.2C35.7657 48.2 32.3 44.7343 32.3 40.5H31.7C31.7 45.0657 35.4343 48.8 40 48.8V48.2ZM44.7147 46.5641C43.3667 47.6232 41.7318 48.2 40 48.2V48.8C41.8682 48.8 43.6333 48.1768 45.0853 47.0359L44.7147 46.5641ZM50.1121 51.5879L45.1121 46.5879L44.6879 47.0121L49.6879 52.0121L50.1121 51.5879ZM40 55.8C43.8769 55.8 47.3447 54.3708 50.0945 52.0284L49.7055 51.5716C47.0553 53.8292 43.7231 55.2 40 55.2V55.8ZM29.1879 51.3121C31.9417 54.0659 35.817 55.8 40 55.8V55.2C35.983 55.2 32.2583 53.5341 29.6121 50.8879L29.1879 51.3121ZM24.7 40.5C24.7 44.683 26.4341 48.5583 29.1879 51.3121L29.6121 50.8879C26.9659 48.2417 25.3 44.517 25.3 40.5H24.7ZM29.1879 29.6879C26.4341 32.4417 24.7 36.317 24.7 40.5H25.3C25.3 36.483 26.9659 32.7583 29.6121 30.1121L29.1879 29.6879ZM40 25.2C35.817 25.2 31.9417 26.9341 29.1879 29.6879L29.6121 30.1121C32.2583 27.4659 35.983 25.8 40 25.8V25.2ZM50.8121 29.6879C48.0583 26.9341 44.183 25.2 40 25.2V25.8C44.017 25.8 47.7417 27.4659 50.3879 30.1121L50.8121 29.6879ZM55.3 40.5C55.3 36.317 53.5659 32.4417 50.8121 29.6879L50.3879 30.1121C53.0341 32.7583 54.7 36.483 54.7 40.5H55.3ZM51.5284 50.5945C53.8708 47.8447 55.3 44.3769 55.3 40.5H54.7C54.7 44.2231 53.3292 47.5553 51.0716 50.2055L51.5284 50.5945ZM46.0879 45.6121L51.0879 50.6121L51.5121 50.1879L46.5121 45.1879L46.0879 45.6121ZM47.7 40.5C47.7 42.2318 47.1232 43.8667 46.0641 45.2147L46.5359 45.5853C47.6768 44.1333 48.3 42.3682 48.3 40.5H47.7ZM40 32.8C44.2343 32.8 47.7 36.2657 47.7 40.5H48.3C48.3 35.9343 44.5657 32.2 40 32.2V32.8ZM43.3282 45.1542C42.3774 45.8198 41.2372 46.2 40.0002 46.2V46.8C41.3633 46.8 42.6231 46.3802 43.6723 45.6458L43.3282 45.1542ZM44.6881 43.7879L43.2881 45.1879L43.7124 45.6121L45.1124 44.2121L44.6881 43.7879ZM45.7002 40.5C45.7002 41.737 45.32 42.8772 44.6545 43.828L45.146 44.172C45.8804 43.1228 46.3002 41.863 46.3002 40.5H45.7002ZM43.9881 36.5121C45.0383 37.5623 45.7002 38.9883 45.7002 40.5H46.3002C46.3002 38.8117 45.5622 37.2377 44.4124 36.0879L43.9881 36.5121ZM40.0002 34.8C41.6171 34.8 43.036 35.4654 43.9783 36.5018L44.4222 36.0982C43.3644 34.9346 41.7834 34.2 40.0002 34.2V34.8ZM36.0124 36.5121C37.0626 35.4619 38.4885 34.8 40.0002 34.8V34.2C38.312 34.2 36.7379 34.9381 35.5881 36.0879L36.0124 36.5121ZM34.3002 40.5C34.3002 38.8831 34.9656 37.4642 36.002 36.522L35.5984 36.078C34.4349 37.1358 33.7002 38.7169 33.7002 40.5H34.3002ZM36.002 44.478C34.9656 43.5358 34.3002 42.1169 34.3002 40.5H33.7002C33.7002 42.2831 34.4349 43.8642 35.5984 44.922L36.002 44.478ZM40.0002 46.2C38.3834 46.2 36.9644 45.5346 36.0222 44.4982L35.5783 44.9018C36.636 46.0654 38.2171 46.8 40.0002 46.8V46.2Z" fill="#25D5A4"/>
</svg>
