<svg width="47" height="43" viewBox="0 0 47 43" fill="none" xmlns="http://www.w3.org/2000/svg">
<path d="M22.459 21.7246L13.7305 12.5957C11.168 9.95312 11.3281 5.54883 14.1309 3.06641C16.6133 0.904297 20.2969 1.30469 22.5391 3.70703L23.4199 4.58789L24.3008 3.70703C26.543 1.30469 30.2266 0.904297 32.709 3.06641C35.5117 5.54883 35.6719 9.95312 33.1094 12.5957L24.4609 21.7246C23.9004 22.2852 23.0195 22.2852 22.459 21.7246ZM45.9219 28.6113C46.9629 30.0527 46.6426 32.0547 45.1211 33.0957L34.2305 41.0234C32.8691 42.0645 31.1074 42.625 29.3457 42.625H1.63867C0.998047 42.625 0.4375 42.0645 0.4375 41.3438V33.8164C0.4375 33.1758 0.917969 32.5352 1.63867 32.5352H6.04297L9.72656 29.5723C11.4082 28.2109 13.6504 27.4102 15.7324 27.4102H28.5449C30.1465 27.4102 31.3477 28.9316 31.1074 30.4531C30.8672 31.6543 29.666 32.5352 28.4648 32.5352H22.1387C21.5781 32.5352 20.9375 33.0957 20.9375 33.7363C20.9375 34.377 21.498 35.0176 22.1387 35.0176H31.8281L41.4375 27.8906C42.8789 26.8496 44.8809 27.1699 45.9219 28.6113Z" fill="white"/>
</svg>
