<svg width="56" height="34" viewBox="0 0 56 34" fill="none" xmlns="http://www.w3.org/2000/svg">
<path d="M0.5 27.5V5.58594H8.75V24.75C8.75 26.2969 7.46094 27.5 6 27.5H0.5ZM4.625 22.0859C3.85156 22.0859 3.25 22.6875 3.25 23.4609C3.25 24.1484 3.85156 24.8359 4.625 24.8359C5.3125 24.8359 6 24.1484 6 23.4609C6 22.6875 5.3125 22.0859 4.625 22.0859ZM30.4062 0H31.1797C36.1641 0 40.8906 1.97656 44.4141 5.5V22.1719C44.2422 21.9141 43.9844 21.7422 43.8125 21.4844L31.2656 11.3438L33.5 9.28125C34.1016 8.76562 34.1016 7.90625 33.5859 7.39062C33.0703 6.78906 32.2109 6.78906 31.6094 7.30469L24.8203 13.5781C24.7344 13.5781 24.7344 13.5781 24.7344 13.5781C23.2734 14.8672 21.0391 14.4375 19.9219 13.3203C18.7188 12.0312 18.7188 9.88281 20.0938 8.50781L28.6016 0.773438C29.1172 0.257812 29.7188 0 30.4062 0ZM29.2031 13.2344L42.0078 23.6328C43.2109 24.5781 43.3828 26.2969 42.4375 27.5L41.6641 28.5312C40.6328 29.7344 38.9141 29.9062 37.7969 28.9609L37.2812 28.5312L34.6172 31.8828C33.5 33.2578 31.4375 33.3438 30.0625 32.3125L28.5156 31.0234C26.625 33.3438 23.1875 33.7734 20.7812 31.7969L13.0469 24.75H11.5V5.5C15.0234 2.0625 19.75 0 24.7344 0H25.3359L18.2891 6.44531C15.7969 8.76562 15.625 12.7188 17.8594 15.2109C20.1797 17.7031 24.0469 17.875 26.625 15.5547L29.2031 13.2344ZM47.25 5.58594H55.5V27.5L49.9141 27.5859C48.4531 27.5859 47.25 26.2969 47.25 24.75V5.58594ZM51.375 24.75C52.0625 24.75 52.75 24.1484 52.75 23.4609C52.75 22.6875 52.0625 22.0859 51.375 22.0859C50.6016 22.0859 50 22.6875 50 23.4609C50 24.1484 50.6016 24.75 51.375 24.75Z" fill="#A6A6A6"/>
</svg>
