<svg width="43" height="61" viewBox="0 0 43 61" fill="none" xmlns="http://www.w3.org/2000/svg">
<path d="M21.5 41.75C15.1719 41.75 10.25 36.7109 10.25 30.5V11.75C10.25 5.53906 15.1719 0.5 21.5 0.5C27.7109 0.5 32.75 5.53906 32.75 11.75V30.5C32.75 36.8281 27.7109 41.75 21.5 41.75ZM39.3125 23C40.8359 23 42.125 24.2891 42.125 25.8125V30.5C42.125 40.9297 34.2734 49.6016 24.3125 51.0078V54.875H29C31.1094 54.875 32.75 56.75 32.6328 58.8594C32.6328 59.7969 31.8125 60.5 30.875 60.5H12.125C11.0703 60.5 10.25 59.7969 10.25 58.8594C10.1328 56.75 11.7734 54.875 14 54.875H18.6875V50.7734C8.25781 49.3672 0.875 39.9922 0.875 29.5625V25.8125C0.875 24.2891 2.04688 23 3.6875 23C5.21094 23 6.5 24.2891 6.5 25.8125V29.9141C6.5 37.7656 12.7109 45.0312 20.4453 45.5C29.2344 46.0859 36.5 39.1719 36.5 30.5V25.8125C36.5 24.2891 37.6719 23 39.3125 23Z" fill="#FC804A"/>
</svg>
