<svg width="71" height="71" viewBox="0 0 71 71" fill="none" xmlns="http://www.w3.org/2000/svg">
<rect x="0.499786" y="0.845703" width="70" height="70" fill="white"/>
<path d="M26.4517 67.1657V57.9926C26.4517 55.6509 28.4645 53.7526 30.9475 53.7526H40.0238C41.2162 53.7526 42.3597 54.1993 43.2028 54.9945C44.0459 55.7896 44.5196 56.8681 44.5196 57.9926V67.1657C44.512 68.1392 44.9168 69.0753 45.6441 69.7662C46.3714 70.4571 47.361 70.8457 48.3933 70.8457H54.5856C57.4776 70.8528 60.2537 69.7742 62.3014 67.8481C64.349 65.922 65.4998 63.3066 65.4998 60.5792V34.4463C65.4997 32.2431 64.4642 30.1532 62.6723 28.7397L41.6072 12.8733C37.9429 10.0914 32.6928 10.1812 29.1379 13.0866L8.55351 28.7397C6.67686 30.1116 5.55521 32.2076 5.49979 34.4463V60.5525C5.49979 66.2373 10.3863 70.8457 16.414 70.8457H22.4649C24.6089 70.8457 26.3514 69.2143 26.3669 67.1924L26.4517 67.1657Z" fill="#25D5A4"/>
</svg>
