<svg width="61" height="51" viewBox="0 0 61 51" fill="none" xmlns="http://www.w3.org/2000/svg">
<path d="M52.1992 5.35742C60.2559 12.125 59.0742 23.1895 53.3809 29.0977L34.4746 48.3262C33.4004 49.4004 32.0039 50.0449 30.5 50.0449C28.8887 50.0449 27.4922 49.4004 26.418 48.3262L7.61914 29.0977C1.81836 23.1895 0.636719 12.125 8.69336 5.35742C14.9238 0.09375 24.4844 0.845703 30.5 6.96875C36.4082 0.845703 45.9688 0.09375 52.1992 5.35742ZM49.6211 25.4453C53.5957 21.4707 54.3477 13.9512 48.8691 9.22461C44.6797 5.78711 38.2344 6.32422 34.2598 10.4062L30.5 14.2734L26.7402 10.4062C22.6582 6.32422 16.2129 5.78711 12.0234 9.33203C6.54492 13.9512 7.29688 21.4707 11.2715 25.4453L30.0703 44.6738C30.3926 44.8887 30.6074 44.8887 30.8223 44.6738L49.6211 25.4453Z" fill="#2E2E2E"/>
</svg>
