<svg width="81" height="68" viewBox="0 0 81 68" fill="none" xmlns="http://www.w3.org/2000/svg">
<path d="M24.75 1.59375C26.1562 3 26.3125 5.34375 24.9062 6.90625L13.6562 19.4062C13.0312 20.0312 12.0938 20.5 11 20.5C10.0625 20.6562 8.96875 20.1875 8.34375 19.4062L2.09375 13.1562C0.53125 11.75 0.53125 9.40625 2.09375 8C3.5 6.4375 5.84375 6.4375 7.25 8L10.8438 11.4375L19.4375 1.75C20.8438 0.34375 23.1875 0.1875 24.75 1.59375ZM24.75 26.5938C26.1562 27.8438 26.3125 30.3438 24.9062 31.9062L13.6562 44.4062C13.0312 45.0312 12.0938 45.5 11 45.5C10.0625 45.6562 8.96875 45.1875 8.34375 44.4062L2.09375 38.1562C0.53125 36.75 0.53125 34.4062 2.09375 32.8438C3.5 31.4375 5.84375 31.4375 7.25 32.8438L10.8438 36.4375L19.4375 26.75C20.8438 25.3438 23.1875 25.1875 24.75 26.5938ZM36 10.5C36 7.84375 38.1875 5.5 41 5.5H76C78.6562 5.5 81 7.84375 81 10.5C81 13.3125 78.6562 15.5 76 15.5H41C38.1875 15.5 36 13.3125 36 10.5ZM36 35.5C36 32.8438 38.1875 30.5 41 30.5H76C78.6562 30.5 81 32.8438 81 35.5C81 38.3125 78.6562 40.5 76 40.5H41C38.1875 40.5 36 38.3125 36 35.5ZM26 60.5C26 57.8438 28.1875 55.5 31 55.5H76C78.6562 55.5 81 57.8438 81 60.5C81 63.3125 78.6562 65.5 76 65.5H31C28.1875 65.5 26 63.3125 26 60.5ZM1 60.5C1 56.4375 4.28125 53 8.5 53C12.5625 53 16 56.4375 16 60.5C16 64.7188 12.5625 68 8.5 68C4.28125 68 1 64.7188 1 60.5Z" fill="#25D5A4"/>
</svg>
