<svg width="39" height="45" viewBox="0 0 39 45" fill="none" xmlns="http://www.w3.org/2000/svg">
<path d="M34.875 19.75C37.1094 19.75 39 21.6406 39 23.875V40.375C39 42.6953 37.1094 44.5 34.875 44.5H4.625C2.30469 44.5 0.5 42.6953 0.5 40.375V23.875C0.5 21.6406 2.30469 19.75 4.625 19.75H6.6875V13.5625C6.6875 6.42969 12.5312 0.5 19.75 0.5C26.8828 0.5 32.8125 6.42969 32.8125 13.5625V19.75H34.875ZM25.9375 19.75V13.5625C25.9375 10.2109 23.1016 7.375 19.75 7.375C16.3125 7.375 13.5625 10.2109 13.5625 13.5625V19.75H25.9375Z" fill="#A6A6A6"/>
</svg>
