<svg width="50" height="45" viewBox="0 0 50 45" fill="none" xmlns="http://www.w3.org/2000/svg">
<path d="M48.625 39C49.3125 39 50 39.6875 50 40.5469V43.2109C50 43.8984 49.3125 44.5 48.625 44.5H39V11.5H30.75V6.08594L40.375 6C42.6094 6 44.5 7.97656 44.5 10.2969V39H48.625ZM24.5625 0.671875C26.2812 0.15625 28 1.53125 28 3.42188V44.5H1.875C1.10156 44.5 0.5 43.8984 0.5 43.0391V40.375C0.5 39.6875 1.10156 39 1.875 39H6V7.63281C6 6.34375 6.77344 5.22656 8.0625 4.88281L24.5625 0.671875ZM20.4375 25.25C21.5547 25.25 22.5 24.0469 22.5 22.5C22.5 21.0391 21.5547 19.9219 20.4375 19.9219C19.2344 19.9219 18.375 21.125 18.375 22.5859C18.375 24.0469 19.2344 25.25 20.4375 25.25Z" fill="#D51920" fill-opacity="0.75"/>
</svg>
