<svg width="105" height="151" viewBox="0 0 105 151" fill="none" xmlns="http://www.w3.org/2000/svg">
<path d="M52.5 103.375C36.6797 103.375 24.375 90.7773 24.375 75.25V28.375C24.375 12.8477 36.6797 0.25 52.5 0.25C68.0273 0.25 80.625 12.8477 80.625 28.375V75.25C80.625 91.0703 68.0273 103.375 52.5 103.375ZM97.0312 56.5C100.84 56.5 104.062 59.7227 104.062 63.5312V75.25C104.062 101.324 84.4336 123.004 59.5312 126.52V136.188H71.25C76.5234 136.188 80.625 140.875 80.332 146.148C80.332 148.492 78.2812 150.25 75.9375 150.25H29.0625C26.4258 150.25 24.375 148.492 24.375 146.148C24.082 140.875 28.1836 136.188 33.75 136.188H45.4688V125.934C19.3945 122.418 0.9375 98.9805 0.9375 72.9062V63.5312C0.9375 59.7227 3.86719 56.5 7.96875 56.5C11.7773 56.5 15 59.7227 15 63.5312V73.7852C15 93.4141 30.5273 111.578 49.8633 112.75C71.8359 114.215 90 96.9297 90 75.25V63.5312C90 59.7227 92.9297 56.5 97.0312 56.5Z" fill="white"/>
</svg>
