<svg width="56" height="39" viewBox="0 0 56 39" fill="none" xmlns="http://www.w3.org/2000/svg">
<path d="M53.8672 2.22656C54.8125 2.65625 55.5 3.6875 55.5 4.71875V32.0469C55.5 33.5938 54.125 34.7109 52.6641 34.7109C52.4062 34.7109 52.0625 34.7109 51.8047 34.625C49.1406 33.7656 46.4766 33.4219 43.8125 33.4219C33.2422 33.4219 22.6719 38.75 12.1016 38.75C8.75 38.75 5.39844 38.2344 2.04688 36.8594C1.10156 36.4297 0.5 35.3984 0.5 34.3672V7.03906C0.5 5.49219 1.78906 4.28906 3.25 4.28906C3.50781 4.28906 3.85156 4.375 4.10938 4.46094C6.77344 5.32031 9.4375 5.66406 12.1016 5.66406C22.6719 5.66406 33.2422 0.25 43.8125 0.25C47.1641 0.25 50.5156 0.851562 53.8672 2.22656ZM4.625 8.92969V14.0859C7.28906 14.0859 9.4375 12.1953 9.95312 9.70312C8.14844 9.53125 6.34375 9.35938 4.625 8.92969ZM4.625 33.4219C6.34375 34.0234 8.14844 34.4531 10.0391 34.5391C9.95312 31.6172 7.54688 29.2969 4.625 29.2969V33.4219ZM28 27.75C31.7812 27.75 34.875 24.1406 34.875 19.5C34.875 14.9453 31.7812 11.25 28 11.25C24.1328 11.25 21.125 14.9453 21.125 19.5C21.125 24.1406 24.1328 27.75 28 27.75ZM51.375 30.1562V25.2578C49.0547 25.5156 47.1641 27.2344 46.6484 29.4688C48.2812 29.5547 49.8281 29.8125 51.375 30.1562ZM51.375 9.875V5.66406C49.8281 5.14844 48.1953 4.80469 46.5625 4.63281C46.6484 7.29688 48.7109 9.53125 51.375 9.875Z" fill="#A6A6A6"/>
</svg>
