<svg width="200" height="200" viewBox="0 0 200 200" fill="none" xmlns="http://www.w3.org/2000/svg">
<rect width="200" height="200" rx="100" fill="#FC804A"/>
<path d="M117.5 70C121.562 70 125 73.4375 125 77.5V122.5C125 126.719 121.562 130 117.5 130L112.5 129.844C108.281 129.844 105 126.406 105 122.344V77.3438C105 73.2812 108.281 70 112.5 70H117.5ZM87.5 70C91.5625 70 95 73.4375 95 77.5V122.5C95 126.719 91.5625 130 87.5 130H82.5C78.2812 130 75 126.719 75 122.5V77.5C75 73.2812 78.2812 70 82.5 70H87.5Z" fill="white"/>
</svg>
