<svg width="32" height="45" viewBox="0 0 32 45" fill="none" xmlns="http://www.w3.org/2000/svg">
<path d="M20.2969 0.472656C26.5469 0.472656 31.625 5.45312 31.625 11.7031C31.625 16 29.1836 19.9062 25.375 21.8594L17.5625 26.4492V28.5C17.5625 30.2578 16.0977 31.625 14.4375 31.625C12.6797 31.625 11.3125 30.2578 11.3125 28.5V24.5938C11.3125 23.5195 11.8008 22.543 12.7773 21.957L22.3477 16.3906C24.3008 15.4141 25.375 13.6562 25.375 11.7031C25.375 8.96875 23.0312 6.72266 20.2969 6.72266H9.75C7.99219 6.72266 6.625 8.08984 6.625 9.84766C6.625 11.4102 5.16016 12.875 3.5 12.875C1.74219 12.875 0.375 11.5078 0.375 9.84766C0.375 4.67188 4.57422 0.472656 9.75 0.472656H20.2969ZM14.4375 36.3125C16.5859 36.3125 18.3438 38.168 18.3438 40.2188C18.3438 42.3672 16.5859 44.125 14.4375 44.125C12.1914 44.125 10.5312 42.4648 10.5312 40.2188C10.5312 38.0703 12.1914 36.3125 14.4375 36.3125Z" fill="#25D5A4"/>
</svg>
