<svg width="81" height="68" viewBox="0 0 81 68" fill="none" xmlns="http://www.w3.org/2000/svg">
<path d="M43.4357 40.1109V58.4442C43.4357 60.9905 44.3406 63.1549 46.1505 64.9373C47.9603 66.7197 50.158 67.6109 52.7434 67.6109H71.3588C73.9443 67.6109 76.1419 66.7197 77.9518 64.9373C79.7616 63.1549 80.6665 60.9905 80.6665 58.4442V24.8331C80.6665 21.5229 80.0121 18.3639 78.7032 15.3561C77.3943 12.3483 75.6248 9.74631 73.3949 7.55013C71.1649 5.35395 68.5229 3.61133 65.4688 2.32227C62.4147 1.0332 59.2071 0.388672 55.846 0.388672H52.7434C51.9031 0.388672 51.176 0.691045 50.5619 1.29579C49.9479 1.90054 49.6409 2.61668 49.6409 3.44423V9.55534C49.6409 10.3829 49.9479 11.099 50.5619 11.7038C51.176 12.3085 51.9031 12.6109 52.7434 12.6109H55.846C59.2717 12.6109 62.1966 13.8045 64.6204 16.1916C67.0443 18.5788 68.2562 21.4593 68.2562 24.8331V26.3609C68.2562 27.634 67.8038 28.7162 66.8989 29.6074C65.994 30.4986 64.8951 30.9442 63.6024 30.9442H52.7434C50.158 30.9442 47.9603 31.8354 46.1505 33.6178C44.3406 35.4002 43.4357 37.5646 43.4357 40.1109ZM-0.000160217 40.1109V58.4442C-0.000160217 60.9905 0.904755 63.1549 2.71458 64.9373C4.52441 66.7197 6.72206 67.6109 9.30753 67.6109H27.9229C30.5084 67.6109 32.706 66.7197 34.5159 64.9373C36.3257 63.1549 37.2306 60.9905 37.2306 58.4442V24.8331C37.2306 21.5229 36.5762 18.3639 35.2673 15.3561C33.9584 12.3483 32.1889 9.74631 29.959 7.55013C27.729 5.35395 25.087 3.61133 22.0329 2.32227C18.9788 1.0332 15.7712 0.388672 12.4101 0.388672H9.30753C8.46725 0.388672 7.74009 0.691045 7.12604 1.29579C6.51199 1.90054 6.20496 2.61668 6.20496 3.44423V9.55534C6.20496 10.3829 6.51199 11.099 7.12604 11.7038C7.74009 12.3085 8.46725 12.6109 9.30753 12.6109H12.4101C15.8358 12.6109 18.7607 13.8045 21.1845 16.1916C23.6084 18.5788 24.8204 21.4593 24.8204 24.8331V26.3609C24.8204 27.634 24.3679 28.7162 23.463 29.6074C22.5581 30.4986 21.4592 30.9442 20.1665 30.9442H9.30753C6.72206 30.9442 4.52441 31.8354 2.71458 33.6178C0.904755 35.4002 -0.000160217 37.5646 -0.000160217 40.1109Z" fill="#C8F5E8"/>
</svg>
