<svg xmlns="http://www.w3.org/2000/svg" version="1.1" xmlns:xlink="http://www.w3.org/1999/xlink" width="512" height="512" x="0" y="0" viewBox="0 0 512 512" style="enable-background:new 0 0 512 512" xml:space="preserve" class=""><g><path fill="#fa4445" d="m126.93 385.772-.003-.002c10.692 10.692 10.692 28.089.001 38.78a27.624 27.624 0 0 1-5.251 4.114c-1.154.721-2.515 1.313-3.795 1.94L39.2 472.785c.779-1.516 42.409-76.868 43.211-78.609a27.303 27.303 0 0 1 5.734-8.405c5.346-5.346 12.368-8.02 19.391-8.02s14.045 2.674 19.391 8.02l-.002-.002-29.055-29.056a49.139 49.139 0 0 0-25.281 13.5 49.22 49.22 0 0 0-10.123 14.667L2.009 494.733a10.998 10.998 0 0 0 9.64 16.304 10.97 10.97 0 0 0 5.194-1.306l111.088-59.552c5.458-2.466 10.323-5.852 14.553-10.071a49.133 49.133 0 0 0 13.501-25.281z" opacity="1" data-original="#33cccc" class=""></path><path d="M323.271 248.833c-31.619.655-60.069-27.089-59.435-59.407-.215-52.53 64.383-79.275 101.462-42.025 23.055 22.122 23.058 61.931 0 84.053-11.587 11.586-26.807 17.379-42.027 17.379zm0-96.824c-19.913-.413-37.835 17.064-37.435 37.417 0 9.999 3.894 19.4 10.965 26.47 23.355 23.46 64.042 6.616 63.905-26.471.397-20.351-17.52-37.83-37.435-37.416z" fill="#25d5a4" opacity="1" data-original="#000000" class=""></path><path d="M496.71 106.959c15.274-54.813 15.297-94.104 15.291-95.75A11.001 11.001 0 0 0 500.522.264C443.849 2.738 389.581 15.85 339.226 39.237 277.47 68.47 225.111 108.662 183.06 164.473l-90.372-4.394a10.97 10.97 0 0 0-8.312 3.209L3.222 244.44a10.999 10.999 0 0 0 5.454 18.53l99.484 21.512c-14.936 27.818-24.272 47.564-24.396 47.827a11 11 0 0 0 2.172 12.469l40.99 40.99.002.002.003.002 41.844 41.844a11.005 11.005 0 0 0 12.995 1.906c2.137-1.151 20.414-11.026 45.614-25.482l21.42 99.057c1.67 8.378 12.561 11.609 18.53 5.453l81.152-81.152a11.003 11.003 0 0 0 3.209-8.312l-4.392-90.342c79.394-55.877 125.673-139.547 149.407-221.785zm-21.4-5.164a426.647 426.647 0 0 1-15.276 44.706l-94.675-94.675c39.285-16.083 80.907-25.774 124.108-28.889-1.079 15.147-4.333 43.844-14.157 78.858zM96.485 182.29l71.203 3.462c-15.358 22.11-33.103 51.02-48.496 78.607l-86.148-18.628zm30.998 112.777 37.295 37.296-30.072 30.073-27.68-27.68c3.901-7.939 11.026-22.139 20.457-39.689zm51.025 111.17-28.245-28.245 30.072-30.072 36.661 36.661a2391.614 2391.614 0 0 1-38.488 21.656zm150.974 9.05-63.441 63.441-18.659-86.292c24.702-14.5 52.983-31.746 78.61-48.939zm42.801-135.142c-26.59 26.591-87.706 64.864-135.607 93.003l-40.785-40.785 53.012-53.012c4.296-4.296 4.295-11.261 0-15.557-4.296-4.295-11.261-4.295-15.557 0l-53.012 53.012-41.829-41.83c24.738-44.154 59.554-100.069 94.047-134.562 32.69-32.69 70.116-59.236 111.282-78.999l106.728 106.727c-17.014 36.114-41.911 75.635-78.279 112.003z" fill="#25d5a4" opacity="1" data-original="#000000" class=""></path></g></svg>