<svg width="72" height="69" viewBox="0 0 72 69" fill="none" xmlns="http://www.w3.org/2000/svg">
<path d="M9.56402 60.8053C5.14421 63.4911 4.96491 62.9643 6.02348 60.8053C13.464 52.4828 19.988 45.47 26.6257 38.7599L0.71253 21.1234C-1.05763 20.2416 0.712595 17.5961 3.36794 18.478L31.0479 34.3508C41.1435 24.4238 52.0049 14.6771 67.0978 1.72317C69.7532 -0.922154 73.2938 1.72316 71.5235 4.36864L35.8304 36.8802L60.9019 52.869C62.6722 53.7509 60.9019 58.16 58.2465 57.2782L31.3138 40.9942L9.56402 60.8053Z" fill="#FC804A"/>
<path d="M60.5 38.6274C60.5 53.8153 48.1878 66.1274 33 66.1274C17.8122 66.1274 5.5 53.8153 5.5 38.6274C5.5 23.4396 17.8122 11.1274 33 11.1274C48.1878 11.1274 60.5 23.4396 60.5 38.6274Z" stroke="#FC804A" stroke-width="5"/>
</svg>
