<svg width="43" height="45" viewBox="0 0 43 45" fill="none" xmlns="http://www.w3.org/2000/svg">
<path d="M42.0391 14.8516C42.3828 15.625 42.125 16.3984 41.5234 17L37.8281 20.3516C37.9141 21.0391 38 21.8125 38 22.5C38 23.2734 37.9141 24.0469 37.8281 24.7344L41.5234 28.0859C42.125 28.6875 42.3828 29.4609 42.0391 30.2344C41.6953 31.2656 41.2656 32.2109 40.75 33.1562L40.3203 33.8438C39.7188 34.7891 39.1172 35.7344 38.4297 36.5938C37.9141 37.1953 37.0547 37.3672 36.2812 37.1094L31.5547 35.6484C30.3516 36.5078 29.0625 37.1953 27.7734 37.7969L26.6562 42.6953C26.4844 43.4688 25.8828 44.0703 25.1094 44.2422C23.9062 44.4141 22.7031 44.5 21.4141 44.5C20.2109 44.5 19.0078 44.4141 17.8047 44.2422C17.0312 44.0703 16.4297 43.4688 16.2578 42.6953L15.1406 37.7969C13.8516 37.1953 12.5625 36.5078 11.3594 35.6484L6.63281 37.1094C5.85938 37.3672 5 37.1953 4.48438 36.5938C3.79688 35.7344 3.19531 34.7891 2.59375 33.8438L2.16406 33.1562C1.64844 32.2109 1.21875 31.2656 0.875 30.2344C0.53125 29.4609 0.789062 28.6875 1.39062 28.0859L5.08594 24.7344C5 24.0469 5 23.2734 5 22.5C5 21.8125 5 21.0391 5.08594 20.3516L1.39062 17C0.789062 16.3984 0.53125 15.625 0.875 14.8516C1.21875 13.8203 1.64844 12.875 2.16406 11.9297L2.59375 11.2422C3.19531 10.2969 3.79688 9.35156 4.48438 8.49219C5 7.89062 5.85938 7.71875 6.63281 7.97656L11.3594 9.4375C12.5625 8.57812 13.8516 7.80469 15.1406 7.28906L16.2578 2.39062C16.4297 1.61719 17.0312 1.01562 17.8047 0.84375C19.0078 0.671875 20.2109 0.5 21.5 0.5C22.7031 0.5 23.9062 0.671875 25.1094 0.84375C25.8828 1.01562 26.4844 1.61719 26.6562 2.39062L27.7734 7.28906C29.0625 7.80469 30.3516 8.57812 31.5547 9.4375L36.2812 7.97656C37.0547 7.71875 37.9141 7.89062 38.4297 8.49219C39.1172 9.35156 39.7188 10.2969 40.3203 11.2422L40.75 11.9297C41.2656 12.875 41.6953 13.8203 42.0391 14.8516ZM21.5 29.375C25.2812 29.375 28.375 26.3672 28.375 22.5C28.375 18.7188 25.2812 15.625 21.5 15.625C17.6328 15.625 14.625 18.7188 14.625 22.5C14.625 26.3672 17.6328 29.375 21.5 29.375Z" fill="#A6A6A6"/>
</svg>
