<svg width="61" height="71" viewBox="0 0 61 71" fill="none" xmlns="http://www.w3.org/2000/svg">
<rect x="1.07239" y="0.0771484" width="59" height="70" fill="white"/>
<path d="M20.3911 42.8395L24.5161 45.6145L30.2911 42.6895L36.0661 45.6145L40.0411 42.9895L37.0411 37.0645H23.2411L20.3911 42.8395ZM9.96614 64.0645H50.5411L42.7411 48.3895L36.5161 52.5145L30.2911 49.4395L24.0661 52.5145L17.6911 48.3145L9.96614 64.0645ZM0.291138 70.0645L17.8411 34.4395C18.3411 33.4395 19.0786 32.627 20.0536 32.002C21.0286 31.377 22.0911 31.0645 23.2411 31.0645H27.2911V10.0645H48.2911L45.2911 16.0645L48.2911 22.0645H33.2911V31.0645H37.0411C38.1911 31.0645 39.2411 31.3645 40.1911 31.9645C41.1411 32.5645 41.8911 33.3645 42.4411 34.3645L60.2911 70.0645H0.291138Z" fill="#C2C2C2"/>
</svg>
