<svg width="548" height="467" viewBox="0 0 548 467" fill="none" xmlns="http://www.w3.org/2000/svg">
<g clip-path="url(#clip0_129_797)">
<path d="M255.185 426.939C258.355 428.053 261.758 428.332 265.067 427.75C268.376 427.167 271.48 425.741 274.078 423.611C280.695 418.057 282.77 408.909 284.458 400.437L289.451 375.375L278.998 382.573C271.48 387.75 263.793 393.092 258.588 400.59C253.383 408.087 251.112 418.323 255.293 426.436" fill="#E4E4E4"/>
<path d="M256.799 459.024C255.483 449.439 254.13 439.729 255.055 430.041C255.875 421.436 258.5 413.033 263.844 406.141C266.681 402.49 270.133 399.362 274.045 396.897C275.065 396.254 276.004 397.87 274.988 398.511C268.22 402.788 262.984 409.105 260.037 416.55C256.782 424.828 256.259 433.853 256.82 442.648C257.159 447.966 257.879 453.25 258.602 458.527C258.659 458.765 258.624 459.017 258.502 459.23C258.381 459.444 258.183 459.603 257.949 459.676C257.71 459.74 257.456 459.708 257.24 459.586C257.025 459.464 256.867 459.261 256.8 459.023L256.799 459.024Z" fill="#F2F2F2"/>
<path d="M266.27 443.643C267.629 445.71 269.498 447.392 271.696 448.527C273.894 449.661 276.347 450.211 278.819 450.122C285.173 449.821 290.469 445.388 295.235 441.178L309.336 428.728L300.004 428.281C293.293 427.959 286.408 427.658 280.016 429.73C273.623 431.802 267.728 436.781 266.559 443.397" fill="#E4E4E4"/>
<path d="M253.08 464.535C259.414 453.327 266.761 440.871 279.89 436.889C283.54 435.786 287.367 435.391 291.166 435.725C292.363 435.828 292.064 437.674 290.869 437.571C284.502 437.042 278.147 438.723 272.874 442.332C267.8 445.785 263.849 450.587 260.505 455.679C258.457 458.798 256.622 462.049 254.788 465.296C254.201 466.334 252.487 465.585 253.08 464.535Z" fill="#F2F2F2"/>
<path d="M463.338 328.682H0.634033V0H463.338V328.682Z" fill="white"/>
<path d="M38.3253 134.996C37.1296 134.996 35.9829 135.471 35.1374 136.316C34.2919 137.162 33.8169 138.308 33.8169 139.504C33.8169 140.7 34.2919 141.846 35.1374 142.692C35.9829 143.537 37.1296 144.012 38.3253 144.012H194.582C195.776 144.01 196.92 143.534 197.764 142.689C198.608 141.844 199.081 140.698 199.081 139.504C199.081 138.31 198.608 137.164 197.764 136.319C196.92 135.474 195.776 134.998 194.582 134.996H38.3253Z" fill="currentColor"/>
<path d="M38.3253 162.046C37.1296 162.043 35.9819 162.516 35.1346 163.36C34.2873 164.203 33.8099 165.349 33.8074 166.545C33.8049 167.74 34.2774 168.888 35.1212 169.735C35.9649 170.583 37.1106 171.06 38.3063 171.063H194.697C195.893 171.063 197.039 170.588 197.885 169.742C198.73 168.897 199.205 167.75 199.205 166.554C199.205 165.359 198.73 164.212 197.885 163.366C197.039 162.521 195.893 162.046 194.697 162.046H38.3253Z" fill="currentColor"/>
<path d="M38.3253 188.709C37.1296 188.707 35.9819 189.18 35.1346 190.023C34.2873 190.867 33.8099 192.013 33.8074 193.208C33.8049 194.404 34.2774 195.552 35.1212 196.399C35.9649 197.246 37.1106 197.724 38.3063 197.726H73.4988C74.6945 197.726 75.8413 197.251 76.6867 196.406C77.5322 195.56 78.0072 194.414 78.0072 193.218C78.0072 192.022 77.5322 190.875 76.6867 190.03C75.8413 189.184 74.6945 188.709 73.4988 188.709H38.3253Z" fill="currentColor"/>
<path d="M463.338 328.682H0.634033V0H463.338V328.682ZM8.24014 321.076H455.732V7.6061H8.24014V321.076Z" fill="#E5E5E5"/>
<path d="M317.747 256.46C315.597 256.457 313.534 257.308 312.011 258.826C310.489 260.343 309.631 262.403 309.626 264.553C309.622 266.703 310.471 268.766 311.987 270.29C313.504 271.814 315.563 272.674 317.713 272.68H395.148C396.214 272.681 397.27 272.472 398.254 272.065C399.239 271.658 400.134 271.061 400.888 270.307C401.642 269.554 402.24 268.66 402.648 267.675C403.056 266.691 403.266 265.636 403.266 264.57C403.266 263.504 403.056 262.449 402.648 261.465C402.24 260.48 401.642 259.586 400.888 258.833C400.134 258.08 399.239 257.483 398.254 257.075C397.27 256.668 396.214 256.459 395.148 256.46H317.747Z" fill="#E4E4E4"/>
<path d="M317.747 158.251C315.597 158.249 313.534 159.099 312.011 160.617C310.489 162.134 309.631 164.194 309.626 166.344C309.622 168.494 310.471 170.558 311.987 172.081C313.504 173.605 315.563 174.465 317.713 174.471H395.148C396.214 174.472 397.27 174.263 398.254 173.856C399.239 173.449 400.134 172.852 400.888 172.098C401.642 171.345 402.24 170.451 402.648 169.466C403.056 168.482 403.266 167.427 403.266 166.361C403.266 165.296 403.056 164.24 402.648 163.256C402.24 162.271 401.642 161.377 400.888 160.624C400.134 159.871 399.239 159.274 398.254 158.866C397.27 158.459 396.214 158.25 395.148 158.251H317.747Z" fill="#E4E4E4"/>
<path d="M38.3253 260.216C37.7332 260.215 37.1467 260.33 36.5993 260.556C36.0518 260.781 35.5541 261.112 35.1346 261.53C34.7151 261.948 34.3819 262.444 34.1542 262.991C33.9265 263.537 33.8086 264.123 33.8074 264.715C33.8061 265.307 33.9215 265.894 34.1469 266.441C34.3723 266.989 34.7034 267.486 35.1212 267.906C35.5389 268.325 36.0352 268.659 36.5817 268.886C37.1282 269.114 37.7142 269.232 38.3063 269.233H194.697C195.893 269.233 197.039 268.758 197.885 267.913C198.73 267.067 199.205 265.92 199.205 264.725C199.205 263.529 198.73 262.382 197.885 261.537C197.039 260.691 195.893 260.216 194.697 260.216H38.3253Z" fill="#E4E4E4"/>
<path d="M38.3253 286.88C37.7332 286.879 37.1467 286.994 36.5993 287.219C36.0518 287.445 35.5541 287.776 35.1346 288.194C34.7151 288.611 34.3819 289.108 34.1542 289.654C33.9265 290.201 33.8086 290.787 33.8074 291.379C33.8061 291.971 33.9215 292.557 34.1469 293.105C34.3723 293.652 34.7034 294.15 35.1212 294.569C35.5389 294.989 36.0352 295.322 36.5817 295.55C37.1282 295.778 37.7142 295.895 38.3063 295.897H73.4988C74.6945 295.897 75.8413 295.422 76.6867 294.576C77.5322 293.731 78.0072 292.584 78.0072 291.388C78.0072 290.193 77.5322 289.046 76.6867 288.2C75.8413 287.355 74.6945 286.88 73.4988 286.88H38.3253Z" fill="#E4E4E4"/>
<path d="M38.3253 233.166C37.1296 233.166 35.9829 233.641 35.1374 234.486C34.2919 235.332 33.8169 236.479 33.8169 237.674C33.8169 238.87 34.2919 240.017 35.1374 240.862C35.9829 241.708 37.1296 242.183 38.3253 242.183H194.582C195.776 242.181 196.92 241.705 197.764 240.859C198.608 240.014 199.081 238.869 199.081 237.674C199.081 236.48 198.608 235.335 197.764 234.49C196.92 233.644 195.776 233.168 194.582 233.166H38.3253Z" fill="#E4E4E4"/>
<path d="M38.3253 36.8252C37.1296 36.8252 35.9829 37.3002 35.1374 38.1457C34.2919 38.9912 33.8169 40.1379 33.8169 41.3336C33.8169 42.5293 34.2919 43.676 35.1374 44.5215C35.9829 45.367 37.1296 45.842 38.3253 45.842H194.582C195.776 45.8397 196.92 45.3637 197.764 44.5185C198.608 43.6733 199.081 42.5278 199.081 41.3336C199.081 40.1394 198.608 38.9939 197.764 38.1487C196.92 37.3034 195.776 36.8275 194.582 36.8252H38.3253Z" fill="#E4E4E4"/>
<path d="M38.3253 63.8755C37.7332 63.8742 37.1467 63.9896 36.5993 64.215C36.0518 64.4405 35.5541 64.7715 35.1346 65.1893C34.7151 65.607 34.3819 66.1033 34.1542 66.6498C33.9265 67.1963 33.8086 67.7823 33.8074 68.3744C33.8061 68.9664 33.9215 69.5529 34.1469 70.1004C34.3723 70.6479 34.7034 71.1456 35.1212 71.5651C35.5389 71.9846 36.0352 72.3178 36.5817 72.5455C37.1282 72.7732 37.7142 72.891 38.3063 72.8923H194.697C195.289 72.8923 195.875 72.7757 196.422 72.5491C196.969 72.3225 197.466 71.9905 197.885 71.5718C198.304 71.1532 198.636 70.6562 198.862 70.1092C199.089 69.5622 199.205 68.976 199.205 68.3839C199.205 67.7918 199.089 67.2056 198.862 66.6586C198.636 66.1116 198.304 65.6146 197.885 65.196C197.466 64.7773 196.969 64.4453 196.422 64.2187C195.875 63.9921 195.289 63.8755 194.697 63.8755H38.3253Z" fill="#E4E4E4"/>
<path d="M38.3253 90.5391C37.1296 90.5366 35.9819 91.0091 35.1346 91.8528C34.2873 92.6965 33.8099 93.8422 33.8074 95.0379C33.8049 96.2336 34.2774 97.3814 35.1212 98.2286C35.9649 99.0759 37.1106 99.5533 38.3063 99.5559H73.4988C74.6945 99.5559 75.8413 99.0809 76.6867 98.2354C77.5322 97.3899 78.0072 96.2432 78.0072 95.0475C78.0072 93.8518 77.5322 92.705 76.6867 91.8595C75.8413 91.0141 74.6945 90.5391 73.4988 90.5391H38.3253Z" fill="#E4E4E4"/>
<path d="M317.747 60.1191C315.597 60.1162 313.534 60.9669 312.011 62.4844C310.489 64.0019 309.631 66.0619 309.626 68.2117C309.622 70.3615 310.471 72.4252 311.987 73.9491C313.504 75.473 315.563 76.3324 317.713 76.3385H395.148C396.214 76.3396 397.27 76.1306 398.254 75.7235C399.239 75.3165 400.134 74.7193 400.888 73.9661C401.642 73.213 402.24 72.3186 402.648 71.3341C403.056 70.3497 403.266 69.2945 403.266 68.2288C403.266 67.1632 403.056 66.108 402.648 65.1235C402.24 64.1391 401.642 63.2447 400.888 62.4916C400.134 61.7384 399.239 61.1412 398.254 60.7341C397.27 60.3271 396.214 60.1181 395.148 60.1191H317.747Z" fill="#E4E4E4"/>
<path d="M334.06 82.696C342.092 82.696 348.604 76.1845 348.604 68.1522C348.604 60.1199 342.092 53.6084 334.06 53.6084C326.028 53.6084 319.516 60.1199 319.516 68.1522C319.516 76.1845 326.028 82.696 334.06 82.696Z" fill="#CACACA"/>
<path d="M359.48 169.878C359.318 171.045 359.415 172.234 359.763 173.36C360.111 174.486 360.701 175.522 361.493 176.395C362.285 177.268 363.258 177.957 364.345 178.413C365.432 178.87 366.605 179.082 367.783 179.036L375.506 195.761L386.815 193.547L375.576 170.08C375.367 168.107 374.442 166.279 372.975 164.943C371.508 163.606 369.602 162.854 367.618 162.829C365.634 162.804 363.71 163.508 362.21 164.807C360.71 166.106 359.738 167.91 359.48 169.878Z" fill="#FFB6B6"/>
<path d="M437.718 233.172L406.207 217.585L383.971 179.847L368.428 187.365L388.599 230.962L439.554 260.376L437.718 233.172Z" fill="#161616"/>
<path d="M366.577 456.268L356.671 456.267L351.958 427.706L366.579 427.707L366.577 456.268Z" fill="#FFB6B6"/>
<path d="M369.104 465.869L337.163 465.868V465.464C337.164 462.167 338.473 459.005 340.805 456.674C343.136 454.342 346.298 453.032 349.595 453.032H349.596L369.104 453.033L369.104 465.869Z" fill="#161616"/>
<path d="M465.455 438.099L458.543 445.195L434.795 428.644L444.996 418.171L465.455 438.099Z" fill="#FFB6B6"/>
<path d="M474.096 442.989L451.811 465.869L451.521 465.587C449.159 463.287 447.808 460.142 447.765 456.845C447.721 453.549 448.989 450.37 451.289 448.007L464.901 434.032L474.096 442.989Z" fill="#161616"/>
<path d="M378.824 286.291H371.973C354.162 305.754 340.567 328.688 332.04 353.654L323.855 377.618L353.026 438.694L371.228 439.018L350.424 374.176L371.383 346.381L372.44 402.255L439.9 437.615L453.402 417.67L398.507 387.653L407.856 340.127C407.856 340.127 426.665 324.443 415.712 299.922L378.824 286.291Z" fill="#161616"/>
<path d="M468.994 224.094L440.524 211.625L409.189 225.51C409.189 225.51 400.315 230.558 405.971 243.485L371.973 286.291C371.973 286.291 372.036 286.309 414.764 299.922L453.313 265.973C459.167 260.818 463.66 254.3 466.395 246.996C469.13 239.691 470.023 231.825 468.994 224.094Z" fill="#161616"/>
<path d="M464.216 211.256C475.176 211.256 484.061 202.372 484.061 191.411C484.061 180.451 475.176 171.566 464.216 171.566C453.256 171.566 444.371 180.451 444.371 191.411C444.371 202.372 453.256 211.256 464.216 211.256Z" fill="#FFB6B6"/>
<path d="M489.917 165.076C485.362 161.371 478.299 160.562 473.597 164.078C465.396 159.774 454.314 162.019 448.436 169.176C446.32 171.751 444.822 175.235 445.868 178.399C446.915 181.563 451.429 183.422 453.782 181.062L453.74 182.035C455.859 184.157 457.328 186.84 457.975 189.769C458.622 192.697 458.419 195.75 457.39 198.567C456.362 201.384 454.55 203.849 452.169 205.673C449.787 207.496 446.935 208.601 443.947 208.858C450.45 211.485 456.953 214.112 463.456 216.74C466.192 217.845 469.016 218.968 471.966 218.953C474.917 218.938 478.063 217.504 479.208 214.784C480.031 217.308 480.855 219.831 481.678 222.355C486.525 214.644 490.512 206.424 493.568 197.843C495.536 192.312 497.128 186.528 496.915 180.66C496.703 174.793 494.471 168.781 489.917 165.076Z" fill="#161616"/>
<path d="M334.06 279.037C342.092 279.037 348.604 272.525 348.604 264.493C348.604 256.461 342.092 249.949 334.06 249.949C326.028 249.949 319.516 256.461 319.516 264.493C319.516 272.525 326.028 279.037 334.06 279.037Z" fill="#CACACA"/>
<path d="M379.307 180.905C387.34 180.905 393.851 174.393 393.851 166.361C393.851 158.329 387.34 151.817 379.307 151.817C371.275 151.817 364.764 158.329 364.764 166.361C364.764 174.393 371.275 180.905 379.307 180.905Z" fill="currentColor"/>
<path d="M379.679 161.798C379.518 162.965 379.615 164.154 379.963 165.28C380.311 166.406 380.901 167.442 381.693 168.316C382.484 169.189 383.458 169.878 384.545 170.334C385.631 170.79 386.805 171.003 387.982 170.956L395.706 187.682L407.014 185.467L395.776 162.001C395.567 160.028 394.641 158.199 393.175 156.863C391.708 155.527 389.802 154.775 387.818 154.75C385.834 154.725 383.909 155.428 382.409 156.727C380.909 158.026 379.938 159.831 379.679 161.798Z" fill="#FFB6B6"/>
<path d="M457.918 225.093L426.406 209.506L404.171 171.767L388.628 179.285L408.799 222.882L459.754 252.297L457.918 225.093Z" fill="#161616"/>
<path d="M546.558 466.49H238.714C238.5 466.49 238.295 466.405 238.143 466.253C237.992 466.102 237.906 465.896 237.906 465.682C237.906 465.468 237.992 465.262 238.143 465.111C238.295 464.959 238.5 464.874 238.714 464.874H546.558C546.772 464.874 546.978 464.959 547.129 465.111C547.281 465.262 547.366 465.468 547.366 465.682C547.366 465.896 547.281 466.102 547.129 466.253C546.978 466.405 546.772 466.49 546.558 466.49Z" fill="#CACACA"/>
</g>
<defs>
<clipPath id="clip0_129_797">
<rect width="546.732" height="466.49" fill="white" transform="translate(0.634033)"/>
</clipPath>
</defs>
</svg>
