<svg width="473" height="467" viewBox="0 0 473 467" fill="none" xmlns="http://www.w3.org/2000/svg">
<g clip-path="url(#clip0_129_721)">
<path d="M352.6 110.96H350.041V40.8664C350.041 35.5389 348.992 30.2635 346.953 25.3415C344.914 20.4195 341.926 15.9473 338.159 12.1801C334.392 8.41298 329.92 5.42472 324.998 3.38596C320.076 1.3472 314.8 0.297857 309.473 0.297852H160.969C150.209 0.297828 139.891 4.57197 132.283 12.18C124.674 19.7881 120.4 30.1068 120.4 40.8663V425.408C120.4 436.167 124.674 446.486 132.282 454.094C139.891 461.702 150.209 465.976 160.969 465.976H309.472C320.232 465.976 330.551 461.702 338.159 454.094C345.767 446.486 350.041 436.167 350.041 425.408V160.855H352.6L352.6 110.96Z" fill="#E6E6E6"/>
<path d="M341.406 41.1496V425.125C341.406 433.16 338.214 440.867 332.532 446.548C326.85 452.23 319.144 455.422 311.109 455.423H161.893C153.857 455.422 146.151 452.23 140.469 446.548C134.787 440.867 131.595 433.16 131.595 425.125V41.1496C131.595 33.1142 134.787 25.408 140.469 19.7262C146.151 14.0443 153.857 10.8522 161.893 10.8521H179.994C179.105 13.0378 178.766 15.4087 179.008 17.756C179.25 20.1034 180.065 22.3554 181.381 24.3139C182.698 26.2724 184.475 27.8774 186.557 28.9877C188.64 30.0981 190.963 30.6797 193.323 30.6814H278.399C280.759 30.6797 283.082 30.098 285.164 28.9877C287.246 27.8774 289.024 26.2724 290.34 24.3139C291.657 22.3554 292.472 20.1034 292.714 17.756C292.955 15.4086 292.617 13.0378 291.727 10.8521H311.109C319.144 10.8522 326.85 14.0443 332.532 19.7262C338.214 25.408 341.406 33.1142 341.406 41.1496Z" fill="white"/>
<path d="M195.295 116.139H172.38C170.492 116.136 168.682 115.385 167.347 114.05C166.012 112.715 165.261 110.905 165.259 109.017V86.1026C165.261 84.2146 166.012 82.4046 167.347 81.0695C168.682 79.7345 170.492 78.9836 172.38 78.9814H195.295C197.183 78.9836 198.993 79.7345 200.328 81.0695C201.663 82.4046 202.414 84.2146 202.416 86.1026V109.017C202.414 110.905 201.663 112.715 200.328 114.05C198.993 115.385 197.183 116.136 195.295 116.139Z" fill="currentColor"/>
<path d="M247.958 116.139H225.043C223.155 116.136 221.345 115.385 220.01 114.05C218.675 112.715 217.924 110.905 217.922 109.017V86.1026C217.924 84.2146 218.675 82.4046 220.01 81.0695C221.345 79.7345 223.155 78.9836 225.043 78.9814H247.958C249.846 78.9836 251.656 79.7345 252.991 81.0695C254.326 82.4046 255.077 84.2146 255.079 86.1026V109.017C255.077 110.905 254.326 112.715 252.991 114.05C251.656 115.385 249.846 116.136 247.958 116.139Z" fill="currentColor"/>
<path d="M300.621 116.139H277.706C275.818 116.136 274.008 115.385 272.673 114.05C271.338 112.715 270.587 110.905 270.585 109.017V86.1026C270.587 84.2146 271.338 82.4046 272.673 81.0695C274.008 79.7345 275.818 78.9836 277.706 78.9814H300.621C302.509 78.9836 304.319 79.7345 305.654 81.0695C306.989 82.4046 307.74 84.2146 307.742 86.1026V109.017C307.74 110.905 306.989 112.715 305.654 114.05C304.319 115.385 302.509 116.136 300.621 116.139Z" fill="#E6E6E6"/>
<path d="M195.295 174.691H172.38C170.492 174.689 168.682 173.938 167.347 172.603C166.012 171.268 165.261 169.458 165.259 167.57V144.655C165.261 142.767 166.012 140.957 167.347 139.622C168.682 138.287 170.492 137.536 172.38 137.534H195.295C197.183 137.536 198.993 138.287 200.328 139.622C201.663 140.957 202.414 142.767 202.416 144.655V167.57C202.414 169.458 201.663 171.268 200.328 172.603C198.993 173.938 197.183 174.689 195.295 174.691Z" fill="#E6E6E6"/>
<path d="M247.958 174.691H225.043C223.155 174.689 221.345 173.938 220.01 172.603C218.675 171.268 217.924 169.458 217.922 167.57V144.655C217.924 142.767 218.675 140.957 220.01 139.622C221.345 138.287 223.155 137.536 225.043 137.534H247.958C249.846 137.536 251.656 138.287 252.991 139.622C254.326 140.957 255.077 142.767 255.079 144.655V167.57C255.077 169.458 254.326 171.268 252.991 172.603C251.656 173.938 249.846 174.689 247.958 174.691Z" fill="#E6E6E6"/>
<path d="M300.621 174.691H277.706C275.818 174.689 274.008 173.938 272.673 172.603C271.338 171.268 270.587 169.458 270.585 167.57V144.655C270.587 142.767 271.338 140.957 272.673 139.622C274.008 138.287 275.818 137.536 277.706 137.534H300.621C302.509 137.536 304.319 138.287 305.654 139.622C306.989 140.957 307.74 142.767 307.742 144.655V167.57C307.74 169.458 306.989 171.268 305.654 172.603C304.319 173.938 302.509 174.689 300.621 174.691Z" fill="#E6E6E6"/>
<path d="M195.295 233.233H172.38C170.492 233.231 168.682 232.48 167.347 231.145C166.012 229.81 165.261 228 165.259 226.112V203.197C165.261 201.309 166.012 199.499 167.347 198.164C168.682 196.829 170.492 196.078 172.38 196.076H195.295C197.183 196.078 198.993 196.829 200.328 198.164C201.663 199.499 202.414 201.309 202.416 203.197V226.112C202.414 228 201.663 229.81 200.328 231.145C198.993 232.48 197.183 233.231 195.295 233.233Z" fill="#E6E6E6"/>
<path d="M247.958 233.233H225.043C223.155 233.231 221.345 232.48 220.01 231.145C218.675 229.81 217.924 228 217.922 226.112V203.197C217.924 201.309 218.675 199.499 220.01 198.164C221.345 196.829 223.155 196.078 225.043 196.076H247.958C249.846 196.078 251.656 196.829 252.991 198.164C254.326 199.499 255.077 201.309 255.079 203.197V226.112C255.077 228 254.326 229.81 252.991 231.145C251.656 232.48 249.846 233.231 247.958 233.233Z" fill="#E6E6E6"/>
<path d="M300.621 233.233H277.706C275.818 233.231 274.008 232.48 272.673 231.145C271.338 229.81 270.587 228 270.585 226.112V203.197C270.587 201.309 271.338 199.499 272.673 198.164C274.008 196.829 275.818 196.078 277.706 196.076H300.621C302.509 196.078 304.319 196.829 305.654 198.164C306.989 199.499 307.74 201.309 307.742 203.197V226.112C307.74 228 306.989 229.81 305.654 231.145C304.319 232.48 302.509 233.231 300.621 233.233Z" fill="#E6E6E6"/>
<path d="M195.295 291.787H172.38C170.492 291.784 168.682 291.033 167.347 289.698C166.012 288.363 165.261 286.553 165.259 284.665V261.751C165.261 259.863 166.012 258.053 167.347 256.718C168.682 255.382 170.492 254.632 172.38 254.629H195.295C197.183 254.632 198.993 255.382 200.328 256.718C201.663 258.053 202.414 259.863 202.416 261.751V284.665C202.414 286.553 201.663 288.363 200.328 289.698C198.993 291.033 197.183 291.784 195.295 291.787Z" fill="#E6E6E6"/>
<path d="M247.958 291.787H225.043C223.155 291.784 221.345 291.033 220.01 289.698C218.675 288.363 217.924 286.553 217.922 284.665V261.751C217.924 259.863 218.675 258.053 220.01 256.718C221.345 255.382 223.155 254.632 225.043 254.629H247.958C249.846 254.632 251.656 255.382 252.991 256.718C254.326 258.053 255.077 259.863 255.079 261.751V284.665C255.077 286.553 254.326 288.363 252.991 289.698C251.656 291.033 249.846 291.784 247.958 291.787Z" fill="#E6E6E6"/>
<path d="M300.621 291.787H277.706C275.818 291.784 274.008 291.033 272.673 289.698C271.338 288.363 270.587 286.553 270.585 284.665V261.751C270.587 259.863 271.338 258.053 272.673 256.718C274.008 255.382 275.818 254.632 277.706 254.629H300.621C302.509 254.632 304.319 255.382 305.654 256.718C306.989 258.053 307.74 259.863 307.742 261.751V284.665C307.74 286.553 306.989 288.363 305.654 289.698C304.319 291.033 302.509 291.784 300.621 291.787Z" fill="#E6E6E6"/>
<path d="M262.697 284.996H239.782C237.809 284.994 235.918 284.209 234.523 282.814C233.128 281.419 232.343 279.528 232.341 277.555V254.64C232.343 252.667 233.128 250.776 234.523 249.381C235.918 247.986 237.809 247.201 239.782 247.199H262.697C264.67 247.201 266.561 247.986 267.956 249.381C269.351 250.776 270.136 252.667 270.138 254.64V277.555C270.136 279.528 269.351 281.419 267.956 282.814C266.561 284.209 264.67 284.994 262.697 284.996Z" fill="currentColor"/>
<path d="M154.275 344.129C155.141 343.698 155.902 343.083 156.505 342.326C157.107 341.569 157.536 340.689 157.762 339.748C157.987 338.807 158.004 337.829 157.811 336.881C157.617 335.933 157.218 335.039 156.641 334.262L161.59 285.881H150.896L146.963 333.123C145.722 334.177 144.911 335.651 144.684 337.264C144.457 338.877 144.829 340.517 145.73 341.874C146.632 343.23 147.999 344.209 149.574 344.625C151.149 345.041 152.822 344.864 154.275 344.129Z" fill="#FFB6B6"/>
<path d="M164.094 259.181C172.45 259.181 179.223 252.407 179.223 244.051C179.223 235.696 172.45 228.922 164.094 228.922C155.738 228.922 148.964 235.696 148.964 244.051C148.964 252.407 155.738 259.181 164.094 259.181Z" fill="#FFB6B6"/>
<path d="M166.942 314.057C166.337 314.056 165.748 313.858 165.266 313.49C164.784 313.123 164.436 312.608 164.275 312.025C163.063 307.62 159.91 300.174 154.902 289.892C153.772 287.567 153.147 285.03 153.066 282.447C152.986 279.864 153.452 277.293 154.436 274.903C155.419 272.513 156.896 270.358 158.771 268.579C160.645 266.8 162.875 265.437 165.313 264.58C167.624 263.764 170.075 263.42 172.521 263.568C174.967 263.716 177.358 264.353 179.554 265.441C181.749 266.53 183.704 268.048 185.303 269.905C186.901 271.762 188.111 273.921 188.861 276.254C192.742 288.422 192.555 301.457 192.294 306.496C192.262 307.102 192.031 307.682 191.638 308.145C191.245 308.609 190.711 308.93 190.117 309.061L167.537 313.992C167.341 314.035 167.142 314.057 166.942 314.057Z" fill="#CCCCCC"/>
<path d="M188.808 457.726L196.361 457.725L199.954 428.596L188.807 428.597L188.808 457.726Z" fill="#FFB6B6"/>
<path d="M210.926 464.737L187.191 464.738L187.19 455.568L201.755 455.567C202.959 455.567 204.152 455.805 205.264 456.265C206.377 456.726 207.388 457.402 208.239 458.253C209.091 459.105 209.766 460.115 210.227 461.228C210.688 462.341 210.925 463.533 210.926 464.737Z" fill="#161616"/>
<path d="M113.292 447.938L119.911 451.576L137.093 427.782L127.326 422.413L113.292 447.938Z" fill="#FFB6B6"/>
<path d="M129.295 464.738L108.496 453.304L112.914 445.268L125.677 452.284C127.808 453.456 129.387 455.426 130.065 457.762C130.744 460.098 130.467 462.607 129.295 464.738Z" fill="#161616"/>
<path d="M188.456 441.557C187.783 441.557 187.133 441.311 186.628 440.867C186.122 440.422 185.796 439.809 185.709 439.142L176.265 366.362C176.223 366.04 176.081 365.74 175.858 365.504C175.635 365.268 175.344 365.108 175.025 365.047C174.706 364.987 174.376 365.029 174.082 365.167C173.788 365.305 173.546 365.533 173.389 365.817L134.027 437.23C133.703 437.813 133.179 438.26 132.553 438.49C131.926 438.72 131.238 438.718 130.613 438.483L122.034 435.214C121.688 435.083 121.373 434.884 121.106 434.629C120.839 434.374 120.626 434.068 120.478 433.729C120.331 433.391 120.253 433.026 120.249 432.657C120.244 432.287 120.314 431.921 120.453 431.579L147.72 364.597C147.789 364.427 147.836 364.248 147.859 364.066C151.552 335.482 160.949 320.946 163.74 317.171C163.944 316.894 164.079 316.572 164.132 316.232C164.185 315.891 164.155 315.543 164.046 315.217L163.662 314.066C163.509 313.609 163.477 313.12 163.571 312.647C163.664 312.174 163.88 311.734 164.196 311.369C174.256 299.911 191.79 306.163 191.966 306.228L192.054 306.26L192.109 306.336C211.77 333.299 204.5 420.877 202.844 438.159C202.782 438.809 202.492 439.416 202.026 439.872C201.56 440.329 200.948 440.606 200.297 440.654L188.671 441.549C188.599 441.555 188.527 441.557 188.456 441.557Z" fill="#161616"/>
<path d="M222.912 261.626C222.836 261.959 222.787 262.297 222.765 262.637L196.303 277.902L189.871 274.2L183.014 283.176L193.764 290.838C194.632 291.457 195.678 291.777 196.744 291.751C197.81 291.725 198.839 291.354 199.676 290.694L226.963 269.167C228.194 269.623 229.535 269.693 230.807 269.368C232.08 269.043 233.223 268.339 234.085 267.348C234.947 266.358 235.487 265.128 235.633 263.823C235.78 262.518 235.525 261.2 234.904 260.043C234.282 258.886 233.324 257.946 232.155 257.348C230.986 256.749 229.663 256.52 228.361 256.692C227.059 256.864 225.841 257.428 224.867 258.31C223.894 259.191 223.212 260.348 222.912 261.626Z" fill="#FFB6B6"/>
<path d="M195.418 278.625L186.866 289.709C186.623 290.025 186.314 290.284 185.962 290.469C185.609 290.655 185.221 290.762 184.823 290.784C184.425 290.806 184.027 290.742 183.657 290.596C183.286 290.45 182.951 290.226 182.675 289.939L172.993 279.885C171.387 278.631 170.344 276.791 170.093 274.769C169.841 272.747 170.401 270.708 171.651 269.098C172.9 267.488 174.737 266.44 176.758 266.182C178.78 265.924 180.821 266.478 182.434 267.723L194.577 274.513C194.925 274.707 195.226 274.974 195.461 275.296C195.697 275.618 195.86 275.986 195.939 276.376C196.019 276.767 196.014 277.17 195.924 277.558C195.834 277.946 195.662 278.31 195.418 278.625Z" fill="#CCCCCC"/>
<path d="M162.27 297.883L148.493 295.395C148.101 295.324 147.729 295.17 147.402 294.942C147.075 294.715 146.801 294.419 146.598 294.076C146.396 293.733 146.27 293.351 146.229 292.954C146.187 292.558 146.232 292.158 146.359 291.78L150.826 278.556C151.199 276.553 152.352 274.779 154.031 273.624C155.711 272.469 157.779 272.028 159.784 272.396C161.788 272.764 163.565 273.912 164.725 275.588C165.884 277.264 166.332 279.331 165.969 281.337L165.534 295.243C165.521 295.641 165.423 296.031 165.245 296.388C165.068 296.745 164.816 297.059 164.507 297.31C164.197 297.56 163.837 297.741 163.451 297.84C163.065 297.939 162.662 297.954 162.27 297.883Z" fill="#CCCCCC"/>
<path d="M166.489 240.572C170.377 243.233 175.483 245.969 179.455 243.135C180.697 242.189 181.6 240.866 182.027 239.364C182.455 237.862 182.384 236.262 181.827 234.803C179.925 229.365 174.7 226.971 169.703 225.136C163.208 222.75 156.136 220.852 149.43 222.56C142.725 224.269 136.799 230.761 138.009 237.574C138.983 243.053 144.151 247.612 143.417 253.128C142.679 258.679 136.435 261.602 130.924 262.594C125.412 263.586 119.244 263.905 115.283 267.864C110.23 272.914 111.492 281.941 116.246 287.274C121.001 292.606 128.176 295.023 135.129 296.666C144.341 298.843 154.305 299.987 163.054 296.374C171.803 292.761 178.611 283.035 176.077 273.915C175.006 270.063 172.484 266.807 170.047 263.637C167.61 260.468 165.142 257.153 164.212 253.265C163.437 250.024 164.011 246.262 166.16 243.831C166.551 243.405 166.797 242.867 166.862 242.293C166.928 241.719 166.81 241.139 166.526 240.636L166.489 240.572Z" fill="#161616"/>
<path d="M320.322 458.733H312.477L308.746 428.476H320.323L320.322 458.733Z" fill="#FFB6B6"/>
<path d="M306.874 456.492H322.003V466.017H297.349C297.349 464.766 297.595 463.528 298.074 462.372C298.552 461.216 299.254 460.166 300.139 459.282C301.023 458.397 302.073 457.695 303.229 457.217C304.385 456.738 305.623 456.492 306.874 456.492Z" fill="#161616"/>
<path d="M349.756 458.733H341.911L338.179 428.476H349.757L349.756 458.733Z" fill="#FFB6B6"/>
<path d="M336.308 456.492H351.437V466.017H326.782C326.782 464.766 327.029 463.528 327.507 462.372C327.986 461.216 328.688 460.166 329.572 459.282C330.457 458.397 331.507 457.695 332.663 457.217C333.818 456.738 335.057 456.492 336.308 456.492Z" fill="#161616"/>
<path d="M348.798 368.616C347.953 368.072 347.237 367.35 346.701 366.5C346.165 365.65 345.822 364.692 345.697 363.695C345.571 362.698 345.665 361.686 345.973 360.729C346.281 359.773 346.795 358.895 347.478 358.159L342.313 284.857L357.192 286.3L357.6 358.085C358.762 359.315 359.431 360.929 359.482 362.62C359.533 364.311 358.962 365.962 357.877 367.26C356.792 368.558 355.268 369.413 353.595 369.663C351.922 369.913 350.215 369.541 348.798 368.616Z" fill="#FFB6B6"/>
<path d="M319.952 443.49L311.316 443.078C310.58 443.043 309.886 442.728 309.376 442.197C308.866 441.666 308.579 440.959 308.573 440.223L307.971 352.845C307.968 352.43 308.055 352.02 308.225 351.642C308.396 351.264 308.646 350.927 308.958 350.654C309.271 350.382 309.639 350.18 310.037 350.063C310.435 349.946 310.853 349.916 311.264 349.975L345.812 354.99C346.495 355.086 347.12 355.424 347.573 355.944C348.026 356.464 348.276 357.129 348.278 357.818L352.722 438.783C352.724 439.163 352.652 439.54 352.509 439.892C352.365 440.243 352.153 440.563 351.886 440.833C351.618 441.103 351.3 441.317 350.949 441.463C350.598 441.609 350.222 441.684 349.842 441.684H340.532C339.845 441.687 339.18 441.443 338.658 440.997C338.136 440.55 337.792 439.931 337.688 439.252L331.944 402.737C331.86 402.203 331.585 401.717 331.171 401.369C330.757 401.021 330.231 400.835 329.69 400.845C329.149 400.855 328.63 401.061 328.229 401.423C327.828 401.786 327.572 402.282 327.507 402.819L322.948 440.956C322.862 441.655 322.524 442.298 321.997 442.765C321.471 443.232 320.792 443.492 320.088 443.494C320.043 443.494 319.997 443.493 319.952 443.49Z" fill="#161616"/>
<path d="M326.031 357.822C318.417 353.592 312.468 352.48 309.599 352.194C309.218 352.158 308.848 352.044 308.512 351.86C308.177 351.676 307.882 351.425 307.645 351.124C307.404 350.82 307.227 350.471 307.124 350.097C307.022 349.723 306.996 349.332 307.05 348.947L315.328 287.488C315.804 283.893 317.193 280.479 319.362 277.572C321.531 274.664 324.407 272.361 327.718 270.879C330.923 269.406 334.451 268.777 337.967 269.053C341.483 269.329 344.871 270.499 347.807 272.454C348.09 272.643 348.369 272.835 348.642 273.032C352.023 275.509 354.595 278.932 356.034 282.869C357.473 286.806 357.714 291.08 356.727 295.154C351.651 315.921 349.907 349.966 349.609 356.58C349.586 357.144 349.396 357.688 349.064 358.144C348.731 358.6 348.272 358.948 347.742 359.143C344.619 360.278 341.323 360.865 338 360.877C333.814 360.903 329.692 359.851 326.031 357.822Z" fill="currentColor"/>
<path d="M345.681 309.488C345.333 309.238 345.045 308.912 344.839 308.535C344.633 308.159 344.514 307.741 344.492 307.312L343.401 287.556C343.294 285.598 343.914 283.67 345.144 282.143C346.373 280.617 348.124 279.599 350.06 279.287C351.995 278.975 353.977 279.39 355.624 280.453C357.272 281.516 358.467 283.151 358.98 285.043L363.769 302.706C363.968 303.443 363.866 304.229 363.487 304.891C363.107 305.554 362.48 306.038 361.743 306.239L348.12 309.933C347.706 310.046 347.272 310.064 346.85 309.987C346.428 309.911 346.028 309.74 345.681 309.488Z" fill="currentColor"/>
<path d="M332.955 262.534C341.635 262.534 348.671 255.498 348.671 246.818C348.671 238.139 341.635 231.103 332.955 231.103C324.276 231.103 317.24 238.139 317.24 246.818C317.24 255.498 324.276 262.534 332.955 262.534Z" fill="#FFB6B6"/>
<path d="M276.005 277.695C276.084 278.04 276.135 278.391 276.158 278.744L303.645 294.601L310.326 290.755L317.449 300.079L303.156 310.266L271.798 285.528C270.519 286.001 269.126 286.073 267.804 285.736C266.483 285.398 265.296 284.667 264.401 283.638C263.505 282.609 262.945 281.332 262.793 279.977C262.641 278.622 262.905 277.252 263.551 276.051C264.196 274.85 265.192 273.873 266.406 273.252C267.619 272.63 268.994 272.392 270.346 272.571C271.698 272.749 272.963 273.335 273.974 274.25C274.985 275.166 275.694 276.367 276.005 277.695Z" fill="#FFB6B6"/>
<path d="M304.627 293.253C304.581 292.826 304.632 292.395 304.775 291.99C304.918 291.586 305.15 291.218 305.454 290.915L319.444 276.923C320.83 275.536 322.68 274.712 324.638 274.61C326.595 274.507 328.522 275.132 330.045 276.366C331.569 277.599 332.582 279.353 332.889 281.289C333.197 283.225 332.776 285.206 331.709 286.851L321.746 302.203C321.33 302.842 320.677 303.291 319.93 303.45C319.183 303.609 318.404 303.465 317.763 303.05L305.923 295.367C305.563 295.134 305.259 294.823 305.035 294.457C304.811 294.091 304.671 293.68 304.627 293.253Z" fill="currentColor"/>
<path d="M344.077 259.252C341.145 262.375 335.7 260.699 335.318 256.432C335.288 256.101 335.29 255.767 335.324 255.437C335.522 253.547 336.613 251.831 336.352 249.835C336.293 249.339 336.108 248.866 335.814 248.46C333.478 245.332 327.994 249.86 325.789 247.028C324.437 245.291 326.026 242.557 324.989 240.616C323.619 238.054 319.563 239.318 317.02 237.915C314.19 236.354 314.359 232.012 316.222 229.371C318.494 226.15 322.477 224.432 326.411 224.184C330.344 223.936 334.251 225 337.923 226.431C342.096 228.057 346.234 230.304 348.801 233.973C351.924 238.435 352.225 244.434 350.663 249.651C349.713 252.825 346.471 256.702 344.077 259.252Z" fill="#161616"/>
<path d="M471.97 466.788H1.03037C0.860664 466.788 0.697912 466.721 0.577914 466.601C0.457916 466.481 0.390503 466.318 0.390503 466.148C0.390503 465.978 0.457916 465.816 0.577914 465.696C0.697912 465.576 0.860664 465.508 1.03037 465.508H471.97C472.139 465.508 472.302 465.576 472.422 465.696C472.542 465.816 472.609 465.978 472.609 466.148C472.609 466.318 472.542 466.481 472.422 466.601C472.302 466.721 472.139 466.788 471.97 466.788Z" fill="#CCCCCC"/>
</g>
<defs>
<clipPath id="clip0_129_721">
<rect width="472.219" height="466.49" fill="white" transform="translate(0.390503 0.297852)"/>
</clipPath>
</defs>
</svg>
