<svg width="445" height="467" viewBox="0 0 445 467" fill="none" xmlns="http://www.w3.org/2000/svg">
<g clip-path="url(#clip0_129_532)">
<path d="M326.422 449.162L298.816 431.6L334.773 441.861C357.363 420.352 373.91 390.553 373.91 390.553C373.91 390.553 313.409 353.732 276.141 363.558C238.874 373.383 231.722 398.896 238.952 426.135C246.181 453.374 265.054 472.025 302.322 462.199C310.617 460.012 318.764 455.246 326.422 449.162Z" fill="#F2F2F2"/>
<path d="M296.071 425.936L294.234 426.42C272.852 431.941 255.24 432.745 241.639 428.795C241.44 428.741 241.247 428.675 241.048 428.621L241.321 427.705L241.594 426.828C256.336 431.302 274.975 429.345 293.626 424.534C294.229 424.385 294.841 424.234 295.447 424.064C303.325 421.958 311.173 419.375 318.716 416.562C319.302 416.349 319.894 416.125 320.487 415.901C330.425 412.136 339.783 408.02 347.849 404.206C348.42 403.939 348.989 403.663 349.549 403.389C363.175 396.878 372.831 391.354 374.963 390.113C375.226 389.967 375.368 389.88 375.402 389.862L375.876 390.658L375.888 390.665L376.364 391.47C376.33 391.489 375.853 391.78 374.956 392.288C371.613 394.207 362.505 399.304 350.267 405.178C349.714 405.441 349.145 405.717 348.573 405.984C342.031 409.086 334.672 412.374 326.861 415.5C324.9 416.289 322.96 417.043 321.039 417.763C320.449 417.996 319.857 418.22 319.271 418.432C311.117 421.475 303.383 423.976 296.071 425.936Z" fill="white"/>
<path d="M350.267 405.178C350.024 404.593 349.778 403.998 349.549 403.389C348.923 401.737 348.382 400.054 347.928 398.347C345.987 391.073 345.709 383.458 347.112 376.062C346.529 375.809 345.946 375.555 345.352 375.295C343.802 383.094 344.061 391.143 346.109 398.826C346.594 400.649 347.174 402.445 347.849 404.206C348.076 404.806 348.321 405.4 348.573 405.984C350.625 410.806 353.4 415.29 356.803 419.283C357.199 418.761 357.59 418.251 357.973 417.752C354.797 413.962 352.2 409.725 350.267 405.178Z" fill="white"/>
<path d="M321.039 417.763C320.837 417.147 320.653 416.526 320.487 415.901C320.427 415.713 320.374 415.513 320.324 415.323C318.231 407.439 318.082 399.167 319.89 391.213C321.698 383.259 325.409 375.858 330.706 369.643C330.073 369.421 329.44 369.2 328.801 368.991C323.477 375.417 319.767 383.016 317.976 391.156C316.186 399.297 316.367 407.746 318.505 415.803C318.572 416.056 318.64 416.31 318.716 416.562C318.894 417.194 319.078 417.814 319.271 418.432C322.337 427.979 328.097 436.443 335.861 442.813C336.321 442.382 336.781 441.95 337.238 441.51C329.635 435.334 324.005 427.081 321.039 417.763Z" fill="white"/>
<path d="M296.071 425.936C295.848 425.316 295.643 424.691 295.447 424.064C295.24 423.391 295.041 422.716 294.861 422.036C292.061 411.439 292.781 400.222 296.912 390.066C301.044 379.91 308.365 371.361 317.779 365.699C316.934 365.486 316.098 365.27 315.258 365.074C305.968 371.107 298.821 379.903 294.832 390.215C290.844 400.527 290.218 411.829 293.042 422.516C293.222 423.196 293.412 423.873 293.626 424.534C293.815 425.173 294.02 425.798 294.234 426.42C298.641 438.97 307.669 449.382 319.489 455.548C320.111 455.18 320.717 454.787 321.333 454.392C309.52 448.542 300.458 438.335 296.071 425.936Z" fill="white"/>
<path d="M259.545 463.1L123.033 408.333C114.853 405.041 108.317 398.648 104.859 390.559C101.401 382.469 101.304 373.343 104.589 365.182L243.677 20.7827C246.98 12.6293 253.394 6.11487 261.51 2.66861C269.627 -0.777647 278.784 -0.874311 286.971 2.39983L423.484 57.1665C431.664 60.4591 438.2 66.8514 441.658 74.9411C445.116 83.0307 445.212 92.157 441.927 100.318L302.84 444.717C299.536 452.87 293.123 459.385 285.006 462.831C276.89 466.277 267.733 466.374 259.545 463.1Z" fill="#161616"/>
<path d="M418.099 66.1047L402.904 60.0086C401.547 59.4658 400.029 59.4817 398.685 60.0528C397.34 60.6238 396.277 61.7034 395.73 63.0545C394.611 65.817 392.438 68.0243 389.688 69.1918C386.939 70.3594 383.836 70.3918 381.063 69.2821L306.746 39.4672C303.974 38.3522 301.759 36.1867 300.588 33.446C299.417 30.7053 299.384 27.6134 300.497 24.8488C301.042 23.4966 301.026 21.9843 300.453 20.6438C299.88 19.3033 298.797 18.2441 297.441 17.6987L284.043 12.3235C277.833 9.84121 270.888 9.91501 264.733 12.5287C258.577 15.1424 253.713 20.0826 251.206 26.2659L113.107 368.217C110.617 374.407 110.691 381.328 113.313 387.463C115.936 393.599 120.892 398.447 127.096 400.945L261.152 454.726C267.362 457.208 274.306 457.135 280.462 454.521C286.618 451.907 291.482 446.967 293.989 440.784L432.087 98.8327C434.578 92.6431 434.504 85.7217 431.882 79.5864C429.259 73.4511 424.303 68.6027 418.099 66.1047Z" fill="white"/>
<path d="M366.117 53.2279L324.191 36.4078C323.794 36.2485 323.476 35.9385 323.309 35.5459C323.141 35.1534 323.136 34.7105 323.296 34.3147C323.456 33.9189 323.767 33.6026 324.161 33.4353C324.555 33.2681 324.999 33.2637 325.396 33.423L367.322 50.2431C367.519 50.322 367.698 50.4387 367.849 50.5866C368.001 50.7345 368.122 50.9107 368.205 51.105C368.288 51.2994 368.332 51.5082 368.334 51.7194C368.336 51.9307 368.296 52.1403 368.217 52.3363C368.138 52.5322 368.021 52.7108 367.872 52.8616C367.724 53.0125 367.547 53.1328 367.352 53.2156C367.157 53.2984 366.948 53.3421 366.736 53.3442C366.524 53.3463 366.314 53.3068 366.117 53.2279Z" fill="white"/>
<path d="M373.308 55.6658C374.021 55.6658 374.599 55.0896 374.599 54.3788C374.599 53.668 374.021 53.0918 373.308 53.0918C372.595 53.0918 372.017 53.668 372.017 54.3788C372.017 55.0896 372.595 55.6658 373.308 55.6658Z" fill="white"/>
<path d="M400.704 205.84C399.99 205.552 399.419 204.994 399.117 204.288C398.815 203.582 398.807 202.785 399.093 202.072L420.309 149.54C420.597 148.828 421.157 148.26 421.866 147.959C422.574 147.659 423.374 147.651 424.088 147.937C424.802 148.224 425.373 148.782 425.675 149.487C425.978 150.193 425.986 150.99 425.7 151.702L404.484 204.235C404.196 204.947 403.636 205.515 402.927 205.816C402.218 206.117 401.419 206.126 400.704 205.84Z" fill="#161616"/>
<path d="M216.926 87.0216C216.212 86.7341 215.641 86.176 215.339 85.4696C215.037 84.7633 215.029 83.9665 215.316 83.2539L220.137 71.3147C220.279 70.9613 220.49 70.6393 220.757 70.3671C221.024 70.0948 221.342 69.8778 221.693 69.7282C222.045 69.5787 222.422 69.4997 222.804 69.4958C223.186 69.4918 223.565 69.5629 223.919 69.7051C224.274 69.8472 224.596 70.0576 224.869 70.3242C225.142 70.5908 225.359 70.9084 225.508 71.2588C225.658 71.6091 225.736 71.9854 225.74 72.3661C225.743 72.7468 225.671 73.1244 225.528 73.4773L220.706 85.4165C220.418 86.1284 219.858 86.6972 219.149 86.9981C218.44 87.299 217.641 87.3074 216.926 87.0216Z" fill="#161616"/>
<path d="M208.006 109.109C207.291 108.822 206.721 108.263 206.419 107.557C206.117 106.851 206.108 106.054 206.395 105.341L211.217 93.4022C211.359 93.0487 211.57 92.7266 211.837 92.4543C212.104 92.182 212.422 91.9648 212.773 91.8153C213.124 91.6657 213.502 91.5867 213.884 91.5827C214.266 91.5787 214.645 91.6498 214.999 91.792C215.354 91.9341 215.676 92.1446 215.949 92.4112C216.222 92.6779 216.439 92.9955 216.588 93.3459C216.738 93.6964 216.816 94.0727 216.82 94.4535C216.823 94.8342 216.751 95.2118 216.608 95.5648L211.786 107.504C211.497 108.216 210.937 108.785 210.229 109.086C209.52 109.386 208.721 109.395 208.006 109.109Z" fill="#161616"/>
<path d="M336.098 159.814L278.106 136.549C276.917 136.068 275.968 135.139 275.466 133.963C274.963 132.788 274.948 131.462 275.423 130.275L289.342 95.8117C289.823 94.6274 290.756 93.6814 291.935 93.1805C293.115 92.6795 294.445 92.6643 295.636 93.1382L353.628 116.404C354.816 116.884 355.765 117.813 356.267 118.988C356.77 120.164 356.786 121.49 356.31 122.677L342.392 157.14C341.91 158.324 340.978 159.27 339.798 159.771C338.619 160.272 337.289 160.288 336.098 159.814ZM294.658 95.5628C294.112 95.3458 293.502 95.3529 292.962 95.5826C292.421 95.8123 291.994 96.2458 291.773 96.7885L277.856 131.249C277.638 131.793 277.645 132.401 277.876 132.94C278.106 133.479 278.541 133.905 279.086 134.125L337.074 157.389C337.62 157.606 338.23 157.599 338.771 157.369C339.312 157.14 339.739 156.706 339.96 156.163L353.877 121.702C354.095 121.158 354.088 120.551 353.857 120.012C353.627 119.473 353.192 119.047 352.647 118.827L294.658 95.5628Z" fill="#161616"/>
<path d="M336.442 137.884L336.439 137.883L291.673 119.924C291.049 119.671 290.517 119.234 290.152 118.67C289.786 118.107 289.603 117.445 289.628 116.774L290.473 95.8765C290.494 95.3557 290.64 94.8476 290.899 94.3949C291.158 93.9421 291.523 93.558 291.962 93.2747C292.401 92.9913 292.901 92.8172 293.422 92.7667C293.942 92.7163 294.467 92.7911 294.953 92.9849L354.196 116.636C354.997 116.956 355.639 117.579 355.98 118.368C356.322 119.158 356.337 120.05 356.021 120.85L356.215 121.044L354.358 122.888L354.357 122.888L339.965 137.17C339.513 137.621 338.937 137.928 338.311 138.055C337.685 138.182 337.035 138.123 336.442 137.884Z" fill="#161616"/>
<path d="M302.826 139.404L282.916 131.416C282.426 131.219 282.034 130.836 281.827 130.352C281.62 129.867 281.615 129.32 281.812 128.831C282.009 128.342 282.393 127.952 282.88 127.745C283.366 127.539 283.915 127.533 284.405 127.729L304.315 135.717C304.805 135.914 305.197 136.297 305.404 136.782C305.611 137.266 305.617 137.813 305.419 138.302C305.222 138.791 304.838 139.181 304.351 139.388C303.865 139.595 303.316 139.6 302.826 139.404Z" fill="#161616"/>
<path d="M315.152 132.792C317.844 132.792 320.026 130.618 320.026 127.935C320.026 125.252 317.844 123.077 315.152 123.077C312.461 123.077 310.279 125.252 310.279 127.935C310.279 130.618 312.461 132.792 315.152 132.792Z" fill="white"/>
<path d="M249.623 373.938L191.631 350.672C190.443 350.192 189.493 349.263 188.991 348.087C188.488 346.911 188.473 345.585 188.949 344.398L202.867 309.935C203.348 308.751 204.281 307.805 205.46 307.304C206.64 306.803 207.97 306.788 209.161 307.262L267.153 330.527C268.341 331.007 269.29 331.937 269.793 333.112C270.295 334.287 270.311 335.613 269.835 336.8L255.917 371.264C255.435 372.448 254.503 373.394 253.323 373.895C252.144 374.396 250.814 374.411 249.623 373.938ZM208.183 309.686C207.637 309.469 207.028 309.476 206.487 309.706C205.947 309.936 205.519 310.369 205.298 310.912L191.381 345.373C191.163 345.917 191.171 346.525 191.401 347.064C191.632 347.602 192.067 348.028 192.611 348.249L250.599 371.512C251.145 371.73 251.755 371.723 252.296 371.493C252.837 371.263 253.264 370.829 253.486 370.286L267.403 335.826C267.62 335.282 267.613 334.674 267.383 334.135C267.152 333.597 266.717 333.171 266.172 332.951L208.183 309.686Z" fill="#161616"/>
<path d="M249.967 352.007L249.964 352.006L205.198 334.047C204.574 333.794 204.043 333.357 203.677 332.793C203.311 332.23 203.128 331.568 203.153 330.897L203.998 309.999C204.019 309.479 204.165 308.971 204.424 308.518C204.683 308.065 205.048 307.681 205.487 307.398C205.926 307.114 206.426 306.94 206.947 306.89C207.467 306.839 207.992 306.914 208.478 307.108L267.721 330.759C268.522 331.079 269.164 331.702 269.505 332.491C269.847 333.281 269.862 334.173 269.546 334.973L269.74 335.167L267.883 337.011L267.882 337.011L253.49 351.293C253.038 351.744 252.463 352.051 251.836 352.178C251.21 352.305 250.56 352.246 249.967 352.007Z" fill="#161616"/>
<path d="M216.351 353.527L196.441 345.54C195.951 345.343 195.559 344.96 195.352 344.475C195.145 343.99 195.14 343.443 195.337 342.955C195.534 342.466 195.919 342.075 196.405 341.869C196.891 341.662 197.44 341.656 197.93 341.853L217.84 349.84C218.083 349.938 218.304 350.082 218.491 350.265C218.678 350.447 218.827 350.665 218.93 350.905C219.033 351.145 219.087 351.403 219.089 351.664C219.092 351.925 219.043 352.184 218.945 352.426C218.847 352.668 218.703 352.889 218.52 353.075C218.336 353.261 218.118 353.41 217.877 353.512C217.636 353.614 217.377 353.668 217.116 353.671C216.854 353.674 216.594 353.625 216.351 353.527Z" fill="#161616"/>
<path d="M228.677 346.916C231.369 346.916 233.551 344.741 233.551 342.058C233.551 339.375 231.369 337.201 228.677 337.201C225.986 337.201 223.804 339.375 223.804 342.058C223.804 344.741 225.986 346.916 228.677 346.916Z" fill="white"/>
<path d="M272.597 286.657C302.039 286.657 325.906 262.869 325.906 233.525C325.906 204.181 302.039 180.393 272.597 180.393C243.156 180.393 219.289 204.181 219.289 233.525C219.289 262.869 243.156 286.657 272.597 286.657Z" fill="currentColor"/>
<path d="M292.829 266.863L234.836 243.597C233.648 243.117 232.699 242.188 232.196 241.012C231.694 239.837 231.679 238.51 232.154 237.324L246.072 202.86C246.554 201.676 247.486 200.73 248.666 200.229C249.845 199.728 251.176 199.713 252.366 200.187L310.358 223.453C311.546 223.933 312.495 224.862 312.998 226.037C313.501 227.213 313.516 228.539 313.041 229.725L299.123 264.189C298.641 265.373 297.708 266.319 296.529 266.82C295.35 267.321 294.019 267.337 292.829 266.863ZM251.389 202.612C250.843 202.395 250.233 202.402 249.693 202.631C249.152 202.861 248.725 203.295 248.504 203.837L234.587 238.298C234.369 238.842 234.376 239.45 234.607 239.989C234.837 240.528 235.272 240.954 235.817 241.174L293.804 264.438C294.35 264.655 294.961 264.648 295.501 264.418C296.042 264.189 296.47 263.755 296.691 263.212L310.608 228.751C310.826 228.207 310.819 227.6 310.588 227.061C310.358 226.522 309.923 226.096 309.378 225.876L251.389 202.612Z" fill="#161616"/>
<path d="M293.172 244.933L293.169 244.932L248.403 226.972C247.779 226.72 247.248 226.283 246.882 225.719C246.516 225.156 246.334 224.493 246.359 223.823L247.204 202.925C247.225 202.405 247.371 201.896 247.63 201.444C247.889 200.991 248.253 200.607 248.692 200.323C249.131 200.04 249.632 199.866 250.152 199.816C250.673 199.765 251.198 199.84 251.683 200.034L310.927 223.685C311.728 224.005 312.369 224.628 312.711 225.417C313.053 226.207 313.068 227.099 312.752 227.899L312.946 228.093L311.088 229.937L311.088 229.937L296.696 244.219C296.243 244.669 295.668 244.977 295.042 245.104C294.415 245.231 293.765 245.172 293.172 244.933Z" fill="#161616"/>
<path d="M259.557 246.453L239.647 238.465C239.156 238.268 238.765 237.885 238.558 237.4C238.351 236.916 238.345 236.369 238.543 235.88C238.74 235.391 239.124 235.001 239.61 234.794C240.097 234.587 240.645 234.582 241.136 234.778L261.046 242.766C261.536 242.963 261.928 243.346 262.135 243.83C262.342 244.315 262.347 244.862 262.15 245.351C261.952 245.84 261.568 246.23 261.082 246.437C260.596 246.643 260.047 246.649 259.557 246.453Z" fill="#161616"/>
<path d="M128.541 272.417C128.546 271.4 128.328 270.395 127.901 269.472C127.474 268.549 126.85 267.73 126.071 267.074C125.293 266.417 124.379 265.939 123.395 265.672C122.411 265.405 121.38 265.357 120.375 265.531L108.372 243.913L102.397 255.287L114.711 274.072C115.115 275.735 116.118 277.193 117.528 278.169C118.938 279.145 120.659 279.571 122.364 279.367C124.068 279.163 125.639 278.343 126.777 277.062C127.916 275.781 128.543 274.128 128.541 272.417Z" fill="#FFB6B6"/>
<path d="M120.786 185.098L108.443 184.235C108.443 184.235 106.922 184.028 102.741 190.637C98.5596 197.246 84.2268 230.758 84.2268 230.758L109.337 267.084L117.493 258.992L102.912 229.762L116.888 210.199L120.786 185.098Z" fill="currentColor"/>
<path d="M256.862 224.369C256.035 224.683 255.149 224.813 254.266 224.749C253.383 224.685 252.524 224.429 251.751 223.999C250.978 223.569 250.309 222.975 249.792 222.259C249.274 221.543 248.92 220.723 248.754 219.856L227.463 216.732L234.914 208.419L253.99 212.661C255.47 212.48 256.965 212.847 258.191 213.692C259.417 214.537 260.29 215.8 260.644 217.243C260.998 218.687 260.808 220.209 260.111 221.522C259.414 222.836 258.258 223.848 256.862 224.369Z" fill="#FFB6B6"/>
<path d="M175.018 456.825H184.116L188.445 421.847L175.017 421.847L175.018 456.825Z" fill="#FFB6B6"/>
<path d="M172.697 453.865L175.258 453.865L185.256 449.812L190.615 453.864H190.616C193.644 453.864 196.549 455.063 198.69 457.198C200.832 459.332 202.035 462.227 202.035 465.245V465.615L172.698 465.616L172.697 453.865Z" fill="#161616"/>
<path d="M120.133 456.825H129.232L133.56 421.847L120.132 421.847L120.133 456.825Z" fill="#FFB6B6"/>
<path d="M117.813 453.865L120.374 453.865L130.372 449.812L135.731 453.864H135.732C138.76 453.864 141.665 455.063 143.806 457.198C145.947 459.332 147.151 462.227 147.151 465.245V465.615L117.813 465.616L117.813 453.865Z" fill="#161616"/>
<path d="M123.643 284.581L117.63 320.71L119.652 436.848H134.452L157.192 314L173.549 434.829L188.431 434.187L195.858 312.223L189.184 281.092L123.643 284.581Z" fill="#161616"/>
<path d="M178.025 177.137L162.184 174.811L158.816 166.095L136.498 166.064L131.483 177.445L108.677 184.307L127.572 248.999C127.572 248.999 117.159 273.04 119.72 273.143C122.281 273.246 123.543 276.896 121.756 278.814C119.97 280.732 116.386 279.512 118.178 282.425C119.205 284.002 119.892 285.773 120.198 287.628C120.198 287.628 195.765 303.708 191.579 282.973C191.058 280.396 184.744 244.686 184.744 244.686C184.744 244.686 190.242 238.622 187.892 236.213C185.542 233.803 186.783 208.352 186.783 208.352L178.025 177.137Z" fill="currentColor"/>
<path d="M175.432 179.964L178.025 177.137L213.249 197.723L243.054 209.57L243.632 219.935L204.924 215.328L177.528 201.977L175.432 179.964Z" fill="currentColor"/>
<path d="M165.638 141.098C165.638 143.538 165.156 145.955 164.219 148.21C163.282 150.464 161.908 152.513 160.177 154.239C158.445 155.965 156.39 157.333 154.127 158.267C151.865 159.201 149.441 159.682 146.992 159.682C145.523 159.68 144.06 159.509 142.631 159.174C139.225 158.359 136.119 156.605 133.666 154.112C131.214 151.62 129.516 148.49 128.765 145.08C128.015 141.67 128.242 138.119 129.422 134.832C130.602 131.545 132.687 128.656 135.437 126.495C138.188 124.334 141.493 122.989 144.975 122.613C148.457 122.237 151.975 122.845 155.126 124.369C158.278 125.892 160.935 128.269 162.794 131.228C164.653 134.186 165.638 137.607 165.638 141.098Z" fill="#FFB6B6"/>
<path d="M151.986 156.168L138.594 158.742C137.346 159.078 136.039 159.133 134.768 158.901C132.776 158.378 131.441 156.545 130.421 154.761C125.693 146.404 124.204 136.609 126.236 127.231C126.694 125.161 127.671 122.789 129.756 122.368C130.361 122.245 131.046 122.293 131.525 121.905C132.231 121.333 131.999 120.119 131.305 119.532C130.552 119.014 129.664 118.727 128.749 118.704C129.34 118.011 130.071 117.451 130.895 117.061C131.719 116.67 132.616 116.458 133.528 116.438L129.946 114.454C131.671 113.261 133.99 113.37 136.025 113.885C138.06 114.401 140.02 115.274 142.11 115.469C144.736 115.715 147.326 114.874 149.943 114.549C153.847 114.127 157.791 114.83 161.306 116.574C164.822 118.318 167.762 121.03 169.778 124.389C170.489 125.509 170.939 126.774 171.096 128.09C171.168 128.748 171.085 129.414 170.854 130.034C170.622 130.655 170.249 131.213 169.763 131.665C168.296 132.894 165.986 132.713 164.566 133.995C163.471 134.983 163.198 136.579 163.136 138.049C163.074 139.52 163.145 141.057 162.512 142.387C161.88 143.718 160.229 144.718 158.91 144.057C158.852 142.235 156.745 140.945 154.955 141.321C153.165 141.697 151.844 143.319 151.329 145.069C150.814 146.818 150.967 148.687 151.191 150.496C151.415 152.305 151.707 154.136 151.455 155.941" fill="#161616"/>
<path d="M269.802 240.381C272.494 240.381 274.676 238.206 274.676 235.523C274.676 232.84 272.494 230.666 269.802 230.666C267.111 230.666 264.929 232.84 264.929 235.523C264.929 238.206 267.111 240.381 269.802 240.381Z" fill="currentColor"/>
<path d="M375.327 466.49H1.36632C1.18423 466.489 1.00977 466.417 0.881192 466.288C0.752617 466.16 0.68042 465.986 0.68042 465.804C0.68042 465.623 0.752617 465.449 0.881192 465.32C1.00977 465.192 1.18423 465.119 1.36632 465.119H375.327C375.51 465.119 375.685 465.191 375.814 465.319C375.943 465.448 376.015 465.622 376.015 465.804C376.015 465.986 375.943 466.161 375.814 466.289C375.685 466.418 375.51 466.49 375.327 466.49Z" fill="currentColor"/>
</g>
<defs>
<clipPath id="clip0_129_532">
<rect width="443.657" height="466.49" fill="white" transform="translate(0.678467)"/>
</clipPath>
</defs>
</svg>
