<svg width="400" height="400" viewBox="0 0 400 400" fill="none" xmlns="http://www.w3.org/2000/svg">
<circle opacity="0.4" cx="200" cy="200" r="200" fill="#25D5A4"/>
<circle opacity="0.5" cx="200" cy="200" r="175" fill="#25D5A4"/>
<circle cx="200" cy="200" r="160" fill="#25D5A4"/>
<path d="M148.438 265.875C125 265.875 106.25 247.125 106.25 223.688C106.25 205.523 117.969 189.703 134.375 184.137C134.375 183.258 134.375 182.379 134.375 181.5C134.375 155.719 155.176 134.625 181.25 134.625C198.535 134.625 213.77 144.293 221.68 158.355C226.074 155.133 231.641 153.375 237.5 153.375C253.027 153.375 265.625 165.973 265.625 181.5C265.625 185.309 264.746 188.531 263.574 191.754C280.859 195.27 293.75 210.504 293.75 228.375C293.75 249.176 276.758 265.875 256.25 265.875H148.438ZM171.582 202.301C168.652 205.23 168.652 209.625 171.582 212.262C174.219 215.191 178.613 215.191 181.25 212.262L192.969 200.836V240.094C192.969 244.195 195.898 247.125 200 247.125C203.809 247.125 207.031 244.195 207.031 240.094V200.836L218.457 212.262C221.094 215.191 225.488 215.191 228.125 212.262C231.055 209.625 231.055 205.23 228.125 202.301L204.688 178.863C202.051 176.227 197.656 176.227 195.02 178.863L171.582 202.301Z" fill="white"/>
</svg>
