<svg width="42" height="46" viewBox="0 0 42 46" fill="none" xmlns="http://www.w3.org/2000/svg">
<path d="M19.0115 45.4998C17.9887 45.4998 17.0342 45.2696 16.1478 44.8094C15.2615 44.3492 14.5285 43.6929 13.949 42.8407L0.90918 23.7668L2.13645 22.5907C2.78418 21.9429 3.55123 21.5679 4.43759 21.4657C5.32395 21.3634 6.12509 21.5679 6.841 22.0793L12.7728 26.2213V6.63612C12.7728 6.05657 12.9688 5.57078 13.3609 5.17873C13.7529 4.78669 14.2387 4.59066 14.8183 4.59066C15.3978 4.59066 15.8836 4.78669 16.2757 5.17873C16.6677 5.57078 16.8637 6.05657 16.8637 6.63612V34.0963L9.29554 28.7782L17.324 40.4884C17.4944 40.7611 17.733 40.9827 18.0399 41.1532C18.3467 41.3236 18.6705 41.4088 19.0115 41.4088H33.2274C34.3524 41.4088 35.3154 41.0083 36.1166 40.2071C36.9177 39.406 37.3183 38.4429 37.3183 37.3179V8.68157C37.3183 8.10203 37.5143 7.61623 37.9063 7.22419C38.2984 6.83214 38.7842 6.63612 39.3637 6.63612C39.9433 6.63612 40.4291 6.83214 40.8211 7.22419C41.2132 7.61623 41.4092 8.10203 41.4092 8.68157V37.3179C41.4092 39.5679 40.608 41.4941 39.0058 43.0963C37.4035 44.6986 35.4774 45.4998 33.2274 45.4998H19.0115ZM20.9546 22.9998V2.54521C20.9546 1.96566 21.1507 1.47987 21.5427 1.08782C21.9347 0.695779 22.4205 0.499756 23.0001 0.499756C23.5796 0.499756 24.0654 0.695779 24.4575 1.08782C24.8495 1.47987 25.0455 1.96566 25.0455 2.54521V22.9998H20.9546ZM29.1365 22.9998V4.59066C29.1365 4.01112 29.3325 3.52532 29.7245 3.13328C30.1166 2.74123 30.6024 2.54521 31.1819 2.54521C31.7615 2.54521 32.2472 2.74123 32.6393 3.13328C33.0313 3.52532 33.2274 4.01112 33.2274 4.59066V22.9998H29.1365Z" fill="#25D5A4"/>
</svg>
