<svg width="42" height="42" viewBox="0 0 42 42" fill="none" xmlns="http://www.w3.org/2000/svg">
<path d="M14.4184 22.891L17.2309 24.7831L21.1684 22.7888L25.1059 24.7831L27.8161 22.9933L25.7707 18.9535H16.3616L14.4184 22.891ZM7.31046 37.3626H34.9752L29.657 26.6751L25.4127 29.4876L21.1684 27.391L16.9241 29.4876L12.5775 26.624L7.31046 37.3626ZM0.713867 41.4535L12.6798 17.1638C13.0207 16.4819 13.5235 15.928 14.1883 15.5018C14.8531 15.0757 15.5775 14.8626 16.3616 14.8626H19.123V0.544434H33.4411L31.3957 4.63534L33.4411 8.72625H23.2139V14.8626H25.7707C26.5548 14.8626 27.2707 15.0672 27.9184 15.4763C28.5661 15.8853 29.0775 16.4308 29.4525 17.1126L41.623 41.4535H0.713867Z" fill="#25D5A4"/>
</svg>
