<svg width="41" height="41" viewBox="0 0 41 41" fill="none" xmlns="http://www.w3.org/2000/svg">
<path d="M12.7884 40.4088H5.01571C3.89071 40.4088 2.92765 40.0083 2.12651 39.2071C1.32537 38.406 0.924805 37.4429 0.924805 36.3179V28.5452C2.56117 28.5452 3.99299 28.0253 5.22026 26.9855C6.44753 25.9458 7.06117 24.6247 7.06117 23.0225C7.06117 21.4202 6.44753 20.0992 5.22026 19.0594C3.99299 18.0196 2.56117 17.4997 0.924805 17.4997V9.72701C0.924805 8.60201 1.32537 7.63894 2.12651 6.8378C2.92765 6.03667 3.89071 5.6361 5.01571 5.6361H13.1975C13.1975 4.20428 13.6918 2.99405 14.6805 2.00542C15.6691 1.01678 16.8793 0.522461 18.3112 0.522461C19.743 0.522461 20.9532 1.01678 21.9418 2.00542C22.9305 2.99405 23.4248 4.20428 23.4248 5.6361H31.6066C32.7316 5.6361 33.6947 6.03667 34.4958 6.8378C35.297 7.63894 35.6975 8.60201 35.6975 9.72701V17.9088C37.1293 17.9088 38.3396 18.4031 39.3282 19.3918C40.3168 20.3804 40.8112 21.5906 40.8112 23.0225C40.8112 24.4543 40.3168 25.6645 39.3282 26.6531C38.3396 27.6418 37.1293 28.1361 35.6975 28.1361V36.3179C35.6975 37.4429 35.297 38.406 34.4958 39.2071C33.6947 40.0083 32.7316 40.4088 31.6066 40.4088H23.8339C23.8339 38.7043 23.297 37.2554 22.2231 36.0622C21.1492 34.8691 19.8453 34.2725 18.3112 34.2725C16.7771 34.2725 15.4731 34.8691 14.3992 36.0622C13.3254 37.2554 12.7884 38.7043 12.7884 40.4088ZM5.01571 36.3179H9.3623C10.1805 34.0679 11.493 32.4827 13.2998 31.5622C15.1066 30.6418 16.7771 30.1816 18.3112 30.1816C19.8453 30.1816 21.5157 30.6418 23.3225 31.5622C25.1293 32.4827 26.4418 34.0679 27.26 36.3179H31.6066V24.0452H35.6975C35.9703 24.0452 36.2089 23.9429 36.4134 23.7384C36.618 23.5338 36.7203 23.2952 36.7203 23.0225C36.7203 22.7497 36.618 22.5111 36.4134 22.3066C36.2089 22.102 35.9703 21.9997 35.6975 21.9997H31.6066V9.72701H19.3339V5.6361C19.3339 5.36337 19.2316 5.12473 19.0271 4.92019C18.8225 4.71564 18.5839 4.61337 18.3112 4.61337C18.0384 4.61337 17.7998 4.71564 17.5953 4.92019C17.3907 5.12473 17.2884 5.36337 17.2884 5.6361V9.72701H5.01571V14.227C6.85662 14.9088 8.33958 16.0509 9.46458 17.6531C10.5896 19.2554 11.1521 21.0452 11.1521 23.0225C11.1521 24.9656 10.5896 26.7384 9.46458 28.3406C8.33958 29.9429 6.85662 31.102 5.01571 31.8179V36.3179Z" fill="#25D5A4"/>
</svg>
