<svg id="Capa_1" data-name="Capa 1" xmlns="http://www.w3.org/2000/svg" viewBox="0 0 500 500"><defs><style>.cls-1{fill:#fdc093;}.cls-2{fill:#634e42;}.cls-3{fill:#db6d22;}.cls-4{fill:#1d1d1b;}.cls-4,.cls-8,.cls-9{opacity:0.15;}.cls-5{fill:#1c1714;}.cls-6{fill:#230f35;}.cls-7{fill:#200d33;}.cls-10,.cls-8{fill:#606060;}</style></defs><path class="cls-1" d="M222.73,205.62c-.1-1.59,0-2.79-2.15-3.72-9.88-4.18-18.86-9.7-24.82-19.08-.68-1.06-1.27-2.31-2.95-2.47-11-1-17.23-7.16-18.82-18.06.43-6.32,1.12-7,9.22-9.06,2.21.27,2.47,2.33,3.39,3.76a22.5,22.5,0,0,0,2.17,3.37c.31.32.68.57,1.81.45q.61-5.82,1-12.14c.35-6.77.41-13.19.24-19.2,7.74-12.65,12.48-16.4,15.46-17.3a17.32,17.32,0,0,0,6-3,17,17,0,0,0,3.53-3.77c.63-1.69,1.31-3.34,3-4.34,1.42-.66,2.85-1.32,4.23-2.07a31.32,31.32,0,0,1,9.65-2c2.35-.08,4.72.23,7-.5a16.62,16.62,0,0,1,3.51-.38c.7,0,1.39,0,2.08,0,2.74.22,5.32-.8,8-1.11a5.13,5.13,0,0,1,2.63.67c3.78,2.73,5.73,6.84,7.83,10.77,1.65,3.1,3.41,6.34,6.47,7.87,7,3.51,7.91,9.64,7.8,16.26a50.7,50.7,0,0,0,2.41,16.79c.19.56.2,1.21.93,1.56,2-1.21,2-4.88,5.3-4.68,4.62-2.22,8.61-.42,10,4.51,2.58,9.13-3.8,20.33-13.13,22.45a4.26,4.26,0,0,0-3.66,3.17,44.85,44.85,0,0,1-15.93,21.26c-3.3,2.5-3.48,5.65-3.42,9.14-1.78-2-3.51-3.22-6.57-2.05-2.24.85-3.36-1.49-4.06-3.35-2.14-5.63-6.15-9.53-11.3-12.35a12.69,12.69,0,0,0-16,2.88c-1.61,1.84-1.41,3.15,1,4.05,2.06.78,4.11.48,6.21.27a8,8,0,0,1,8.31,6.09c.53,2.26-.2,3.93-2.57,3.39A19.6,19.6,0,0,0,222.73,205.62Z"/><path class="cls-2" d="M287.56,144.19c-3,1.81-3.31,5.52-5.77,8.74-1.54-6-3.79-11.1-4-16.76-.06-2.25-.13-4.5-.12-6.75,0-5.88-.73-11.1-7.08-14.07-3.72-1.73-5.65-5.65-7.5-9.3s-3.83-7.14-6.87-9.93a14,14,0,0,1-6.59,1.75c-2.3,0-2.62-.62-5.27-.72-3.56-.13-4.33.95-7.88.95-3,0-3.58-.76-5.76-.92-2.48-.18-6.08.47-10.77,4.45l-2.66,3.72c-3,5.9-8.62,7.89-14.3,9.83l-2.42,1.87c-1.91,5.12-4.22,10-8.07,14a1.22,1.22,0,0,0-.82,1.2,1.26,1.26,0,0,0,1.46,1.05c.31,1,.08,2.1.48,3.1.39,5,.45,9.87-1.55,14.59-1.17,2.78-.4,5.6,0,8.42.2,1.35.91,3.21-1.1,3.85-1.79.57-2.79-.95-3.53-2.19-1.54-2.55-2.86-5.22-4.27-7.85-1.5-4.06-3.51-8-4-12.36a2.54,2.54,0,0,0-1.86-2.25c-7.06-2.89-8.53-9.31-6.38-17.06a31.13,31.13,0,0,1,8.39-14.17,78.51,78.51,0,0,0,12.87-17.25c12.37-21.32,39.4-29.86,62.13-19.81,2.91,1.28,5.84,2.77,7.72,5.31,7.41,10,17.17,17.65,25.8,26.41,6.22,6.3,6.9,15.89,1.76,23.58-.5.74-1.28,1.27-1.19,2.29C287.74,133.31,289,138.83,287.56,144.19Z"/><path class="cls-1" d="M373.39,324.48a7.37,7.37,0,0,0-4.28-1c-9.11-.23-18.15.87-27.23,1.36-2.59,0-5.19,0-7.81,0-2.2,0-4.4,0-6.58,0-1-.47-1.3.42-1.78.95l0,9.2c-1.59-.21-3.23.06-4.4-1.64-2.64-3.8-5.67-7.34-8.2-11.2q-11.15-17-21.4-34.5c-8.59-14.66-16.91-29.43-23.9-44.94-1.3-.34-1.42-1.53-1.84-2.51a6,6,0,0,1,0-1.34,16.84,16.84,0,0,0-.85-3c-4.47-12.41-10-24.39-14.37-36.84a19.28,19.28,0,0,0-6.85-9.32c-5.68-4.1-9.54-7.08-17.11-2.23-2,1.27-5.18,2.26-4.23,5,1,3,4.27,2.63,7,2.07.14,0,.28-.09.42-.13,3.5-1.18,5.75.69,7.64,3.23,1.35,1.81,1.89,4,2.52,6.37a55.68,55.68,0,0,1-5.92-.63c-3-.52-6.43-1.44-9,1.21a32.11,32.11,0,0,0-7.19,10.78c-.48,1.27-1.15,2.69,0,3.8s2.56.28,3.61-.58a16.87,16.87,0,0,1,13.19-3.82c-.9,0-2.51-.07-4.11,0-5.21.3-10.73,4.23-11.85,8.32-.24.92-.57,1.87.35,2.43a1.66,1.66,0,0,0,2-.53,7.64,7.64,0,0,0-1.29,2.69c-1.86,6.71-.09,11.48,5.37,14.5a6.93,6.93,0,0,0,1.26.43c2,.31,4.13.51,5.19-1.58a2.87,2.87,0,0,0,.32-1.17,67.65,67.65,0,0,1,3.92,11.68c.51,3.37,2.9,5.6,5.16,7.7a16.36,16.36,0,0,1,2.56,3,16.55,16.55,0,0,1,2,4.08c4.87,14.9,10.67,29.51,14.8,44.62.53,1.94,6.37,17.39,18.06,48.29a208.79,208.79,0,0,0,13.44,29c5.88,10.48,9.67,15,14.1,18.77a52.32,52.32,0,0,0,17.58,9.79,32.35,32.35,0,0,0,5.78,1.43c11.48,1.54,20.67-5,22.44-6.3,6.37-4.74,9.08-10.53,12.15-17.33,1.34-3,2.4-5.81,8-38.2A153.85,153.85,0,0,0,374,330.64C374,328.58,374.68,326.42,373.39,324.48Zm-143.78-88.4c-.51-.59-1.68-1.09-.07-2.34.61,1.37,1.23,2.72,1.82,4.09C230.82,237.22,230.14,236.67,229.61,236.08Zm2.5-14.53c-5-.16-8.34.71-10.3,2.79,2.72-3,6.36-3.19,10.15-2.92.23,0,.33-.08.3-.23C232.14,220.6,232.72,221.55,232.11,221.55Z"/><path class="cls-3" d="M373.41,324.89c-10.83-.7-21.59,1.26-32.42.79-4.57.68-9.14,1.13-13.62-.56-1.16-1.44-.9-3.18-.75-4.77,1.05-11.48,1.1-23,2.52-34.5a58,58,0,0,0,.36-10.31c.05,8-1.3,16-1.54,24-.25,8.69-2,17.31-1.17,26a22.5,22.5,0,0,1-.31,8.34c-2.59,3.09-4.68,1.41-6.55-.82-4.83-5.74-8.5-12.28-12.69-18.46-11.18-16.51-20.95-33.85-30.5-51.31-3.63-6.65-7.25-13.4-9.78-20.62a4.62,4.62,0,0,1,.4-2c3.37-3.73,7.16-7,9.75-11.51,1.51-2.6,4.48-1.43,6.92-1a253.09,253.09,0,0,1,30.33,8c15.16,5.06,29.54,11.61,41.84,22.13,9.82,8.39,14.17,19.59,16.16,31.79,1.44,8.86,3.83,17.59,4.15,26.63a4.19,4.19,0,0,1,1.75,3.09C378.55,325.37,377.87,326.07,373.41,324.89Z"/><path class="cls-1" d="M267.91,240.78c-.49.94-1.2,1.62-1.74,1.52s-1.3-1.44-1-3.28c-4.7-13.37-10.9-26.15-15.32-39.64-1.91-5.84-6.25-10.1-12-12.64-4.14-1.83-10.82.06-13.89,3.57-1.56,1.78-.83,2.71.95,3.2a8.35,8.35,0,0,0,3.52.1c6.34-1.15,9.14.28,11.42,6.3a13.42,13.42,0,0,0,4.09,6c-4.14-.73-7-1.22-9.91-1.74-4.35-.8-8.36-.84-10.72,3.94-.72,1.46-2.1,2.58-2.84,4-1,1.94-3.45,4.46-1.82,6s3.55-1.41,5.33-2.41c5.16-2.91,10.69-1.81,16.4-1.09-8.22,1-17.37-.14-20.88,10.41,4.24-6.27,10.7-3.12,16.27-4.12-5.21,1.48-12-.33-14.63,6.38-2,5.14.26,11,5.17,14.47-4.72,1.29-8-.65-8.37-5.4-.34-4.53-.85-9.12.15-13.67-2.86-4.81-.69-8.9,1.87-12.93.88-1.39,1.82-2.75,2.74-4.12,3.41-4.33,7.94-4.17,12.66-3.13.88.19,1.87.75,2.57.12,1-.87.22-2.07-.2-2.87-1.6-3-3.52-5.34-7.71-4.34-3.19.76-7.39,1-8.73-2.49-1.47-3.84,2.83-5.23,5.36-6.69,7.12-4.09,16-1.44,21.46,6.15a21.83,21.83,0,0,1,3.32,5.85c1.39,4.35,3.62,4.55,6.88,2.06a7.84,7.84,0,0,1,1.46-.71c1.59,1.57,0,3.83,1.62,5.15.33,4.47,2.11,8.5,3.83,12.54-.59,2.05-.59,2.05-4.94,1.31,3.12,5.53,4.32,11.1,6.5,16.37C267.56,236.76,269.19,238.53,267.91,240.78Z"/><path class="cls-4" d="M266.78,242.3l-1-3.28c-4.7-13.37-10.9-26.15-15.32-39.64-1.91-5.84-6.25-10.1-12-12.64-4.15-1.83-10.82.06-13.89,3.57-1.56,1.78-.83,2.71.94,3.2a8.4,8.4,0,0,0,3.53.1c6.33-1.15,9.14.28,11.42,6.3a13.3,13.3,0,0,0,4.08,6c-4.13-.73-7-1.22-9.9-1.74-4.36-.8-8.36-.84-10.73,3.94-.72,1.46-2.09,2.58-2.83,4-1,1.94-3.45,4.46-1.83,6,1.77,1.68,3.55-1.41,5.34-2.41,5.15-2.91,10.68-1.81,16.39-1.09-8.21,1-17.36-.14-20.87,10.41,4.23-6.27,10.7-3.12,16.26-4.12-4.11,1.17-9.2.29-12.46,3.17a9.23,9.23,0,0,0-2.16,3.21c-2.56,6.3,3.06,13.19,3.49,13.71-.71.28-2.87,1.06-4.57,0-1.47-.89-2-2.69-2.12-4.67-.34-4.53-.86-9.12.15-13.67-2.87-4.81-.7-8.9,1.86-12.93.89-1.39,1.83-2.75,2.74-4.12,3.41-4.33,7.94-4.17,12.66-3.13.88.19,1.87.75,2.58.12,1-.87.21-2.07-.21-2.87-1.59-3-3.51-5.34-7.71-4.34-3.19.76-7.38,1-8.73-2.49-1.47-3.84,2.83-5.23,5.36-6.69,7.13-4.09,16-1.44,21.46,6.15a21.87,21.87,0,0,1,3.33,5.85c.66,2.08,1.52,3.21,2.59,3.55s1.69-.53,4.29-1.49a23.56,23.56,0,0,1,2.86-.86,14.26,14.26,0,0,0-.59,2.82c-.11,1-.24,3.3,1.43,8.49a54.48,54.48,0,0,0,2.59,6.53,1.76,1.76,0,0,1-.1,1.54c-.57.8-2.35.9-4.22-.23a28.67,28.67,0,0,1,6.49,16.37A26.7,26.7,0,0,1,266.78,242.3Z"/><path class="cls-1" d="M267.91,240.78c-3-7.87-6-15.73-8.89-23.45,2.39-1.78,4.17,2.54,6.23-.07a26.4,26.4,0,0,0,8.42,7.91,25.67,25.67,0,0,0,5.37,2.39,31.46,31.46,0,0,1-2.72,4.87A31.78,31.78,0,0,1,267.91,240.78Z"/><path class="cls-3" d="M237.19,250.73c-.5,3.28,2.21,5.41,4,6.57,5,3.25,5.55,8.62,7.52,13.27,2.5,5.93,4,12.32,5.86,18.4,1.73,5.55,4.52,11,5.17,16.9,2.2,9.95,3.42,20.08,5.61,30,1.75,7.93,4.14,15.68,6.25,23.5.71,2.66.91,5.08-1.92,6.67-10.76,3.47-21.86,5-33,6.57a295.18,295.18,0,0,1-33.55,3.08c-7.7.2-13.47-4.32-15.69-11.71a136.44,136.44,0,0,1-5.62-29.08c1.12-3.33-.18-6.61-.75-9.74-2.15-11.89-4.23-23.78-6-34.93,1.78,12.93,4.49,26.5,6.87,40.14.58,3.3-1.35,4.62-4.11,5.35-11.68.33-23.33,1.08-35,2.13-2.35.22-4.82.36-6.91-1.25-3.48.33-5.44-.2-4.47-4.7,3.81-17.69,5.88-35.78,13.19-52.63,6.13-14.1,15.49-25.13,29.07-32.5,9.91-5.39,20.6-8.94,31-13.28,3.54-1.4,5.61.71,7.52,3.15,5.64,7.19,13.18,11,22.09,12.27A5.47,5.47,0,0,1,237.19,250.73Z"/><path class="cls-1" d="M289.52,402.28a4.07,4.07,0,0,1-.45,1.31c-6.23,4.83-13.61,7.51-20.63,10.85-6.26,2.46-12.63,4.62-19,6.87a189.38,189.38,0,0,1-21,6.44c-7.41,1.72-14.66,4.1-22.28,5.05a64.28,64.28,0,0,1-16.91.31,64.49,64.49,0,0,1-20.8-9.31,63.79,63.79,0,0,1-14.27-13.35c-2.24-2.87-7.68-10.37-12.51-28a159,159,0,0,1-5.6-41.42h0c0-1.48-.12-2.95-.18-4.42,14.21-.33,28.34-2.39,42.58-2a1.3,1.3,0,0,1,1.44-.11l.15,0c1-.31,2-.58,2.86.26,1.07,10.7,2.74,21.36,6.6,31.39,1.9,4.93,6.23,8.08,12.2,8.33,10.07.41,20-1.27,29.94-2.14,15.18-1.34,17.38-2.41,27.69-4.41,5.27-1,9.73-2,13.09-2.76,1.21,2.24,2.19,4.09,2.84,5.33,12.47,23.71,10.79,23.58,12.52,26.78C288.7,398.85,289.76,400.34,289.52,402.28Z"/><path class="cls-1" d="M234.5,249.86c-9.39-.44-16.76-4.83-22.66-11.86-1.94-2.32-3.63-4.79-7.14-4.48,1.8-.31,8.45-1.67,11.92-7.37a13.92,13.92,0,0,0,1.5-3.48c.42,4.7,1.07,9.36,1.1,14.11,0,4.42,3.93,4.45,7.12,5h0a3.79,3.79,0,0,0,2.85.88c1.5,0,3.61-1.73,4.37.23C234.38,245,236.22,247.28,234.5,249.86Z"/><path class="cls-4" d="M193.66,136.4l-.9-3c-.16-.95-1.39-1.59-.8-2.75,3.39-4.17,5.23-9.27,8.25-13.65.33-1.41,1.6-1.86,2.6-2.59,5.69-1.66,10.05-5.45,14.52-9.07.49,6.42-4.37,9.5-8.9,10.75-7.21,2-8.87,7.94-11.7,13.1C195.52,131.42,193.07,133.34,193.66,136.4Z"/><path class="cls-4" d="M220,101.63c5.27-8.33,12.29-14.34,22.28-15.9,6.63-1,12.88,3.87,14,10.39l-1.85-.55c-2.41-2.35-3.95-5.72-7.72-6.48-1.57-.31-3.11-1.08-4.75-.24,1.38,2.82,5.34,4.22,4.26,8.23l-1.8.07c-1.72-.72-2.71-2.26-3.88-3.58C237.93,90.64,235.2,90,232,93c2.7,2.15,6.24,2.46,8.91,4.44-2.37,1-4.85.57-7.29.63-5.3-2.11-6.26-1.9-9.79,2.15A5.3,5.3,0,0,1,220,101.63Z"/><path class="cls-2" d="M246.2,97.08c-1.09-3.74-4-6-6.71-8.61,6.44-2.76,12.64.23,14.92,7.1C251.79,96.71,249.15,97.71,246.2,97.08Z"/><path class="cls-5" d="M263.22,140.71a16.14,16.14,0,0,1,.43,2.64c0,2.94-1.48,5.15-4.41,5.19-3.09,0-4.69-2.21-5-5.27a6.51,6.51,0,0,1,1.08-3.81C257.44,136,260.23,136.47,263.22,140.71Z"/><path class="cls-5" d="M222.88,143.3a9.72,9.72,0,0,1,.91,1.9c.62,2.45.45,4.76-1.81,6.36a3.94,3.94,0,0,1-5-.11,5.51,5.51,0,0,1-2.08-6.3,15.78,15.78,0,0,1,1.39-2.71c.13-.51.69-.6.93-1C219.49,141,221.61,140.82,222.88,143.3Z"/><path class="cls-2" d="M240.87,97.41c-4.26.51-7.1-3.5-11.46-3.17,5.63-6.91,10.1-5.92,15,2.91Z"/><path class="cls-6" d="M267.19,128.79c-4.4-2.44-8.4-1.63-12.43-.4-1.27.39-3,.84-3.55-.76s1.18-2.16,2.35-2.74C259,122.22,264.84,123.64,267.19,128.79Z"/><path class="cls-7" d="M205.67,134.24c1.75-5.47,10-7.88,14.33-4.62.65.48,1.13,1,1,1.83s-1,1.07-1.73,1.05c-2.39-.05-4.77-.25-7.16-.25A11.68,11.68,0,0,0,205.67,134.24Z"/><path class="cls-4" d="M188.42,173c-2.76-.64-2.72-2.05-2.69-3.41.08-5.58-1.67-7.45-7.1-7.46-.64,0-1.31,0-1.49-.61-.25-.86.4-1.37,1.13-1.68,2.9-1.22,10.22,3.59,9.68,6.65A12.85,12.85,0,0,0,188.42,173Z"/><path class="cls-4" d="M295.11,150.71c-6.86,1.67-7.76,2.93-7.4,9.09.09,1.54.49,3.43-2,4,.2-4.56-1.87-9.55,3.16-12.79C290.53,149.88,292.41,148.84,295.11,150.71Z"/><path class="cls-2" d="M223.79,100.19c0-3,2.05-4.41,4.52-4.48,1.83-.06,4.62-.86,5.27,2.33A43.27,43.27,0,0,0,223.79,100.19Z"/><path class="cls-3" d="M268.75,413.37l19.94-10c2.24-1.58,3.28.15,4.23,1.66,5.27,8.3,12.23,15,19.74,21.22,3.39,2.81,7.8,3.71,11.22,6.4.07.23.16.58.25,1a16,16,0,0,1-.27,6.92c-1.52,4.92-28.57,3.11-34,2.77-16.54-1-9,.57-43.74-.41-25.12-.71-18.76-.48-39.57-1.75-5.87-.36-10.76-.7-14.21-.95A106.18,106.18,0,0,0,229,433.11c9-3.55,21.63-9.2,27.46-13.25A62.3,62.3,0,0,1,268.75,413.37Z"/><path class="cls-4" d="M288.19,124.36c-2.25-6.23-4.37-12.56-10.21-18.31C284.23,109,288.59,117.29,288.19,124.36Z"/><path class="cls-4" d="M202.81,114.42l-2.6,2.59c-4.47-1.48-7.51,2-11.35,3.62C190.47,116.79,197.65,113.75,202.81,114.42Z"/><path class="cls-4" d="M192,130.66c.26.92,1.13,1.66.8,2.75-2-1.38-2.58.67-3.55,1.5-3.06,2.61-3.72,3-8.31,3.81Z"/><path class="cls-1" d="M301.25,399.73a8.12,8.12,0,0,0-3.82-.56c-1.16.13-2.17.68-4.15,1.74l-4.59,2.46a38.15,38.15,0,0,0-2.21-6.72c-1.4-3.19-2.82-4.57-3.93-6.94-3.15-6.72-6.38-13.36-8.75-20.4a21.67,21.67,0,0,0-2.25-3.83,3.23,3.23,0,0,1,2.91-2.46c2.53-.35,3.88-2,5.21-3.87A295.52,295.52,0,0,0,297.26,395C298.27,396.77,299.9,398.17,301.25,399.73Z"/><path class="cls-8" d="M301.25,399.73a7.74,7.74,0,0,0-3.82-.56,9.89,9.89,0,0,0-3.59,1.4c-1.46.77-3.2,1.7-5.15,2.8a35.68,35.68,0,0,0-2.21-7.33c-1.34-3.15-2.7-4.31-3.93-7-3.15-6.71-6.38-13.35-8.75-20.39a21,21,0,0,0-2.25-3.83,3.24,3.24,0,0,1,2.91-2.47c2.53-.35,3.88-2,5.21-3.86a127,127,0,0,0,17.59,35.86Q299.23,397.18,301.25,399.73Z"/><path class="cls-8" d="M327.1,325a29,29,0,0,0,14.51.64c-1.72,8-1,16.08-.45,24.11.34,4.68,1.46,9.31,1.84,14.15a92.32,92.32,0,0,1-16.73-23.78q-1.08-2.22-2-4.4a4.92,4.92,0,0,0,2-1.55c.5-.69.84-1.59.92-5.08C327.19,328.08,327.19,326.69,327.1,325Z"/><path class="cls-1" d="M234.5,249.86a28,28,0,0,1-.87-4.38c-.09-2.57-1-3-3.42-2.22-1.41.49-3.41,1-3.87-1.53l2.68,0a2.28,2.28,0,0,0,2.25-1.16c.6-1.24-.4-1.94-1.12-2.63a6,6,0,0,0-2.17-1.48c-2.33-.67-1-2.05-.71-3.17.37-1.62,1.66-1.51,2.16-.48s2.73-1.5,2.3,2,2.37,7.3,3.84,11c.66,1.64,1.8,3.12,1.62,5Z"/><path class="cls-4" d="M233.92,249.25a25.91,25.91,0,0,1-.87-4.38c-.09-2.56-1.05-3-3.42-2.21-1.42.49-3.41,1-3.88-1.54.89,0,1.79,0,2.68,0a2.29,2.29,0,0,0,2.26-1.16c.6-1.24-.4-1.94-1.13-2.62a5.8,5.8,0,0,0-2.16-1.49c-2.33-.67-1-2-.71-3.17.36-1.62,1.66-1.5,2.15-.48s2.74-1.49,2.3,2,2.37,7.31,3.84,10.95c.67,1.65,1.8,3.12,1.62,5Z"/><path class="cls-3" d="M268.75,413.37c-23.7,17-44.29,25.71-53.79,27.33-5.11.87-6.25-.42-18.68.58-2.42.19-5.53.49-7-1.39-1.66-2.06-.42-5.57.07-6.78A84,84,0,0,0,198,433c7.51-.5,12.83-1.84,23.8-4.86,12.94-3.56,19.42-5.34,25.14-7.17C255.7,418.16,263.09,415.51,268.75,413.37Z"/><path class="cls-3" d="M324.07,428.53c0,.07-.13,1-.29,2.27-.09.75-.19,1.51-.29,2.26-13.81-5.07-23-15.48-31.19-27-1-1.36-1.5-3-3.61-2.66,0-.31,0-.63,0-.94,3.9-2.19,7.37-6.41,12.55-2.7a55.56,55.56,0,0,0,22.54,16.93C324.29,425.07,324.18,427.62,324.07,428.53Z"/><path class="cls-3" d="M279.67,359.15a3.15,3.15,0,0,1,.06,1.94c-.29.87-1,1.46-3.78,2.67a30.76,30.76,0,0,1-4.41,1.72,15.85,15.85,0,0,1-2,.32,5.74,5.74,0,0,0,1.31-2.69,5.56,5.56,0,0,0-.18-2.59c-2.77-9.75-5.73-19.5-7.63-29.44-1.58-8.3-3.91-16.59-3.32-25.21,3,5.38,3.92,11.51,6.24,17.15,2.42,5.86,4.38,11.91,6.62,17.85C274.9,347,277.31,353.06,279.67,359.15Z"/><path class="cls-3" d="M327.49,324.73l-1.78,1c.63-18.54,2-37,4.37-55.44C330.15,288.46,327.65,306.54,327.49,324.73Z"/><path class="cls-3" d="M180.29,334.79l-1.76-.14c2.41-1.07,2.81-2.64,2.32-5.32-2.45-13.18-4.62-26.42-6.79-39.66a8.17,8.17,0,0,1,1-6c1.07,7.16,1.89,13.26,2.91,19.32,1.58,9.41,3.33,18.79,4.95,28.19a21.6,21.6,0,0,1,0,3.6Z"/><g class="cls-9"><path class="cls-10" d="M268.36,413.14c-23.69,17-44.28,25.71-53.78,27.33-5.12.87-6.25-.43-18.68.58-2.43.19-5.53.49-7-1.39-1.65-2.07-.41-5.57.07-6.78,2,.07,5,.1,8.7-.14,7.51-.5,12.82-1.84,23.79-4.86,13-3.56,19.42-5.34,25.15-7.17C255.32,417.93,262.7,415.28,268.36,413.14Z"/><path class="cls-10" d="M323.69,428.3c0,.07-.13,1-.29,2.27-.1.75-.2,1.51-.29,2.26-13.81-5.07-23-15.48-31.2-27-1-1.36-1.49-3-3.6-2.66v-.94c3.91-2.2,7.38-6.41,12.56-2.7a55.43,55.43,0,0,0,22.53,16.93C323.91,424.84,323.8,427.39,323.69,428.3Z"/><path class="cls-10" d="M279.28,358.92a3,3,0,0,1,.06,1.94c-.29.87-1,1.46-3.77,2.67a30.76,30.76,0,0,1-4.41,1.72,16.14,16.14,0,0,1-2,.32,5.84,5.84,0,0,0,1.3-2.69,5.75,5.75,0,0,0-.17-2.59c-2.78-9.76-5.73-19.5-7.63-29.44-1.59-8.3-3.91-16.59-3.32-25.21,3,5.38,3.92,11.51,6.24,17.15,2.41,5.86,4.38,11.91,6.62,17.85C274.52,346.75,276.92,352.83,279.28,358.92Z"/><path class="cls-10" d="M327.1,324.5l-1.77,1c.62-18.54,2-37,4.37-55.44C329.76,288.23,327.26,306.31,327.1,324.5Z"/><path class="cls-10" d="M179.91,334.56l-1.77-.14c2.42-1.07,2.82-2.64,2.32-5.32-2.45-13.18-4.62-26.42-6.78-39.66a8.12,8.12,0,0,1,1-6c1.07,7.16,1.88,13.26,2.9,19.32,1.59,9.41,3.33,18.79,5,28.19a22.73,22.73,0,0,1,0,3.6Z"/></g></svg>