<svg id="Capa_1" data-name="Capa 1" xmlns="http://www.w3.org/2000/svg" viewBox="0 0 500 500"><defs><style>.cls-1{fill:#5b2a1b;}.cls-2{fill:#c96974;}.cls-3{fill:#553c28;}.cls-4{fill:#1b0302;}.cls-5{fill:#fdc093;}.cls-6{fill:#f8e2d5;}.cls-7{fill:#f8e2d4;}.cls-8{opacity:0.15;}.cls-9{fill:#f4e2d5;}.cls-10{fill:#333;}</style></defs><path class="cls-1" d="M198.62,223.92c-32.55-3.64-3.39-21.89-30.27-30.42-21.89-14.13,21.57-26.62,14.7-41,1.54-9.88-11.12-19.13-5.49-29.52,4.63-8.32,16.85-8.88,21.43-15.91,9.38-5.45,3.82-19.42,11.67-26.64,4.08-4.62,9.1-7.63,15.68-6.14a3.19,3.19,0,0,0,2.76-.74c5.91-4.16,12.64-5.92,19.7-6.74,50-1.17,35.05,23.65,64.76,45.78,25,17.87-4.87,34.61,13.2,47.88,8.21,6.92,22.42,15.81,16.89,28.33a1.94,1.94,0,0,1-.95-1.44c.4-4.36.43-8.65-2.08-11.53,6.38,12.64-7.61,20.35-10.89,30.46-5.13,4.58-7,10.39-6.7,17.13.47,4.56-5.9,9.19-9.7,6.25-7.9-5.12-17.43-7.32-25.42-11.49-1.51-9.37,3.48-19.29,2.51-28.92-.42-5.44-6.06-10.08-4.74-15.49,7.36-13,7.32-28.32,8.17-42.85.08-4.11-.47-4.78-4.58-5.72-19.1-3.65-38.87-7.54-56.19-16.7-1.49-1.06-2.46-1-3.18.85-13.43,28.07-18.88,9.73-13.78,52.51a32,32,0,0,0,15.15,22.64c10.3,5.86,4.47,17.52,2,26.13C228.62,217.55,206.46,224.82,198.62,223.92Z"/><path class="cls-2" d="M198.62,223.92c5.74,0,10.67-3.43,16.32-3.74,4.5,31.09,4.55,63.06,7,94.49.35,8.72.77,17.44,1.51,26.15.28,6.22,7.28,1.69,10.76,4.27,1.7,3-26.36,1.85-28.05.32,4-.43,3,27,4.27,31.93-.36,8.85,7.11,5.23,12.67,2.1,2.9,4.37.69,4.68,1.17,8.69-.62,14,.16,28.87-3.28,42.31-.15,2.94-2.36,3.17-4.57,3.59-12.94,2.4-24-5.07-33.86-12.35-5.37-3.91,4.61-23.79,4.53-30.51,6.42-2.37,13.29-3.36,19.77-5.37-15.77,3.58-42.38,13.8-51.09-5.67-9.73-17.36-1.51-36-.75-54.41,1.09-19.13,2.46-38.27,2.51-57.4C156.86,241.49,176.54,231.55,198.62,223.92Z"/><path class="cls-2" d="M292.91,219.49c12.37,6.46,16.73,7.81,25.14,11.31,6.44,2.28,24.63,15.66,26.93,18,8,12.47,3.46,27.94,4.76,41.83.42,12.24,1.2,24.46,1.18,36.7-1.62,20.66,6.27,46.1-10.72,62-7.13,7.89-20.44.11-17.43,8.51,1.41,8.79,8.58,20.94-.49,27.69-7.4,5.2-17.73,9.3-26.38,5.4-1.26-1.44-.93-3.21-.95-4.88.06-18.29,0-36.49-.67-54.73,11-8.11,15.44,16.51,22.69,19-4.28-2.84-7.73-9.23-11.4-15.43-1.18-2.2,1.84-2.7,3.34-2.8,20.1-3.08,26.2-20.49,16.67-38.07a28.33,28.33,0,0,0-5.33-11.24C311,304.89,301,287.36,292.3,269.15c1.19-14.53,1.3-30-.76-44.79C291.33,222.72,290.17,220.45,292.91,219.49Z"/><path class="cls-3" d="M295.82,388.15c.26,14.31.28,28.73.08,42.79-24.84,3-50,2.3-74.88-.5q2-21.45,2.46-43C247.57,389.36,271.05,391.15,295.82,388.15Z"/><path class="cls-1" d="M199,107.06c1.56,2.8-15.37,8.89-18.11,12.41-15.22,16.09.53,21,2.78,32.21l-.61.81C163,128,174.59,118.91,199,107.06Z"/><path class="cls-1" d="M329.73,206.28c-1.69-1.29.85-3.11,1.74-4.13,4.53-4.36,7.72-10,11.7-14.62l.48,1.26C340.45,195.77,335,200.93,329.73,206.28Z"/><path class="cls-4" d="M260.24,66.8a25.69,25.69,0,0,1-11.44,0A47.59,47.59,0,0,1,260.24,66.8Z"/><path class="cls-5" d="M304.32,373.62a30.09,30.09,0,0,0-9.63-2.45c-14,3.31-29.23,3.57-43.56,6.49-6,.29-19.74,5.24-24.1,3.22-4.24-.1-17.21,7.07-17.08-.27-.54-10.81-2.23-21.63-2.23-32.49a2.77,2.77,0,0,0-1.25-2.24c.21-.55.89-.21,1.16-.62,18.27.25,43.13-1.85,52.87-2.7,8.22-.58,16.42-1.39,24.67-1.23,5.26-.22.31-7.19,0-10.05-4.47-13.44-8.58-27-12.57-40.58-4.42-12.7-5.52-27.37-13.34-38.53-10.71-9.42-4.64-26.28-11-24.2-7.86-.2,1.18-13.75-5.14-13.86-3.5-1-8.09-.69-10.62-3.61,13.37-37-12.85-14.25-18.07-53.48-3.7-38.3,3.5-22,15.26-49.58.27-.8.53-2,1.84-1,17.94,10.94,39.25,14.29,59.52,18.39,2.82.22,4.13,3.36,3.66,5.22.16,12.4,1.26,30.37-9,45.16,3.53,9.35,6.9,12.53,5,22.52,0,6.28-4,15.12-2.14,20.64-2.52,8.26-3.48,16.87-5.55,25.24a6.08,6.08,0,0,0,.69,3.77c2.12,6.67,7.53,12.59,8.51,19.35,4.33,10.15,9.95,22,20.4,40.6C324.55,329,326.77,335.1,330.31,344,334.94,361,319.21,373.77,304.32,373.62Z"/><path class="cls-6" d="M232.56,210.5c3,2.48,15.71,1.32,14.19,5.8-1,3.13-2.91,13.38,3.26,10.6,2.59-1.4,2.55.17,2.39,1.82-1.63,18.5,10.76,21.3,13.9,37,4.51,15.36,8.78,30.8,13.36,46.15,2.65,8.88,5.78,17.62,8.57,26.47,1.08,3.43.69,3.84-2.93,3.78-17,.34-34,1.7-51,3.07-3.08-.81-11.09,2-11.53-2.08-2.33-40.94-4.73-82.27-7.82-123C220.94,217.41,228.22,215.84,232.56,210.5Z"/><path class="cls-7" d="M292.26,266.69c-2.94-7.79-9.07-15.08-10.07-23.29q2.52-11.43,4.89-22.88c.21-1,.22-2,1.53-2.19a8,8,0,0,0,4.3,1.16c-.9.73-.78,1.66-.66,2.67,2.1,16.33,2.23,30.69,1.15,47.48Z"/><path class="cls-8" d="M276.4,174c-1-8.3-1-8.77,3.25-9.42,3.3,0,9.28,20.25,11.44,24.21-5.71-4.09-6.57-18.38-12-21.9-6.19,4.72,3.73,14.7,1.18,20.73A62.1,62.1,0,0,1,276.4,174Z"/><path class="cls-3" d="M224,381.29a115.75,115.75,0,0,0,12.77-2.16c11.37,1.21,23.16,1.54,34.7,2.75,7.9,1.23,16.38-1.61,23.86.18-.29,2.07,1,4,.54,6.09-23.75,2.52-49,4.1-72.37-1.85A35.88,35.88,0,0,1,224,381.29Z"/><path class="cls-8" d="M207.63,345.26c-8.3,1.61-17.56-.58-26.1-1.19,12.31-1.84,8.86,3.24,8.78-11.72,1.11-25.73-.91-52.11,2.8-77.47.36,27.79-1.84,57.24-1.21,85.62C192.05,347.48,203.22,342.75,207.63,345.26Z"/><path class="cls-8" d="M223.45,386.3c24,5,48.14,2.84,72.37,1.85l-.56,1.11c-23.92,1.5-48.13,2.79-71.78-1.8Z"/><path class="cls-8" d="M187.11,391.16c.45-1.29,1.72-1.34,2.72-1.61,6.52-1.08,13.84-5,20-4.44a143.82,143.82,0,0,1-22.74,6.06Z"/><path class="cls-9" d="M295.28,382.06c-16,2.22-31.85.13-47.79-1.2-3.24-.91-8.68.85-10.77-1.73,17.86-2.44,35.88-6.25,53.68-7.45a13.47,13.47,0,0,1,4.29-.51C295.93,374.75,295,378.44,295.28,382.06Z"/><path class="cls-8" d="M321.35,316c-.24-17.89-2.57-36.28-.67-53.92,1.57,9,.57,18.4.64,24.81-.93,13.3,3.92,21.59,2.19,40.86C321.33,324.13,321.82,319.8,321.35,316Z"/><path class="cls-8" d="M321.56,323.28c3,6.62,6.77,13.64,8.75,20.7-1.26,0-1.74-.89-2.09-1.85-4.83-13.53-13.11-26.21-18.18-39.46C314,309,318.11,316.4,321.56,323.28Z"/><path class="cls-8" d="M304.32,373.62c.42-.69.86-.09,1.29,0,4.12,7.12,7.75,14.64,15.28,19C312.48,388.83,308.23,381.37,304.32,373.62Z"/><path class="cls-8" d="M276.5,197.17c0,8.29-15.72-2.71-17.62,4.14,2.67,2.41,7.78-1.24,10.28,2.13-4,1.16-7.82-.88-11.86-.15-2.14,0-3.08,1.79-4,3.27-1,3,6.12.63,8.45,2.05-5.12,2-11.41-1.94-14.44,4.53a2.21,2.21,0,0,1,.55-3c3.38-2,4.62-5.94,7.7-8.23-.6-.85-1.49-.5-2.18-.43-5.53,1.43-16.2-6.67-15.76-11.54,12.39,3,20.68,8.08,33.52-.54,1.2,2.82-3,5.35-4.51,7.9C270.14,198.75,273.08,197.82,276.5,197.17Z"/><path class="cls-1" d="M271.06,191.17l.09-1.77,7.48-6.5a14.27,14.27,0,0,1,1.67,4.67c-2.25,3.59-2.15,12-7.95,10.86A8.86,8.86,0,0,1,271.06,191.17Z"/><path class="cls-8" d="M289.64,340.83c4.67,9.89,7.39,20,12.83,29.27C299.44,369.12,289.26,345.88,289.64,340.83Z"/><path class="cls-1" d="M235.54,129.33a12,12,0,0,0-7.52,2.43c-1.41,1.71-3.17-.22-1.33-1.57,3.1-3.55,15.1-4.22,16.17,1.11C240.85,132.21,237.72,128.69,235.54,129.33Z"/><path class="cls-1" d="M273.86,127.33c1.36.11,6.64,1,5.81,3.72-.54.85-1.18.19-1.79-.14-4.59-2.5-7.6-2.2-11.54,1.09C262,135.42,265,126.64,273.86,127.33Z"/><path class="cls-8" d="M252.7,157.42c-1.38,2.78-1.32,3.73,2.1,4.64.59.19,1.68-.14,1.57.9s-1.09,1-1.91,1c-8.83-.7-1.17-9.79-1.84-14.65C252.84,149.33,254.21,153.54,252.7,157.42Z"/><path class="cls-8" d="M292.18,371.24c-3.34,6.64-17.67,18.79-9.34,2.37.17,2.95-1.28,4.75-1.32,7.37a36.27,36.27,0,0,0,8.88-9.3Z"/><path class="cls-5" d="M271.06,191.17l1.29,7.26c-2.13,1.48-4.16-.43-6.27-.22-.42,0-1-.68-.45-1.09C267.76,195.42,268.77,192.71,271.06,191.17Z"/><path class="cls-10" d="M268.61,137.87c5.37-.07,5.24,8.08.07,7.79C263.58,145.88,263.74,137.91,268.61,137.87Z"/><path class="cls-10" d="M238.94,141.59c.14,5-7.58,5.46-7.46.42C230.87,136.79,239.1,136.67,238.94,141.59Z"/></svg>