<svg id="Capa_1" data-name="Capa 1" xmlns="http://www.w3.org/2000/svg" viewBox="0 0 500 500"><defs><style>.cls-1{fill:#f5ba8f;}.cls-2{fill:#273238;}.cls-3{fill:#283137;}.cls-4{fill:#438639;}.cls-5,.cls-7{fill:#273137;}.cls-5{opacity:0.15;}.cls-6{fill:#92695d;}.cls-8{fill:#2c3033;}</style></defs><path class="cls-1" d="M180.14,353.83c2.62,34.44,7.32,61.68,18,88.3,15.57-.06,31.53,0,47.08.21-4.37-19.25-10.19-38.19-13.1-57.73-9.37-26.46-11.15-54.21-6.23-81.83-.2-8.39,1.86-16.35,4.53-24.2-.17-7.05,3.42-11.23,9.47-13.89,13.71-8.6,6.89-25.93,1.87-37.54C236.48,210,208,165,190.59,192.6,170.46,240.86,176.75,302.32,180.14,353.83Z"/><path class="cls-2" d="M243.87,442.29c22.93.66,45.79-1.2,68.42,2.06-4.12-22.16-12-56.48-15.31-72.41-30.32-1.26-57.11,8.89-65.26,13.28C235.26,404.43,239.42,423.89,243.87,442.29Z"/><path class="cls-3" d="M198.15,442.13a188.94,188.94,0,0,0-8.1-24.32,59.64,59.64,0,0,0-2.71,24.32Z"/><path class="cls-2" d="M178.12,277.37c-16.82-8.47-33.85-29.47-22.32-48.43,5.56-9,6.49-18,4.52-28.33C153.1,168,175.53,152.42,194,130.45a.55.55,0,0,0,.46-.62c6.87-12,5.77-27.42,13.78-38.6a58.48,58.48,0,0,1,80.35-37.79A74.57,74.57,0,0,1,316,72.4c13.67,5.62,21.85,27.16,16.61,41.84-1.25,2.55-2.63,7.11-6.32,5.66-2.88-1.22-.7-3.54-.16-5.14,1.81-5.28.29-10.61.72-15.91a.6.6,0,0,0-.28.08c-.47,7.11,2.62,15.91-5.27,20.14-5,1.36-2.38-20.74-3-24.65.12-4.23-1.45-6.33-5-4.44-5.53,3-11.36,3.41-17.28,4.2-8.29.22-10.58,10.11-18.37,12-6.25,1.73-9.92,6.22-13.58,11.13-2.74,3.17-7.14,1.62-6.57-2.65,0-4.86-1.17-9.25-4.46-13-5.91-8.34-18.44-6-20,4.35-7.74,33.65,16.38,21.49,11,30.17-6.59,6.41,4.73,29.43,7.52,37.36,5.83,9.8,3.13,21.58-10,21.33-14.8-4.77-16.61-15.69-36.71-16.55C174.21,182.09,181,253.88,178.12,277.37Z"/><path class="cls-4" d="M296.21,372.49c-21.52,3.84-42.9,8.71-64.49,12.73-2.38-2-2.73-5-3.38-7.64-3.75-15.53-8-31-6.77-47.24.33-19.71,7.26-38.12,8-57.93,26.31-17.89,2.79-71.19-16.15-84.66-6.81-5.38-17.9.71-18.72-2.86-2-8.67,18.47-5.91,17.65-5.63,22.91,6.83,33.26,17.28,46.07,32.86,18.35,21.47,34.63,20.79,44.41,50.9,11.21,25.92-13.44,34.25-8.17,58.94,1.65,13.8,1.75,18.32,2.67,32.38C298.24,366,299,370.57,296.21,372.49Z"/><path class="cls-4" d="M242.56,195.88c-14-5.32-24.35-19.42-41.15-16-2.12.73-6.12,1.28-6,4.21.2,1.93,1.73,1.68,3,1.83-14.24,11.39-15.18,34.27-17.21,51.17-.06,1.35.08,2.78-1.8,3-.84-18.25,2-65.49,28-62.87,9.22,1.56,17.85,4.36,24.59,11.37,2.61,2.72,6.16,3.92,9.57,5.31C242.22,194.41,243.2,194.76,242.56,195.88Z"/><path class="cls-5" d="M230.58,209.75c7.84,19.82,20.59,50.67,0,62.15C230,249.3,237,238.52,230.58,209.75Z"/><path class="cls-5" d="M219.57,361.07c.39,8.72-7.73-1.9-5.5-5.64.33-.86.27-2.13,1.6-2.2C219,353.61,218.58,359.11,219.57,361.07Z"/><path class="cls-1" d="M302,150.67c-4.94,6.24-12.77,16-21.27,19.72-5.78,3.16-16.5-7.37-18.7-5.11-7.35,21.51,6.76,40.34,17.27,57.57-.14,1.42.79.87.12.84a2,2,0,0,1,.74-2.6c0,5.73,3.14,10.21,5.89,14.86-18.61-8.23-31.74-26.74-44.4-42.06,11-1,14.66-7.21,9.95-17.32a133.9,133.9,0,0,1-11-33.75c-.63-3.64-1.29-7,4.24-7.62-1.74-2.44-4.13-2.09-6-2.76-12.22-3.42-8.59-19-6.54-28.45C239,85.28,260,98.83,258.9,114.09c-1.19,9.4,7.4.75,7.93-3.44,8.1-3.08,15.89-6.56,21.81-13.31a11,11,0,0,1,9.34-4,25.34,25.34,0,0,0,13.91-3c5.61-3.21,7,.25,7.85,5.85,1.27,10.54-3.69,14.59-4.88,28.12-.56,6.26-1.51,17-.52,20.51.73,1.44-.4,4.9-2.7,5.41C308.53,151.05,304.46,146.89,302,150.67Z"/><path class="cls-6" d="M246.22,177.67c6.9,5.2,5,13.4-3.76,10.77C240.09,187.83,246.84,182.94,246.22,177.67Z"/><path class="cls-5" d="M277.46,304.59c-3.65-.43-9.87.87-10.44-3a2.3,2.3,0,0,1,2.52-2c7.46,0,15.23-1.77,18.31-2.07,1.47-.14,3.32-.2,3.63,1.74C292.69,302.71,279.22,305.18,277.46,304.59Z"/><path class="cls-7" d="M280.12,221.09c-.13,1.31-.26,2.63-.45,4.47-9.15-15.31-30.14-41.45-16.67-61.74,7.72-.56,12.42,11.2,25,2,6.16,12.14-9.26,29.76-10.28,37.69,7-16.38,16-21,14-41.16l3.69-3.93C304.6,195.05,273.12,197.14,280.12,221.09Z"/><path class="cls-8" d="M292.5,105.08c5.21-.44,11.39,5.47,16.9,6.21,3.38-.34,3.17,3.17.45,4.23-8.43,4.11-16.69-2.93-24.46-5.66C281.07,106.48,288.76,104.59,292.5,105.08Z"/><path class="cls-5" d="M244.91,106.14c7.1,4.69,7.33,12.74,1.2,16.34-2.72,2.21-6.32-1.13-2.93-3.16C247.62,115.7,244.94,111,244.91,106.14Z"/><path class="cls-8" d="M295.75,129.37c-4.36.25-9.92-4.52-7.13-8.45,1.53-1.2,2.34.63,3,1.62,1.64,3.21,10.19,1.34,9.84,4.27C301.2,128.94,297.35,128.89,295.75,129.37Z"/><path class="cls-5" d="M265.7,163.82c-6.77-3.18-14.81-16.92-16.21-21.62-2.41,1.15,2.91,20.36,10.81,24.32Z"/></svg>