<svg id="Capa_1" data-name="Capa 1" xmlns="http://www.w3.org/2000/svg" viewBox="0 0 500 500"><defs><style>.cls-1{fill:#db6d22;}.cls-2{fill:#4f94cf;}.cls-3{fill:#fefaf1;}.cls-4{fill:#fdc093;}.cls-5{fill:#42202b;}.cls-6{opacity:0.15;}.cls-7{fill:#542f30;}.cls-8{fill:#4d2d3a;}.cls-9{fill:#333;}</style></defs><path class="cls-1" d="M246.92,431.25c.11,4.87-1.63,9.28-7.75,8.78-18.38,1.77-36.95,0-55.39.61-6.08.12-8-1.83-7.74-7.8,0-10.94,1.32-20.59-1.27-31.55-7.34,28.28-51.27,32.62-55.85,1.08-8.82-37.35,15.9-68.46,21-103.89,1.77-10.41,12.33-17.85,12.44-29.14.52-5.44,3-9.94,8.68-11.89,2.73,1.4,3,4.33,4.21,6.71,5,10,13.81,12.36,23.06,6.16,1.76-1.18,3.23-2.82,5.65-2.07-1.1-13.05,6.23-25.9,11.54-37.65l6.88-2.71c8.15-7,18.84-8.74,28.12-13.4,1.88,1.16,1,2.76.7,4.29-7.82,6.12-9.64,15.5-12,24.31-9.09,36.12,6.62,71.12,15.68,105.57a23.32,23.32,0,0,1,1,10C244.65,382.84,248.89,406.94,246.92,431.25Z"/><path class="cls-2" d="M229.23,243.09a135.42,135.42,0,0,0-2.36,17A89.87,89.87,0,0,1,229.23,243.09Z"/><path class="cls-1" d="M286.8,217c91.28,21,96.42,67.52,99.85,150.7.16,4.85.66,10,2.37,14.46,6.35,16.62,4.19,33.91,4.87,51,.21,5.29-1.63,7.71-7.46,7.48-13.36-1.47-27.67,1.69-40.52-1.91-16.16,1.27-32.34.38-48.5.4-6.77,0-7.13-5.64-7.45-10.57-2.63-39.8-5.85-80.48,5.59-119.25,5-24.86,12.81-64.85-5.9-85C287.7,222.48,285.82,220.22,286.8,217Z"/><path class="cls-3" d="M288.72,217.14c29.65,40.19,3.64,99.49,0,147.51,0,28.66,2.08,34.27,2.9,53.62-.31,2.73,1.29,16.43,2.64,20.13-19.64-1.93-32.65,8.38-49.79,0,9.81-50.18-7.34-103.37-16-140.23-4.85-26.39-5.56-43.17,4.73-72.24.94-2.24,4.8-11.15,7.58-10.63,1.94.36,1.23,4.57,4.14,8.53,5.32,8.42,31.38,7.85,36.34,1.61C282.8,221.17,282.85,216.29,288.72,217.14Z"/><path class="cls-4" d="M312.72,139.53a6,6,0,0,0-3.81,1.67A13.78,13.78,0,0,0,306,136c-3.81-28.15-4.13-45.9-37.58-37.94-9.79-1.16-19.68-3.23-29.64-3.23-11.31.24-16.21,4.74-16.91,16.15,1.32,13.52-10.36,21.77-9.2,35.39-2-2.18-1.92-5-4.8-4.89-8.53.29-11.09,8.46-8,14.75,3.24,7.75,14.25,10.88,15.11,11.12,7.6,22.39,35.29,24.76,25.58,47.13,4,26.59,40.88,28.58,48.18,2.65-15.26-29.2,13.43-28.38,20.28-53.47C319.16,161.14,326.27,142.82,312.72,139.53Zm-4.24,8.06a11.52,11.52,0,0,1-.18,2.12c-.17-.22-.34-.42-.52-.62A10.09,10.09,0,0,0,308.48,147.59Z"/><path class="cls-5" d="M311.6,138.49a35.15,35.15,0,0,1,0,7.66,33.34,33.34,0,0,1-.56,3.39c-3.72,1.41-5.2-1.73-4.62-5.46-1.63-11.1-6.64-23.76-8.52-32.83-1.2-5.71-1.22-7.82-3.38-9.92C289,96,273.88,98.58,266.59,99.14c-7.87.35-7.76-1.21-21.63-1.94-19.89-.82-19,1.48-20.58,17,.77,12.66-11.79,20.92-9,33.93.29,1.94.64,5-2,5.42-5.43.35-3.85-8.49-5.5-12-8-18.09-8.48-66,14-73.11,20.06-6.7,40.08-24.54,57.7-2.65,7.35,6.19,13.42-4.67,23.82,16.3,6.6,5.24,9.29,10.42,10.53,14.12C318.81,110.68,310.71,129.89,311.6,138.49Z"/><path class="cls-4" d="M205.54,230.61c-1.26,11.6-6.72,21.82-10.73,32.52-.21,2,0,4.21-2.07,5.57-9,16.28-31.76,5-31.65-11.24-11.34-35.35,7.23-40.8,4.83-63.24-1.94-8.59,1.35-17,1.14-25.59-.24-6.28,8.74-6.19,9.26,0,5.2,11.51-4.62,31.75,7.72,34.91,5.77,2.07,8.7,8,8.7,8,2.08-5,5.36-8.09,9.74-6.39C211.74,210.77,199,222.82,205.54,230.61Z"/><path class="cls-6" d="M345.77,438.32c-2.42-35.3-2.16-70.73-6.78-105.94-2-11.13-1.86-53.81,9.15-58.94-8.19,20.48-7,41.37-5.63,61.87,3.72,34.78,2.48,70.58,7.07,104.89l-3.71,0A1,1,0,0,1,345.77,438.32Z"/><path class="cls-6" d="M345.77,438.32l-53.37.08c2.79-27.34-6.22-47.61-3-73.54,6,22.44-.06,51.64,12.24,69.86,4.76,3.89,10.41,2,22.13,1.84A118.63,118.63,0,0,1,345.77,438.32Z"/><path class="cls-6" d="M194.68,279.83c0,39.74-11,77.71-18,116.33l-2.31-.3c5.24-35.09,16.9-69.24,16.63-105a14.77,14.77,0,0,1,3.64-11Z"/><path class="cls-6" d="M173,304.65c-5.35-4.38-10.35-9-12.54-15.84C164.53,294.2,170.88,297.66,173,304.65Z"/><path class="cls-6" d="M234.54,366.64c5.19.15,4.59,7.68-.51,6.95C229.45,373.82,230.21,366.5,234.54,366.64Z"/><path class="cls-6" d="M153.45,318c6.3-1.68,10.21-1.8,16,1.1C163.24,320.83,159.34,320.87,153.45,318Z"/><path class="cls-6" d="M237.2,407.31c4.26-.76,4.77,7,.48,6.83A3.42,3.42,0,0,1,237.2,407.31Z"/><path class="cls-6" d="M192.74,268.7l1.94-1.77c2.13,1.6,2.76,10.5,0,12.9h0C194,276.13,196.24,271.91,192.74,268.7Z"/><path class="cls-6" d="M233.81,344.45c.68.09,1.27,2.4,1.15,11.23C232.43,354.67,230.12,346.6,233.81,344.45Z"/><path class="cls-6" d="M231.57,340.65c0,.65,0,1.3,0,2-3.68-3.49-4.08-8.28-4.79-13C229.58,332.74,231.77,336.14,231.57,340.65Z"/><path class="cls-6" d="M357.16,254c-1,6.62-4.55,9.6-7.29,15.69C349.82,262.11,352.94,258.92,357.16,254Z"/><path class="cls-6" d="M259.22,156.29c14.27-5.24.56-15.58,6.22-21.34C271.41,156.8,271.06,158.62,259.22,156.29Z"/><path class="cls-7" d="M289.26,124.29c-4.44,1.33-9.76.11-14.95.51C280.37,117.62,284.5,117.62,289.26,124.29Z"/><path class="cls-8" d="M233.59,125c-.1-6.47,10.95-7.23,13.4-3.32,2.65,3.8-.9,3.39-3.32,3.15C240.2,124.26,237.28,124.74,233.59,125Z"/><path class="cls-9" d="M244.79,140.2c.81,6.25-7.67,7.28-8.52,1.59C235.3,135.85,244.09,134.53,244.79,140.2Z"/><path class="cls-9" d="M285.39,140.37c1.1,5.79-7.38,7.26-8.16,1.56C275.88,136.05,285.21,134.08,285.39,140.37Z"/><path class="cls-6" d="M210.88,161c-6.41-2.78-4.14-9.31-9.92-13.35C205.68,149.67,205.68,149.67,210.88,161Z"/><path class="cls-6" d="M187.22,239.17c5.17-10.58-1.07-20.66-15.11-23,12.07-3.71,16.28,4.35,20.32,13.41,4.39-6.55,1.52-12.3.31-18h0c11.46,8.68,2.32,20.37-5.36,27.83Z"/><path class="cls-6" d="M187.38,239.35c-2,3.69-2.9,9.06-9.22,5.7-.95-.68-1-1.41-.17-2.21,1.53-6.57-3.1-10.44-8.28-15.79,13.37.19,6.32,14,17.51,12.12Z"/><path class="cls-6" d="M178,242.84c.51,10.79-10.07,5-9.84-4.81C172.44,238.71,171.72,247.75,178,242.84Z"/></svg>