<svg id="Capa_1" data-name="Capa 1" xmlns="http://www.w3.org/2000/svg" xmlns:xlink="http://www.w3.org/1999/xlink" viewBox="0 0 500 500"><defs><style>.cls-1{fill:#8abcb9;}.cls-2{fill:#a0ac48;}.cls-3{fill:#fdc093;}.cls-4{clip-path:url(#clip-path);}.cls-10,.cls-5{opacity:0.15;}.cls-6{clip-path:url(#clip-path-2);}.cls-7{fill:#3d2e2b;}.cls-8{fill:#333;}.cls-9{clip-path:url(#clip-path-3);}.cls-10{fill:#1d1d1b;}.cls-11{fill:#f5ba8f;}.cls-12{fill:#aa5458;}.cls-13{fill:#9d4244;}.cls-14{fill:#404242;}.cls-15{fill:#1c1714;}.cls-16{fill:#9e4043;}.cls-17{fill:#3f1e0f;}.cls-18{fill:#3d2011;}</style><clipPath id="clip-path"><path class="cls-1" d="M402,223.32c52.69,6.89,74.86,32.51,76.23,85.65.12,1.43.57,3.21-1.59,3.78a209.36,209.36,0,0,1-35.27,4.35c-7,.31-7.72.73-8.61,7.81-1.6,17-5,34.72-5.18,51.49-7.79-2.9-17.5-9.21-25.41-13.07-23.42-11.94-48.82-20.89-68-39.5-5.21,1.22-23.49-3.63-24.79-17.49-4.94.43-18.19-.11-19-6,2.75-23.42,10.35-44.53,28.55-60.67,4.76-3.65,20.42-13,25.16-7.84,14.32,10.26,37.48,11.1,52.3-4.6C397.94,225.56,399.23,223.29,402,223.32Z"/></clipPath><clipPath id="clip-path-2"><path class="cls-1" d="M336.52,357.06c25.44,23.16,56,40.55,84.21,60.34,3.67,3.39,11.11,6.32,17.39,6.51-14.33,5.26-38.06,9.73-47.49,10.07,0,0-35.16,4.19-80.3-17.58-2.53-1.22-3.43-2.78-3.23-5.52,2.17-18.22,0-36.45,2-54.63a3.65,3.65,0,0,1,3.58-1.69C320.44,355.72,329.25,354.43,336.52,357.06Z"/></clipPath><clipPath id="clip-path-3"><path class="cls-2" d="M232.56,416.16c-10.15,10.84-38.73,18.77-74.07,18.11-33.15-3.18-58.59-13.14-68.22-24.18,3.57-16.68,6.92-34.58,9.65-51.91.28-1.37,3-11.36,1.1-22.12-2.62-15.3-5.26-30.6-8.09-46.09-3.45-7-10.16,9.46-15.13,9.76-1.81.26-3.12-.94-4.29-2C69.34,292.26,46.08,279.3,48,274c10.33-14.75,19.74-31.93,34.37-42.32,6.13-.65,12.39-6,18.29-1.88,5.73,3.71,16.93,6.75,13.64,15.76-2.81,7.91.2,13.83,6.18,18.86,2.76,1.85,15.7,13.15,16,5.32.18-16.19,29-20.16,12.58-42.87-5.45-6.69-16.51-16.1-8.39-24.82,9.89,3.44,20.34,5.83,31.09,5.88,5.14,1.15,13.74-4.72,14.69,3.4a13.33,13.33,0,0,0,7.79,8.62c11.29,4.2,23.13,8.65,34.77,11,2.8-.5,2.09,2.78,4.17,3.76,8.95,4.23,11.95,12.41,13.33,21.29,1.88,18.78.67,38.12-1.74,56.67-3.05,3.85-9.5,1.32-13.23,4.72C223.57,348,225.26,389.05,232.56,416.16Z"/></clipPath></defs><path class="cls-3" d="M316,306c2.58,4.74,35.3,110.68-16.86,107.9-17.29-4.38-8.52-84.74-6.16-110.5Z"/><path class="cls-1" d="M402,223.32c52.69,6.89,74.86,32.51,76.23,85.65.12,1.43.57,3.21-1.59,3.78a209.36,209.36,0,0,1-35.27,4.35c-7,.31-7.72.73-8.61,7.81-1.6,17-5,34.72-5.18,51.49-7.79-2.9-17.5-9.21-25.41-13.07-23.42-11.94-48.82-20.89-68-39.5-5.21,1.22-23.49-3.63-24.79-17.49-4.94.43-18.19-.11-19-6,2.75-23.42,10.35-44.53,28.55-60.67,4.76-3.65,20.42-13,25.16-7.84,14.32,10.26,37.48,11.1,52.3-4.6C397.94,225.56,399.23,223.29,402,223.32Z"/><g class="cls-4"><path class="cls-5" d="M527.47,350.65c.16-30.7-15.42-53.56-57.52-44.7-30.24,5.15-41,13.35-38.85-13.81-4.32-2.9-17.61,85.87-2.22,99.35C467.7,430.84,528.15,397.73,527.47,350.65Z"/></g><path class="cls-3" d="M426.35,374.66c1-18.34,3.6-36.53,5.83-54.75.3-2.21,1.54-3.75,3.78-3.77,13.7.36,27.14-3.49,40.7-3.39a4,4,0,0,0-1.65,3.17c-.79,12.37-1.43,24.76-2.64,37.09-.94,9.54-2.58,19-4,28.5-4.35,24.55-6.7,41.18-35.18,43.47-32.6-16.89-61.37-40.13-91.32-61.17-3.85-1.91-5.32-7.77-9.67-8.08-5.18.22-10.29-.77-15.45-.94-2.36-.07-4.76.23-6.64-1.82-1.12-1.23-2.32-.25-3.4.34-3.66,2-10.39,4.21-12.64-.74-1-6.71,9.11-10.31,13.93-13.69a49,49,0,0,0-11.49,7.82c-4.1,4.77-9.49-.63-6.1-5.23,2.64-4,7.31-8.26,10.89-10.94a54.3,54.3,0,0,0-8.74,8.15c-1.26,1.54-2.61,3.77-5.13,1.87-7.12-6.24,7.9-15.05,11.59-19.85-2.77,5.19-36.49,4-34.34-4.21.48-1.78,1.92-2.1,3.57-2.29,15.86-1.52,31.84-1.28,47.74-1,15.64,2.73,25.33,17.8,38.74,25.32,27.61,15.58,57.9,26.43,83.78,45C434.7,380.2,429.88,378.32,426.35,374.66Z"/><path class="cls-3" d="M402,223.32c-17.95,21-41.79,21.57-63.67,6.73,1.38-.23,5.66-1.11,8.25-4.79,2.51-4.47,4.88-16.86-2.67-18.32-27.11-10-26.85-39-25.63-65.3-3.82-34.44,17.33,4.9,58.11-18.87,8.81-7.07,11.29,9.75,22,15,4.26,3.89,7.51-2.47,12-.82,12.9,2.32,3.07,28.62-7.47,31C392.18,184.69,392.48,205.59,402,223.32Z"/><path class="cls-1" d="M336.52,357.06c25.44,23.16,56,40.55,84.21,60.34,3.67,3.39,11.11,6.32,17.39,6.51-14.33,5.26-38.06,9.73-47.49,10.07,0,0-35.16,4.19-80.3-17.58-2.53-1.22-3.43-2.78-3.23-5.52,2.17-18.22,0-36.45,2-54.63a3.65,3.65,0,0,1,3.58-1.69C320.44,355.72,329.25,354.43,336.52,357.06Z"/><g class="cls-6"><path class="cls-5" d="M515.59,397.29c-15.74-27.11-51.55-36.64-79-20.72-12.19,7.81-12.36,17.72-20.92,26.75-21.26,21.44-75.91,14.5-95.49,7-15.15-4.4-16.35-6.82-25.17-7-57.76,3.54-73.83,63.91-40.84,98.59,11.65,10.69,24.93,16,40.84,16.91,54.31,3.84,111,3.91,160.39-22.14,13.52-6.07,26.52-13.22,39.49-20.38C521.67,461.49,531.83,423.36,515.59,397.29Z"/></g><path class="cls-7" d="M410.46,137c-2.33.87-4.83,1.26-6.73,3.15-1.59,1.58-3.19.21-4.56-.53-10.94-4.45-15.4-21.64-20.33-17-32.74,21.72-60.21-2.71-59.22,7.8-.66,2.33.28,11.53-2.23,11.59-.7-5.51-2.31-11-.39-16.56-5.44-13.06-6.75-24,5.21-33.95,15.78-13.78,45.8-16,61.68-2.12,2.71,2.45,4.79,5,9.48,4.54C408.15,96.36,413,124.32,410.46,137Z"/><path class="cls-5" d="M336.52,357.06c-8.92.93-18.32-2.73-26.88-.86-13.58.12-11.53,6.63-19.78-8.05-8-13.15-7.13-12.55,3.29-23.63-10.55-1.23-21.94,2.53-29.5-5.58-2.1-3-1.32-5.17,2.35-5.49,6.4-.55,12.83-.75,19.24-1.09,8.74.47,18.75-4.83,26.94-.7,9.79-.48,16.81,4.43,22.68,11.61-1.76.44-2.8-.67-4-1.66-5.86-4.76-12.1-7.94-20.16-7.59-13.93.62-27.92-.37-41.85,1-1.36.14-3-.17-3.51,1.56,1.08,7.2,18.21,5.47,23.92,5.91,8.3,1.14,8.5-3.89,12.33-3.65.6,1.43-.65,1.94-1.45,2.52-3.46,3.61-19,14-12,18.72,2,1.55,2.72-.76,3.42-1.74,3.51-4.94,8.49-8,14.07-12.27-1.11,6.79-20.31,14.36-14,21.38,4,2,13.84-12.25,19.34-10.1-3.47,4.53-18,8.61-15.92,15.22,2.7,4.38,7.84,1,11.33-.29,1.71-.62,3.89-4.49,5,.68C314.36,355.39,337.05,352,336.52,357.06Z"/><path class="cls-8" d="M431.45,69.1c-2.19,9.56-4.05,20.49-5.89,30.31-.27,6.16-8.3,4.64-6.44-1.17,1.44-4.95,4.65-35.12,10.11-33.49C431,65,431.68,66.42,431.45,69.1Z"/><path class="cls-8" d="M422.24,118.09c-.07,3.5-5.62,4.28-5.67.49C416,114.93,421.76,114.71,422.24,118.09Z"/><path class="cls-5" d="M312.18,311.66c-3.48-.86-.54-4.45-2.52-6,.65-3.27-1.58-28.53,1.2-27,1.83,0,1.22,2.45,1.28,3.9.32,7.78-.61,15.58.79,23.34A8,8,0,0,1,312.18,311.66Z"/><path class="cls-5" d="M426.35,374.66c1.41.35,20.34,11.37,13.1,10.61-5-3.94-11.69-6.55-15.56-11.46Z"/><path class="cls-5" d="M393.3,187.33c-3.18,16.78-23.91,30.83-44.59,30.22-.09-3.16.63-5.91-.88-8.05A57.07,57.07,0,0,0,393.3,187.33Z"/><path class="cls-5" d="M403.33,151.86c-.52-3.79,3.56-14.34,8.07-9,.85,3-7.25.89-2.86,4.74.42.35.95,1.25.53,1.35-3.57.84-2.71,3.84-3.24,6.18C403.92,158.07,403.36,153.33,403.33,151.86Z"/><path class="cls-5" d="M350.83,156.4c3.15,5.75-6.06,14.76,1.86,15.13.92,0,2.21-.13,2.08,1.33s-1.39,1.1-2.32,1.12C342.63,172.76,349.2,162.87,350.83,156.4Z"/><path class="cls-7" d="M373.74,141.35c-1.82.17-14.67,10.69-12.45,4.85C364,145.05,372.23,136.72,373.74,141.35Z"/><path class="cls-7" d="M330.39,140c3.17,2.42,9.32,3.71,11.11,7.05-2.43,2.19-9-4.08-12-5C328.33,141.31,329.16,140.36,330.39,140Z"/><path class="cls-8" d="M367.3,149.83c4.76-.06,4.64,7.15.07,6.89C362.86,156.92,363,149.87,367.3,149.83Z"/><path class="cls-8" d="M338.06,153.12c.12,4.44-6.7,4.84-6.6.37C330.92,148.88,338.2,148.77,338.06,153.12Z"/><path class="cls-2" d="M232.56,416.16c-10.15,10.84-38.73,18.77-74.07,18.11-33.15-3.18-58.59-13.14-68.22-24.18,3.57-16.68,6.92-34.58,9.65-51.91.28-1.37,3-11.36,1.1-22.12-2.62-15.3-5.26-30.6-8.09-46.09-3.45-7-10.16,9.46-15.13,9.76-1.81.26-3.12-.94-4.29-2C69.34,292.26,46.08,279.3,48,274c10.33-14.75,19.74-31.93,34.37-42.32,6.13-.65,12.39-6,18.29-1.88,5.73,3.71,16.93,6.75,13.64,15.76-2.81,7.91.2,13.83,6.18,18.86,2.76,1.85,15.7,13.15,16,5.32.18-16.19,29-20.16,12.58-42.87-5.45-6.69-16.51-16.1-8.39-24.82,9.89,3.44,20.34,5.83,31.09,5.88,5.14,1.15,13.74-4.72,14.69,3.4a13.33,13.33,0,0,0,7.79,8.62c11.29,4.2,23.13,8.65,34.77,11,2.8-.5,2.09,2.78,4.17,3.76,8.95,4.23,11.95,12.41,13.33,21.29,1.88,18.78.67,38.12-1.74,56.67-3.05,3.85-9.5,1.32-13.23,4.72C223.57,348,225.26,389.05,232.56,416.16Z"/><g class="cls-9"><path class="cls-10" d="M133.34,334.92c0-7.1-12.22-7.88-22.54-19.37-14.71-16.37-9.21-36.31-18.63-38.74-7.53-1.95-11.54,10.68-23.09,10.43-12.71-.28-17.54-15.78-26.83-14.16-4.53.79-7.12,5.13-13.53,18.51-11.85,24.75-18.22,37.13-17.94,43.33.71,15.85,5.91,32.29,17.94,43.33,14.49,13.3,25.14,6,43.34,17.95,24.3,16,28.4,43.76,33.53,42.29,8.1-2.33-13.62-68.4,13.41-90.16C124.91,343.57,133.32,340.81,133.34,334.92Z"/></g><path class="cls-11" d="M47.17,275.19c10.26,7.79,20.19,16,30.13,24.19C77,307,51.61,323,59.35,329.06c13,13,21.78,30.51,35.84,42.12,4.34-8,17.87-.19,25.31,3.45,4.52,3,7.57,3.19,9.43,7.17-2.23,5.71,1.37,6.24,4.9,9.91,1.8,3,1.75,6.07-.29,8.7-2.48,2.86-5.59,3.69-8.48,5.41-1.26.83-7.76,5.09-8.76,5.41-3,1.19-5.11-.39-9-1.08-8.67-1.54-14.62,3.48-18.66.85-3.27-2.48-3.44-3.3-4.48-5.54.29-6.7-4.74-10.4-8.63-14.45C58.82,371.09,37.27,354.69,20.58,334c-4.23-5.81-3.94-11.39-.22-17.59C28.88,302.37,37.4,288.34,47.17,275.19Z"/><path class="cls-11" d="M227.65,389.19c-2.66-11.86-1.75-22.62-2.36-35.08a43.59,43.59,0,0,1,.43-13c1.69-6.25,5.55-16.48,5-23.15,1.57-5.87,9.62-3.2,14.07-5.26A444.17,444.17,0,0,1,227.65,389.19Z"/><path class="cls-10" d="M85.16,405.46a11.74,11.74,0,0,0,13.75,2.2c7.47-3.58,17.17,6.3,22.85-2.25-10.83-5.16-16.06-5.33-23.25-7.5,11.36-2.2,18.86,8.77,31,3.9,3-2.3.16-3.58-3.8-5-9-3.25-13.5-4.87-15.71-4.9-.57,0-2.82,0-4-1.42-1.28-2.17,9.66.72,18.5,4,4,1.59,7.51,3.33,9,1.9,5.46-5.67-24.54-16.76-29.45-14.21-1.21.06-1.31.07-2.42-1.06,9.68-4.27,20.86,5.88,26,1.58-.16-4.29-19.19-10.2-23.59-12.64-4.09-1.64-6.25,3.75-10.21,3.72,2.68-10.4,15.36-5.35,21.94-1.76,3.58,2.67,15.42,6,13.88,11.26-1.14,2.7-.1,3.85,2.18,5.25,6.29,3.89,5.86,11.49-1,14.7-14.4,8.71-10.56,9.28-27.75,6.32.33-.45-12.79,3.42-13.12,2C88.92,411.08,86,406.67,85.16,405.46Z"/><path class="cls-12" d="M119.21,106.69c-.48,1.81-1.16,3.58-.85,5.54.74,4.8-3,8-4.3,12.13-7-5,5.46-8,0-17.26-.55-1.28-2.64-3-.36-4.06C116.9,101.42,116.29,108.78,119.21,106.69Z"/><path class="cls-13" d="M121.86,102.29c.65,9,11.26,5.28,10.62,9.08-2,5.18-12.79-2.17-13.94-5.72-.18-1.93-2.61-4.06-.66-5.61S119.81,102.69,121.86,102.29Z"/><path class="cls-14" d="M77.1,210.7c1.1,1.13,2.3,2.38,1.82,4.05-2.45,4.69,4.21,21.46.31,19.34C74.68,226.64,74.22,218.82,77.1,210.7Z"/><path class="cls-11" d="M141.34,202.11c4.3-20.93-1.89-16.48-4.94-32.84-.24-5.74-5.23-33.49,2.69-33.16,5.89-2.13,17.62.46,17.5-8.27.12-2-.42-5,1.87-5.39,5.26.41,0,11.07,10.46,10.12,5.46-1.54,26.83,3,25.9-4.31.05-1,.29-2.25,1.49-2.5,4.38.68-.53,6.92,9.3,6.7,2.61.14,4.71.63,4.92,3.83.89,13.76,2.49,27.57-1.29,41.14-6.92,28-27.52,19.59-25.39,29.49C176.78,209.72,152.69,215.13,141.34,202.11Z"/><path class="cls-10" d="M159.09,203.37a38.25,38.25,0,0,1-14.24-16.12c2.85.05,4.05,1.88,5.38,2.92a56.16,56.16,0,0,0,17,9.22c10.17,5,20.08-.79,16.84,7.14C177.33,210.76,162.62,206.88,159.09,203.37Z"/><path class="cls-10" d="M230.71,318A50.1,50.1,0,0,1,227,336.62c-3.13-1.86-.94-4.62-.41-6.31,7.37-21.09-5.28-40.11-10.74-59.95-.31-.93-.73-2,1.16-3.12C221.27,284.4,232.26,299.39,230.71,318Z"/><path class="cls-15" d="M224.16,162.12c-4.93-7.58-.54-17.88-1.23-26.48,1.07-20.44-6.23-36.86-23.66-48.1-15.34-12-28.9-7.72-46.35-5.06-13.45,1.09-23.69,8.51-31.06,19.81-3.86,3.19,5.41,8.25,8.41,8.93-6.6,1.15-7.4-4.19-11.05-4.48v0c-3.4,3.22-.92,8.39-3.66,11.89-1.34,1.78-1.39,3.75-1.49,5.77-1.44,9.61,2.15,19.25-1.56,28.59-4.82,21.44-34.8,38.69-34.57,59.17,4.65-20.27,29.34-36.74,35.44-56.78,3.93,4.69-11.15,28.29-15.2,33-7.63,11.27-20.06,30.21-16.54,44h0c.74,1.49,1.74.54,2.64.27,15.57-5.31,10.64-4.2,24.68,3.1,12.31,6.39-4.34,15.32,7.86,26.82,5.15,5.74,21.6,16.19,28.84,13.81-26.86-14,22.46-20.82,6.28-47.32-28-30,.24-20.69-10.43-48.59a48.1,48.1,0,0,1-4.18-13.52,128.14,128.14,0,0,1-.8-18.67c0-10.86-1.05-10.44,10.41-12.17,6.52-1,11.08-3,11.39-10.35,0-.33.4-.42.71-.29,3.5,5.46,2.66,9,10.63,8.4,7.93-1.3,24.31,4.26,26.93-6.06,2.17,4,4.64,5.79,8,6,3.88.19,5.12,2.55,5.09,5.91-.09,9.48,1.55,18.9.11,28.43-3.29,36.12-32,28.16-25.63,39.4,1.11,8.73,6.5,13.29,14.59,15.69,9.73,2.89,19.39,6.08,29,9.44,2.55.9,3-.33,3.73-2C250.35,200.51,248.21,188.22,224.16,162.12ZM233.42,185c-3.65-7.4-9.07-12.62-10.31-21.29,19.6,19.87,27.94,38.29,8.42,61.88C236.76,211.33,242.4,199.09,233.42,185Z"/><path class="cls-2" d="M137.15,212.29c7.84,11.76,24.76,24.87,11.47,38.6C154.57,226.31,132.43,227.65,137.15,212.29Z"/><path class="cls-16" d="M130.09,116.42a8.52,8.52,0,0,1,1.81.3c2.17.4,1.72,3.78-.55,3.24-4.33-.48-7.9.56-10.19,4.64C114.62,128.33,120.91,114.71,130.09,116.42Z"/><path class="cls-10" d="M92.92,377.83c-2,7.2-3.91,13.89-5.88,20.91C85.56,393.55,89.23,380.33,92.92,377.83Z"/><path class="cls-10" d="M48.39,320.22c2.66,1.4,5.71,2.38,6.84,6.48A11.08,11.08,0,0,1,48.39,320.22Z"/><path class="cls-10" d="M181.52,158c.43,6.93,8.18,9.45,3.59,13.1-1.35,1.88-9.31,2.92-9.15-.18.32-1.74,1.91-.4,2.93-.21,1.88.34,3.62.17,4.73-1.57C185.14,166.09,178.29,164.74,181.52,158Z"/><path class="cls-17" d="M170.13,145.13c-.46,3.75-10.82-3.86-13.4-4.27C152.81,135.6,169.93,143.25,170.13,145.13Z"/><path class="cls-18" d="M201,138c-.35,1.62-14.59,9.52-11.37,4.27C192.37,141.53,199.26,134.9,201,138Z"/><path class="cls-8" d="M195.39,147.64c4.63-.06,4.51,7,.06,6.7C191.07,154.53,191.21,147.67,195.39,147.64Z"/><path class="cls-8" d="M166.94,150.84c.12,4.31-6.51,4.7-6.41.36C160,146.71,167.08,146.6,166.94,150.84Z"/></svg>