<svg id="Capa_1" data-name="Capa 1" xmlns="http://www.w3.org/2000/svg" xmlns:xlink="http://www.w3.org/1999/xlink" viewBox="0 0 500 500"><defs><style>.cls-1{fill:#7c8985;}.cls-2{clip-path:url(#clip-path);}.cls-12,.cls-3{fill:#363533;}.cls-11,.cls-3{opacity:0.15;}.cls-4{fill:#e6e3dc;}.cls-5{fill:#ccbaa9;}.cls-6{fill:#cabaa8;}.cls-7{fill:#f5ba8f;}.cls-8{fill:#582e15;}.cls-9{fill:#fcb8a5;}.cls-10{fill:#442920;}.cls-13{fill:#333;}</style><clipPath id="clip-path"><path class="cls-1" d="M369,390.88c-1.55,17.26-12.83,31.17-27.46,34.66-13.63,3.26-25-3.78-27.46-5.4-43.52-1.14-66.79-.47-80.13.45a371.09,371.09,0,0,1-46.81.45c-3.08-.16-5.59-.33-7.2-.45-12.25,11.07-30.13,11.29-41,1.8-8.44-7.38-11.65-19.8-8.21-31.51.55-7.46.7-13.15,1.13-17,.29-2.6.3-5.23.51-7.85.24-3.17.68-6.33.83-9.51.13-2.74.61-5.44.79-8.18.22-3.38.65-6.73.85-10.11.17-3,.66-6,.77-9,.13-3.5.45-7,.85-10.48.21-1.79.18-3.63.29-5.44a12.49,12.49,0,0,1,.29-2.76,3.31,3.31,0,0,1,2.25-2.24c.85-.66,1.59-1.53,2.77-1.47.09.65.16,1.31.25,2,.25,1.87,1.1,3.37,2.16,3.34a12.69,12.69,0,0,1,3.69.82c3.63,1,7.38.77,11.06,1.19,2.85.33,5.71-.12,8.56,0,.37,0,.78.14,1.1-.21,1.36.41,1.77.17,2.23-1.24s.95-2.89,1.44-4.34c.09-.26.17-.52.26-.78a31,31,0,0,0,.48-10.44,14,14,0,0,1-.48-3.69c.65,1.17,1.3.69,2.14.12a73.24,73.24,0,0,1,7.94-4.85c2.69-1.38,5.28-3,8-4.34,2.38-1.22,4.81-2.31,7.24-3.41,2.92-1.32,5.83-2.7,8.81-3.83,1.65-.63,3.28-1.36,5-1.84.87-.25,1.6-1,2.59-.86a5.17,5.17,0,0,1,1.62-.74,42.42,42.42,0,0,1,4.62-2.2c5.06-2.22,6.9-6.56,7.17-12,.08-1.78.18-3.55.27-5.33a4.81,4.81,0,0,1,2.83,1.18,48.9,48.9,0,0,0,9.61,4.71,26.33,26.33,0,0,0,17.24.33c4.33-1.31,8.26-3.52,12.23-5.66.39-.21.75-.63,1.27-.35.1,2.51.08,5,.42,7.51a11.86,11.86,0,0,0,6.54,9.35,29.93,29.93,0,0,1,4.88,2.18,4.25,4.25,0,0,1,1.37.74A20.87,20.87,0,0,1,290.5,276c3.63,1.51,7.29,2.93,10.87,4.56,3.22,1.48,6.35,3.18,9.52,4.8,1.92,1,3.85,2,5.73,3.06a38.66,38.66,0,0,1,4.76,2.92,22,22,0,0,0,5.09,3,6.91,6.91,0,0,1,0,1.44,27.94,27.94,0,0,0,.25,11.73l.26.86c.36,1.19.73,2.37,1.08,3.56.59,2,1.17,2.25,3,1.4.19.81.83.82,1.38.73a20.59,20.59,0,0,1,4.44,0,33.77,33.77,0,0,0,6.89-.24,35.07,35.07,0,0,1,6.63-.49,1.61,1.61,0,0,0,.86-.27,6.56,6.56,0,0,1,4-.95c1.32.06,1.78-.42,1.73-1.78a6.72,6.72,0,0,1,.73-3.59,8,8,0,0,1,2.54,1.48,3.21,3.21,0,0,1,2.27,2.91c.25,1.83.4,3.69.47,5.54.2,4.76.63,9.49,1.14,14.22.27,2.39.32,4.82.51,7.23.26,3.21.64,6.41.86,9.63.13,2.05.38,4.09.5,6.14.19,3.34.54,6.67,1,10a15.68,15.68,0,0,1,.15,1.93c.07,6.06.79,11,.91,12.78C368.27,381.51,368.58,385.69,369,390.88Z"/></clipPath></defs><path class="cls-1" d="M369,390.88c-1.55,17.26-12.83,31.17-27.46,34.66-13.63,3.26-25-3.78-27.46-5.4-43.52-1.14-66.79-.47-80.13.45a371.09,371.09,0,0,1-46.81.45c-3.08-.16-5.59-.33-7.2-.45-12.25,11.07-30.13,11.29-41,1.8-8.44-7.38-11.65-19.8-8.21-31.51.55-7.46.7-13.15,1.13-17,.29-2.6.3-5.23.51-7.85.24-3.17.68-6.33.83-9.51.13-2.74.61-5.44.79-8.18.22-3.38.65-6.73.85-10.11.17-3,.66-6,.77-9,.13-3.5.45-7,.85-10.48.21-1.79.18-3.63.29-5.44a12.49,12.49,0,0,1,.29-2.76,3.31,3.31,0,0,1,2.25-2.24c.85-.66,1.59-1.53,2.77-1.47.09.65.16,1.31.25,2,.25,1.87,1.1,3.37,2.16,3.34a12.69,12.69,0,0,1,3.69.82c3.63,1,7.38.77,11.06,1.19,2.85.33,5.71-.12,8.56,0,.37,0,.78.14,1.1-.21,1.36.41,1.77.17,2.23-1.24s.95-2.89,1.44-4.34c.09-.26.17-.52.26-.78a31,31,0,0,0,.48-10.44,14,14,0,0,1-.48-3.69c.65,1.17,1.3.69,2.14.12a73.24,73.24,0,0,1,7.94-4.85c2.69-1.38,5.28-3,8-4.34,2.38-1.22,4.81-2.31,7.24-3.41,2.92-1.32,5.83-2.7,8.81-3.83,1.65-.63,3.28-1.36,5-1.84.87-.25,1.6-1,2.59-.86a5.17,5.17,0,0,1,1.62-.74,42.42,42.42,0,0,1,4.62-2.2c5.06-2.22,6.9-6.56,7.17-12,.08-1.78.18-3.55.27-5.33a4.81,4.81,0,0,1,2.83,1.18,48.9,48.9,0,0,0,9.61,4.71,26.33,26.33,0,0,0,17.24.33c4.33-1.31,8.26-3.52,12.23-5.66.39-.21.75-.63,1.27-.35.1,2.51.08,5,.42,7.51a11.86,11.86,0,0,0,6.54,9.35,29.93,29.93,0,0,1,4.88,2.18,4.25,4.25,0,0,1,1.37.74A20.87,20.87,0,0,1,290.5,276c3.63,1.51,7.29,2.93,10.87,4.56,3.22,1.48,6.35,3.18,9.52,4.8,1.92,1,3.85,2,5.73,3.06a38.66,38.66,0,0,1,4.76,2.92,22,22,0,0,0,5.09,3,6.91,6.91,0,0,1,0,1.44,27.94,27.94,0,0,0,.25,11.73l.26.86c.36,1.19.73,2.37,1.08,3.56.59,2,1.17,2.25,3,1.4.19.81.83.82,1.38.73a20.59,20.59,0,0,1,4.44,0,33.77,33.77,0,0,0,6.89-.24,35.07,35.07,0,0,1,6.63-.49,1.61,1.61,0,0,0,.86-.27,6.56,6.56,0,0,1,4-.95c1.32.06,1.78-.42,1.73-1.78a6.72,6.72,0,0,1,.73-3.59,8,8,0,0,1,2.54,1.48,3.21,3.21,0,0,1,2.27,2.91c.25,1.83.4,3.69.47,5.54.2,4.76.63,9.49,1.14,14.22.27,2.39.32,4.82.51,7.23.26,3.21.64,6.41.86,9.63.13,2.05.38,4.09.5,6.14.19,3.34.54,6.67,1,10a15.68,15.68,0,0,1,.15,1.93c.07,6.06.79,11,.91,12.78C368.27,381.51,368.58,385.69,369,390.88Z"/><g class="cls-2"><path class="cls-3" d="M313.74,337.18c-.46,0,5.93,51.39-20.05,68.86-6.21,4.17-11.6,4.61-32.12,5.7-65.81,3.49-76.06,2.42-78.25,7.73-5.56,13.5,55.41,33.38,63.85,79,1.2,6.46,2.19,18.81,11.75,28.37,7,6.95,18.37,12.19,28.36,11.74,10.38-.46,21.14-3.87,28.37-11.74l6.27-8.12a40,40,0,0,0,5.48-20.25,369.06,369.06,0,0,1-14.51-86.15C311.26,378.12,314.15,337.2,313.74,337.18Z"/></g><path class="cls-4" d="M172.85,307.52c-.09.26-.17.52-.26.78a2.12,2.12,0,0,1-.05-.68v-.06a61.46,61.46,0,0,0,.68-6.64,26.37,26.37,0,0,0-.53-5.32,2.56,2.56,0,0,1,.16-2.21,14,14,0,0,0,.48,3.69A31,31,0,0,1,172.85,307.52Z"/><path class="cls-4" d="M327,307.65a2,2,0,0,1-.07.74l-.26-.86a27.94,27.94,0,0,1-.25-11.73,6.91,6.91,0,0,0,0-1.44,1.52,1.52,0,0,1,.3,1.37,31.86,31.86,0,0,0,.25,11.8S327,307.61,327,307.65Z"/><path class="cls-5" d="M357.7,306.76a6.72,6.72,0,0,0-.73,3.59c0,1.36-.41,1.84-1.73,1.78a6.56,6.56,0,0,0-4,.95,1.61,1.61,0,0,1-.86.27,35.07,35.07,0,0,0-6.63.49,33.77,33.77,0,0,1-6.89.24,20.59,20.59,0,0,0-4.44,0c-.55.09-1.19.08-1.38-.73-1.86.85-2.44.58-3-1.4-.35-1.19-.72-2.37-1.08-3.56l-.26-.86a.4.4,0,0,1,.33.12c.16.14.15.43.23.64.41,1.17.77,2.36,1.1,3.55.42,1.49.71,1.66,2.14,1.46a2.72,2.72,0,0,1,.39,0H331a.92.92,0,0,1,.26.07,2.57,2.57,0,0,0,1.32.36c4.67-.16,9.37.35,14-.65a8,8,0,0,1,1.95-.05,6.26,6.26,0,0,0,3.57-.74,5.54,5.54,0,0,1,2.81-.49c1.32,0,1.62-.35,1.67-1.74C356.67,308.82,356.52,307.55,357.7,306.76Z"/><path class="cls-6" d="M172.85,307.52c-.09.26-.17.52-.26.78-.49,1.45-1,2.89-1.44,4.34s-.87,1.65-2.23,1.24c-.32.35-.73.23-1.1.21-2.85-.12-5.71.33-8.56,0-3.68-.42-7.43-.22-11.06-1.19a12.69,12.69,0,0,0-3.69-.82c-1.06,0-1.91-1.47-2.16-3.34-.09-.65-.16-1.31-.25-2,.58.07.43.58.49.94.1.59.16,1.19.32,1.78a2.72,2.72,0,0,0,2.77,2.35c1.68.08,3.23,1,4.93,1.17a117.31,117.31,0,0,0,18.17.67h.15c1.43,0,1.59-.1,2.06-1.64.4-1.35.94-2.65,1.37-4a1.41,1.41,0,0,1,.18-.45A.32.32,0,0,1,172.85,307.52Z"/><path class="cls-7" d="M310.83,181.7c.79.7,1.89,1.71,3.14,3a19.19,19.19,0,0,1,2.61,3.12,14.73,14.73,0,0,1,1.94,5.35,21.53,21.53,0,0,1-1.79,13.7,19.26,19.26,0,0,1-9.94,9,20.35,20.35,0,0,1-9.13,1.68,2.64,2.64,0,0,0-2.79,2A43.43,43.43,0,0,1,283.08,236a45,45,0,0,1-9.84,6.92c-1.08.53-2,1.26-1.64,2.79a1.08,1.08,0,0,1-.17.93,1,1,0,0,1-.31-.63c-.26-1.32-.43-1.42-1.53-.81a43.2,43.2,0,0,1-15.69,4.64c-7.35.9-14.4-.65-21.24-3.43-1-.42-2-1.06-3-1.52-.88-.39-1.1-.23-1.14.77,0,.85,0,1.7,0,2.55,0,.48.06,1-.36,1.35a13.43,13.43,0,0,1-.25-3.69,2.6,2.6,0,0,0-1.35-2.82,50.69,50.69,0,0,1-12.63-9.45,39.74,39.74,0,0,1-9.07-14.05c-.58-1.59-1-2-2.67-1.91a20.31,20.31,0,0,1-13.56-4.16c-5.18-3.86-7.66-9.15-7.89-15.78-.2-5.94,1.81-10.74,6.28-14.38a3.61,3.61,0,0,0,.73-1.08,6.17,6.17,0,0,1,1.41-.8c1.14-.65,1.68-.42,2,.93.87,3.57,2,7.07,3.07,10.56a2.14,2.14,0,0,1,.1,1.3,18.83,18.83,0,0,0-.61,7.57,5.3,5.3,0,0,0,4.34,4.63c1.33.3,1.91-.14,1.76-1.53s-.08-2.59-.32-3.87c-.54-3.89-.85-7.81-1.06-11.74-.35-6.34-.06-12.67-.2-19a4,4,0,0,1,1.44-3.42c3.48-2.88,5.59-6.77,7.24-11,1-2.41,1.7-4.88,2.54-7.33,2-5.91,5.19-10.94,10.43-14.28a31.39,31.39,0,0,1,10.32-3.78c.67-.15,1.36-.24,2-.44a77.77,77.77,0,0,1,10.22-.81,49.61,49.61,0,0,1,17,3.18c1.13.51,1.33,1.61,1.52,2.69.31,1.84.73,3.65,1.18,5.45,1.42,5.74,3.84,10.86,8.13,14.84a7.9,7.9,0,0,0,1.38,1.47c1,.69,2,.65,2,.8,0,.33-5.1.47-5.1.73s7.19-.15,15.42,2.81c1.18.42,2.14.83,2.8,1.12,3.83,1.84,7.92,2.25,12,2.46,2,.09,2.19.37,2.3,2.44.23,4.62.28,9.24.21,13.86a147.69,147.69,0,0,1-1.13,17.2c-.25,1.89-.65,3.84-.21,4,.73.26,3.15-4.57,5.12-8.79a8.12,8.12,0,0,1,.47-2.13c1-3.12,2-6.23,2.7-9.43.12-.53.27-.85.5-1,.08,0,.27-.09,1,.2A6.52,6.52,0,0,1,310.83,181.7Z"/><path class="cls-8" d="M299.81,202.54a5.71,5.71,0,0,1-.1-3.09c.62-4,.86-8.13,1.09-12.22.37-6.81.22-13.63,0-20.44-.06-1.55-.15-1.62-1.61-1.67-1.63-.05-7.21.25-10.46-1.6a30,30,0,0,0-4.16-2.11l-.54-.21c-4-1.51-7.53-1-11-3a13.22,13.22,0,0,1-1.94-1.47c-6.71-5.74-9.17-15.22-9.86-18.64-.24-1.19-.46-2.38-.68-3.58a2.37,2.37,0,0,0-1-1.7c.28-1.4-.54-2.51-1-3.68a15.21,15.21,0,0,0-11.77-10A12.85,12.85,0,0,0,233.27,126c-.46.89-.92,1.78-1.35,2.69a1.3,1.3,0,0,0,.22,1.64c-1.76.43-3.52.85-5.28,1.3-8.59,2.22-14,8-17,16.64a99,99,0,0,1-3.93,10.65,23.73,23.73,0,0,1-6.26,8.33,2.89,2.89,0,0,0-1.1,2.4c0,8-.24,16,.41,24,.2,2.47.51,4.92.77,7.38a1.29,1.29,0,0,1-.87,1.61,1.19,1.19,0,0,1-1.6-.57,39.08,39.08,0,0,1-3.13-7.89c-.77-2.62-1.56-5.24-2.31-7.88-.4-1.39-.76-2.8-1.07-4.22-.2-.92-.6-1-1.29-.55s-1.06.85-1.79.68c-1.12-2.49-2.56-4.82-3.49-7.41-.3-.83-.93-.87-1.62-.79a8.81,8.81,0,0,1-4.11-.28,3.47,3.47,0,0,1-1.58-1,1.32,1.32,0,0,1,.3-2.14,6.1,6.1,0,0,0,2.68-2.93,6.38,6.38,0,0,0-.44-4.21c-2.09-4.72-4.64-19.84-4.35-26.88.56-13.88,13.26-23.93,18.21-27.85a36.32,36.32,0,0,1,12.26-6.45,29.71,29.71,0,0,1,5-.86,19.18,19.18,0,0,1,5.29.31,1.45,1.45,0,0,0,1.8-.86c5.72-11.14,14.92-16.93,26.47-19.07a43.51,43.51,0,0,1,14.06-.64c9.14,1.18,15.86,6.21,29.29,16.27,10.07,7.55,15.11,11.32,17.92,15.86a43,43,0,0,0,7.38,9,16.59,16.59,0,0,0,9.16,4.8,1.48,1.48,0,0,1,1.42,1c.21.72-.28,1.13-.68,1.56-2.62,2.79-6,3.5-9.5,3.78-1.4.11-1.39.09-1.05,1.49,1.32,5.54,7.24,11.38,12.89,11.45a3.3,3.3,0,0,1,1,.2c1,.36,1.21.84.61,1.8a12.32,12.32,0,0,1-5,4.41c-1.27.67-2.61,1.19-3.94,1.74-1.72.71-1.92,1.07-1.76,3a46.19,46.19,0,0,1-1.72,17.81c-.69,2.2-1.7,4.26-2.55,6.39-.77.53-1.37,0-2-.38-.41-.27-.81-.53-1,.3-.79,4-2.2,7.81-3.3,11.72a11.14,11.14,0,0,1-.95,3.2c-.95,2.61-.86,3.45-1.58,4.28A5.21,5.21,0,0,1,299.81,202.54Z"/><path class="cls-7" d="M368.29,272.56a32.85,32.85,0,0,1-3,8.14c-.61,2.63-1.57,5.14-2.37,7.7q-2.39,7.69-4.8,15.4a7.82,7.82,0,0,0-.43,3c-1.18.79-1,2.06-1.07,3.27-.05,1.39-.35,1.71-1.67,1.74a5.54,5.54,0,0,0-2.81.49,6.26,6.26,0,0,1-3.57.74,8,8,0,0,0-1.95.05c-4.64,1-9.34.49-14,.65a2.57,2.57,0,0,1-1.32-.36.92.92,0,0,0-.26-.07h-.15a2.72,2.72,0,0,0-.39,0c-1.43.2-1.72,0-2.14-1.46-.33-1.19-.69-2.38-1.1-3.55-.08-.21-.07-.5-.23-.64,0,0,0-.08,0-.12a31.86,31.86,0,0,1-.25-11.8,1.52,1.52,0,0,0-.3-1.37,41.26,41.26,0,0,0,1.41-6.87,4.25,4.25,0,0,0-1.3-3.38c-1.6-2-3.4-3.75-4.48-6.15-1.55-3.45-1-9.39,4.09-11.13a2.65,2.65,0,0,0,1.81-2,6.23,6.23,0,0,1,1.76-3.08,3.11,3.11,0,0,0,.91-2.61,26.59,26.59,0,0,1,.17-6.55,7.77,7.77,0,0,1,1.42-3.29c.45-.24.62-1.13,1.28-.78s.58,1,.59,1.62c0,1.74-.48,3.44-.52,5.19,0,.23-.1.47-.09.71,0,.7-.31,1.5.42,2,.46.32,1.93-.11,2.47-.64a1.6,1.6,0,0,0,.42-.58c1-2.8,3.4-3.93,5.76-5.05.38-.18.79-.37,1.21,0,.14,0,.3.16.43.13,2.95-.64,5.34.73,7.64,2.36,4.37,3.1,8.73,6.23,13.09,9.35C368,265.75,369.06,268.82,368.29,272.56Z"/><path class="cls-9" d="M357.7,306.76a6.72,6.72,0,0,0-.73,3.59c0,1.36-.41,1.84-1.73,1.78a6.56,6.56,0,0,0-4,.95,1.61,1.61,0,0,1-.86.27,35.07,35.07,0,0,0-6.63.49,33.77,33.77,0,0,1-6.89.24,20.59,20.59,0,0,0-4.44,0c-.55.09-1.19.08-1.38-.73a.61.61,0,0,1-.18-.09H331a.92.92,0,0,1,.26.07,2.57,2.57,0,0,0,1.32.36c4.67-.16,9.37.35,14-.65a8,8,0,0,1,1.95-.05,6.26,6.26,0,0,0,3.57-.74,5.54,5.54,0,0,1,2.81-.49c1.32,0,1.62-.35,1.67-1.74C356.67,308.82,356.52,307.55,357.7,306.76Z"/><path class="cls-7" d="M177.49,278.08a17,17,0,0,1-4,5.47,4.83,4.83,0,0,0-1.6,5.71c.47,1.33.4,2.81.95,4.13a2.56,2.56,0,0,0-.16,2.21,26.37,26.37,0,0,1,.53,5.32,61.46,61.46,0,0,1-.68,6.64v.06a1.41,1.41,0,0,0-.18.45c-.43,1.33-1,2.63-1.37,4-.47,1.54-.63,1.67-2.06,1.64h-.15a117.31,117.31,0,0,1-18.17-.67c-1.7-.19-3.25-1.09-4.93-1.17a2.72,2.72,0,0,1-2.77-2.35c-.16-.59-.22-1.19-.32-1.78-.06-.36.09-.87-.49-.94a23.34,23.34,0,0,0-1.38-5.62c-2.19-7-4.46-14-6.7-20.94a46.76,46.76,0,0,1-2.51-7c-.52-2.45-.71-4.9.71-7.16a8.9,8.9,0,0,1,2.56-2.59c5-3.45,9.81-7.13,14.92-10.36a15.46,15.46,0,0,1,1.88-.9c3.2-1,6.21-.91,8.87,1.57a9,9,0,0,1,2.22,3.06,2.81,2.81,0,0,0,3,1.18c.32-.18.32-.53.35-.85a6.69,6.69,0,0,0-.3-2.52c-.66-2-.26-4.1-.19-6.16,0-.33.13-.66.57-.39a9.5,9.5,0,0,1,2.8,7c0,1.42,0,2.84,0,4.27a2.71,2.71,0,0,0,.84,2.27,7,7,0,0,1,2,3.62,2,2,0,0,0,1.52,1.64C177.71,268,179.67,273.62,177.49,278.08Z"/><path class="cls-7" d="M168.93,313.69c0,.06,0,.13,0,.19-.32.35-.73.23-1.1.21-2.85-.12-5.71.33-8.56,0-3.68-.42-7.43-.22-11.06-1.19a12.69,12.69,0,0,0-3.69-.82c-1.06,0-1.91-1.47-2.16-3.34-.09-.65-.16-1.31-.25-2,.58.07.43.58.49.94.1.59.16,1.19.32,1.78a2.72,2.72,0,0,0,2.77,2.35c1.68.08,3.23,1,4.93,1.17a117.31,117.31,0,0,0,18.17.67h.15Z"/><path class="cls-7" d="M271.37,254.36c-2.84,1.51-5.64,3.1-8.55,4.46-8.23,3.86-16.48,4.31-24.87.51-3.37-1.52-6.51-3.46-9.76-5.2,0-1.53-.05-3.07-.07-4.61s0-2.83,0-4.25c0-1.22.33-1.44,1.4-.87a42.37,42.37,0,0,0,4.5,2.18,52.33,52.33,0,0,0,10.58,2.7,35.5,35.5,0,0,0,14.93-.87,49.66,49.66,0,0,0,8.67-2.84,14.65,14.65,0,0,1,2.25-1.2c.73-.2,1,0,.9.77a10.21,10.21,0,0,0,0,1.46Z"/><path class="cls-7" d="M331.07,313.35c-1.86.85-2.44.58-3-1.4-.35-1.19-.72-2.37-1.08-3.56l-.26-.86a27.94,27.94,0,0,1-.25-11.73,6.91,6.91,0,0,0,0-1.44,1.52,1.52,0,0,1,.3,1.37,31.86,31.86,0,0,0,.25,11.8s0,.08,0,.12c.16.14.15.43.23.64.41,1.17.77,2.36,1.1,3.55.42,1.49.71,1.66,2.14,1.46a2.72,2.72,0,0,1,.39,0H331Z"/><path class="cls-7" d="M172.85,307.52c-.09.26-.17.52-.26.78-.49,1.45-1,2.89-1.44,4.34s-.87,1.65-2.23,1.24a1.74,1.74,0,0,1-.1-.19h.11c1.43,0,1.59-.1,2.06-1.64.4-1.35.94-2.65,1.37-4a1.41,1.41,0,0,1,.18-.45v-.06a61.46,61.46,0,0,0,.68-6.64,26.37,26.37,0,0,0-.53-5.32,2.56,2.56,0,0,1,.16-2.21,14,14,0,0,0,.48,3.69A31,31,0,0,1,172.85,307.52Z"/><path class="cls-7" d="M166.13,248.06c-.1,0-.31.08-.31.11.19,2.13-.54,4.31.28,6.43a7.79,7.79,0,0,1,.29,3.12c0,.55-.3.92-.8.77a6.37,6.37,0,0,0-2.17-.18c-.55,0-.7-.35-.85-.79-1.15-3.36-3.67-5-6.78-5.71a6.14,6.14,0,0,0-2.49.25,6.23,6.23,0,0,1-1.72.11,4,4,0,0,1,3.06-.69,1.19,1.19,0,0,0,1.38-.91c1.42-3.81,4.38-4.62,7.76-4.12A4.38,4.38,0,0,1,166.13,248.06Z"/><path class="cls-7" d="M343.8,251.7a12.23,12.23,0,0,0-5.53,3.32,3.86,3.86,0,0,0-.86,1.27c-.71,2.13-1.61,2-3.12,2.21-.78.11-1.19-.31-1.15-1.22a55.64,55.64,0,0,1,.59-5.76,6.37,6.37,0,0,0,.12-1.07c0-1.78-.23-1.94-1.59-1.17,1.61-3.86,7.08-3.54,9.28-1.56A7.46,7.46,0,0,1,343.8,251.7Z"/><path class="cls-10" d="M232.14,130.34c-.9,0-1-.44-.73-1.24,1.76-4.33,4.25-8,8.62-9.65a13,13,0,0,1,10.79.6,16.1,16.1,0,0,1,8.34,9.67c.23.68.53,1.34.78,2,.16.44.3.89-.36,1a53.61,53.61,0,0,0-11.9-2.78,58.83,58.83,0,0,0-13.59.21C233.44,130.27,232.79,130.29,232.14,130.34Z"/><path class="cls-8" d="M279.79,159.08a28.13,28.13,0,0,0-7.71-1.23,14.82,14.82,0,0,0-5.47.68,2.05,2.05,0,0,0-1.4,2.55,1.9,1.9,0,0,0,2.17,1.69c.73,0,1.45-.23,2.17-.25a32.3,32.3,0,0,1,12.92,2.15c1.68.67,2.65.21,3.3-1.59a2,2,0,0,1,.21-.37C286.17,161.66,282.36,159.93,279.79,159.08Z"/><path class="cls-8" d="M226.85,157.86a18.11,18.11,0,0,1,5.42.54,2.29,2.29,0,0,1,1.93,1.85,2,2,0,0,1-2.49,2.43,30.15,30.15,0,0,0-11,.79c-1.19.31-2.36.72-3.53,1.14-1.63.58-2.57.27-3-1.07s0-2.21,1.58-3A27.77,27.77,0,0,1,226.85,157.86Z"/><path class="cls-7" d="M299.81,202.54c2-.1,2.27-.39,3-2.36.82-2.26,1.72-4.5,2.58-6.75a20.92,20.92,0,0,1,.49,9.24,5.28,5.28,0,0,1-4.57,4.17c-1.66.13-2.26-.5-2.12-2.25A4.88,4.88,0,0,1,299.81,202.54Z"/><path class="cls-7" d="M194.16,194.17c1,1.89,1.63,4,2.51,5.93.19.39.32.82.51,1.21.28.57.53,1.25,1.3,1.16a1.45,1.45,0,0,0,1.28-1.45c.14,1.48.31,3,.39,4.44a1.17,1.17,0,0,1-1.34,1.39,5.89,5.89,0,0,1-5.53-5.23c-.28-2.39.23-4.76.45-7.13C193.75,194.26,194,194.19,194.16,194.17Z"/><g class="cls-11"><path class="cls-12" d="M360.24,308.24a5.8,5.8,0,0,1,.91,1.95c.21,1.54-.54,2.56-2.5,3.38a33.37,33.37,0,0,1-7.15,1.76c-5.31.95-10.65.74-16,.71a47.2,47.2,0,0,1-9.21-1.3,10.4,10.4,0,0,0-1.25-.15c-.63,0-.92.29-.91,1,0,1.86-.21,3.71-.26,5.58q-.22,7.81-.7,15.63c-.16,2.7-.32,5.4-.45,8.11-.21,4.27-.58,8.54-.88,12.81,0,.52,0,1.05,0,1.58.05,4.82-.44,9.62-.52,14.44-.1,5.74-.4,8.61-.46,9.45-.28,4-.63,7.29-.9,9.54a30.89,30.89,0,0,1-1.57-10.32c0-.23,0-.36.07-1.59.21-4.6.41-9.19.75-13.78.22-3.09.54-6.2.53-9.31,0-5.67.55-11.31.76-17,.1-2.74.32-5.48.45-8.23.2-4.39.4-8.79.83-13.17.19-1.89.29-3.78.45-5.67.19-2.33,1.69-3.5,3.41-4.34.88-.43,1.19-.85,1.07-1.77.51,0,.45.45.56.76.4,1.17.77,2.36,1.1,3.56.42,1.48.71,1.65,2.14,1.44a1.34,1.34,0,0,1,.79.06,2.6,2.6,0,0,0,1.33.35c4.67-.16,9.37.35,14-.65a7.93,7.93,0,0,1,1.95-.05,6.29,6.29,0,0,0,3.57-.74,5.54,5.54,0,0,1,2.81-.49c1.32,0,1.61-.35,1.67-1.75,0-1.2-.1-2.47,1.07-3.25Z"/><path class="cls-12" d="M178.88,390.88c0-3.45.12-6.91,0-10.35-.17-4-.62-8-.84-12.08-.09-1.57-.21-3.15-.28-4.72-.24-5.78-.45-11.57-.72-17.35q-.28-6-.69-12.1c-.35-5.4-.77-10.8-.93-16.22,0-.6-.17-1.2-.19-1.8,0-1.67-.32-1.92-1.85-1.63-1.81.34-3.59.8-5.43,1s-3.66.4-5.5.44a75.5,75.5,0,0,1-18.78-1.66c-.66-.15-1.35-.2-2-.41-2.88-.9-3.73-3-2.29-5.74.85-.66,1.59-1.52,2.77-1.47.58.07.43.58.49.93a18.13,18.13,0,0,0,.32,1.79,2.73,2.73,0,0,0,2.77,2.36c1.67.07,3.23,1,4.93,1.16a117.35,117.35,0,0,0,18.17.67c1.57,0,1.72-.05,2.21-1.64.41-1.35.94-2.65,1.37-4,.08-.25.11-.58.5-.54a1.74,1.74,0,0,0,1,2c2.49,1.3,3.49,3.47,3.65,6.36.24,4.28.4,8.56.68,12.84.32,5.08.67,10.15.92,15.24.19,4,.43,8.07.69,12.1.31,4.76.46,9.53.71,14.3.35,6.72,1.39,8.82.71,13.07A26.94,26.94,0,0,1,178.88,390.88Z"/><path class="cls-12" d="M312.35,390.88c0-4,.16-10.87.29-15.81.06-2.2.24-6,.44-13.6.14-5.22.27-10.44.49-15.66.12-2.88.06-5.76.17-8.63l.45-11.4c0-.8.41-1.39,1.16-1.39a1.17,1.17,0,0,1,1.15,1.39c-.51,4.93.1,9.89-.42,14.81a8.6,8.6,0,0,0,0,1.34c.21,5.85-.32,11.67-.53,17.49-.07,2.07-.1,4.13-.18,6.2-.21,5.27-.24,9.18-.27,10.57-.1,4.92-.5,22.86-1,43.95A242.36,242.36,0,0,1,312.35,390.88Z"/><path class="cls-12" d="M183.32,419.47c-.53-.07,1.84-14.26,1.57-32.09,0-1.35,0-5.93-.26-11.54-.23-4.73-.27-9.47-.48-14.2s-.2-9.72-.49-14.56c-.31-5.27-.27-10.53-.42-15.79-.06-1.81-.18-3.63-.2-5.45,0-.76.11-1.45,1-1.48s1.27.57,1.34,1.48c.18,2.42.26,4.85.21,7.28-.1,5.31.26,10.61.3,15.92,0,3.64.26,7.28.47,10.91.14,2.35.07,4.7.18,7,.16,3.56.14,7.13.26,10.69.19,5.62.38,9.42.44,10.67C187.83,401.79,183.92,419.55,183.32,419.47Z"/><path class="cls-12" d="M271.37,254.36c-2.84,1.52-5.64,3.1-8.55,4.46-8.24,3.86-16.48,4.31-24.87.51-3.37-1.52-6.51-3.46-9.76-5.2,0-1.53-.05-3.07-.07-4.6s0-2.84,0-4.26c0-1.22.33-1.44,1.4-.87a44.47,44.47,0,0,0,4.5,2.19,53,53,0,0,0,10.58,2.69,35.34,35.34,0,0,0,14.93-.87,49.66,49.66,0,0,0,8.67-2.84,15.57,15.57,0,0,1,2.25-1.2c.73-.2,1,0,.9.77a10.21,10.21,0,0,0,0,1.46Z"/><path class="cls-12" d="M365.3,280.7c-.64-.21-.67-.73-.71-1.35-.16-2.36.66-4.55,1.05-6.81.59-3.44-.34-5.72-3.18-7.46-3.6-2.19-6.86-4.92-10.4-7.21-1.72-1.12-3.19-2.77-5.29-3.11-3-.49-5.69-.13-7.62,2.71-.51.74-.52,1.26.26,1.79,3.36,2.28,6.53,4.84,9.75,7.34l.2.13c1.15.93,1.42,1.63.92,2.4s-1.49.78-2.64-.13c-2.83-2.23-5.62-4.51-8.49-6.68-3.36-2.54-7.28-.35-8.37,2.58a1.55,1.55,0,0,0,.72,2.13,54,54,0,0,1,7.65,6,1.13,1.13,0,0,1,.23,1.7,1.27,1.27,0,0,1-1.94.32c-1.43-1.1-2.78-2.3-4.2-3.41a9.68,9.68,0,0,0-4-2.32,4.63,4.63,0,0,0-5.29,5.4c.47,2.9,2.24,4.93,4.14,6.83a7.5,7.5,0,0,1,2.46,4.66,14.14,14.14,0,0,1-.35,4.58,59.66,59.66,0,0,0-1.65,9.29,26.33,26.33,0,0,0,1.26,9.2c.39,1.35.81,2.7,1.22,4-1.87.86-2.44.58-3-1.4-.43-1.48-.89-2.95-1.34-4.42a27.9,27.9,0,0,1-.25-11.72,7,7,0,0,0,0-1.45,42.08,42.08,0,0,0,1.41-6.87,4.28,4.28,0,0,0-1.3-3.38c-1.6-2-3.4-3.74-4.48-6.15-1.54-3.45-1-9.39,4.09-11.13a2.62,2.62,0,0,0,1.8-2,6.31,6.31,0,0,1,1.77-3.09,3.15,3.15,0,0,0,.91-2.62,26.52,26.52,0,0,1,.17-6.54,7.65,7.65,0,0,1,1.42-3.29c.45-.24.62-1.13,1.28-.78s.58,1,.59,1.62c0,1.75-.48,3.44-.52,5.18,0,.24-.1.48-.09.72,0,.7-.31,1.51.42,2,.46.32,1.93-.1,2.47-.64a1.66,1.66,0,0,0,.42-.57c1-2.81,3.4-3.94,5.76-5.06.38-.18.79-.37,1.2,0,.15,0,.31.16.44.13,2.95-.64,5.34.74,7.64,2.36,4.37,3.1,8.73,6.23,13.09,9.35,3.07,2.2,4.1,5.27,3.33,9A32.85,32.85,0,0,1,365.3,280.7Z"/><path class="cls-12" d="M168.92,313.89a3.14,3.14,0,0,1,0-2.46c.54-2.14,1.34-4.21,1.67-6.42a31,31,0,0,0-.78-11.91c-.51-2.08-.67-4.22-1-6.32-.26-1.52.63-2.71,1.57-3.76a51.61,51.61,0,0,0,4.32-5.53c1.65-2.46,1.38-5.82-.79-7.24-1.91-1.23-4.22-1.25-6.5.79-1.55,1.39-3.16,2.7-4.77,4-.69.58-1.44.9-2.1,0s-.13-1.61.54-2.17a67.65,67.65,0,0,1,7.17-5.7c1.22-.76,1.26-1.51.44-2.72a7.36,7.36,0,0,0-2.81-2.65c-2.23-1.09-4.17-.47-6,1.08a94.28,94.28,0,0,1-8.5,6.47,2.35,2.35,0,0,1-.72.37c-.67.21-1.12-.2-1.44-.73a1,1,0,0,1,.27-1.3,52.32,52.32,0,0,1,4.5-3.78c2-1.64,4.08-3.16,6.12-4.74a1.21,1.21,0,0,0,.24-1.8c-1.44-2.44-5.48-3.63-8.16-2.44s-5,3.22-7.51,5c-3,2.12-5.94,4.31-8.94,6.43a4.68,4.68,0,0,0-2,5c.47,2.5.92,5,1.37,7.5.2,1.13-.13,1.59-1,1.45a46.22,46.22,0,0,1-2.52-7.05c-.52-2.45-.71-4.9.7-7.16a8.94,8.94,0,0,1,2.57-2.59c5-3.45,9.8-7.13,14.91-10.36a16.35,16.35,0,0,1,1.89-.9c3.19-1,6.21-.91,8.87,1.57a8.8,8.8,0,0,1,2.22,3.07,2.79,2.79,0,0,0,3,1.17c.33-.18.33-.53.36-.85a6.69,6.69,0,0,0-.3-2.52c-.66-2-.26-4.1-.2-6.15,0-.34.14-.67.58-.4a9.5,9.5,0,0,1,2.8,7c0,1.42,0,2.84,0,4.26a2.7,2.7,0,0,0,.83,2.28,7,7,0,0,1,2,3.62,2,2,0,0,0,1.52,1.64c4.44,1.14,6.4,6.79,4.22,11.25a17.28,17.28,0,0,1-4,5.47,4.83,4.83,0,0,0-1.61,5.72c.47,1.32.4,2.8.95,4.12a13.55,13.55,0,0,0,.48,3.69,31.28,31.28,0,0,1-.47,10.44c-.58,1.71-1.16,3.41-1.72,5.12C170.69,314.05,170.28,314.29,168.92,313.89Z"/><path class="cls-12" d="M216.13,273.65c1.49,1.64,2.39,3.73,3.81,5.46a35.63,35.63,0,0,0,11.87,9.61,40.61,40.61,0,0,0,12.52,3.86,41.35,41.35,0,0,0,12.61-.22,39.82,39.82,0,0,0,9-2.59,32.73,32.73,0,0,0,8.56-5.36,39.52,39.52,0,0,0,7.66-9c.4-.65.26-1.62,1.08-2a4.16,4.16,0,0,1,1.37.75c-.74,3.36-2.77,5.92-4.87,8.39A35,35,0,0,1,263,293.21a46.43,46.43,0,0,1-16.74,1.84,40.47,40.47,0,0,1-18-5.52A35.82,35.82,0,0,1,216.71,279a11.9,11.9,0,0,1-2.2-4.6A4.93,4.93,0,0,1,216.13,273.65Z"/><path class="cls-12" d="M250.4,178.58c-.28,2.82-.5,5.64-.84,8.44s-.35,5.16,2.21,6.85a1.6,1.6,0,0,1,.47,2.56c-.59.7-1.47.63-2.43-.24a12.86,12.86,0,0,1-2.91-2.89c-1-1.69-.62-3.43-.44-5.2.32-3,.59-6,.89-9,.05-.52.14-1,.2-1.56.11-.95.53-1.49,1.52-1.38s1.18.78,1.27,1.61a8,8,0,0,1,0,.85Z"/><path class="cls-12" d="M299.81,202.54c2-.09,2.27-.39,3-2.35.82-2.27,1.72-4.51,2.58-6.76a20.92,20.92,0,0,1,.49,9.24,5.29,5.29,0,0,1-4.57,4.17c-1.67.13-2.26-.5-2.12-2.25A5,5,0,0,1,299.81,202.54Z"/><path class="cls-12" d="M194.16,194.17c1,1.89,1.63,4,2.51,5.93.19.4.32.82.51,1.21.28.57.53,1.25,1.3,1.16a1.45,1.45,0,0,0,1.28-1.45c.13,1.48.31,3,.39,4.44a1.17,1.17,0,0,1-1.34,1.39,5.89,5.89,0,0,1-5.53-5.23c-.28-2.39.23-4.76.45-7.13C193.75,194.26,194,194.19,194.16,194.17Z"/></g><path class="cls-13" d="M272.61,170.67c6.35.24,6.43,11.4.7,12.15C267,183.36,267,171.51,272.61,170.67Z"/><path class="cls-13" d="M225.2,170.67c6.35.24,6.43,11.4.7,12.15C219.61,183.36,219.6,171.51,225.2,170.67Z"/></svg>