<svg id="Capa_1" data-name="Capa 1" xmlns="http://www.w3.org/2000/svg" xmlns:xlink="http://www.w3.org/1999/xlink" viewBox="0 0 500 500"><defs><style>.cls-1{fill:#7c8985;}.cls-2{fill:#c9cdd0;}.cls-3{clip-path:url(#clip-path);}.cls-4{fill:#363533;}.cls-4,.cls-6{opacity:0.15;}.cls-5{clip-path:url(#clip-path-2);}.cls-6{fill:#1d1d1b;}.cls-7{fill:#925844;}.cls-8{fill:#f5ba8f;}.cls-9{fill:#aa6b50;}.cls-10{fill:#83513d;}.cls-11{fill:#1c1714;}</style><clipPath id="clip-path"><path class="cls-1" d="M366-145.29c-1.55,17.26-12.83,31.17-27.46,34.66-13.64,3.26-25-3.78-27.46-5.4-43.53-1.14-66.79-.47-80.13.45a371.22,371.22,0,0,1-46.82.45c-3.07-.16-5.59-.33-7.2-.45-12.25,11.07-30.12,11.28-41,1.8-8.44-7.38-11.66-19.8-8.21-31.51.55-7.46.7-13.15,1.12-17,.29-2.6.31-5.23.52-7.85.24-3.17.68-6.33.82-9.51.14-2.74.62-5.44.8-8.18.22-3.38.64-6.73.84-10.11.18-3,.67-6,.78-9,.13-3.5.44-7,.84-10.48.21-1.79.19-3.63.3-5.44a12.49,12.49,0,0,1,.29-2.76,3.29,3.29,0,0,1,2.25-2.24c.85-.66,1.59-1.53,2.76-1.47.09.65.17,1.31.26,2,.25,1.87,1.1,3.37,2.16,3.34a12.83,12.83,0,0,1,3.69.82c3.63,1,7.38.77,11.06,1.19,2.85.33,5.71-.12,8.56,0,.37,0,.78.14,1.1-.21,1.35.41,1.77.17,2.23-1.24s.95-2.89,1.44-4.34c.09-.26.17-.52.26-.78a30.78,30.78,0,0,0,.47-10.44,14.82,14.82,0,0,1-.48-3.69c.66,1.17,1.31.69,2.14.12a74.35,74.35,0,0,1,8-4.85c2.68-1.38,5.27-3,8-4.34,2.37-1.22,4.81-2.31,7.24-3.41,2.92-1.32,5.82-2.7,8.81-3.83,1.65-.63,3.27-1.36,5-1.84.87-.25,1.6-1,2.59-.86a5.22,5.22,0,0,1,1.61-.74,42.42,42.42,0,0,1,4.62-2.2c5.06-2.22,6.91-6.56,7.17-12l.27-5.33a4.82,4.82,0,0,1,2.84,1.18,48.63,48.63,0,0,0,9.61,4.71,26.33,26.33,0,0,0,17.24.33c4.33-1.31,8.26-3.52,12.22-5.66.39-.21.76-.63,1.28-.35.09,2.51.08,5,.42,7.51a11.84,11.84,0,0,0,6.54,9.35,29.45,29.45,0,0,1,4.87,2.18,4.06,4.06,0,0,1,1.37.74,20.67,20.67,0,0,1,5.92,1.89c3.63,1.51,7.3,2.93,10.88,4.56,3.22,1.48,6.35,3.18,9.51,4.8,1.93,1,3.86,2,5.74,3.06a40.21,40.21,0,0,1,4.76,2.92,22.12,22.12,0,0,0,5.08,3,7.68,7.68,0,0,1,0,1.44,28.11,28.11,0,0,0,.24,11.73l.27.86c.36,1.19.73,2.37,1.08,3.56.58,2,1.16,2.25,3,1.4.19.81.84.82,1.39.73a20.59,20.59,0,0,1,4.44,0,33.65,33.65,0,0,0,6.88-.24,35.13,35.13,0,0,1,6.63-.49,1.62,1.62,0,0,0,.87-.27,6.54,6.54,0,0,1,4-.95c1.32.06,1.78-.42,1.72-1.78a6.82,6.82,0,0,1,.74-3.59,8.13,8.13,0,0,1,2.54,1.48,3.22,3.22,0,0,1,2.27,2.91c.25,1.83.4,3.69.47,5.54.2,4.76.62,9.49,1.14,14.22.27,2.39.31,4.82.5,7.23.27,3.21.65,6.41.86,9.63.14,2.05.39,4.09.51,6.14.19,3.34.54,6.67,1,10a15.68,15.68,0,0,1,.15,1.93c.07,6.06.78,11,.91,12.78C365.21-154.66,365.51-150.48,366-145.29Z"/></clipPath><clipPath id="clip-path-2"><path class="cls-2" d="M345.29,241.62a3.2,3.2,0,0,0,1.25,2c5.17,4.24,9.56,9.23,14.12,14.08,2.9,3.08,5.69,6.25,8.35,9.54,2.41,3,4.67,6.13,6.84,9.32,2.3,3.37,4.69,6.69,6.87,10.15a1.54,1.54,0,0,1-.41,2.38A14.52,14.52,0,0,1,379.4,291a.93.93,0,0,1-.79.19c-1.4-.49-2.54.23-3.72.77a80.24,80.24,0,0,0-12.95,7.7c-3.16,2.24-6.19,4.62-9.26,7a6.43,6.43,0,0,0-2.85,3.82,11.11,11.11,0,0,1-2,2.65c-.35.34-2.71,2.66-5.06,2.82s-3.26-2.32-8.61-7.11c-3-2.74-5.93-5.63-9-8.33a95.1,95.1,0,0,1-6.59-7s-.08-.22-.13-.21a15.78,15.78,0,0,0,.13,3c.53,5.51-2.44,22.38-3.19,27.18-.63,4.05-1.34,8.09-1.91,12.15A49.5,49.5,0,0,0,314.68,354a131.92,131.92,0,0,0,4.68,15.8,1.44,1.44,0,0,1,.06.55.87.87,0,0,1-1.06.46c-2.38-.51-4.74.08-7.1.07s-4.57.05-6.86,0a10.45,10.45,0,0,0-5.84,1.65C291.2,377,283.77,381.39,276.5,386a6.84,6.84,0,0,0-1.31,1c-1.24,1.31-1.14,2.42.34,3.5,2.12,1.57,2.12,1.89,0,3.57a15.73,15.73,0,0,0-2.05,1.69,1.57,1.57,0,0,0,0,2.55,5.91,5.91,0,0,0,3.73,2c.46.06,1,.05,1.16.61s-.21,1-.6,1.31-.66.52-1,.78c-.82.65-1.7,1.35-1.4,2.52a3.31,3.31,0,0,0,2.6,2.48,6.31,6.31,0,0,0,3.72-.23,9.84,9.84,0,0,1,1.32-.47c.73-.18,1,.14,1,.87,0,1.76.6,2.51,2.32,3a8.25,8.25,0,0,0,7.18-1.32c1.73-1.18,3.39-2.46,5.1-3.68,3.46-2.5,7-4.95,11.4-5.24a89,89,0,0,1,10.2,0c2.79.15,5.56.46,8.36.5.59,0,1.23-.13,1.7.4,0,1.95.93,3.67,1.45,5.49a55.29,55.29,0,0,0,2,6.66c.75,1.8-.21,3.53-1.41,4.86a41.83,41.83,0,0,1-9.46,7.53,62.56,62.56,0,0,1-10.22,5,88.14,88.14,0,0,1-8.6,3c-2.41.67-4.8,1.38-7.23,1.93a109.53,109.53,0,0,1-12.21,1.92c-4.76.53-9.54.62-14.31.89-6.39.37-12.75-.1-19.12-.2-5.44-.08-10.87-1-16.29-1.77-4.82-.66-9.64-1.31-14.39-2.35a89.11,89.11,0,0,1-8.84-2.44l-6.43-2.18a85.23,85.23,0,0,1-15.37-6.92c-2.9-1.65-5.61-3.64-8.39-5.49a3.62,3.62,0,0,0-.93-.6,1.26,1.26,0,0,1-.87-1.66c1.94-9.3,3.22-18.71,4.91-28,1.39-7.66,2.65-15.34,3.62-23.05.65-5.15,1.38-10.29,1.84-15.46.37-4.16.81-8.31.78-12.5a43.84,43.84,0,0,1-.29-4.59c.05-.56-.29-.85-.84-.91.08-.66.64-.58,1.06-.68a225.8,225.8,0,0,1,25.13-4.79c5.55-.77,11.1-1.42,16.65-2.18a30.59,30.59,0,0,0,5.65-.5,4.37,4.37,0,0,0,1.79.18,50.46,50.46,0,0,1,12.34.16,30,30,0,0,0,11-.83,2.46,2.46,0,0,1,.47,0c2.77-.21,4.07,2.07,5.88,3.49.37.29.67.65,1,1,2.82,2.66,5.92,3.66,9.67,1.89,1.79-.85,3.23-.95,4.45-2,.27-.23.73-.66,1.52-1.28s1.28-.92,1.68-1.18a.85.85,0,0,1,.1-1.24,23.7,23.7,0,0,1,3.55-3.46c1.39-1.12,1.83-2.8,2.57-4.31a17.55,17.55,0,0,1,3.12-3c1.42-1.19,1.68-3,2.24-4.58,1-1.19,2-2.36,2.89-3.59a3.21,3.21,0,0,0,0-4.35,50.68,50.68,0,0,0-3.95-4.34c-2.94-3.24-5.49-6.81-8.59-9.93a9.57,9.57,0,0,0-8.47-2.86c-4,.44-7.46,2.25-10.79,4.32a47.72,47.72,0,0,1-14.33,6.13c-3.62.86-7.32,1.41-11,1.92-1.1.16-2.2.42-3.31.53-.72.07-1.53.22-1.95-.67a10.18,10.18,0,0,1-.26-1.22c-.44-1.9-1.14-2.47-3.11-2.5a52,52,0,0,0-12.53,1.8c-1.51.35-1.83.88-1.91,2.48a4.4,4.4,0,0,1-.14,1.25,1.68,1.68,0,0,1-1.59.94c-2.82.27-5.63.59-8.47.58-8.24,0-16.47,0-24.7,0-1.48,0-2.95.53-4.43.1l-2.55-14.64a66.43,66.43,0,0,0-6.09,14.78,1.58,1.58,0,0,1-.31.62c-1.66.83-3.53.63-5.27,1.06-2.88.73-5.89.82-8.7,1.84-4.39.95-8.81,1.74-13.21,2.6a2.7,2.7,0,0,1-.7,0,3.18,3.18,0,0,1-1.67-.94c-.58-.58-4.47-2.74-17.53-9.12-2.72-.73-5.54-1.23-7.78-3.14a5.83,5.83,0,0,1,1.53-4.29,127.45,127.45,0,0,0,8-12.05c2.65-4.4,5.39-8.74,8-13.15,1.78-3,3.65-5.92,5.62-8.76,2.18-3.15,4.36-6.32,6.81-9.29,1.44-1.74,3.13-3.31,4.18-5.36a12.12,12.12,0,0,1,2.62-3.24,89.64,89.64,0,0,1,13.25-12,52.39,52.39,0,0,1,17.31-8.28,187.77,187.77,0,0,0,31.16-11.08,3.69,3.69,0,0,1,2.15-.48,2.37,2.37,0,0,1,1.2.68c3.23,3.06,7.21,4.74,11.35,6.09a38.7,38.7,0,0,0,14.49,1.8,52.88,52.88,0,0,0,14.56-3.25,64.14,64.14,0,0,0,10.49-5.23,3.61,3.61,0,0,1,1.89.37,196.61,196.61,0,0,0,23.69,6.59c1.82.39,3.65.74,5.49,1,3.21.5,9.07,2.57,17.53,8.12C332.19,227.25,341.64,237.5,345.29,241.62Z"/></clipPath></defs><path class="cls-1" d="M366-145.29c-1.55,17.26-12.83,31.17-27.46,34.66-13.64,3.26-25-3.78-27.46-5.4-43.53-1.14-66.79-.47-80.13.45a371.22,371.22,0,0,1-46.82.45c-3.07-.16-5.59-.33-7.2-.45-12.25,11.07-30.12,11.28-41,1.8-8.44-7.38-11.66-19.8-8.21-31.51.55-7.46.7-13.15,1.12-17,.29-2.6.31-5.23.52-7.85.24-3.17.68-6.33.82-9.51.14-2.74.62-5.44.8-8.18.22-3.38.64-6.73.84-10.11.18-3,.67-6,.78-9,.13-3.5.44-7,.84-10.48.21-1.79.19-3.63.3-5.44a12.49,12.49,0,0,1,.29-2.76,3.29,3.29,0,0,1,2.25-2.24c.85-.66,1.59-1.53,2.76-1.47.09.65.17,1.31.26,2,.25,1.87,1.1,3.37,2.16,3.34a12.83,12.83,0,0,1,3.69.82c3.63,1,7.38.77,11.06,1.19,2.85.33,5.71-.12,8.56,0,.37,0,.78.14,1.1-.21,1.35.41,1.77.17,2.23-1.24s.95-2.89,1.44-4.34c.09-.26.17-.52.26-.78a30.78,30.78,0,0,0,.47-10.44,14.82,14.82,0,0,1-.48-3.69c.66,1.17,1.31.69,2.14.12a74.35,74.35,0,0,1,8-4.85c2.68-1.38,5.27-3,8-4.34,2.37-1.22,4.81-2.31,7.24-3.41,2.92-1.32,5.82-2.7,8.81-3.83,1.65-.63,3.27-1.36,5-1.84.87-.25,1.6-1,2.59-.86a5.22,5.22,0,0,1,1.61-.74,42.42,42.42,0,0,1,4.62-2.2c5.06-2.22,6.91-6.56,7.17-12l.27-5.33a4.82,4.82,0,0,1,2.84,1.18,48.63,48.63,0,0,0,9.61,4.71,26.33,26.33,0,0,0,17.24.33c4.33-1.31,8.26-3.52,12.22-5.66.39-.21.76-.63,1.28-.35.09,2.51.08,5,.42,7.51a11.84,11.84,0,0,0,6.54,9.35,29.45,29.45,0,0,1,4.87,2.18,4.06,4.06,0,0,1,1.37.74,20.67,20.67,0,0,1,5.92,1.89c3.63,1.51,7.3,2.93,10.88,4.56,3.22,1.48,6.35,3.18,9.51,4.8,1.93,1,3.86,2,5.74,3.06a40.21,40.21,0,0,1,4.76,2.92,22.12,22.12,0,0,0,5.08,3,7.68,7.68,0,0,1,0,1.44,28.11,28.11,0,0,0,.24,11.73l.27.86c.36,1.19.73,2.37,1.08,3.56.58,2,1.16,2.25,3,1.4.19.81.84.82,1.39.73a20.59,20.59,0,0,1,4.44,0,33.65,33.65,0,0,0,6.88-.24,35.13,35.13,0,0,1,6.63-.49,1.62,1.62,0,0,0,.87-.27,6.54,6.54,0,0,1,4-.95c1.32.06,1.78-.42,1.72-1.78a6.82,6.82,0,0,1,.74-3.59,8.13,8.13,0,0,1,2.54,1.48,3.22,3.22,0,0,1,2.27,2.91c.25,1.83.4,3.69.47,5.54.2,4.76.62,9.49,1.14,14.22.27,2.39.31,4.82.5,7.23.27,3.21.65,6.41.86,9.63.14,2.05.39,4.09.51,6.14.19,3.34.54,6.67,1,10a15.68,15.68,0,0,1,.15,1.93c.07,6.06.78,11,.91,12.78C365.21-154.66,365.51-150.48,366-145.29Z"/><g class="cls-3"><path class="cls-4" d="M310.68-199c-.46,0,5.93,51.39-20.06,68.86-6.21,4.17-11.59,4.61-32.11,5.7-65.82,3.49-76.07,2.42-78.25,7.73-5.56,13.5,55.4,33.38,63.85,79,1.19,6.46,2.19,18.81,11.75,28.37,6.95,7,18.37,12.19,28.36,11.74C294.59,2,305.35-1.44,312.58-9.31q3.14-4.06,6.28-8.12a40,40,0,0,0,5.47-20.25,369.14,369.14,0,0,1-14.5-86.15C308.2-158,311.09-199,310.68-199Z"/></g><path class="cls-2" d="M345.29,241.62a3.2,3.2,0,0,0,1.25,2c5.17,4.24,9.56,9.23,14.12,14.08,2.9,3.08,5.69,6.25,8.35,9.54,2.41,3,4.67,6.13,6.84,9.32,2.3,3.37,4.69,6.69,6.87,10.15a1.54,1.54,0,0,1-.41,2.38A14.52,14.52,0,0,1,379.4,291a.93.93,0,0,1-.79.19c-1.4-.49-2.54.23-3.72.77a80.24,80.24,0,0,0-12.95,7.7c-3.16,2.24-6.19,4.62-9.26,7a6.43,6.43,0,0,0-2.85,3.82,11.11,11.11,0,0,1-2,2.65c-.35.34-2.71,2.66-5.06,2.82s-3.26-2.32-8.61-7.11c-3-2.74-5.93-5.63-9-8.33a95.1,95.1,0,0,1-6.59-7s-.08-.22-.13-.21a15.78,15.78,0,0,0,.13,3c.53,5.51-2.44,22.38-3.19,27.18-.63,4.05-1.34,8.09-1.91,12.15A49.5,49.5,0,0,0,314.68,354a131.92,131.92,0,0,0,4.68,15.8,1.44,1.44,0,0,1,.06.55.87.87,0,0,1-1.06.46c-2.38-.51-4.74.08-7.1.07s-4.57.05-6.86,0a10.45,10.45,0,0,0-5.84,1.65C291.2,377,283.77,381.39,276.5,386a6.84,6.84,0,0,0-1.31,1c-1.24,1.31-1.14,2.42.34,3.5,2.12,1.57,2.12,1.89,0,3.57a15.73,15.73,0,0,0-2.05,1.69,1.57,1.57,0,0,0,0,2.55,5.91,5.91,0,0,0,3.73,2c.46.06,1,.05,1.16.61s-.21,1-.6,1.31-.66.52-1,.78c-.82.65-1.7,1.35-1.4,2.52a3.31,3.31,0,0,0,2.6,2.48,6.31,6.31,0,0,0,3.72-.23,9.84,9.84,0,0,1,1.32-.47c.73-.18,1,.14,1,.87,0,1.76.6,2.51,2.32,3a8.25,8.25,0,0,0,7.18-1.32c1.73-1.18,3.39-2.46,5.1-3.68,3.46-2.5,7-4.95,11.4-5.24a89,89,0,0,1,10.2,0c2.79.15,5.56.46,8.36.5.59,0,1.23-.13,1.7.4,0,1.95.93,3.67,1.45,5.49a55.29,55.29,0,0,0,2,6.66c.75,1.8-.21,3.53-1.41,4.86a41.83,41.83,0,0,1-9.46,7.53,62.56,62.56,0,0,1-10.22,5,88.14,88.14,0,0,1-8.6,3c-2.41.67-4.8,1.38-7.23,1.93a109.53,109.53,0,0,1-12.21,1.92c-4.76.53-9.54.62-14.31.89-6.39.37-12.75-.1-19.12-.2-5.44-.08-10.87-1-16.29-1.77-4.82-.66-9.64-1.31-14.39-2.35a89.11,89.11,0,0,1-8.84-2.44l-6.43-2.18a85.23,85.23,0,0,1-15.37-6.92c-2.9-1.65-5.61-3.64-8.39-5.49a3.62,3.62,0,0,0-.93-.6,1.26,1.26,0,0,1-.87-1.66c1.94-9.3,3.22-18.71,4.91-28,1.39-7.66,2.65-15.34,3.62-23.05.65-5.15,1.38-10.29,1.84-15.46.37-4.16.81-8.31.78-12.5a43.84,43.84,0,0,1-.29-4.59c.05-.56-.29-.85-.84-.91.08-.66.64-.58,1.06-.68a225.8,225.8,0,0,1,25.13-4.79c5.55-.77,11.1-1.42,16.65-2.18a30.59,30.59,0,0,0,5.65-.5,4.37,4.37,0,0,0,1.79.18,50.46,50.46,0,0,1,12.34.16,30,30,0,0,0,11-.83,2.46,2.46,0,0,1,.47,0c2.77-.21,4.07,2.07,5.88,3.49.37.29.67.65,1,1,2.82,2.66,5.92,3.66,9.67,1.89,1.79-.85,3.23-.95,4.45-2,.27-.23.73-.66,1.52-1.28s1.28-.92,1.68-1.18a.85.85,0,0,1,.1-1.24,23.7,23.7,0,0,1,3.55-3.46c1.39-1.12,1.83-2.8,2.57-4.31a17.55,17.55,0,0,1,3.12-3c1.42-1.19,1.68-3,2.24-4.58,1-1.19,2-2.36,2.89-3.59a3.21,3.21,0,0,0,0-4.35,50.68,50.68,0,0,0-3.95-4.34c-2.94-3.24-5.49-6.81-8.59-9.93a9.57,9.57,0,0,0-8.47-2.86c-4,.44-7.46,2.25-10.79,4.32a47.72,47.72,0,0,1-14.33,6.13c-3.62.86-7.32,1.41-11,1.92-1.1.16-2.2.42-3.31.53-.72.07-1.53.22-1.95-.67a10.18,10.18,0,0,1-.26-1.22c-.44-1.9-1.14-2.47-3.11-2.5a52,52,0,0,0-12.53,1.8c-1.51.35-1.83.88-1.91,2.48a4.4,4.4,0,0,1-.14,1.25,1.68,1.68,0,0,1-1.59.94c-2.82.27-5.63.59-8.47.58-8.24,0-16.47,0-24.7,0-1.48,0-2.95.53-4.43.1l-2.55-14.64a66.43,66.43,0,0,0-6.09,14.78,1.58,1.58,0,0,1-.31.62c-1.66.83-3.53.63-5.27,1.06-2.88.73-5.89.82-8.7,1.84-4.39.95-8.81,1.74-13.21,2.6a2.7,2.7,0,0,1-.7,0,3.18,3.18,0,0,1-1.67-.94c-.58-.58-4.47-2.74-17.53-9.12-2.72-.73-5.54-1.23-7.78-3.14a5.83,5.83,0,0,1,1.53-4.29,127.45,127.45,0,0,0,8-12.05c2.65-4.4,5.39-8.74,8-13.15,1.78-3,3.65-5.92,5.62-8.76,2.18-3.15,4.36-6.32,6.81-9.29,1.44-1.74,3.13-3.31,4.18-5.36a12.12,12.12,0,0,1,2.62-3.24,89.64,89.64,0,0,1,13.25-12,52.39,52.39,0,0,1,17.31-8.28,187.77,187.77,0,0,0,31.16-11.08,3.69,3.69,0,0,1,2.15-.48,2.37,2.37,0,0,1,1.2.68c3.23,3.06,7.21,4.74,11.35,6.09a38.7,38.7,0,0,0,14.49,1.8,52.88,52.88,0,0,0,14.56-3.25,64.14,64.14,0,0,0,10.49-5.23,3.61,3.61,0,0,1,1.89.37,196.61,196.61,0,0,0,23.69,6.59c1.82.39,3.65.74,5.49,1,3.21.5,9.07,2.57,17.53,8.12C332.19,227.25,341.64,237.5,345.29,241.62Z"/><g class="cls-5"><path class="cls-6" d="M356.7,400.22c2.07-14.58,2.82-28.51,10.75-56.18,10.31-36,20.62-53.32,15.27-57.37-6.11-4.63-22.14,16.11-40.21,10.47-2.55-.8-7.42-4.47-17.05-11.8-17.53-13.34-20.15-17-23-15.81-7,2.82,4,26.28-8.45,42-7.82,9.87-19.24,9.6-19.68,16.39-.41,6.4,9.58,9.47,16.4,17.05,7.23,8.05,12.62,23.1,5.24,53.77-41.16,26.16-66.66,25.66-82.62,19.67-20-7.47-31.67-26-57.09-25.4-5.09.12-17.44,2.16-25.69,9.38C107.32,422.78,116,469.25,156.24,471c50.22,3.2,98.39,29.45,149.57,20.78,28.62-1,51.69-23.32,52.53-52.27C359,426.4,354.85,413.38,356.7,400.22Z"/></g><path class="cls-7" d="M219.59,203.6a17.27,17.27,0,0,0-4.67,1.78,184,184,0,0,1-28.32,9.86c-9.74,2.52-17.92,7.89-25.14,14.79-2.56,2.45-5,5-7.31,7.69a1.79,1.79,0,0,1-.87.67c-2.2-3-2.15-6.16-.46-9.35,1.9-3.57,4.58-6.58,7.16-9.64,3.44-4.09,4.08-8.38,1.72-13.22s-3.78-9.93-2.86-15.42a25.39,25.39,0,0,1,4.22-9.81c2.81-4.25,6.1-8.14,9.28-12.1a46.52,46.52,0,0,0,10.54-29.16c.08-4.94-.08-9.88-.21-14.83-.18-7-.09-13.9,1.68-20.71,2.7-10.34,8.28-18.68,17.21-24.64,2.84-1.9,5.85-3.51,9.5-3.14.93.1,1.65-.58,2.4-1A53.39,53.39,0,0,1,234.27,68c12.42-1.48,24.43-.21,35.47,6.17,9.62,5.55,16.55,13.64,21.62,23.41,4.08,7.85,6,16.31,7,25,.56,5.14,1.08,10.29,1.67,15.43.9,7.95,4.46,14.61,9.89,20.4,4.28,4.56,9.09,8.56,13.65,12.83s8.88,8.8,11.89,14.38a31.5,31.5,0,0,1,3.12,21.42,42.19,42.19,0,0,0-1.12,8.45,11.23,11.23,0,0,0,2,6.29c1.6,2.35,3.23,4.68,4.76,7.08,2.57,4,3.22,8.29,1.06,12.75-.73.26-1-.4-1.35-.74-8.31-7.54-16.39-15.33-25.26-22.25a37,37,0,0,0-16.93-7.07,180.22,180.22,0,0,1-28.34-7.46c-.48-.17-1-.28-1.47-.43-1.73-1.23-2.42-3.13-3.14-5a42.55,42.55,0,0,1-2.2-11.18c-.16-1.52-.34-3-.55-4.56a3.77,3.77,0,0,1,.08-1.38c.66-1.11,1.85-1.53,2.86-2.17a32.51,32.51,0,0,0,9.2-8.28,34.69,34.69,0,0,0,5.73-13.56,142,142,0,0,0,2-15.09c.65-6.12,1-12.27,1.85-18.36.05-.28.05-.56.1-.83.19-1-.31-1.39-1.25-1.27a69.14,69.14,0,0,1-12.29.17,11.27,11.27,0,0,0-8.51,2.63c-1.2,1-2.62,1.78-3.92,2.7a6.4,6.4,0,0,1-5.73.91,3.83,3.83,0,0,1-2.42-2,1.4,1.4,0,0,1,.3-1.79,1.25,1.25,0,0,1,1.77-.19c1.77,1.41,3.35.93,4.92-.36.72-.59,1.54-1,2.49-1.86-1.54.12-2.79-.26-4.08-.26a100.61,100.61,0,0,1-24.48-3.25,39.83,39.83,0,0,1-17.38-8.91,30.07,30.07,0,0,1-3.49-3.82c-.32-.41-.49-1.2-1.13-1.07s-.44.86-.59,1.33a34.9,34.9,0,0,1-9,15.13,29.68,29.68,0,0,1-4.69,3.75,2.22,2.22,0,0,0-1.1,2.36c1,9.65,2.92,19.11,6.74,28.07,3.44,8.07,8.22,15.26,15.36,20.64a44.92,44.92,0,0,0,5.08,3.23,2.93,2.93,0,0,1,1.64,3,44.78,44.78,0,0,1-5.48,20.2A1.94,1.94,0,0,1,219.59,203.6Z"/><path class="cls-8" d="M349.59,310.33c0-1.76,1.29-2.74,2.46-3.69,2.67-2.15,5.41-4.24,8.18-6.26a82.84,82.84,0,0,1,15.49-9.25,3.78,3.78,0,0,1,2.64-.32c1.63.51,2.22,2.42,3.2,4.66a68.74,68.74,0,0,0,4.08,7.12c2.31,3.77,3.1,4.65,4.71,7.75a12.89,12.89,0,0,1,.71,10.28c-1.51,4.79-4,9.11-6.38,13.49a151.94,151.94,0,0,1-9.11,14.19c-6.28,9-13.21,17.52-20.12,26.05q-8.77,10.84-17.23,22a14.38,14.38,0,0,1-8,5.6c-6.18-.05-12.34-.8-18.54-.61A18.1,18.1,0,0,0,301.18,405c-2.82,2.11-5.75,4.08-8.71,6a7.49,7.49,0,0,1-8.36-.49c-.59-.52-1.32-1-.5-2a.62.62,0,0,0,.05-.78c-.3-.38-.6,0-.87.09a9.49,9.49,0,0,1-3.77.81,4.4,4.4,0,0,1-3.76-2c-.86-1.15-.54-2.51.77-3.53.55-.42,1.14-.8,1.69-1.23.25-.2.5-.45.35-.83s-.46-.27-.73-.27a6,6,0,0,1-4.41-2.32,1.69,1.69,0,0,1,.11-2.77c1.06-1,2.19-1.87,3.32-2.76.81-.64.61-1.12-.19-1.52a4,4,0,0,1-2.11-1.93c-.46-1.13.18-2.5,1.76-3.48q6.09-3.8,12.21-7.53c3.48-2.13,7-4.28,10.48-6.34a10.18,10.18,0,0,1,5.37-1.61c2.37,0,4.75.06,7.13,0,2.78-.07,5.55-.46,8.33,0,1-.65,1.9-.06,2.82.11,2.5.44,2.5.48,3.65-1.81a288.12,288.12,0,0,1,14.55-25.3c4.39-6.89,8.25-14.06,11.94-21.34,1.14-2.25,1.32-4.3,0-6.44-.15-.24-.27-.49-.41-.73C351.22,313.37,350.35,311.88,349.59,310.33Z"/><path class="cls-8" d="M127,294.12a42.18,42.18,0,0,1,15,6.85,39.29,39.29,0,0,1,3.7,3c6.39-1.39,13.15-2.67,20.24-3.78q8.7-1.37,16.79-2.24c15.38-1.16,22.82-.93,26.55-.25s7.78-.28,11.66-.57c.6,0,1-.24,1.05-.86,0,0,.12,0,.14,0a6.29,6.29,0,0,0,4.22,2.48,8.67,8.67,0,0,1,1.35,3.19c1.75,6,2.6,12.11,3.84,18.18.25,1.25.79,2.37,1.09,3.58-2.79.38-5.58.82-8.38,1.11-3,.32-6,.83-8.94,1.27s-5.87.75-8.78,1.31-6,1.05-9,1.75c-2.6.6-5.18,1.32-7.8,1.85a217.3,217.3,0,0,0-21.29,6.59,44,44,0,0,1-10.9,2.16,128,128,0,0,1-13,.17,56.69,56.69,0,0,1-13.66-1.72,12.77,12.77,0,0,1-9.25-8.32,35.55,35.55,0,0,1-2.47-10.11,30.62,30.62,0,0,1,3.24-14.56,45.54,45.54,0,0,0,4.25-9.79C126.76,294.89,126.88,294.42,127,294.12Z"/><path class="cls-8" d="M266.41,182.92c.3,2.49.59,5,.9,7.48.6,4.75,1.63,9.36,4.63,13.27a52.36,52.36,0,0,1-15,6.79,47.31,47.31,0,0,1-14.41,1.84,39,39,0,0,1-15.28-3.78,20.79,20.79,0,0,1-6.87-4.58c-.17-.19-.5-.23-.75-.34a27.1,27.1,0,0,0,3.2-6.33,47.34,47.34,0,0,0,3.09-15.7c.05-.92-.49-1.2-1.11-1.55a42.6,42.6,0,0,1-11-8.49,59.31,59.31,0,0,1-12.57-23A116.46,116.46,0,0,1,197,127.87a3,3,0,0,1,1.52-3.29c6.89-4.54,11.06-11.06,13.31-18.9.05-.18.11-.36.16-.54.1-.4.09-.91.57-1s.66.42.88.73a29.72,29.72,0,0,0,8,7.74c5.41,3.62,11.44,5.57,17.76,6.82a127.5,127.5,0,0,0,24,2.42c.22,0,.45,0,1,.07-2,1.58-3.61,3.13-5.8,3.85a2.37,2.37,0,0,1-2.32-.67c-.63-.55-1.24-.93-1.93-.18s-.31,1.47.26,2.1c1.55,1.71,4.55,2,6.84.47,2-1.26,3.9-2.55,5.77-3.94a8.3,8.3,0,0,1,5.56-1.75,119.86,119.86,0,0,0,14.68-.16c.89-.09,1.2.21,1.06,1.1-1.32,8.66-1.66,17.43-2.7,26.13-.78,6.6-1.9,13.1-5,19.08a31.18,31.18,0,0,1-11.45,11.8l-2.81,1.81C266.4,182,266.4,182.45,266.41,182.92Z"/><path class="cls-8" d="M263.87,322.65a35.3,35.3,0,0,1-14.58.66,34.26,34.26,0,0,0-8.76.07,3.6,3.6,0,0,1-2.44-.21c.14-.69.77-.58,1.22-.7,1.67-.44,2.17-1,2-2.79a64.49,64.49,0,0,0-1-7,118.46,118.46,0,0,0-3.52-13.5,4.68,4.68,0,0,1-.28-1.23c0-.18,0-.42.19-.49a14.86,14.86,0,0,0,3.61-2.53c1,.74,2.07.18,3.08,0,5.53-.92,11.12-1.47,16.49-3.25a54.41,54.41,0,0,0,10.19-4.78c2.64-1.53,5.16-3.34,8.21-4,2.53-.58,5.07-1.08,7.68-.39a7.82,7.82,0,0,1,3.44,2,84.8,84.8,0,0,1,7.35,8.37c1.86,2.32,4,4.4,6,6.65,1.4,1.63,1.42,3.14,0,4.86a17.74,17.74,0,0,1-3,3.47,7.72,7.72,0,0,1-.87,2.95,7.42,7.42,0,0,1-1.37,1.81c-1.26.68-1.91,2-3.08,2.79l-2.52,4.49A15.2,15.2,0,0,0,288,324c.27.59,0,.84-.57.89l-.89,1.19.09.17c-2.29,1.07-4.55,2.19-6.93,3.08-2.88,1.09-5.4.88-7.76-1.1-1.62-1.36-2.23-2-3.57-3.06A16.48,16.48,0,0,0,263.87,322.65Z"/><path class="cls-9" d="M236.72,297.72a97.06,97.06,0,0,1,4.77,20c0,.23.06.46.1.69.57,3.29.07,4-3.15,4.59-.12,0-.23.14-.35.21a17,17,0,0,1-5.55.57c-1.06-.76-1.18-1.95-1.4-3.08-1.08-5.61-2-11.24-3.4-16.79a25.47,25.47,0,0,0-1.69-5c.59-.61,1.38-.4,2.1-.48,2.2-.28,4.39-.64,6.59-.95C235.42,297.34,236.13,297.16,236.72,297.72Z"/><path class="cls-10" d="M236.72,297.72c-2.64,0-5.18.71-7.78,1-1,.11-1.93,0-2.89.15a3.89,3.89,0,0,1-4.15-2.55c-.32-2.86.07-3.37,2.92-4a59,59,0,0,1,11.28-1.67c3.27,0,4.19.89,4.23,4.22C239.71,296.58,238.14,297.05,236.72,297.72Z"/><path class="cls-6" d="M160.49,301.24c-14.61,4.26-19.86,5.94-20.94,6.44s-1.9.75-2.85,1.13c-.33.14-.25.08-1.13.36-1.41.44-1.71.56-1.75.49s.61-.65,1.39-1.25a7.73,7.73,0,0,1,1-.73c3.67-1.14,7.07-3.21,10.85-3.87S155,302.36,160.49,301.24Z"/><path class="cls-6" d="M287.41,324.88A.89.89,0,0,0,288,324a14.44,14.44,0,0,0,6.17.43,19.92,19.92,0,0,0,6.82-1.72,1,1,0,0,1,1.47.66c.25.63-.09,1-.72,1.24a23.1,23.1,0,0,1-12.47,1.74c-.87-.11-1.76-.07-2.64-.1l-.06,0A1.32,1.32,0,0,1,287.41,324.88Z"/><path class="cls-6" d="M291.9,319.86c-.59-.07-.65-.47-.51-.92a2.92,2.92,0,0,1,.44-.86,4.44,4.44,0,0,0-.09-5.92c-2-2.7-3.68-5.68-5.83-8.31-.44-.54-1.38-1.4-.63-2s1.14.65,1.57,1.2c2.27,2.91,4.36,6,6.34,9.08a7,7,0,0,1,1.23,3.22Z"/><path class="cls-6" d="M297.5,312.58c-1.18,0-.79-.84-.5-1.18,2.49-2.84.65-5-1-7.23-1.92-2.62-3.7-5.34-5.54-8-.25-.37-.43-.81,0-1.11s.73.07.93.38c2.75,4.16,6.06,7.94,8.38,12.4A6.83,6.83,0,0,1,297.5,312.58Z"/><path class="cls-6" d="M266.41,182.92c-4,3.55-9,5.15-14.06,6.27a29.85,29.85,0,0,1-20.29-3.5,17.39,17.39,0,0,1-4.61-3.92c.69-.41,1.05,0,1.45.19a57.64,57.64,0,0,0,16,4.07,37,37,0,0,0,10.41-.29,33.83,33.83,0,0,0,7.83-2.73c1.11-.47,2.19-1,3.29-1.49C266.4,182,266.4,182.45,266.41,182.92Z"/><path class="cls-6" d="M280.06,401c-.4,0-.64,0-.72-.32a.65.65,0,0,1,.31-.72c.89-.59,1.76-1.21,2.69-1.72,4.75-2.63,9.25-5.65,13.9-8.44.87-.52,1.79-1,2.69-1.43.35-.19.73-.3.95.17s-.05.75-.48,1c-5.52,2.79-10.41,6.61-15.82,9.58Z"/><path class="cls-6" d="M278.23,393.67a.47.47,0,0,1-.52-.33c-.13-.4.19-.61.42-.81a28.89,28.89,0,0,1,4.15-2.78c3-1.83,5.92-3.64,8.87-5.48,1.45-.91,2.87-1.89,4.33-2.79.41-.25,1-.65,1.34,0s-.32.83-.74,1.1c-4.95,3.11-9.83,6.33-14.88,9.29C280.21,392.44,279.28,393.14,278.23,393.67Z"/><path class="cls-6" d="M300.22,396a2.56,2.56,0,0,1-1.08,1.27c-1.81,1.38-3.68,2.68-5.49,4.06-2,1.51-3.94,3.1-5.94,4.6-.58.43-1.3,1.53-1.93.78s.58-1.16,1.1-1.63c3.35-3,7-5.47,10.63-8.1.6-.44,1.24-.82,1.84-1.25C299.79,395.37,300,395.57,300.22,396Z"/><path class="cls-7" d="M220.46,125.19a14.8,14.8,0,0,1,4.49.73,3.89,3.89,0,0,0,4.72-1.72c.45-.72,1.07-1.31,2-.72s.57,1.37.16,2.11c-1.45,2.69-4.07,3.78-7.56,3a13.84,13.84,0,0,0-6.49-.21,4.57,4.57,0,0,1-1,.07c-.72,0-1.29-.23-1.4-1a1.31,1.31,0,0,1,.93-1.53A10.86,10.86,0,0,1,220.46,125.19Z"/><path class="cls-6" d="M244.84,148.63a12.59,12.59,0,0,1-2.09,7.49c-1.18,1.69-.94,2.35.87,3.23.75.37,1.54.66,2.28,1.05a.88.88,0,0,1,.52,1.15.85.85,0,0,1-1.22.59c-1.43-.71-3.12-.9-4.24-2.25s-1.34-2.62-.33-3.93a12.16,12.16,0,0,0,2.54-8.59,8.19,8.19,0,0,1,.13-1.42c.06-1.25-.07-1.83.08-1.87s.84,1.3,1.06,1.84a4.48,4.48,0,0,1,.4,1.45Z"/><path class="cls-6" d="M287.41,324.88l-.87,1.39c-.6,0-1.27.22-.72-.92.71-1.47-.16-2.9-.62-4.29-1.59-4.71-3.23-9.41-4.84-14.12-.11-.33-.45-.77,0-1s.82.3,1,.72c.91,2.39,1.82,4.77,2.68,7.18,1,2.8,1.93,5.63,2.92,8.44A6.41,6.41,0,0,1,287.41,324.88Z"/><path class="cls-6" d="M263.87,322.65a1.46,1.46,0,0,1,1.15-1.26,30.82,30.82,0,0,0,9.41-6.07c.42-.36.87-.69,1.3-1,.23-.18.45-.37.73-.13s.11.54,0,.77a5.58,5.58,0,0,1-2.34,2.3c-1.23.87-1.24.94-.08,1.83q1,.81,2,1.68c.33.29.57.72.27,1.1s-.7,0-1-.19a26,26,0,0,1-2.62-2.05,1.15,1.15,0,0,0-1.69-.1c-1.24.8-2.57,1.48-3.8,2.3a4.07,4.07,0,0,1-1.33.65A5.55,5.55,0,0,1,263.87,322.65Z"/><path class="cls-11" d="M230.71,139.09a9.67,9.67,0,0,1,1,1.78c.7,2.33.65,4.57-1.45,6.21a3.77,3.77,0,0,1-4.77.14,5.32,5.32,0,0,1-2.31-6,15.64,15.64,0,0,1,1.21-2.68c.09-.49.63-.6.84-1C227.33,137,229.37,136.77,230.71,139.09Z"/><path class="cls-11" d="M264.08,139.09a9.67,9.67,0,0,1,1,1.78c.7,2.33.65,4.57-1.45,6.21a3.77,3.77,0,0,1-4.77.14,5.32,5.32,0,0,1-2.31-6,15.64,15.64,0,0,1,1.21-2.68c.09-.49.63-.6.84-1C260.7,137,262.74,136.77,264.08,139.09Z"/></svg>